<svg width="275" height="216" viewBox="0 0 275 216" fill="none" xmlns="http://www.w3.org/2000/svg">
<path d="M41.0623 128.105C40.9142 127.897 40.766 127.689 40.6119 127.51C38.8891 125.215 37.0616 123.004 35.1294 120.875C35.1828 116.601 35.0761 100.423 30.7553 101.256C26.7665 102.028 31.9763 114.835 34.1989 119.882C33.3573 118.979 32.4979 118.097 31.6207 117.237C28.7046 113.444 18.9014 101.22 16.0327 104.526C13.3715 107.593 25.018 114.359 30.1389 117.118C31.0872 118.027 32.0178 118.955 32.9305 119.912C27.9934 117.439 15.6949 111.725 14.5984 115.631C13.413 119.864 29.4988 120.756 33.867 120.923C36.1379 123.38 38.2728 125.96 40.2622 128.652C35.8407 125.846 23.6133 118.515 22.1079 122.385C20.4957 126.547 36.8423 129.008 40.9319 129.561C43.0719 132.544 45.0504 135.64 46.8589 138.836C42.633 135.269 32.083 126.809 30.0974 130.328C27.9459 134.151 43.3205 138.854 47.5465 140.061C47.8369 140.59 48.1392 141.125 48.4118 141.66C49.8501 144.379 51.1817 147.154 52.4066 149.984C48.5778 146.22 38.3537 136.714 36.0955 140.144C33.6714 143.824 48.8326 149.627 52.8807 151.095C54.6893 155.41 56.2254 159.834 57.4801 164.342C54.2143 160.073 45.4305 149.24 42.716 152.314C39.8058 155.62 53.9772 163.497 57.8061 165.525C57.8594 165.715 57.9187 165.905 57.9661 166.119C58.3691 167.659 58.7603 169.217 59.0329 170.792C59.0641 170.905 59.1355 171.002 59.2335 171.065C59.3316 171.128 59.4493 171.153 59.5644 171.135C59.6794 171.116 59.7837 171.056 59.8573 170.965C59.9309 170.875 59.9687 170.76 59.9635 170.644C59.6968 169.08 59.3708 167.528 58.95 165.977C60.8881 162.065 67.7337 147.599 63.5019 146.464C59.6553 145.435 58.7603 158.688 58.5232 164.401C57.8001 161.821 56.9585 159.276 56.0695 156.785C55.4333 155.001 54.7576 153.232 54.0424 151.476C55.376 147.457 60.2302 131.957 55.8205 131.428C51.8257 130.941 52.857 144.46 53.4142 150.049C52.0154 146.751 50.4645 143.525 48.7615 140.37C49.8106 136.268 53.5742 120.465 49.1704 120.239C45.1045 120.037 47.1375 133.747 48.0977 139.163C46.2399 135.831 44.202 132.604 41.9929 129.496C42.473 125.037 43.8717 109.282 39.5332 109.686C35.6451 110.007 39.2842 122.611 41.0623 128.105Z" fill="#A66FD0"/>
<path d="M245.46 102.039C245.567 101.807 245.679 101.581 245.786 101.349C246.972 98.7335 248.034 96.066 248.975 93.347C252.744 91.3494 266.862 83.5313 264.065 80.1186C261.487 76.9736 252.762 87.6811 249.402 92.0509C249.797 90.8619 250.158 89.6728 250.486 88.4837C252.418 84.102 258.44 69.6251 254.167 68.6739C250.214 67.794 249.852 81.2899 249.876 87.1044C249.536 88.3767 249.166 89.6411 248.767 90.8975C248.578 85.3684 247.701 71.8011 243.759 72.7048C239.492 73.6798 246.391 88.2816 248.335 92.2114C247.265 95.4042 246.022 98.5361 244.613 101.593C244.962 96.3553 245.537 82.0746 241.43 82.5978C237.026 83.1626 242.663 98.7513 244.133 102.616C242.55 105.934 240.789 109.163 238.857 112.289C239.984 106.849 242.331 93.5194 238.3 93.454C233.92 93.3886 237.151 109.179 238.111 113.478C237.785 113.995 237.459 114.506 237.127 115.012C235.432 117.572 233.636 120.071 231.739 122.509C233.203 117.336 236.647 103.787 232.563 103.43C228.183 103.056 230.34 119.185 230.992 123.454C228.079 127.112 224.937 130.581 221.586 133.841C223.767 128.918 229.06 116.005 225.065 115.083C220.78 114.096 220.668 130.375 220.709 134.703C220.567 134.834 220.431 134.976 220.288 135.113C219.103 136.201 217.917 137.289 216.702 138.282C216.222 138.662 216.797 139.417 217.295 139.037C218.534 138.044 219.719 136.992 220.905 135.928C225.261 135.767 241.205 134.887 240.173 130.618C239.237 126.73 227.193 132.259 222.09 134.78C223.999 132.913 225.824 130.951 227.584 128.983C228.845 127.568 230.072 126.126 231.265 124.655C235.414 123.912 251.316 120.785 249.686 116.671C248.204 112.919 236.842 120.238 232.231 123.448C234.448 120.642 236.532 117.733 238.484 114.72C242.574 113.686 258.215 109.453 256.307 105.464C254.528 101.789 243.504 110.125 239.219 113.561C241.253 110.333 243.107 106.995 244.773 103.561C248.921 101.855 263.366 95.5587 260.947 91.932C258.719 88.6264 249.419 97.8773 245.46 102.039Z" fill="#A66FD0"/>
<path d="M72.4989 114.454C73.5849 111.989 74.3805 109.405 74.8697 106.755C74.7393 105.379 74.5417 104.046 74.277 102.754C74.0636 101.624 73.7969 100.536 73.5006 99.4599C72.7553 100.833 71.7856 102.071 70.6319 103.122C71.5223 101.097 72.215 98.9909 72.7004 96.8321C71.8601 94.4001 70.8007 92.0499 69.5354 89.8106C69.1777 91.1186 68.622 92.3638 67.8877 93.5027C68.1896 91.6214 68.3382 89.7185 68.3323 87.813C68.0892 87.4325 67.8581 87.0579 67.6032 86.6893C66.2052 84.6439 64.6326 82.7243 62.9031 80.9521C62.8016 82.4419 62.4738 83.9075 61.9311 85.2981C61.8911 83.3234 61.6929 81.3551 61.3384 79.4122C59.5254 77.7409 57.5677 76.2347 55.4885 74.9116C55.5809 76.3313 55.4691 77.757 55.1566 79.1447C54.8583 77.3761 54.4324 75.6315 53.8823 73.9247C51.88 72.7726 49.7914 71.7787 47.6352 70.952C47.9048 72.107 48.0263 73.2918 47.9968 74.4776C47.467 73.086 46.8534 71.7279 46.1594 70.411C44.4475 69.8161 42.7019 69.3237 40.9318 68.9366C38.8885 68.4643 36.8083 68.1699 34.7144 68.0566C34.0685 70.0568 33.5985 72.1098 33.3097 74.1922C33.0347 75.99 32.8665 77.8025 32.8059 79.6203C33.7815 80.7416 34.8246 81.8018 35.9295 82.7951C34.817 82.398 33.7595 81.8606 32.7822 81.1958C32.7816 83.5112 32.9619 85.8231 33.3216 88.1103C34.7147 89.2368 36.1864 90.262 37.7253 91.1781C36.3223 90.9785 34.955 90.578 33.6653 89.989C34.1515 92.4109 34.8517 94.7845 35.7576 97.0818C37.4361 98.1161 39.1941 99.0146 41.0148 99.7691C39.5077 99.7678 38.01 99.5311 36.5755 99.0675C37.6086 101.332 38.8382 103.5 40.2502 105.548C40.5051 105.917 40.7718 106.273 41.0385 106.63C42.8096 107.319 44.6331 107.864 46.4913 108.259C45.1683 108.534 43.8115 108.606 42.4669 108.473C44.0944 110.462 45.9019 112.295 47.8664 113.949C50.0496 114.271 52.259 114.378 54.4631 114.27C53.0697 114.972 51.5694 115.436 50.0238 115.643C50.9188 116.303 51.8434 116.945 52.8154 117.552C53.9297 118.253 55.1032 118.907 56.336 119.525C58.9728 120.02 61.658 120.206 64.3375 120.078C63.1288 120.705 61.8283 121.134 60.4849 121.351C60.8761 121.499 61.2673 121.648 61.6703 121.785C63.417 122.393 65.1983 122.898 67.0046 123.295C69.04 123.77 71.112 124.07 73.1983 124.193C73.8388 122.196 74.3029 120.147 74.5852 118.069C74.8585 116.243 75.0248 114.403 75.0831 112.557C75.0831 112.135 75.0831 111.719 75.0831 111.303C74.3879 112.48 73.5163 113.543 72.4989 114.454Z" fill="#662F90"/>
<mask id="mask0_1554_25954" style="mask-type:luminance" maskUnits="userSpaceOnUse" x="32" y="68" width="44" height="57">
<path d="M72.4989 114.454C73.5849 111.989 74.3805 109.405 74.8697 106.755C74.7393 105.379 74.5417 104.046 74.277 102.754C74.0636 101.624 73.7969 100.536 73.5006 99.4599C72.7553 100.833 71.7856 102.071 70.6319 103.122C71.5223 101.097 72.215 98.9909 72.7004 96.8321C71.8601 94.4001 70.8007 92.0499 69.5354 89.8106C69.1777 91.1186 68.622 92.3638 67.8877 93.5027C68.1896 91.6214 68.3382 89.7185 68.3323 87.813C68.0892 87.4325 67.8581 87.0579 67.6032 86.6893C66.2052 84.6439 64.6326 82.7243 62.9031 80.9521C62.8016 82.4419 62.4738 83.9075 61.9311 85.2981C61.8911 83.3234 61.6929 81.3551 61.3384 79.4122C59.5254 77.7409 57.5677 76.2347 55.4885 74.9116C55.5809 76.3313 55.4691 77.757 55.1566 79.1447C54.8583 77.3761 54.4324 75.6315 53.8823 73.9247C51.88 72.7726 49.7914 71.7787 47.6352 70.952C47.9048 72.107 48.0263 73.2918 47.9968 74.4776C47.467 73.086 46.8534 71.7279 46.1594 70.411C44.4475 69.8161 42.7019 69.3237 40.9318 68.9366C38.8885 68.4643 36.8083 68.1699 34.7144 68.0566C34.0685 70.0568 33.5985 72.1098 33.3097 74.1922C33.0347 75.99 32.8665 77.8025 32.8059 79.6203C33.7815 80.7416 34.8246 81.8018 35.9295 82.7951C34.817 82.398 33.7595 81.8606 32.7822 81.1958C32.7816 83.5112 32.9619 85.8231 33.3216 88.1103C34.7147 89.2368 36.1864 90.262 37.7253 91.1781C36.3223 90.9785 34.955 90.578 33.6653 89.989C34.1515 92.4109 34.8517 94.7845 35.7576 97.0818C37.4361 98.1161 39.1941 99.0146 41.0148 99.7691C39.5077 99.7678 38.01 99.5311 36.5755 99.0675C37.6086 101.332 38.8382 103.5 40.2502 105.548C40.5051 105.917 40.7718 106.273 41.0385 106.63C42.8096 107.319 44.6331 107.864 46.4913 108.259C45.1683 108.534 43.8115 108.606 42.4669 108.473C44.0944 110.462 45.9019 112.295 47.8664 113.949C50.0496 114.271 52.259 114.378 54.4631 114.27C53.0697 114.972 51.5694 115.436 50.0238 115.643C50.9188 116.303 51.8434 116.945 52.8154 117.552C53.9297 118.253 55.1032 118.907 56.336 119.525C58.9728 120.02 61.658 120.206 64.3375 120.078C63.1288 120.705 61.8283 121.134 60.4849 121.351C60.8761 121.499 61.2673 121.648 61.6703 121.785C63.417 122.393 65.1983 122.898 67.0046 123.295C69.04 123.77 71.112 124.07 73.1983 124.193C73.8388 122.196 74.3029 120.147 74.5852 118.069C74.8585 116.243 75.0248 114.403 75.0831 112.557C75.0831 112.135 75.0831 111.719 75.0831 111.303C74.3879 112.48 73.5163 113.543 72.4989 114.454Z" fill="white"/>
</mask>
<g mask="url(#mask0_1554_25954)">
<path d="M66.6431 81.8908L66.0504 81.8195C65.3633 89.189 62.7617 96.249 58.5054 102.295L53.2481 94.6198C60.4553 84.5662 59.5544 71.6411 59.5485 71.5103H58.9558C58.9558 71.6411 59.8389 84.1976 52.8807 94.055L48.2043 87.2297C55.3819 77.1227 48.5895 62.8123 48.5243 62.6696L47.985 62.9193C48.0502 63.056 54.5936 76.8432 47.819 86.6709L42.7989 79.3581C45.4364 69.2927 38.5907 56.6113 38.5196 56.4805L37.998 56.7599C38.0632 56.8848 44.5592 68.936 42.3247 78.6685L31.994 63.5911L31.5021 63.93L41.8387 79.0073C31.9762 77.6161 23.0857 67.2118 22.9968 67.1167L22.5464 67.5091C22.6412 67.622 32.0296 78.5733 42.3069 79.703L47.3271 87.0217C35.7517 89.8516 25.2609 78.7874 25.1602 78.6982L24.7334 79.1144C24.8401 79.2273 35.7102 90.7078 47.7064 87.6103L52.3887 94.4355C40.7244 97.4082 29.3446 92.1049 29.2261 92.0574L29.0068 92.6519C29.1194 92.7114 40.8608 98.1811 52.7681 95.03L58.0312 102.634C50.8804 104.449 43.3802 104.35 36.2792 102.349L36.1251 102.943C43.4019 104.995 51.0899 105.081 58.4105 103.193L62.3698 108.966C50.7292 112.052 42.0936 110.785 42.0106 110.749L41.9572 111.344C42.0462 111.344 50.8833 112.664 62.7491 109.477L67.0639 115.773C57.3081 118.348 50.0831 117.289 50.012 117.277L49.9587 117.872C50.0357 117.872 57.4682 118.978 67.4433 116.302L71.0409 121.552C67.5752 122.535 63.9613 122.883 60.3724 122.581L60.3309 123.175C60.5265 123.205 65.0725 123.817 71.4262 122.081L78.4319 132.307L78.9238 131.968L71.9122 121.838C75.7944 116.516 76.8553 112.022 76.9027 111.832L76.31 111.653C75.3121 115.123 73.6978 118.384 71.5447 121.279L67.953 116.035C74.0163 107.646 75.6581 100.292 75.6581 100.22L75.0654 100.042C75.0654 100.113 73.4473 107.26 67.5559 115.5L63.247 109.174C70.466 99.2037 72.416 90.4581 72.4338 90.3689L71.8411 90.1965C71.8411 90.2857 69.9089 98.8232 62.8676 108.627L58.9143 102.86C63.2911 96.6774 65.9577 89.4425 66.6431 81.8908Z" fill="#D2B7E7"/>
</g>
<path opacity="0.1" d="M68.3263 87.813C68.0833 87.4325 67.8522 87.0579 67.5973 86.6893C66.1992 84.6439 64.6266 82.7243 62.8972 80.9521C62.7957 82.4419 62.4679 83.9075 61.9252 85.2981C61.8851 83.3234 61.6869 81.3551 61.3325 79.4122C59.5195 77.7409 57.5618 76.2347 55.4826 74.9116C55.575 76.3313 55.4632 77.757 55.1506 79.1447C54.8524 77.3761 54.4265 75.6315 53.8763 73.9247C51.8741 72.7726 49.7854 71.7787 47.6293 70.952C47.8989 72.107 48.0204 73.2918 47.9909 74.4776C47.4611 73.086 46.8475 71.7279 46.1535 70.411C44.4416 69.8161 42.696 69.3237 40.9259 68.9366C38.8825 68.4643 36.8023 68.1699 34.7085 68.0566L73.1864 124.204C73.827 122.208 74.2911 120.159 74.5734 118.081C74.8467 116.255 75.0129 114.415 75.0712 112.569C75.0712 112.147 75.0712 111.731 75.0712 111.315C74.3814 112.491 73.5159 113.553 72.5048 114.466C73.5908 112.001 74.3864 109.417 74.8756 106.767C74.7452 105.391 74.5477 104.058 74.2829 102.766C74.0696 101.636 73.8028 100.548 73.5065 99.4718C72.7612 100.845 71.7915 102.083 70.6378 103.134C71.5282 101.109 72.221 99.0028 72.7064 96.844C71.866 94.412 70.8066 92.0618 69.5414 89.8225C69.1836 91.1305 68.6279 92.3757 67.8937 93.5146C68.1922 91.629 68.3369 89.7222 68.3263 87.813Z" fill="#662F90"/>
<path d="M233.683 166.362C236.364 166.467 239.047 166.255 241.679 165.732C242.904 165.105 244.071 164.44 245.181 163.734C246.148 163.139 247.066 162.468 247.955 161.802C246.408 161.608 244.903 161.156 243.504 160.464C245.708 160.554 247.916 160.427 250.095 160.084C252.039 158.412 253.825 156.563 255.429 154.56C254.086 154.704 252.73 154.644 251.405 154.382C253.261 153.972 255.08 153.411 256.846 152.705C257.107 152.343 257.373 151.986 257.622 151.617C259.003 149.562 260.207 147.392 261.22 145.131C259.801 145.579 258.322 145.81 256.834 145.815C258.649 145.046 260.399 144.132 262.067 143.08C262.952 140.767 263.631 138.379 264.094 135.945C262.813 136.556 261.449 136.975 260.046 137.188C261.578 136.26 263.042 135.222 264.426 134.085C264.763 131.792 264.922 129.476 264.901 127.158C263.943 127.837 262.901 128.386 261.801 128.793C262.901 127.794 263.936 126.726 264.901 125.595C264.824 123.778 264.64 121.967 264.349 120.173C264.041 118.093 263.554 116.044 262.891 114.049C260.798 114.181 258.72 114.494 256.68 114.982C254.913 115.387 253.171 115.895 251.464 116.504C250.79 117.827 250.196 119.189 249.686 120.583C249.643 119.398 249.755 118.213 250.018 117.057C247.869 117.908 245.788 118.924 243.795 120.095C243.258 121.807 242.848 123.555 242.568 125.327C242.238 123.944 242.112 122.52 242.194 121.1C240.129 122.443 238.186 123.965 236.386 125.648C236.033 127.593 235.834 129.563 235.793 131.54C235.237 130.156 234.897 128.694 234.786 127.206C233.074 128.995 231.519 130.928 230.139 132.985C229.89 133.353 229.659 133.734 229.422 134.114C229.429 136.021 229.594 137.924 229.914 139.804C229.173 138.669 228.608 137.428 228.236 136.124C226.99 138.372 225.952 140.73 225.136 143.169C225.636 145.324 226.344 147.425 227.252 149.441C226.09 148.402 225.111 147.174 224.354 145.809C224.07 146.885 223.809 147.979 223.607 149.108C223.362 150.405 223.183 151.74 223.068 153.116C223.572 155.76 224.384 158.336 225.486 160.791C224.463 159.891 223.587 158.836 222.89 157.664C222.89 158.08 222.89 158.496 222.92 158.918C222.991 160.763 223.174 162.601 223.465 164.424C223.767 166.499 224.248 168.544 224.905 170.535C226.991 170.397 229.062 170.079 231.093 169.584C232.885 169.171 234.65 168.651 236.38 168.027C236.775 167.884 237.17 167.735 237.565 167.581C236.215 167.384 234.904 166.973 233.683 166.362Z" fill="#662F90"/>
<mask id="mask1_1554_25954" style="mask-type:luminance" maskUnits="userSpaceOnUse" x="222" y="114" width="43" height="57">
<path d="M233.683 166.362C236.364 166.467 239.047 166.255 241.679 165.732C242.904 165.105 244.071 164.44 245.181 163.734C246.148 163.139 247.066 162.468 247.955 161.802C246.408 161.608 244.903 161.156 243.504 160.464C245.708 160.554 247.916 160.427 250.095 160.084C252.039 158.412 253.825 156.563 255.429 154.56C254.086 154.704 252.73 154.644 251.405 154.382C253.261 153.972 255.08 153.411 256.846 152.705C257.107 152.343 257.373 151.986 257.622 151.617C259.003 149.562 260.207 147.392 261.22 145.131C259.801 145.579 258.322 145.81 256.834 145.815C258.649 145.046 260.399 144.132 262.067 143.08C262.952 140.767 263.631 138.379 264.094 135.945C262.813 136.556 261.449 136.975 260.046 137.188C261.578 136.26 263.042 135.222 264.426 134.085C264.763 131.792 264.922 129.476 264.901 127.158C263.943 127.837 262.901 128.386 261.801 128.793C262.901 127.794 263.936 126.726 264.901 125.595C264.824 123.778 264.64 121.967 264.349 120.173C264.041 118.093 263.554 116.044 262.891 114.049C260.798 114.181 258.72 114.494 256.68 114.982C254.913 115.387 253.171 115.895 251.464 116.504C250.79 117.827 250.196 119.189 249.686 120.583C249.643 119.398 249.755 118.213 250.018 117.057C247.869 117.908 245.788 118.924 243.795 120.095C243.258 121.807 242.848 123.555 242.568 125.327C242.238 123.944 242.112 122.52 242.194 121.1C240.129 122.443 238.186 123.965 236.386 125.648C236.033 127.593 235.834 129.563 235.793 131.54C235.237 130.156 234.897 128.694 234.786 127.206C233.074 128.995 231.519 130.928 230.139 132.985C229.89 133.353 229.659 133.734 229.422 134.114C229.429 136.021 229.594 137.924 229.914 139.804C229.173 138.669 228.608 137.428 228.236 136.124C226.99 138.372 225.952 140.73 225.136 143.169C225.636 145.324 226.344 147.425 227.252 149.441C226.09 148.402 225.111 147.174 224.354 145.809C224.07 146.885 223.809 147.979 223.607 149.108C223.362 150.405 223.183 151.74 223.068 153.116C223.572 155.76 224.384 158.336 225.486 160.791C224.463 159.891 223.587 158.836 222.89 157.664C222.89 158.08 222.89 158.496 222.92 158.918C222.991 160.763 223.174 162.601 223.465 164.424C223.767 166.499 224.248 168.544 224.905 170.535C226.991 170.397 229.062 170.079 231.093 169.584C232.885 169.171 234.65 168.651 236.38 168.027C236.775 167.884 237.17 167.735 237.565 167.581C236.215 167.384 234.904 166.973 233.683 166.362Z" fill="white"/>
</mask>
<g mask="url(#mask1_1554_25954)">
<path d="M261.741 148.966L261.581 148.372C254.499 150.437 247.001 150.603 239.835 148.853L245.027 141.125C256.994 144.163 268.652 138.592 268.771 138.532L268.54 137.974C268.427 138.027 257.1 143.443 245.424 140.56L250.041 133.693C262.067 136.666 272.831 125.108 272.937 124.989L272.511 124.579C272.404 124.692 262.014 135.875 250.421 133.128L255.37 125.762C265.671 124.543 274.929 113.503 275.024 113.39L274.573 113.003C274.484 113.11 265.683 123.592 255.832 125.072L266.032 109.906L265.54 109.573L255.34 124.739C253.023 115.03 259.412 102.92 259.489 102.795L258.962 102.521C258.896 102.646 252.163 115.393 254.89 125.429L249.941 132.795C243.077 123.033 249.496 109.186 249.567 109.044L249.022 108.8C248.957 108.948 242.289 123.294 249.561 133.36L244.944 140.227C237.903 130.435 238.656 117.866 238.668 117.736H238.075C238.075 117.866 237.281 130.815 244.595 140.792L239.403 148.521C235.1 142.512 232.443 135.476 231.697 128.116L231.105 128.188C231.862 135.732 234.598 142.941 239.035 149.079L235.135 154.888C228.023 145.155 226.019 136.636 226.002 136.547L225.409 136.731C225.409 136.814 227.454 145.542 234.756 155.447L230.5 161.785C224.538 153.622 222.866 146.493 222.854 146.416L222.262 146.6C222.262 146.672 223.986 154.014 230.121 162.343L226.565 167.623C224.382 164.747 222.734 161.501 221.699 158.039L221.106 158.223C221.153 158.414 222.25 162.896 226.185 168.182L219.269 178.467L219.761 178.8L226.677 168.515C233.031 170.191 237.589 169.537 237.779 169.508L237.731 168.913C234.148 169.247 230.534 168.931 227.063 167.98L230.619 162.7C240.618 165.286 248.044 164.127 248.115 164.115L248.062 163.521C247.991 163.521 240.772 164.65 230.998 162.165L235.254 155.827C247.143 158.907 255.968 157.528 256.057 157.51L256.004 156.915C255.915 156.915 247.297 158.277 235.633 155.292L239.533 149.484C246.852 151.277 254.513 151.099 261.741 148.966Z" fill="#D2B7E7"/>
</g>
<path opacity="0.1" d="M256.863 152.705C257.124 152.343 257.391 151.986 257.64 151.617C259.021 149.562 260.224 147.392 261.238 145.131C259.818 145.579 258.34 145.81 256.852 145.815C258.667 145.046 260.417 144.132 262.085 143.08C262.97 140.767 263.648 138.379 264.112 135.945C262.831 136.556 261.467 136.975 260.064 137.188C261.596 136.26 263.06 135.222 264.444 134.085C264.781 131.792 264.94 129.476 264.918 127.158C263.955 127.838 262.907 128.388 261.801 128.793C262.9 127.794 263.936 126.726 264.9 125.595C264.824 123.778 264.639 121.967 264.349 120.173C264.041 118.093 263.553 116.044 262.891 114.049L224.911 170.53C226.997 170.391 229.067 170.073 231.099 169.578C232.89 169.165 234.656 168.645 236.386 168.021C236.781 167.878 237.176 167.729 237.571 167.575C236.228 167.37 234.925 166.953 233.713 166.338C236.393 166.443 239.077 166.231 241.708 165.708C242.933 165.082 244.101 164.416 245.211 163.71C246.177 163.116 247.096 162.444 247.985 161.778C246.437 161.585 244.933 161.132 243.534 160.44C245.738 160.531 247.945 160.403 250.124 160.06C252.069 158.388 253.854 156.539 255.459 154.537C254.116 154.68 252.759 154.62 251.434 154.358C253.286 153.955 255.101 153.402 256.863 152.705Z" fill="#662F90"/>
<path d="M136.149 216C211.341 216 272.297 211.459 272.297 205.858C272.297 200.256 211.341 195.715 136.149 195.715C60.9558 195.715 0 200.256 0 205.858C0 211.459 60.9558 216 136.149 216Z" fill="#EDF0FC"/>
<path d="M237.15 45.0176H64.3906V200.476H237.15V45.0176Z" fill="#F5F9FF"/>
<path d="M237.15 45.0176H64.3906V63.4006H237.15V45.0176Z" fill="#D0DBF7"/>
<path d="M78.3308 54.2093C78.3308 54.9077 78.1243 55.5905 77.7375 56.1713C77.3506 56.752 76.8008 57.2047 76.1575 57.472C75.5142 57.7393 74.8063 57.8092 74.1233 57.6729C73.4404 57.5367 72.8131 57.2003 72.3207 56.7064C71.8284 56.2125 71.493 55.5833 71.3572 54.8982C71.2214 54.2132 71.2911 53.5031 71.5575 52.8578C71.824 52.2125 72.2753 51.661 72.8542 51.2729C73.4332 50.8849 74.1139 50.6777 74.8102 50.6777C75.7439 50.6777 76.6394 51.0498 77.2996 51.7121C77.9599 52.3744 78.3308 53.2726 78.3308 54.2093Z" fill="#A66FD0"/>
<path d="M90.1848 54.2093C90.1848 54.9077 89.9783 55.5905 89.5915 56.1713C89.2046 56.752 88.6548 57.2047 88.0115 57.472C87.3682 57.7393 86.6603 57.8092 85.9773 57.6729C85.2944 57.5367 84.6671 57.2003 84.1747 56.7064C83.6824 56.2125 83.347 55.5833 83.2112 54.8982C83.0754 54.2132 83.1451 53.5031 83.4116 52.8578C83.678 52.2125 84.1293 51.661 84.7082 51.2729C85.2872 50.8849 85.9679 50.6777 86.6642 50.6777C87.5979 50.6777 88.4934 51.0498 89.1536 51.7121C89.8139 52.3744 90.1848 53.2726 90.1848 54.2093Z" fill="#A66FD0"/>
<path d="M102.039 54.2093C102.039 54.9077 101.832 55.5905 101.445 56.1713C101.059 56.752 100.509 57.2047 99.8655 57.472C99.2222 57.7393 98.5143 57.8092 97.8314 57.6729C97.1484 57.5367 96.5211 57.2003 96.0287 56.7064C95.5364 56.2125 95.2011 55.5833 95.0652 54.8982C94.9294 54.2132 94.9991 53.5031 95.2656 52.8578C95.532 52.2125 95.9833 51.661 96.5622 51.2729C97.1412 50.8849 97.8219 50.6777 98.5182 50.6777C98.9805 50.6777 99.4383 50.7691 99.8655 50.9466C100.293 51.124 100.681 51.3842 101.008 51.7121C101.335 52.04 101.594 52.4293 101.771 52.8578C101.948 53.2863 102.039 53.7455 102.039 54.2093Z" fill="#662F90"/>
<path d="M211.836 116.481C212.666 114.371 211.498 112.652 209.24 112.652H126.073C124.878 112.713 123.723 113.102 122.734 113.778C121.745 114.453 120.96 115.388 120.466 116.481L102.033 163.366C101.203 165.471 102.371 167.195 104.629 167.195H187.784C188.979 167.134 190.134 166.745 191.123 166.069C192.112 165.394 192.897 164.459 193.391 163.366L211.836 116.481Z" fill="#D2B7E7"/>
<path d="M98.0557 159.37L116.489 112.479C116.983 111.386 117.768 110.451 118.757 109.776C119.746 109.101 120.901 108.711 122.096 108.65H187.375V104.489C187.372 103.399 186.939 102.354 186.171 101.583C185.402 100.812 184.361 100.378 183.274 100.375H154.155C152.929 100.306 151.737 99.9417 150.681 99.3124C149.626 98.6831 148.737 97.8074 148.091 96.7598L144.126 89.4292C143.482 88.3814 142.595 87.5054 141.54 86.876C140.485 86.2466 139.294 85.8824 138.069 85.8145H100.652C99.5649 85.8176 98.5235 86.252 97.755 87.0229C96.9865 87.7938 96.5534 88.8384 96.5503 89.9286V159.073C96.5587 160.023 96.8908 160.941 97.4913 161.675C98.0919 162.41 98.9247 162.916 99.8516 163.11C98.1328 162.753 97.3327 161.207 98.0557 159.37Z" fill="#D2B7E7"/>
<path d="M158.476 125.625C155.409 125.625 152.411 126.537 149.862 128.246C147.312 129.955 145.324 132.384 144.151 135.226C142.977 138.068 142.67 141.195 143.269 144.212C143.867 147.229 145.344 150 147.512 152.176C149.68 154.351 152.443 155.832 155.451 156.432C158.458 157.032 161.576 156.724 164.409 155.547C167.242 154.37 169.664 152.376 171.368 149.819C173.071 147.261 173.981 144.254 173.981 141.178C173.981 137.053 172.347 133.097 169.439 130.18C166.532 127.264 162.588 125.625 158.476 125.625ZM166.062 146.547L163.828 148.788L158.493 143.437L153.159 148.788L150.925 146.547L156.259 141.196L150.925 135.845L153.159 133.604L158.493 138.954L163.828 133.604L166.062 135.845L160.728 141.196L166.062 146.547Z" fill="#A66FD0"/>
<path d="M61.8658 208.408C86.6944 208.408 106.822 205.11 106.822 201.042C106.822 196.974 86.6944 193.676 61.8658 193.676C37.0372 193.676 16.9097 196.974 16.9097 201.042C16.9097 205.11 37.0372 208.408 61.8658 208.408Z" fill="#A66FD0"/>
<path d="M74.5082 108.484H49.2296L29.8247 199.448C40.3739 201.605 51.1009 202.77 61.866 202.926C61.866 202.926 77.8155 202.926 93.9072 199.448L74.5082 108.484Z" fill="#D2B7E7"/>
<path d="M61.8658 110.417C68.8447 110.417 74.5021 109.552 74.5021 108.485C74.5021 107.418 68.8447 106.553 61.8658 106.553C54.887 106.553 49.2295 107.418 49.2295 108.485C49.2295 109.552 54.887 110.417 61.8658 110.417Z" fill="#A66FD0"/>
<mask id="mask2_1554_25954" style="mask-type:luminance" maskUnits="userSpaceOnUse" x="29" y="108" width="65" height="95">
<path d="M74.5082 108.484H49.2296L29.8247 199.448C40.3739 201.605 51.1009 202.77 61.866 202.926C61.866 202.926 77.8155 202.926 93.9072 199.448L74.5082 108.484Z" fill="white"/>
</mask>
<g mask="url(#mask2_1554_25954)">
<path d="M61.3147 195.429C35.3012 195.429 17.7336 191.065 16.6431 190.785L20.2645 176.517C20.6319 176.612 58.126 185.827 103.882 176.445L106.846 190.892C91.8591 193.934 76.6051 195.454 61.3147 195.429Z" fill="#A66FD0"/>
<path d="M61.3147 163.337C35.3012 163.337 17.7336 158.973 16.6431 158.694L20.2645 144.425C20.6319 144.52 58.126 153.735 103.882 144.354L106.846 158.801C91.8591 161.842 76.6051 163.362 61.3147 163.337Z" fill="#A66FD0"/>
<path d="M61.3147 131.243C35.3012 131.243 17.7336 126.879 16.6431 126.6L20.2645 112.331C20.6319 112.426 58.126 121.647 103.882 112.26L106.846 126.713C91.8585 129.75 76.6047 131.268 61.3147 131.243Z" fill="#A66FD0"/>
</g>
<path opacity="0.1" d="M77.6612 152.361C77.6612 172.135 73.5835 190.001 66.9927 202.76C76.0303 202.366 85.0223 201.25 93.8834 199.424L74.5081 108.484H69.9799C74.7867 120.5 77.6612 135.756 77.6612 152.361Z" fill="#662F90"/>
<g opacity="0.3">
<path d="M50.6044 122.515L49.2175 129.215C48.1072 134.586 46.9968 139.955 45.8865 145.321C44.5431 151.849 43.1957 158.375 41.8443 164.899L38.3533 181.742C37.7606 184.465 37.0968 187.188 36.6641 189.935C36.6641 189.971 36.6641 190.012 36.6641 190.048C36.2018 192.295 39.6928 192.932 40.1551 190.69L41.542 183.99C42.6484 178.623 43.7587 173.255 44.873 167.884C46.2204 161.36 47.5698 154.834 48.9211 148.306C50.0749 142.694 51.2346 137.079 52.4003 131.463C52.993 128.74 53.6568 126.017 54.0954 123.27C54.0932 123.232 54.0932 123.195 54.0954 123.157C54.5577 120.91 51.0667 120.274 50.6044 122.515Z" fill="white"/>
</g>
<path d="M226.396 176.793L142.732 200.396L144.177 205.55L227.841 181.947L226.396 176.793Z" fill="#662F90"/>
<path d="M227.81 176.077L189.596 187.018L191.065 192.18L229.279 181.239L227.81 176.077Z" fill="#A66FD0"/>
<path d="M230.54 207.467C245.356 206.278 256.405 193.267 255.22 178.406C254.035 163.545 241.064 152.461 226.248 153.65C211.433 154.839 200.384 167.85 201.569 182.711C202.754 197.573 215.725 208.656 230.54 207.467Z" fill="#A66FD0"/>
<path d="M248.284 187.471C253.14 176.546 248.248 163.741 237.356 158.87C226.465 153.999 213.699 158.906 208.843 169.832C203.987 180.757 208.88 193.562 219.771 198.433C230.662 203.304 243.428 198.396 248.284 187.471Z" fill="#D0DBF7"/>
<path d="M244.784 173.979L242.241 174.728C241.203 171.097 238.772 168.028 235.481 166.192C232.19 164.357 228.308 163.905 224.686 164.936L223.951 162.355C228.25 161.137 232.855 161.676 236.759 163.854C240.663 166.032 243.548 169.672 244.784 173.979Z" fill="white"/>
<path d="M208.558 44.0426L182.883 36.2305L167.443 87.3187L207.343 99.4472L218.593 62.2294L208.558 44.0426Z" fill="#E2E6FF"/>
<path d="M205.962 64.2341L204.131 60.7918L195.91 65.2032L191.512 56.957L188.081 58.7941L192.479 67.0403L184.258 71.4518L186.095 74.8941L194.316 70.4827L198.708 78.7288L202.139 76.8858L197.742 68.6396L205.962 64.2341Z" fill="#D2B7E7"/>
<path d="M140.422 9.06055L114.355 15.4339L126.95 67.2951L167.455 57.3961L158.28 19.6076L140.422 9.06055Z" fill="#E2E6FF"/>
<path d="M148.423 27.7715L145.098 25.7441L140.256 33.7347L132.29 28.8773L130.269 32.2067L138.229 37.07L133.387 45.0605L136.712 47.0879L141.554 39.0974L149.52 43.9547L151.541 40.6194L143.581 35.762L148.423 27.7715Z" fill="#D2B7E7"/>
<path d="M231.774 13.7328H225.148V7.08594H222.783V13.7328H216.157V16.0991H222.783V22.746H225.148V16.0991H231.774V13.7328Z" fill="#E2E6FF"/>
<path d="M246.616 36.6051H243.006V32.9844H241.72V36.6051H238.11V37.8893H241.72V41.51H243.006V37.8893H246.616V36.6051Z" fill="#E2E6FF"/>
<path d="M206.781 30.286H202.406V25.9043H200.854V30.286H196.479V31.8496H200.854V36.2313H202.406V31.8496H206.781V30.286Z" fill="#E2E6FF"/>
<path d="M41.2933 29.602H34.6669V22.9551H32.308V29.602H25.6816V31.9682H32.308V38.6151H34.6669V31.9682H41.2933V29.602Z" fill="#E2E6FF"/>
<path d="M70.2171 25.6363H66.6076V22.0156H65.3214V25.6363H61.7119V26.9265H65.3214V30.5472H66.6076V26.9265H70.2171V25.6363Z" fill="#E2E6FF"/>
<path d="M48.2395 55.161H43.8713V50.7793H42.3125V55.161H37.9443V56.7246H42.3125V61.1063H43.8713V56.7246H48.2395V55.161Z" fill="#E2E6FF"/>
<path d="M193.362 2.75332C193.362 3.03931 193.277 3.31887 193.119 3.55658C192.96 3.79429 192.735 3.97946 192.471 4.08863C192.208 4.1978 191.918 4.22606 191.639 4.16983C191.359 4.1136 191.102 3.97541 190.901 3.77277C190.7 3.57013 190.563 3.31215 190.508 3.03151C190.454 2.75087 190.483 2.4602 190.593 2.19632C190.703 1.93244 190.888 1.70722 191.126 1.54919C191.363 1.39116 191.643 1.30743 191.928 1.30861C192.309 1.31018 192.673 1.46308 192.942 1.73385C193.211 2.00462 193.362 2.37119 193.362 2.75332Z" fill="#D2B7E7"/>
<path d="M258.244 54.5375C258.244 55.0772 258.085 55.6048 257.786 56.0536C257.487 56.5024 257.062 56.8522 256.565 57.0587C256.068 57.2652 255.521 57.3193 254.993 57.214C254.465 57.1087 253.98 56.8488 253.6 56.4671C253.22 56.0855 252.96 55.5993 252.855 55.0699C252.751 54.5405 252.804 53.9919 253.01 53.4932C253.216 52.9946 253.565 52.5684 254.012 52.2685C254.46 51.9687 254.986 51.8086 255.524 51.8086C255.881 51.8078 256.235 51.8779 256.566 52.0147C256.896 52.1516 257.196 52.3526 257.449 52.6061C257.702 52.8597 257.902 53.1608 258.039 53.4923C258.175 53.8237 258.245 54.1789 258.244 54.5375Z" fill="#D2B7E7"/>
<path d="M172.12 17.7532C172.12 18.0378 172.036 18.316 171.878 18.5526C171.72 18.7892 171.496 18.9736 171.234 19.0825C170.972 19.1914 170.684 19.2199 170.405 19.1644C170.127 19.1088 169.872 18.9718 169.671 18.7706C169.47 18.5694 169.334 18.313 169.279 18.0339C169.223 17.7548 169.252 17.4655 169.36 17.2026C169.469 16.9397 169.653 16.715 169.888 16.5569C170.124 16.3988 170.402 16.3145 170.685 16.3145C170.874 16.3145 171.06 16.3517 171.234 16.424C171.408 16.4963 171.566 16.6023 171.7 16.7359C171.833 16.8695 171.938 17.0281 172.01 17.2026C172.083 17.3772 172.12 17.5643 172.12 17.7532Z" fill="#D2B7E7"/>
<path d="M90.3096 2.75234C90.3096 3.29207 90.1501 3.81968 89.8511 4.26844C89.5522 4.71721 89.1273 5.06698 88.6302 5.27353C88.1331 5.48007 87.5861 5.53412 87.0584 5.42882C86.5307 5.32352 86.0459 5.06362 85.6655 4.68197C85.285 4.30033 85.0259 3.81408 84.9209 3.28473C84.816 2.75537 84.8698 2.20668 85.0757 1.70804C85.2816 1.20939 85.6303 0.783196 86.0777 0.48334C86.5251 0.183484 87.0511 0.0234375 87.5891 0.0234375C88.3102 0.0250081 89.0012 0.313022 89.5111 0.824451C90.0209 1.33588 90.3081 2.02908 90.3096 2.75234Z" fill="#D2B7E7"/>
<path d="M100.877 31.6595C100.877 31.944 100.793 32.2222 100.635 32.4588C100.478 32.6954 100.254 32.8798 99.9915 32.9887C99.7294 33.0976 99.441 33.1261 99.1628 33.0706C98.8846 33.0151 98.629 32.8781 98.4284 32.6768C98.2278 32.4756 98.0912 32.2193 98.0359 31.9402C97.9805 31.6611 98.0089 31.3718 98.1175 31.1089C98.226 30.846 98.4099 30.6213 98.6458 30.4632C98.8816 30.3051 99.1589 30.2207 99.4426 30.2207C99.823 30.2207 100.188 30.3723 100.457 30.6421C100.726 30.9119 100.877 31.2779 100.877 31.6595Z" fill="#D2B7E7"/>
<path d="M16.9391 59.5658C16.9391 59.8516 16.8546 60.1309 16.6964 60.3685C16.5381 60.606 16.3132 60.7912 16.05 60.9006C15.7868 61.0099 15.4973 61.0385 15.2179 60.9828C14.9385 60.927 14.6819 60.7894 14.4804 60.5874C14.279 60.3853 14.1418 60.1279 14.0863 59.8477C14.0307 59.5674 14.0592 59.2769 14.1682 59.013C14.2772 58.749 14.4618 58.5233 14.6987 58.3646C14.9355 58.2058 15.214 58.1211 15.4989 58.1211C15.6882 58.1203 15.8758 58.1571 16.0509 58.2295C16.226 58.3018 16.3851 58.4082 16.519 58.5425C16.6529 58.6768 16.759 58.8364 16.8311 59.012C16.9032 59.1877 16.9399 59.3759 16.9391 59.5658Z" fill="#D2B7E7"/>
</svg>
