<svg width="368" height="198" viewBox="0 0 368 198" fill="none" xmlns="http://www.w3.org/2000/svg">
<path d="M166.069 111.595C162.152 111.595 96.1002 112.014 91.9784 111.883C91.6803 111.883 91.5185 111.456 91.8166 111.316C94.4311 110.06 97.4032 110.314 100.12 109.428C101.579 108.867 102.855 107.94 103.816 106.742C104.728 105.739 105.906 104.993 107.222 104.583C108.437 104.229 109.726 104.189 110.961 104.468C112.252 104.898 113.514 105.402 114.742 105.979C117.919 107.137 121.002 106.036 123.258 103.778C125.124 101.914 126.963 100.149 129.501 99.1469C130.538 98.6938 131.661 98.4519 132.8 98.4363C133.938 98.4208 135.068 98.6319 136.118 99.0565C138.545 100.116 140.206 102.243 142.48 103.524C145.179 105.043 148.441 104.681 151.379 105.166C154.317 105.65 156.651 108.048 159.265 109.436C160.119 109.952 161.102 110.236 162.109 110.257C162.681 110.205 163.249 110.126 163.813 110.019C164.229 109.909 164.669 109.91 165.084 110.023C165.5 110.136 165.876 110.356 166.172 110.659C166.359 110.848 166.333 111.595 166.069 111.595Z" fill="#DDDCDF"/>
<path d="M239.664 77.0254H127.838V197.545H239.664V77.0254Z" fill="#662F90"/>
<path d="M239.664 69.709H127.854V77.0254H239.664V69.709Z" fill="#DDDCDF"/>
<path d="M211.12 148.334H156.387V155.65H211.12V148.334Z" fill="#DDDCDF"/>
<path d="M160.839 94.4824H141.848V122.861H160.839V94.4824Z" fill="#EEEDEF"/>
<path d="M158.88 96.5605H143.807V120.784H158.88V96.5605Z" fill="white"/>
<path d="M163.555 122.869H139.131V126.95H163.555V122.869Z" fill="#DDDCDF"/>
<g opacity="0.5">
<path d="M158.891 96.5703V99.5675L143.809 114.102V108.575L156.259 96.5703H158.891Z" fill="#DDDCDF"/>
<path d="M158.891 114.529V117.297L155.255 120.795H152.394L158.891 114.529Z" fill="#DDDCDF"/>
<path d="M148.884 96.5703L143.809 101.464V98.6971L146.014 96.5703H148.884Z" fill="#DDDCDF"/>
<path d="M158.89 110.193V111.08L148.815 120.794H147.896L158.89 110.193Z" fill="#DDDCDF"/>
</g>
<path d="M160.839 110.816H141.848V112.894H160.839V110.816Z" fill="#EEEDEF"/>
<path d="M193.243 94.4824H174.252V122.861H193.243V94.4824Z" fill="#EEEDEF"/>
<path d="M191.287 96.5605H176.213V120.784H191.287V96.5605Z" fill="white"/>
<path d="M195.96 122.869H171.535V126.95H195.96V122.869Z" fill="#DDDCDF"/>
<g opacity="0.5">
<path d="M191.295 96.5703V99.5675L176.213 114.102V108.575L188.664 96.5703H191.295Z" fill="#DDDCDF"/>
<path d="M191.296 114.529V117.297L187.668 120.795H184.798L191.296 114.529Z" fill="#DDDCDF"/>
<path d="M181.289 96.5703L176.213 101.464V98.6971L178.41 96.5703H181.289Z" fill="#DDDCDF"/>
<path d="M191.296 110.193V111.08L181.222 120.794H180.302L191.296 110.193Z" fill="#DDDCDF"/>
</g>
<path d="M193.243 110.816H174.252V112.894H193.243V110.816Z" fill="#EEEDEF"/>
<path d="M225.648 94.4824H206.657V122.861H225.648V94.4824Z" fill="#EEEDEF"/>
<path d="M223.69 96.5605H208.616V120.784H223.69V96.5605Z" fill="white"/>
<path d="M228.364 122.869H203.939V126.95H228.364V122.869Z" fill="#DDDCDF"/>
<g opacity="0.5">
<path d="M223.698 96.5703V99.5675L208.616 114.102V108.575L221.067 96.5703H223.698Z" fill="#DDDCDF"/>
<path d="M223.699 114.529V117.297L220.071 120.795H217.201L223.699 114.529Z" fill="#DDDCDF"/>
<path d="M213.692 96.5703L208.616 101.464V98.6971L210.822 96.5703H213.692Z" fill="#DDDCDF"/>
<path d="M223.699 110.193V111.08L213.624 120.794H212.704L223.699 110.193Z" fill="#DDDCDF"/>
</g>
<path d="M225.648 110.816H206.657V112.894H225.648V110.816Z" fill="#EEEDEF"/>
<path d="M207.007 155.66H160.5V197.555H207.007V155.66Z" fill="#EEEDEF"/>
<path d="M203.872 158.746H163.633V197.545H203.872V158.746Z" fill="white"/>
<g opacity="0.5">
<path d="M203.872 174.939V182.149L187.904 197.546H180.427L203.872 174.939Z" fill="#DDDCDF"/>
<path d="M174.142 158.746L163.633 168.879V161.669L166.665 158.746H174.142Z" fill="#DDDCDF"/>
<path d="M196.591 158.746L163.633 190.533V186.928L192.86 158.746H196.591Z" fill="#DDDCDF"/>
<path d="M203.873 185.885V189.498L195.51 197.545H191.78L203.873 185.885Z" fill="#DDDCDF"/>
<path d="M203.871 162.352V163.008L168.061 197.546H167.362L203.871 162.352Z" fill="#DDDCDF"/>
<path d="M178.494 158.746L163.633 173.075V172.41L177.804 158.746H178.494Z" fill="#DDDCDF"/>
<path d="M191.166 158.746L163.633 185.302V184.62L190.467 158.746H191.166Z" fill="#DDDCDF"/>
</g>
<path d="M185.052 158.746H182.463V197.545H185.052V158.746Z" fill="#EEEDEF"/>
<path d="M127.84 101.299H33.0547V197.546H127.84V101.299Z" fill="#662F90"/>
<path d="M119.357 101.299H127.84V197.554H124.084L119.357 101.299Z" fill="#D2B7E7"/>
<path d="M60.4152 114.527H43.8086V139.342H60.4152V114.527Z" fill="#EEEDEF"/>
<path d="M58.7065 116.344H45.5234V137.521H58.7065V116.344Z" fill="white"/>
<path d="M62.7923 139.344H41.4336V142.908H62.7923V139.344Z" fill="#DDDCDF"/>
<g opacity="0.5">
<path d="M58.7026 116.342V118.961L45.5195 131.681V126.844L56.4033 116.342H58.7026Z" fill="#DDDCDF"/>
<path d="M58.7028 132.051V134.465L55.5262 137.528H53.0225L58.7028 132.051Z" fill="#DDDCDF"/>
<path d="M49.9565 116.342L45.5195 120.628V118.206L47.4442 116.342H49.9565Z" fill="#DDDCDF"/>
<path d="M58.7022 128.256V129.028L49.8964 137.527H49.0874L58.7022 128.256Z" fill="#DDDCDF"/>
</g>
<path d="M60.4152 128.801H43.8086V130.616H60.4152V128.801Z" fill="#EEEDEF"/>
<path d="M88.7492 114.527H72.1426V139.342H88.7492V114.527Z" fill="#EEEDEF"/>
<path d="M87.0366 116.344H73.8535V137.521H87.0366V116.344Z" fill="white"/>
<path d="M91.1262 139.344H69.7676V142.908H91.1262V139.344Z" fill="#DDDCDF"/>
<g opacity="0.5">
<path d="M87.0366 116.342V118.961L73.8535 131.681V126.844L84.7372 116.342H87.0366Z" fill="#DDDCDF"/>
<path d="M87.0368 132.051V134.465L83.8602 137.528H81.3564L87.0368 132.051Z" fill="#DDDCDF"/>
<path d="M78.2905 116.342L73.8535 120.628V118.206L75.7782 116.342H78.2905Z" fill="#DDDCDF"/>
<path d="M87.0362 128.256V129.028L78.2304 137.527H77.4214L87.0362 128.256Z" fill="#DDDCDF"/>
</g>
<path d="M88.7492 128.801H72.1426V130.616H88.7492V128.801Z" fill="#EEEDEF"/>
<path d="M117.083 114.527H100.477V139.342H117.083V114.527Z" fill="#EEEDEF"/>
<path d="M115.371 116.344H102.188V137.521H115.371V116.344Z" fill="white"/>
<path d="M119.46 139.344H98.1016V142.908H119.46V139.344Z" fill="#DDDCDF"/>
<g opacity="0.5">
<path d="M115.371 116.342V118.961L102.18 131.681V126.844L113.072 116.342H115.371Z" fill="#DDDCDF"/>
<path d="M115.371 132.051V134.465L112.195 137.528H109.691L115.371 132.051Z" fill="#DDDCDF"/>
<path d="M106.625 116.342L102.18 120.628V118.206L104.104 116.342H106.625Z" fill="#DDDCDF"/>
<path d="M115.371 128.256V129.028L106.556 137.527H105.756L115.371 128.256Z" fill="#DDDCDF"/>
</g>
<path d="M117.083 128.801H100.477V130.616H117.083V128.801Z" fill="#EEEDEF"/>
<path d="M60.4152 151.996H43.8086V176.811H60.4152V151.996Z" fill="#EEEDEF"/>
<path d="M58.7065 153.812H45.5234V174.99H58.7065V153.812Z" fill="white"/>
<path d="M62.7923 176.812H41.4336V180.376H62.7923V176.812Z" fill="#DDDCDF"/>
<g opacity="0.5">
<path d="M58.7026 153.812V156.432L45.5195 169.152V164.315L56.4033 153.812H58.7026Z" fill="#DDDCDF"/>
<path d="M58.7028 169.521V171.936L55.5262 174.999H53.0225L58.7028 169.521Z" fill="#DDDCDF"/>
<path d="M49.9565 153.812L45.5195 158.099V155.676L47.4442 153.812H49.9565Z" fill="#DDDCDF"/>
<path d="M58.7022 165.727V166.498L49.8964 174.997H49.0874L58.7022 165.727Z" fill="#DDDCDF"/>
</g>
<path d="M60.4152 166.268H43.8086V168.082H60.4152V166.268Z" fill="#EEEDEF"/>
<path d="M88.7492 151.996H72.1426V176.811H88.7492V151.996Z" fill="#EEEDEF"/>
<path d="M87.0366 153.812H73.8535V174.99H87.0366V153.812Z" fill="white"/>
<path d="M91.1262 176.812H69.7676V180.376H91.1262V176.812Z" fill="#DDDCDF"/>
<g opacity="0.5">
<path d="M87.0366 153.812V156.432L73.8535 169.152V164.315L84.7372 153.812H87.0366Z" fill="#DDDCDF"/>
<path d="M87.0368 169.52V171.934L83.8602 174.997H81.3564L87.0368 169.52Z" fill="#DDDCDF"/>
<path d="M78.2905 153.812L73.8535 158.099V155.676L75.7782 153.812H78.2905Z" fill="#DDDCDF"/>
<path d="M87.0362 165.727V166.498L78.2304 174.997H77.4214L87.0362 165.727Z" fill="#DDDCDF"/>
</g>
<path d="M88.7492 166.268H72.1426V168.082H88.7492V166.268Z" fill="#EEEDEF"/>
<path d="M117.083 151.996H100.477V176.811H117.083V151.996Z" fill="#EEEDEF"/>
<path d="M115.371 153.812H102.188V174.99H115.371V153.812Z" fill="white"/>
<path d="M119.46 176.812H98.1016V180.376H119.46V176.812Z" fill="#DDDCDF"/>
<g opacity="0.5">
<path d="M115.371 153.812V156.432L102.18 169.152V164.315L113.072 153.812H115.371Z" fill="#DDDCDF"/>
<path d="M115.371 169.52V171.934L112.195 174.997H109.691L115.371 169.52Z" fill="#DDDCDF"/>
<path d="M106.625 153.812L102.18 158.099V155.676L104.104 153.812H106.625Z" fill="#DDDCDF"/>
<path d="M115.371 165.727V166.498L106.556 174.997H105.756L115.371 165.727Z" fill="#DDDCDF"/>
</g>
<path d="M117.083 166.268H100.477V168.082H117.083V166.268Z" fill="#EEEDEF"/>
<path d="M127.83 93.9824H29.8164V101.299H127.83V93.9824Z" fill="#DDDCDF"/>
<path d="M239.614 197.555H334.399V101.308L239.614 101.308V197.555Z" fill="#662F90"/>
<path d="M248.096 101.299H239.614V197.554H243.37L248.096 101.299Z" fill="#D2B7E7"/>
<path d="M307.029 139.334H323.636V114.519H307.029V139.334Z" fill="#EEEDEF"/>
<path d="M308.74 137.52H321.923V116.342H308.74V137.52Z" fill="white"/>
<path d="M304.652 142.906H326.011V139.342H304.652V142.906Z" fill="#DDDCDF"/>
<g opacity="0.5">
<path d="M308.749 116.342V118.961L321.932 131.681V126.844L311.048 116.342H308.749Z" fill="#DDDCDF"/>
<path d="M308.749 132.051V134.465L311.917 137.528H314.429L308.749 132.051Z" fill="#DDDCDF"/>
<path d="M317.496 116.342L321.933 120.628V118.206L320.008 116.342H317.496Z" fill="#DDDCDF"/>
<path d="M308.749 128.256V129.028L317.555 137.527H318.364L308.749 128.256Z" fill="#DDDCDF"/>
</g>
<path d="M307.029 130.621H323.636V128.806H307.029V130.621Z" fill="#EEEDEF"/>
<path d="M278.704 139.334H295.311V114.519H278.704V139.334Z" fill="#EEEDEF"/>
<path d="M280.416 137.52H293.599V116.342H280.416V137.52Z" fill="white"/>
<path d="M276.328 142.906H297.687V139.342H276.328V142.906Z" fill="#DDDCDF"/>
<g opacity="0.5">
<path d="M280.416 116.342V118.961L293.599 131.681V126.844L282.715 116.342H280.416Z" fill="#DDDCDF"/>
<path d="M280.416 132.051V134.465L283.593 137.528H286.096L280.416 132.051Z" fill="#DDDCDF"/>
<path d="M289.163 116.342L293.6 120.628V118.206L291.675 116.342H289.163Z" fill="#DDDCDF"/>
<path d="M280.416 128.256V129.028L289.222 137.527H290.031L280.416 128.256Z" fill="#DDDCDF"/>
</g>
<path d="M278.704 130.621H295.311V128.806H278.704V130.621Z" fill="#EEEDEF"/>
<path d="M250.371 139.334H266.978V114.519H250.371V139.334Z" fill="#EEEDEF"/>
<path d="M252.082 137.52H265.265V116.342H252.082V137.52Z" fill="white"/>
<path d="M247.994 142.906H269.353V139.342H247.994V142.906Z" fill="#DDDCDF"/>
<g opacity="0.5">
<path d="M252.081 116.34V118.959L265.273 131.679V126.842L254.38 116.34H252.081Z" fill="#DDDCDF"/>
<path d="M252.081 132.049V134.463L255.258 137.526H257.761L252.081 132.049Z" fill="#DDDCDF"/>
<path d="M260.828 116.34L265.273 120.626V118.204L263.348 116.34H260.828Z" fill="#DDDCDF"/>
<path d="M252.081 128.254V129.026L260.895 137.525H261.696L252.081 128.254Z" fill="#DDDCDF"/>
</g>
<path d="M250.371 130.621H266.978V128.806H250.371V130.621Z" fill="#EEEDEF"/>
<path d="M307.029 176.812H323.636V151.997H307.029V176.812Z" fill="#EEEDEF"/>
<path d="M308.74 174.996H321.923V153.819H308.74V174.996Z" fill="white"/>
<path d="M304.652 180.375H326.011V176.811H304.652V180.375Z" fill="#DDDCDF"/>
<g opacity="0.5">
<path d="M308.749 153.812V156.432L321.932 169.152V164.315L311.048 153.812H308.749Z" fill="#DDDCDF"/>
<path d="M308.749 169.521V171.936L311.917 174.999H314.429L308.749 169.521Z" fill="#DDDCDF"/>
<path d="M317.496 153.812L321.933 158.099V155.676L320.008 153.812H317.496Z" fill="#DDDCDF"/>
<path d="M308.749 165.727V166.498L317.555 174.997H318.364L308.749 165.727Z" fill="#DDDCDF"/>
</g>
<path d="M307.029 168.09H323.636V166.275H307.029V168.09Z" fill="#EEEDEF"/>
<path d="M278.704 176.812H295.311V151.997H278.704V176.812Z" fill="#EEEDEF"/>
<path d="M280.416 174.996H293.599V153.819H280.416V174.996Z" fill="white"/>
<path d="M276.328 180.375H297.687V176.811H276.328V180.375Z" fill="#DDDCDF"/>
<g opacity="0.5">
<path d="M280.416 153.812V156.432L293.599 169.152V164.315L282.715 153.812H280.416Z" fill="#DDDCDF"/>
<path d="M280.416 169.521V171.936L283.593 174.999H286.096L280.416 169.521Z" fill="#DDDCDF"/>
<path d="M289.163 153.812L293.6 158.099V155.676L291.675 153.812H289.163Z" fill="#DDDCDF"/>
<path d="M280.416 165.727V166.498L289.222 174.997H290.031L280.416 165.727Z" fill="#DDDCDF"/>
</g>
<path d="M278.704 168.09H295.311V166.275H278.704V168.09Z" fill="#EEEDEF"/>
<path d="M250.371 176.812H266.978V151.997H250.371V176.812Z" fill="#EEEDEF"/>
<path d="M252.082 174.996H265.265V153.819H252.082V174.996Z" fill="white"/>
<path d="M247.994 180.375H269.353V176.811H247.994V180.375Z" fill="#DDDCDF"/>
<g opacity="0.5">
<path d="M252.081 153.812V156.432L265.273 169.152V164.315L254.38 153.812H252.081Z" fill="#DDDCDF"/>
<path d="M252.081 169.521V171.936L255.258 174.999H257.761L252.081 169.521Z" fill="#DDDCDF"/>
<path d="M260.828 153.812L265.273 158.099V155.676L263.348 153.812H260.828Z" fill="#DDDCDF"/>
<path d="M252.081 165.727V166.498L260.895 174.997H261.696L252.081 165.727Z" fill="#DDDCDF"/>
</g>
<path d="M250.371 168.09H266.978V166.275H250.371V168.09Z" fill="#EEEDEF"/>
<path d="M239.614 101.299L337.627 101.299V93.9824L239.614 93.9824V101.299Z" fill="#DDDCDF"/>
<path d="M0.257812 197.546C117.782 197.045 249.647 197.045 367.188 197.546C249.664 198.055 117.799 198.046 0.257812 197.546Z" fill="#121113"/>
<path d="M185.185 0.18338L127.83 69.709H239.664L185.185 0.18338Z" fill="#DDDCDF"/>
</svg>
