<svg width="24" height="24" viewBox="0 0 24 24" fill="none" xmlns="http://www.w3.org/2000/svg">
<circle cx="12" cy="12" r="12" fill="#D2B7E7"/>
<path d="M6.58633 15C6.52766 15 6.48233 14.984 6.45033 14.952C6.41833 14.9147 6.40233 14.8693 6.40233 14.816V9.592C6.40233 9.53333 6.41833 9.488 6.45033 9.456C6.48233 9.41867 6.52766 9.4 6.58633 9.4H8.53833C9.14099 9.4 9.61833 9.54133 9.97033 9.824C10.3223 10.1067 10.4983 10.5253 10.4983 11.08C10.4983 11.4907 10.3943 11.8267 10.1863 12.088C9.98366 12.344 9.70633 12.5227 9.35433 12.624L10.5863 14.752C10.6023 14.784 10.6103 14.8133 10.6103 14.84C10.6103 14.8827 10.5917 14.92 10.5543 14.952C10.5223 14.984 10.485 15 10.4423 15H10.0583C9.96766 15 9.90099 14.976 9.85833 14.928C9.81566 14.88 9.77833 14.832 9.74633 14.784L8.58633 12.752H7.18633V14.816C7.18633 14.8693 7.16766 14.9147 7.13033 14.952C7.09833 14.984 7.05299 15 6.99433 15H6.58633ZM7.18633 12.072H8.50633C8.90633 12.072 9.20499 11.9893 9.40233 11.824C9.59966 11.6533 9.69833 11.4027 9.69833 11.072C9.69833 10.7467 9.59966 10.4987 9.40233 10.328C9.21033 10.1573 8.91166 10.072 8.50633 10.072H7.18633V12.072ZM11.8221 15C11.7688 15 11.7234 14.984 11.6861 14.952C11.6541 14.9147 11.6381 14.8693 11.6381 14.816V9.592C11.6381 9.53333 11.6541 9.488 11.6861 9.456C11.7234 9.41867 11.7688 9.4 11.8221 9.4H12.2221C12.2861 9.4 12.3341 9.416 12.3661 9.448C12.3981 9.48 12.4194 9.50667 12.4301 9.528L14.1181 12.76L15.8221 9.528C15.8328 9.50667 15.8514 9.48 15.8781 9.448C15.9101 9.416 15.9581 9.4 16.0221 9.4H16.4141C16.4728 9.4 16.5181 9.41867 16.5501 9.456C16.5874 9.488 16.6061 9.53333 16.6061 9.592V14.816C16.6061 14.8693 16.5874 14.9147 16.5501 14.952C16.5181 14.984 16.4728 15 16.4141 15H16.0221C15.9688 15 15.9234 14.984 15.8861 14.952C15.8541 14.9147 15.8381 14.8693 15.8381 14.816V10.88L14.5021 13.488C14.4808 13.5413 14.4488 13.584 14.4061 13.616C14.3634 13.6427 14.3101 13.656 14.2461 13.656H13.9981C13.9288 13.656 13.8754 13.6427 13.8381 13.616C13.8008 13.584 13.7688 13.5413 13.7421 13.488L12.3981 10.88V14.816C12.3981 14.8693 12.3794 14.9147 12.3421 14.952C12.3101 14.984 12.2674 15 12.2141 15H11.8221Z" fill="#121113"/>
</svg>
