<svg width="302" height="225" viewBox="0 0 302 225" fill="none" xmlns="http://www.w3.org/2000/svg">
<g clip-path="url(#clip0_3602_79484)">
<path d="M302 198.023H0V198.175H302V198.023Z" fill="#EBEBEB"/>
<path d="M302 198.023H0V198.175H302V198.023Z" fill="#EBEBEB"/>
<path d="M271.74 207.752H251.735V207.903H271.74V207.752Z" fill="#EBEBEB"/>
<path d="M200.057 209.398H194.808V209.55H200.057V209.398Z" fill="#EBEBEB"/>
<path d="M251.131 202.141H239.541V202.292H251.131V202.141Z" fill="#EBEBEB"/>
<path d="M57.7728 203.156H31.686V203.307H57.7728V203.156Z" fill="#EBEBEB"/>
<path d="M135.99 205.709H79.4077V205.86H135.99V205.709Z" fill="#EBEBEB"/>
<path d="M93.2396 62.7291C100.663 62.7291 121.489 65.7528 121.489 54.5712C121.489 45.0586 111.311 45.7601 111.311 45.7601C111.311 45.7601 111.601 37.5175 102.535 36.4168C93.2396 35.292 91.8081 44.1757 91.8081 44.1757C91.8081 44.1757 75.6693 38.5032 78.1215 52.7388C78.1215 52.7388 69.1763 51.1604 69.1763 57.5767C69.2004 64.7369 86.046 62.711 93.2396 62.7291Z" fill="#F0F0F0"/>
<path d="M83.8836 147.411C98.9836 147.454 141.215 154.384 141.215 128.737C141.215 106.966 120.565 108.544 120.565 108.544C120.565 108.544 121.169 89.6584 102.759 87.1488C83.8836 84.5726 81.0146 104.977 81.0146 104.977C81.0146 104.977 48.2476 91.9867 53.2306 124.588C53.2306 124.588 35.0684 120.96 35.0684 135.643C35.0925 152.044 69.2789 147.369 83.8836 147.411Z" fill="#F5F5F5"/>
<path d="M140.182 149.679C131.847 149.679 108.466 153.537 108.466 139.35C108.466 127.291 119.894 128.18 119.894 128.18C119.894 128.18 119.562 117.73 129.745 116.345C140.182 114.918 141.759 126.209 141.759 126.209C141.759 126.209 159.879 119.018 157.131 137.058C157.131 137.058 167.175 135.05 167.175 143.172C167.175 152.243 148.264 149.655 140.182 149.679Z" fill="#F0F0F0"/>
<path d="M186.727 90.2342C195.044 90.2342 218.364 93.4453 218.364 81.6287C218.364 71.59 206.967 72.3278 206.967 72.3278C206.967 72.3278 207.293 63.6256 197.14 62.4705C186.727 61.261 185.15 70.6829 185.15 70.6829C185.15 70.6829 167.072 64.696 169.827 79.7177C169.827 79.7177 159.8 78.0486 159.8 84.8096C159.8 92.3689 178.669 90.216 186.727 90.2342Z" fill="#F0F0F0"/>
<path d="M161.926 197.95L174.079 119.061L210.222 73.373L222.544 21.3652C222.544 21.3652 252.418 50.2598 253.245 50.9976C254.073 51.7353 260.65 129.759 261.562 130.95C262.474 132.142 271.057 145.773 271.057 145.773L275.049 197.744L161.926 197.95Z" fill="#FAFAFA"/>
<path d="M161.926 197.951L179.249 129.778L203.79 106.356L208.386 136.007L214.571 102.281L221.589 113.777L220.061 74.1298L221.281 61.4484L225.401 69.8664L222.544 21.3359L243.37 21.8197L247.706 44.7273L253.245 50.9985L261.562 130.951L271.057 145.743L275.049 197.715L161.926 197.951Z" fill="#EBEBEB"/>
<path d="M223.087 21.6016L235.457 61.6778L242.832 67.5438C242.832 67.5438 246.716 83.8294 246.674 82.7893C246.631 81.7491 246.227 63.498 246.227 63.498L248.135 48.6093L243.303 22.0854L223.087 21.6016Z" fill="#F5F5F5"/>
<path d="M261.562 130.951L264.449 144.419L271.057 145.743L261.562 130.951Z" fill="#F5F5F5"/>
<path d="M215.06 170.833C228.276 170.869 265.313 176.947 265.313 154.463C265.313 135.365 247.193 136.768 247.193 136.768C247.193 136.768 247.719 120.216 231.586 118.021C215.042 115.765 212.548 133.648 212.548 133.648C212.548 133.648 183.834 122.26 188.201 150.84C188.201 150.84 172.285 147.659 172.285 160.516C172.303 174.897 202.268 170.797 215.06 170.833Z" fill="#F5F5F5"/>
<path d="M66.9776 203.156H63.1543V203.307H66.9776V203.156Z" fill="#EBEBEB"/>
<path d="M152.293 225C216.971 225 269.402 221.935 269.402 218.154C269.402 214.373 216.971 211.309 152.293 211.309C87.6148 211.309 35.1831 214.373 35.1831 218.154C35.1831 221.935 87.6148 225 152.293 225Z" fill="#F5F5F5"/>
<path d="M243.623 24.2688C243.623 27.074 242.51 29.7642 240.529 31.7478C238.548 33.7314 235.861 34.8457 233.06 34.8457C232.824 34.8457 232.588 34.8457 232.353 34.8457C229.681 34.6645 227.177 33.4739 225.349 31.5148C223.52 29.5557 222.503 26.9744 222.503 24.293C222.503 21.6116 223.52 19.0302 225.349 17.0711C227.177 15.1121 229.681 13.9215 232.353 13.7402C232.588 13.7402 232.824 13.7402 233.06 13.7402C235.853 13.7402 238.533 14.8479 240.512 16.821C242.492 18.7941 243.611 21.472 243.623 24.2688Z" fill="#BC93DC"/>
<path opacity="0.2" d="M242.204 24.2676C242.075 26.1903 241.387 28.0331 240.225 29.5697C239.064 31.1062 237.479 32.2694 235.666 32.9162C233.853 33.5631 231.89 33.6654 230.02 33.2105C228.15 32.7557 226.453 31.7636 225.138 30.3562C223.824 28.9487 222.948 27.1873 222.62 25.2885C222.292 23.3897 222.525 21.4362 223.291 19.6683C224.057 17.9003 225.322 16.395 226.931 15.3373C228.54 14.2796 230.422 13.7157 232.347 13.7148C235.02 13.8943 237.525 15.0841 239.356 17.0434C241.186 19.0026 242.204 21.585 242.204 24.2676Z" fill="white"/>
<path opacity="0.4" d="M239.629 27.2989C241.298 23.2629 239.384 18.6357 235.353 16.964C231.322 15.2922 226.7 17.2088 225.031 21.2448C223.361 25.2809 225.275 29.908 229.306 31.5798C233.337 33.2515 237.959 31.3349 239.629 27.2989Z" fill="white"/>
<path d="M180.512 121.408H144.773V218.185H180.512V121.408Z" fill="#BC93DC"/>
<path opacity="0.2" d="M154.865 121.311H144.767V218.202H154.865V121.311Z" fill="#121113"/>
<path d="M144.73 160.111H108.992V218.185H144.73V160.111Z" fill="#BC93DC"/>
<path opacity="0.2" d="M119.731 160.111H108.992V218.124H119.731V160.111Z" fill="#121113"/>
<path d="M108.962 172.441H73.2231V218.184H108.962V172.441Z" fill="#BC93DC"/>
<path opacity="0.2" d="M83.8535 172.441H73.2231V218.124H83.8535V172.441Z" fill="#121113"/>
<path d="M73.2108 184.773H37.4722V218.185H73.2108V184.773Z" fill="#BC93DC"/>
<path opacity="0.2" d="M47.5769 184.742H37.478V218.124H47.5769V184.742Z" fill="#121113"/>
<path d="M134.644 46.6445C132.947 48.7006 131.195 50.7144 129.449 52.6919L128.127 54.1917L126.919 55.5161C126.423 56.1113 126.105 56.8344 126.001 57.6024L125.602 61.5091C125.469 62.8334 125.336 64.1578 125.185 65.4762C124.889 68.1249 124.581 70.7737 124.231 73.4164C124.175 73.8335 123.965 74.2146 123.644 74.4856C123.322 74.7565 122.911 74.8978 122.491 74.882C122.071 74.8661 121.672 74.6942 121.372 74.3998C121.071 74.1054 120.891 73.7095 120.867 73.2894C120.716 70.6286 120.613 67.9677 120.522 65.3129C120.468 63.9824 120.444 62.652 120.408 61.3276L120.317 57.2698C120.362 55.3717 120.955 53.5273 122.026 51.9602L123.337 50.1883L124.545 48.6039C126.145 46.4994 127.752 44.3707 129.377 42.3388C129.938 41.6395 130.753 41.1918 131.643 41.0943C132.533 40.9968 133.426 41.2573 134.124 41.8187C134.823 42.38 135.27 43.1962 135.367 44.0876C135.465 44.979 135.204 45.8727 134.644 46.572V46.6445Z" fill="#BC93DC"/>
<path d="M120.468 73.622L118.257 77.3774L123.343 77.8915L124.237 74.0816C124.263 73.9746 124.266 73.8635 124.247 73.7551C124.229 73.6467 124.188 73.5432 124.128 73.451C124.068 73.3588 123.99 73.2797 123.899 73.2187C123.808 73.1576 123.705 73.1158 123.597 73.0959C123.066 72.9721 122.517 72.9549 121.98 73.0452C121.443 73.1356 120.929 73.3316 120.468 73.622Z" fill="#CB7A63"/>
<path d="M118.257 77.377L118.493 78.7013C118.547 79.019 118.712 79.3071 118.959 79.5142C119.206 79.7213 119.518 79.834 119.84 79.8322H121.495C121.743 79.8313 121.986 79.7635 122.198 79.6357C122.411 79.508 122.585 79.3252 122.703 79.1065L123.349 77.897L118.257 77.377Z" fill="#CB7A63"/>
<path d="M120.105 70.8086L124.998 70.9719L124.684 73.8988L120.552 73.5783L120.105 70.8086Z" fill="#BC93DC"/>
<path opacity="0.3" d="M120.105 70.8086L124.998 70.9719L124.684 73.8988L120.552 73.5783L120.105 70.8086Z" fill="white"/>
<path d="M125.028 101.53L124.224 102.739L123.62 101.488L125.088 82.4987C125.318 79.475 124.303 77.0016 120.552 76.9109C117.043 76.8262 114.917 79.2271 114.669 82.2387L113.135 101.191L112.295 102.401L111.722 101.155L113.268 82.2084C113.552 78.707 115.08 75.8949 120.625 76.028C126.169 76.161 126.767 79.0517 126.496 82.541L125.028 101.53Z" fill="#263238"/>
<path d="M109.493 88.7208H108.527C107.55 88.7156 106.605 89.0681 105.87 89.7119C105.134 90.3556 104.659 91.2463 104.534 92.2162L102.722 105.895L109.016 106.119L109.493 88.7208Z" fill="#263238"/>
<path opacity="0.2" d="M109.493 88.7208H108.527C107.55 88.7156 106.605 89.0681 105.87 89.7119C105.134 90.3556 104.659 91.2463 104.534 92.2162L102.722 105.895L109.016 106.119L109.493 88.7208Z" fill="white"/>
<path d="M127.263 101.688L125.844 101.652L125.983 82.663C125.983 79.6393 124.811 77.1659 121.054 77.0691C117.539 76.9844 115.582 79.3853 115.545 82.3969L115.364 101.356L113.945 101.313L114.168 82.3666C114.211 78.8591 115.57 76.0531 121.096 76.1862C126.623 76.3192 127.444 79.2099 127.42 82.6992L127.263 101.688Z" fill="#263238"/>
<path d="M133.931 106.858L105.966 106.023L106.232 91.9084C106.233 91.4836 106.319 91.0634 106.484 90.6723C106.65 90.2812 106.891 89.927 107.195 89.6303C107.499 89.3336 107.858 89.1005 108.253 88.9444C108.647 88.7884 109.069 88.7126 109.493 88.7214L129.86 89.2536C130.978 89.2944 132.037 89.7702 132.81 90.5798C133.584 91.3894 134.012 92.4691 134.003 93.5896L133.931 106.858Z" fill="#263238"/>
<path opacity="0.4" d="M130.833 106.767L109.04 106.114C108.215 106.076 107.437 105.716 106.872 105.112C106.308 104.507 106.002 103.706 106.02 102.878L106.244 91.9084C106.245 91.4836 106.331 91.0634 106.497 90.6723C106.662 90.2812 106.904 89.927 107.207 89.6303C107.511 89.3336 107.87 89.1005 108.265 88.9444C108.66 88.7884 109.081 88.7126 109.505 88.7214L129.872 89.2536C130.991 89.2944 132.049 89.7702 132.823 90.5798C133.596 91.3894 134.024 92.4691 134.016 93.5896L133.955 103.695C133.962 104.105 133.886 104.512 133.73 104.891C133.575 105.271 133.344 105.614 133.052 105.902C132.76 106.189 132.413 106.414 132.031 106.563C131.65 106.711 131.242 106.781 130.833 106.767Z" fill="white"/>
<g opacity="0.3">
<path d="M127.263 101.688L126.544 102.897L125.844 101.627L125.983 82.6386C125.983 79.6149 124.811 77.1415 121.054 77.0447C117.539 76.9601 115.582 79.3609 115.545 82.3725L115.364 101.355L114.609 102.565L113.945 101.319L114.168 82.3725C114.211 78.865 115.57 76.059 121.096 76.192C126.623 76.3251 127.444 79.2158 127.42 82.7051L127.263 101.688Z" fill="white"/>
</g>
<path d="M115.811 94.0254L113.479 93.965L113.492 93.082L115.823 93.1486L115.811 94.0254Z" fill="#263238"/>
<path d="M115.751 99.7227L113.413 99.6562L113.425 98.7793L115.763 98.8398L115.751 99.7227Z" fill="#263238"/>
<path d="M127.794 94.3516L125.451 94.2851L125.457 93.4082L127.8 93.4687L127.794 94.3516Z" fill="#263238"/>
<path d="M127.752 100.061L125.409 99.9943L125.415 99.1113L127.758 99.1779L127.752 100.061Z" fill="#263238"/>
<path d="M123.331 94.7327L118.33 94.5936L118.348 92.7129L123.349 92.8459L123.331 94.7327Z" fill="white"/>
<path d="M144.924 25.43C145.117 25.3937 145.322 25.5933 145.383 25.8896C145.443 26.186 145.346 26.452 145.153 26.4944C144.96 26.5367 144.755 26.3311 144.694 26.0408C144.634 25.7505 144.73 25.4603 144.924 25.43Z" fill="#263238"/>
<path d="M144.96 25.6719C145.164 25.5613 145.324 25.3841 145.413 25.1699C145.249 25.3231 145.033 25.4094 144.809 25.4118C144.852 25.4409 144.888 25.4794 144.914 25.5245C144.941 25.5695 144.956 25.6199 144.96 25.6719Z" fill="#263238"/>
<path d="M145.347 28.6289C145.597 28.6395 145.846 28.5946 146.077 28.4974C146.308 28.4002 146.514 28.253 146.682 28.0665C145.943 27.4235 145.295 26.683 144.755 25.8652L145.347 28.6289Z" fill="#B74D3C"/>
<path d="M143.305 24.9452C143.443 24.7728 143.621 24.6357 143.822 24.5453C144.024 24.4549 144.244 24.4137 144.465 24.4251H144.525C144.549 24.4251 144.572 24.4204 144.593 24.4112C144.615 24.402 144.635 24.3886 144.651 24.3716C144.667 24.3547 144.68 24.3346 144.689 24.3127C144.697 24.2907 144.701 24.2672 144.7 24.2437C144.699 24.1966 144.679 24.152 144.645 24.1193C144.611 24.0866 144.566 24.0683 144.519 24.0683C144.243 24.0458 143.966 24.0889 143.71 24.1939C143.454 24.299 143.226 24.4632 143.045 24.673C143.019 24.7058 143.004 24.7461 143.003 24.788C143.004 24.8356 143.024 24.8809 143.058 24.9146C143.091 24.9483 143.137 24.9679 143.184 24.9694C143.226 24.9762 143.269 24.9676 143.305 24.9452Z" fill="#263238"/>
<path d="M141.469 42.4217C136.444 42.4761 135.67 39.7367 135.67 39.7367C137.168 38.2732 137.241 35.5881 136.921 33.1934C137.326 33.759 137.831 34.245 138.413 34.6266C139.621 35.4188 142.224 34.1489 142.224 34.1489C142.224 34.1489 142.224 34.5903 142.26 35.2374C142.339 36.8037 142.683 39.5552 144.108 39.9846C144.108 39.9846 147.007 42.3612 141.469 42.4217Z" fill="#CB7A63"/>
<path d="M142.297 34.5542C142.248 34.784 142.194 35.0199 142.158 35.2618C142.138 35.2667 142.117 35.2667 142.097 35.2618C141.472 35.4152 140.822 35.4358 140.188 35.3222C139.555 35.2087 138.952 34.9636 138.419 34.6026C137.833 34.2244 137.325 33.738 136.921 33.1694C136.842 32.5647 136.734 31.9599 136.625 31.4277L142.097 34.4514L142.297 34.5542Z" fill="#CB7A63"/>
<path d="M145.896 30.4489C145.882 31.3139 145.647 32.1609 145.215 32.9101C144.783 33.6592 144.167 34.2857 143.426 34.7305C143.053 34.967 142.645 35.1426 142.218 35.2505C142.198 35.2554 142.177 35.2554 142.157 35.2505C141.532 35.4039 140.882 35.4245 140.248 35.311C139.615 35.1975 139.012 34.9523 138.479 34.5914C137.893 34.2132 137.385 33.7267 136.981 33.1581C135.997 31.8035 135.586 30.0014 134.879 27.4615C134.64 26.6403 134.614 25.7715 134.805 24.9376C134.995 24.1038 135.395 23.3325 135.967 22.6969C136.539 22.0614 137.264 21.5827 138.072 21.3063C138.881 21.0299 139.746 20.965 140.587 21.1177C144.356 21.8313 145.975 27.0503 145.896 30.4489Z" fill="#CB7A63"/>
<path opacity="0.2" d="M143.148 34.8336C142.879 35.0223 142.578 35.1597 142.26 35.2387C142.224 34.5917 142.23 34.1502 142.224 34.1502L142.296 33.0254C142.296 33.0254 142.888 34.8336 143.148 34.8336Z" fill="#121113"/>
<path d="M144.58 23.6157C144.169 24.2688 142.882 24.8251 142.925 24.6679C143.148 24.1297 143.106 23.0895 142.435 23.3314C142.623 23.7487 143.178 26.851 142.925 27.232C142.786 27.4376 142.659 29.9171 141.602 32.1123C140.762 33.86 140.762 34.3982 140.762 34.3982L137.332 35.0634C136.045 34.9001 134.849 33.2492 134.746 33.0799C134.293 32.3058 132.934 31.2656 132.21 30.7516C131.899 30.5111 131.664 30.1855 131.533 29.8143C131.298 29.1551 131.781 26.7905 131.884 25.6597C132.035 24.0571 132.874 22.5695 135.206 21.614C136.643 21.0092 137.851 19.7272 139.325 19.195C140.048 18.9048 140.83 18.7939 141.605 18.8719C142.38 18.9498 143.125 19.2142 143.776 19.6425C144.386 20.0961 145.606 21.9587 144.58 23.6157Z" fill="#263238"/>
<path d="M142.786 25.8476C143.843 26.162 144.392 27.7223 144.441 28.708C144.489 29.8026 143.764 30.5222 142.81 29.7602C142.092 29.197 141.578 28.4129 141.348 27.5287C141.095 26.4583 141.729 25.5391 142.786 25.8476Z" fill="#CB7A63"/>
<path d="M144.06 29.493C144.058 29.6154 144.009 29.7323 143.922 29.8184C143.834 29.9044 143.717 29.9526 143.595 29.9526C143.473 29.9526 143.356 29.9042 143.27 29.818C143.184 29.7318 143.136 29.6149 143.136 29.493C143.136 29.3705 143.184 29.253 143.27 29.1659C143.356 29.0787 143.472 29.0289 143.595 29.0273C143.718 29.0289 143.835 29.0785 143.922 29.1655C144.009 29.2525 144.058 29.37 144.06 29.493Z" fill="#BC93DC"/>
<path opacity="0.3" d="M144.06 29.493C144.058 29.6154 144.009 29.7323 143.922 29.8184C143.834 29.9044 143.717 29.9526 143.595 29.9526C143.473 29.9526 143.356 29.9042 143.27 29.818C143.184 29.7318 143.136 29.6149 143.136 29.493C143.136 29.3705 143.184 29.253 143.27 29.1659C143.356 29.0787 143.472 29.0289 143.595 29.0273C143.718 29.0289 143.835 29.0785 143.922 29.1655C144.009 29.2525 144.058 29.37 144.06 29.493Z" fill="white"/>
<path d="M134.233 41.5519C134.233 41.5519 135.013 39.1329 136.19 38.377C137.368 37.6211 142.538 38.377 143.348 38.7277C144.157 39.0785 144.96 40.9109 144.96 40.9109L134.233 41.5519Z" fill="#BC93DC"/>
<path opacity="0.3" d="M134.233 41.5519C134.233 41.5519 135.013 39.1329 136.19 38.377C137.368 37.6211 142.538 38.377 143.348 38.7277C144.157 39.0785 144.96 40.9109 144.96 40.9109L134.233 41.5519Z" fill="white"/>
<path d="M146.035 40.5466C145.394 40.399 144.745 40.2899 144.09 40.22C141.317 40.0869 138.538 40.1172 135.767 40.3107C134.77 40.3944 133.782 40.5623 132.814 40.8127C131.856 41.0425 131.011 41.6062 130.43 42.4028C129.849 43.1995 129.57 44.1771 129.643 45.1608C130.053 50.8211 131.721 54.1472 131.968 57.8603C132.243 62.6626 131.941 67.4807 131.068 72.2108L134.873 72.8156C140.052 72.7656 145.167 71.6715 149.913 69.5983C149.913 69.5983 148.928 60.624 149.877 57.3886C152.468 48.5473 150.783 47.1504 150.275 44.6225C150.066 43.5924 149.548 42.6507 148.79 41.9226C148.033 41.1945 147.072 40.7145 146.035 40.5466Z" fill="#BC93DC"/>
<path opacity="0.1" d="M149.883 57.3587C149.56 58.8294 149.422 60.3348 149.472 61.8399C149.472 65.4683 149.919 69.5745 149.919 69.5745C145.174 71.6505 140.058 72.7448 134.879 72.7917L131.074 72.187C131.943 67.4522 132.245 62.6307 131.974 57.8244C131.721 54.0992 130.053 50.7792 129.643 45.1248C129.57 44.1411 129.849 43.1635 130.43 42.3669C131.011 41.5703 131.856 41.0066 132.814 40.7767C133.782 40.5264 134.77 40.3585 135.767 40.2748C138.538 40.0853 141.316 40.053 144.09 40.178C144.744 40.2528 145.394 40.3638 146.035 40.5106C147.07 40.6808 148.028 41.1618 148.783 41.8897C149.538 42.6176 150.054 43.5582 150.263 44.5866C150.445 45.4937 150.783 46.2617 151.012 47.2716C151.38 49.0956 151.361 50.9766 150.958 52.7929C150.685 54.3337 150.326 55.8581 149.883 57.3587Z" fill="white"/>
<path d="M147.129 40.2511C148.518 40.4446 149.895 40.7228 151.272 40.9526C152.649 41.1824 154.026 41.4968 155.398 41.7931L154.902 41.7508C155.506 41.7508 156.056 41.8234 156.394 41.8476C156.557 41.8476 156.672 41.8476 156.63 41.8839C156.587 41.9201 156.539 41.9201 156.448 41.9806C156.295 42.0636 156.156 42.172 156.038 42.3011C155.797 42.5326 155.643 42.8402 155.603 43.172C155.603 43.311 155.645 43.2748 155.651 43.172C155.66 42.8137 155.621 42.4558 155.536 42.1076L155.597 42.283C154.9 40.2672 154.246 38.2373 153.634 36.1933C153.03 34.1432 152.48 32.075 152.082 29.9463C152.016 29.6011 152.074 29.2439 152.244 28.9365C152.414 28.6292 152.685 28.391 153.012 28.2632C153.339 28.1355 153.7 28.1262 154.033 28.237C154.366 28.3477 154.65 28.5716 154.836 28.8698C155.983 30.6841 156.974 32.6011 157.934 34.5121C158.895 36.423 159.746 38.3582 160.622 40.3115L160.689 40.493C160.968 41.1802 161.17 41.8961 161.293 42.6277C161.375 43.1708 161.375 43.7234 161.293 44.2665C161.156 45.1383 160.748 45.9446 160.127 46.5706C159.806 46.8863 159.44 47.1514 159.04 47.3568C158.735 47.5121 158.415 47.6358 158.085 47.7257C157.631 47.8501 157.166 47.9331 156.696 47.9736C155.941 48.0462 155.385 48.0462 154.884 48.0764H154.806L154.389 48.028C152.994 47.8829 151.598 47.7136 150.209 47.5382C148.82 47.3628 147.431 47.1693 146.048 46.9334C145.227 46.7293 144.512 46.224 144.045 45.5175C143.578 44.8111 143.394 43.9549 143.527 43.1185C143.661 42.2821 144.103 41.5264 144.767 41.001C145.431 40.4755 146.267 40.2187 147.111 40.2813L147.129 40.2511Z" fill="#BC93DC"/>
<g opacity="0.1">
<path d="M147.129 40.2511C148.518 40.4446 149.895 40.7228 151.272 40.9526C152.649 41.1824 154.026 41.4968 155.398 41.7931L154.902 41.7508C155.506 41.7508 156.056 41.8234 156.394 41.8476C156.557 41.8476 156.672 41.8476 156.63 41.8839C156.587 41.9201 156.539 41.9201 156.448 41.9806C156.295 42.0636 156.156 42.172 156.038 42.3011C155.797 42.5326 155.643 42.8402 155.603 43.172C155.603 43.311 155.645 43.2748 155.651 43.172C155.66 42.8137 155.621 42.4558 155.536 42.1076L155.597 42.283C154.9 40.2672 154.246 38.2373 153.634 36.1933C153.03 34.1432 152.48 32.075 152.082 29.9463C152.016 29.6011 152.074 29.2439 152.244 28.9365C152.414 28.6292 152.685 28.391 153.012 28.2632C153.339 28.1355 153.7 28.1262 154.033 28.237C154.366 28.3477 154.65 28.5716 154.836 28.8698C155.983 30.6841 156.974 32.6011 157.934 34.5121C158.895 36.423 159.746 38.3582 160.622 40.3115L160.689 40.493C160.968 41.1802 161.17 41.8961 161.293 42.6277C161.375 43.1708 161.375 43.7234 161.293 44.2665C161.156 45.1383 160.748 45.9446 160.127 46.5706C159.806 46.8863 159.44 47.1514 159.04 47.3568C158.735 47.5121 158.415 47.6358 158.085 47.7257C157.631 47.8501 157.166 47.9331 156.696 47.9736C155.941 48.0462 155.385 48.0462 154.884 48.0764H154.806L154.389 48.028C152.994 47.8829 151.598 47.7136 150.209 47.5382C148.82 47.3628 147.431 47.1693 146.048 46.9334C145.227 46.7293 144.512 46.224 144.045 45.5175C143.578 44.8111 143.394 43.9549 143.527 43.1185C143.661 42.2821 144.103 41.5264 144.767 41.001C145.431 40.4755 146.267 40.2187 147.111 40.2813L147.129 40.2511Z" fill="white"/>
</g>
<path d="M172.104 27.2251L190.212 26.6748L189.934 20.9902L171.862 22.1876L172.104 27.2251Z" fill="#BC93DC"/>
<path d="M158.417 27.4487L173.064 26.971L172.84 22.3145L158.224 23.2639L158.417 27.4487Z" fill="#BC93DC"/>
<path d="M171.125 27.093L172.086 27.1958L171.85 22.2188L170.902 22.4123L171.125 27.093Z" fill="#263238"/>
<path opacity="0.2" d="M171.125 27.093L172.086 27.1958L171.85 22.2188L170.902 22.4123L171.125 27.093Z" fill="#121113"/>
<path d="M172.092 27.2312L173.07 27.2009L172.829 22.1211L171.85 22.1876L172.092 27.2312Z" fill="#263238"/>
<path d="M156.146 26.7602L157.596 27.4314L157.409 23.3555L156.025 24.1658L156.146 26.7602Z" fill="#263238"/>
<path d="M148.705 26.705L153.011 26.4813L152.921 24.5703L148.614 24.8304L148.705 26.705Z" fill="#263238"/>
<path opacity="0.2" d="M148.705 26.705L153.011 26.4813L152.921 24.5703L148.614 24.8304L148.705 26.705Z" fill="#121113"/>
<path d="M152.42 26.8682L157.209 26.6868L157.089 24.0078L152.299 24.292L152.42 26.8682Z" fill="#263238"/>
<path opacity="0.2" d="M156.146 26.7602L157.596 27.4314L157.409 23.3555L156.025 24.1658L156.146 26.7602Z" fill="#121113"/>
<path d="M157.626 27.4727L158.417 27.4485L158.224 23.2637L157.427 23.312L157.626 27.4727Z" fill="#263238"/>
<path d="M189.596 26.6942L192.441 26.5914L192.157 20.8887L189.318 21.0338L189.596 26.6942Z" fill="#263238"/>
<path d="M190.864 27.0977L194.488 26.9949L194.579 26.7409C194.961 25.6777 195.121 24.547 195.049 23.4192C194.976 22.2914 194.672 21.1906 194.156 20.1855L190.532 20.4335L190.61 20.621C191.471 22.6789 191.561 24.9787 190.864 27.0977Z" fill="#BC93DC"/>
<g opacity="0.4">
<path d="M186.998 21.6259L188.46 21.5352L188.49 22.1399L187.005 22.2306C186.977 22.0301 186.975 21.8269 186.998 21.6259Z" fill="white"/>
<path d="M186.111 21.6934C186.088 21.8943 186.088 22.0972 186.111 22.2981L173.409 23.0117L173.348 22.4674L186.111 21.6934Z" fill="white"/>
</g>
<g opacity="0.4">
<path d="M158.532 23.5919L158.556 24.0998L170.503 23.3923L170.473 22.8359L158.532 23.5919Z" fill="white"/>
</g>
<g opacity="0.4">
<path d="M190.852 20.6273L190.888 21.2623L193.721 21.0748L193.691 20.4277L190.852 20.6273Z" fill="white"/>
</g>
<path opacity="0.3" d="M194.114 26.1543C194.089 26.3713 194.089 26.5904 194.114 26.8074L191.184 26.9042L191.148 26.2994L194.114 26.1543Z" fill="#121113"/>
<path opacity="0.3" d="M188.865 25.8047C188.84 26.0055 188.84 26.2086 188.865 26.4094L173.348 26.99L173.318 26.4215L188.865 25.8047Z" fill="#121113"/>
<path opacity="0.3" d="M170.358 26.3477C170.34 26.5327 170.34 26.719 170.358 26.904L158.804 27.3092V26.8012L170.358 26.3477Z" fill="#121113"/>
<path d="M147.738 24.9039L147.775 26.7182C147.787 26.87 147.856 27.0117 147.968 27.1148C148.08 27.218 148.226 27.275 148.379 27.2745H149.858L149.798 24.2871L148.318 24.3415C148.169 24.3471 148.028 24.4077 147.921 24.5115C147.814 24.6153 147.749 24.7551 147.738 24.9039Z" fill="#BC93DC"/>
<path d="M155.391 29.9715L155.953 26.5668C155.968 26.4261 155.968 26.2842 155.953 26.1435L155.79 24.3293C155.776 24.2066 155.727 24.0905 155.648 23.995C155.57 23.8995 155.466 23.8287 155.349 23.7911H152.631C152.465 23.7333 152.284 23.7397 152.123 23.8091C151.962 23.8785 151.833 24.0059 151.761 24.166L151.272 26.3975C151.232 26.5625 151.232 26.7344 151.272 26.8994L152.081 29.9715C152.125 30.1045 152.204 30.2228 152.311 30.3135C152.417 30.4042 152.547 30.4637 152.685 30.4855H154.461C154.652 30.5382 154.857 30.514 155.03 30.4179C155.204 30.3219 155.333 30.1617 155.391 29.9715Z" fill="#CE7A63"/>
<path d="M156.986 31.4035L152.365 33.0303L151.598 30.188L155.566 28.9785L156.986 31.4035Z" fill="#BC93DC"/>
<path opacity="0.3" d="M156.986 31.4035L152.365 33.0303L151.598 30.188L155.566 28.9785L156.986 31.4035Z" fill="white"/>
<path opacity="0.2" d="M151 52.8056L147.46 46.1172L151.084 47.2843C151.442 49.1104 151.413 50.9914 151 52.8056Z" fill="#121113"/>
<path d="M169.223 108.32L168.486 117.404L172.617 117.482L173.753 108.127L169.223 108.32Z" fill="#CE7A63"/>
<path d="M173.27 116.244L168.564 116.34C168.475 116.345 168.39 116.379 168.323 116.439C168.256 116.498 168.211 116.579 168.196 116.667L167.387 120.803C167.346 120.973 167.373 121.152 167.462 121.302C167.551 121.453 167.695 121.562 167.864 121.608H167.997C169.694 121.541 171.204 121.414 173.318 121.372C175.812 121.323 175.184 121.656 178.12 121.644C179.883 121.644 180.185 119.467 179.436 119.376C176 118.977 175.637 117.876 174.296 116.582C174.011 116.339 173.643 116.218 173.27 116.244Z" fill="#263238"/>
<path d="M124.128 147.248L122.455 155.593L126.894 156.948L129.039 148.427L124.128 147.248Z" fill="#CE7A63"/>
<path d="M147.883 69.9375C147.883 69.9375 141.565 106.869 138.129 117.712C135.713 125.447 129.129 150.767 129.129 150.767L123.216 149.473C123.216 149.473 122.551 132.238 125.855 123.342C126.985 120.318 128.459 117.567 128.875 115.686C130.579 107.649 127.063 93.0688 128.622 82.1956C129.098 78.7368 129.982 75.3468 131.255 72.0964L147.883 69.9375Z" fill="#263238"/>
<path d="M138.129 117.737C135.713 125.472 129.129 150.793 129.129 150.793L123.216 149.474C123.216 149.474 122.551 132.239 125.855 123.343C126.985 120.32 128.459 117.568 128.875 115.687C130.579 107.65 127.063 93.0701 128.622 82.1968C129.098 78.7381 129.982 75.348 131.255 72.0977" fill="#263238"/>
<path opacity="0.2" d="M140.134 81.3555L143.317 93.8615L145.643 81.8997L140.134 81.3555Z" fill="#121113"/>
<path d="M174.043 112.682L168.232 112.87C168.232 112.87 168.661 105.256 168.661 94.1226C168.677 92.466 168.892 90.8173 169.301 89.2121C169.801 87.1639 170.529 85.1781 171.47 83.2917L169.784 83.3764C166.499 83.5457 146.132 84.5859 145.733 84.5859C145.431 84.5556 143.577 84.8036 140.261 83.1828C134.094 80.1591 134.034 71.6928 134.034 71.6928L149.913 69.5762C149.913 69.5762 150.173 69.6246 153.996 69.6911C165.587 69.8906 179.829 70.3381 182.33 74.3234C185.845 79.9293 174.043 112.682 174.043 112.682Z" fill="#263238"/>
<path d="M127.118 154.797L122.249 154.857C122.16 154.858 122.073 154.892 122.007 154.952C121.94 155.012 121.897 155.094 121.887 155.184L121.283 159.356C121.258 159.535 121.299 159.718 121.4 159.868C121.5 160.019 121.652 160.127 121.827 160.173H121.966C123.723 160.118 125.275 159.997 127.462 159.967C130.047 159.937 129.413 160.269 132.445 160.269C134.257 160.269 134.468 158.086 133.689 157.99C130.107 157.572 129.667 156.453 128.211 155.141C127.903 154.893 127.512 154.77 127.118 154.797Z" fill="#263238"/>
<path opacity="0.2" d="M169.301 89.2423C169.801 87.1941 170.529 85.2083 171.47 83.3219L169.784 83.4066C169.734 83.3867 169.681 83.3765 169.627 83.3763L173.855 83.0195L169.301 89.2423Z" fill="#121113"/>
<path d="M58.31 44.0318C62.403 44.0318 65.7211 40.7096 65.7211 36.6116C65.7211 32.5135 62.403 29.1914 58.31 29.1914C54.217 29.1914 50.8989 32.5135 50.8989 36.6116C50.8989 40.7096 54.217 44.0318 58.31 44.0318Z" fill="#BC93DC"/>
<path opacity="0.6" d="M58.31 44.0318C62.403 44.0318 65.7211 40.7096 65.7211 36.6116C65.7211 32.5135 62.403 29.1914 58.31 29.1914C54.217 29.1914 50.8989 32.5135 50.8989 36.6116C50.8989 40.7096 54.217 44.0318 58.31 44.0318Z" fill="white"/>
<path d="M58.3224 26.366C58.0303 26.3644 57.7507 26.2471 57.5447 26.0397C57.3388 25.8324 57.2231 25.5518 57.2231 25.2593V20.4214C57.2438 20.1428 57.3688 19.8823 57.5733 19.6922C57.7777 19.5021 58.0464 19.3965 58.3254 19.3965C58.6045 19.3965 58.8732 19.5021 59.0776 19.6922C59.2821 19.8823 59.4071 20.1428 59.4277 20.4214V25.2593C59.4277 25.5528 59.3113 25.8343 59.104 26.0419C58.8967 26.2494 58.6156 26.366 58.3224 26.366Z" fill="#BC93DC"/>
<path d="M58.3224 53.8513C58.0314 53.8497 57.7527 53.7333 57.5469 53.5272C57.3411 53.3211 57.2247 53.0421 57.2231 52.7507V47.8765C57.2438 47.5979 57.3688 47.3374 57.5733 47.1473C57.7777 46.9572 58.0464 46.8516 58.3254 46.8516C58.6045 46.8516 58.8732 46.9572 59.0776 47.1473C59.2821 47.3374 59.4071 47.5979 59.4277 47.8765V52.7507C59.4261 53.0432 59.309 53.3231 59.1019 53.5293C58.8948 53.7356 58.6145 53.8513 58.3224 53.8513Z" fill="#BC93DC"/>
<path d="M50.3493 29.6617C50.2043 29.6617 50.0607 29.6329 49.927 29.5768C49.7932 29.5207 49.6719 29.4386 49.5702 29.3351L47.4682 27.2427C47.3659 27.1403 47.2848 27.0187 47.2294 26.8848C47.174 26.751 47.1455 26.6075 47.1455 26.4626C47.1455 26.3177 47.174 26.1743 47.2294 26.0404C47.2848 25.9066 47.3659 25.785 47.4682 25.6825C47.5706 25.5801 47.692 25.4988 47.8257 25.4434C47.9594 25.3879 48.1027 25.3594 48.2474 25.3594C48.3921 25.3594 48.5354 25.3879 48.6691 25.4434C48.8028 25.4988 48.9242 25.5801 49.0266 25.6825L51.1285 27.787C51.3343 27.9944 51.4498 28.2748 51.4498 28.5671C51.4498 28.8594 51.3343 29.1399 51.1285 29.3472C51.0257 29.4485 50.904 29.5284 50.7703 29.5824C50.6366 29.6364 50.4935 29.6633 50.3493 29.6617Z" fill="#BC93DC"/>
<path d="M68.2522 47.6048C67.9608 47.6032 67.6814 47.4883 67.4731 47.2843L65.5161 45.3189C65.3095 45.112 65.1934 44.8314 65.1934 44.5388C65.1934 44.2462 65.3095 43.9656 65.5161 43.7587C65.7227 43.5518 66.003 43.4355 66.2953 43.4355C66.5875 43.4355 66.8678 43.5518 67.0744 43.7587L69.0314 45.7241C69.1859 45.878 69.2912 46.0745 69.3339 46.2885C69.3766 46.5025 69.3548 46.7243 69.2713 46.9259C69.1878 47.1275 69.0464 47.2996 68.8649 47.4205C68.6834 47.5414 68.4702 47.6056 68.2522 47.6048Z" fill="#BC93DC"/>
<path d="M47.0453 37.6576H42.2133C42.0617 37.6688 41.9094 37.6486 41.766 37.5983C41.6225 37.5479 41.4909 37.4685 41.3795 37.3649C41.2681 37.2613 41.1793 37.1358 41.1185 36.9963C41.0577 36.8567 41.0264 36.7062 41.0264 36.5539C41.0264 36.4017 41.0577 36.2511 41.1185 36.1116C41.1793 35.9721 41.2681 35.8466 41.3795 35.743C41.4909 35.6394 41.6225 35.56 41.766 35.5096C41.9094 35.4592 42.0617 35.439 42.2133 35.4503H47.0453C47.197 35.439 47.3493 35.4592 47.4927 35.5096C47.6362 35.56 47.7677 35.6394 47.8791 35.743C47.9906 35.8466 48.0794 35.9721 48.1402 36.1116C48.2009 36.2511 48.2323 36.4017 48.2323 36.5539C48.2323 36.7062 48.2009 36.8567 48.1402 36.9963C48.0794 37.1358 47.9906 37.2613 47.8791 37.3649C47.7677 37.4685 47.6362 37.5479 47.4927 37.5983C47.3493 37.6486 47.197 37.6688 47.0453 37.6576Z" fill="#BC93DC"/>
<path d="M74.4671 37.6576H69.6049C69.4533 37.6688 69.301 37.6486 69.1575 37.5983C69.0141 37.5479 68.8825 37.4685 68.7711 37.3649C68.6597 37.2613 68.5709 37.1358 68.5101 36.9963C68.4493 36.8567 68.418 36.7062 68.418 36.5539C68.418 36.4017 68.4493 36.2511 68.5101 36.1116C68.5709 35.9721 68.6597 35.8466 68.7711 35.743C68.8825 35.6394 69.0141 35.56 69.1575 35.5096C69.301 35.4592 69.4533 35.439 69.6049 35.4503H74.4671C74.6188 35.439 74.7711 35.4592 74.9145 35.5096C75.058 35.56 75.1895 35.6394 75.3009 35.743C75.4124 35.8466 75.5012 35.9721 75.562 36.1116C75.6227 36.2511 75.6541 36.4017 75.6541 36.5539C75.6541 36.7062 75.6227 36.8567 75.562 36.9963C75.5012 37.1358 75.4124 37.2613 75.3009 37.3649C75.1895 37.4685 75.058 37.5479 74.9145 37.5983C74.7711 37.6486 74.6188 37.6688 74.4671 37.6576Z" fill="#BC93DC"/>
<path d="M48.495 47.5032C48.2056 47.5097 47.9253 47.401 47.7159 47.2009C47.5101 46.9935 47.3945 46.7131 47.3945 46.4207C47.3945 46.1284 47.5101 45.848 47.7159 45.6406L49.5701 43.7841C49.7768 43.5772 50.0571 43.4609 50.3493 43.4609C50.6415 43.4609 50.9218 43.5772 51.1285 43.7841C51.3351 43.991 51.4512 44.2716 51.4512 44.5642C51.4512 44.8568 51.3351 45.1374 51.1285 45.3443L49.2742 47.2009C49.0647 47.401 48.7845 47.5097 48.495 47.5032Z" fill="#BC93DC"/>
<path d="M66.3012 29.6624C66.1561 29.6631 66.0123 29.6346 65.8784 29.5785C65.7446 29.5224 65.6234 29.4399 65.522 29.3359C65.3162 29.1285 65.2007 28.8481 65.2007 28.5557C65.2007 28.2634 65.3162 27.983 65.522 27.7756L67.5092 25.786C67.7158 25.5791 67.9961 25.4629 68.2883 25.4629C68.5806 25.4629 68.8608 25.5791 69.0675 25.786C69.2741 25.9929 69.3902 26.2735 69.3902 26.5661C69.3902 26.8587 69.2741 27.1394 69.0675 27.3463L67.0803 29.3359C66.874 29.5437 66.5938 29.6611 66.3012 29.6624Z" fill="#BC93DC"/>
<g opacity="0.6">
<path d="M58.3219 26.366C58.0298 26.3644 57.7502 26.2471 57.5443 26.0397C57.3383 25.8324 57.2227 25.5518 57.2227 25.2593V20.4214C57.2433 20.1428 57.3684 19.8823 57.5728 19.6922C57.7773 19.5021 58.0459 19.3965 58.325 19.3965C58.604 19.3965 58.8727 19.5021 59.0771 19.6922C59.2816 19.8823 59.4066 20.1428 59.4273 20.4214V25.2593C59.4273 25.5528 59.3108 25.8343 59.1035 26.0419C58.8962 26.2494 58.6151 26.366 58.3219 26.366Z" fill="white"/>
<path d="M58.3219 53.8513C58.0309 53.8497 57.7522 53.7333 57.5464 53.5272C57.3406 53.3211 57.2242 53.0421 57.2227 52.7507V47.8765C57.2433 47.5979 57.3684 47.3374 57.5728 47.1473C57.7773 46.9572 58.0459 46.8516 58.325 46.8516C58.604 46.8516 58.8727 46.9572 59.0771 47.1473C59.2816 47.3374 59.4066 47.5979 59.4273 47.8765V52.7507C59.4257 53.0432 59.3085 53.3231 59.1014 53.5293C58.8943 53.7356 58.614 53.8513 58.3219 53.8513Z" fill="white"/>
<path d="M50.3493 29.6617C50.2043 29.6617 50.0607 29.6329 49.927 29.5768C49.7932 29.5207 49.6719 29.4386 49.5702 29.3351L47.4682 27.2427C47.3659 27.1403 47.2848 27.0187 47.2294 26.8848C47.174 26.751 47.1455 26.6075 47.1455 26.4626C47.1455 26.3177 47.174 26.1743 47.2294 26.0404C47.2848 25.9066 47.3659 25.785 47.4682 25.6825C47.5706 25.5801 47.692 25.4988 47.8257 25.4434C47.9594 25.3879 48.1027 25.3594 48.2474 25.3594C48.3921 25.3594 48.5354 25.3879 48.6691 25.4434C48.8028 25.4988 48.9242 25.5801 49.0266 25.6825L51.1285 27.787C51.3343 27.9944 51.4498 28.2748 51.4498 28.5671C51.4498 28.8594 51.3343 29.1399 51.1285 29.3472C51.0257 29.4485 50.904 29.5284 50.7703 29.5824C50.6366 29.6364 50.4935 29.6633 50.3493 29.6617Z" fill="white"/>
<path d="M68.2517 47.6048C67.9603 47.6032 67.6809 47.4883 67.4726 47.2843L65.5156 45.3189C65.309 45.112 65.1929 44.8314 65.1929 44.5388C65.1929 44.2462 65.309 43.9656 65.5156 43.7587C65.7223 43.5518 66.0025 43.4355 66.2948 43.4355C66.587 43.4355 66.8673 43.5518 67.0739 43.7587L69.0309 45.7241C69.1854 45.878 69.2907 46.0745 69.3334 46.2885C69.3761 46.5025 69.3543 46.7243 69.2708 46.9259C69.1873 47.1275 69.0459 47.2996 68.8644 47.4205C68.6829 47.5414 68.4697 47.6056 68.2517 47.6048Z" fill="white"/>
<path d="M47.0453 37.6556H42.2133C42.0617 37.6669 41.9094 37.6467 41.766 37.5963C41.6225 37.546 41.4909 37.4665 41.3795 37.3629C41.2681 37.2593 41.1793 37.1339 41.1185 36.9943C41.0577 36.8548 41.0264 36.7042 41.0264 36.552C41.0264 36.3998 41.0577 36.2492 41.1185 36.1097C41.1793 35.9701 41.2681 35.8446 41.3795 35.7411C41.4909 35.6375 41.6225 35.558 41.766 35.5077C41.9094 35.4573 42.0617 35.4371 42.2133 35.4483H47.0453C47.197 35.4371 47.3493 35.4573 47.4927 35.5077C47.6362 35.558 47.7677 35.6375 47.8791 35.7411C47.9906 35.8446 48.0794 35.9701 48.1402 36.1097C48.2009 36.2492 48.2323 36.3998 48.2323 36.552C48.2323 36.7042 48.2009 36.8548 48.1402 36.9943C48.0794 37.1339 47.9906 37.2593 47.8791 37.3629C47.7677 37.4665 47.6362 37.546 47.4927 37.5963C47.3493 37.6467 47.197 37.6669 47.0453 37.6556Z" fill="white"/>
<path d="M74.4671 37.6556H69.6049C69.4533 37.6669 69.301 37.6467 69.1575 37.5963C69.0141 37.546 68.8825 37.4665 68.7711 37.3629C68.6597 37.2593 68.5709 37.1339 68.5101 36.9943C68.4493 36.8548 68.418 36.7042 68.418 36.552C68.418 36.3998 68.4493 36.2492 68.5101 36.1097C68.5709 35.9701 68.6597 35.8446 68.7711 35.7411C68.8825 35.6375 69.0141 35.558 69.1575 35.5077C69.301 35.4573 69.4533 35.4371 69.6049 35.4483H74.4671C74.6188 35.4371 74.7711 35.4573 74.9145 35.5077C75.058 35.558 75.1895 35.6375 75.3009 35.7411C75.4124 35.8446 75.5012 35.9701 75.562 36.1097C75.6227 36.2492 75.6541 36.3998 75.6541 36.552C75.6541 36.7042 75.6227 36.8548 75.562 36.9943C75.5012 37.1339 75.4124 37.2593 75.3009 37.3629C75.1895 37.4665 75.058 37.546 74.9145 37.5963C74.7711 37.6467 74.6188 37.6669 74.4671 37.6556Z" fill="white"/>
<path d="M48.495 47.5013C48.2056 47.5078 47.9253 47.399 47.7159 47.1989C47.5101 46.9916 47.3945 46.7111 47.3945 46.4188C47.3945 46.1265 47.5101 45.846 47.7159 45.6387L49.5701 43.7821C49.7768 43.5752 50.0571 43.459 50.3493 43.459C50.6415 43.459 50.9218 43.5752 51.1285 43.7821C51.3351 43.989 51.4512 44.2696 51.4512 44.5622C51.4512 44.8548 51.3351 45.1354 51.1285 45.3423L49.2742 47.1989C49.0647 47.399 48.7845 47.5078 48.495 47.5013Z" fill="white"/>
<path d="M66.3007 29.6624C66.1556 29.6631 66.0118 29.6346 65.8779 29.5785C65.7441 29.5224 65.6229 29.4399 65.5215 29.3359C65.3157 29.1285 65.2002 28.8481 65.2002 28.5557C65.2002 28.2634 65.3157 27.983 65.5215 27.7756L67.5087 25.786C67.7153 25.5791 67.9956 25.4629 68.2878 25.4629C68.5801 25.4629 68.8604 25.5791 69.067 25.786C69.2736 25.9929 69.3897 26.2735 69.3897 26.5661C69.3897 26.8587 69.2736 27.1394 69.067 27.3463L67.0798 29.3359C66.8735 29.5437 66.5933 29.6611 66.3007 29.6624Z" fill="white"/>
</g>
<rect x="230.186" y="23.3594" width="4.28722" height="5.11303" fill="white"/>
<path d="M235.947 23.3594L232.311 23.4368L228.712 23.3594L232.33 19.7439L235.947 23.3594Z" fill="white"/>
</g>
<defs>
<clipPath id="clip0_3602_79484">
<rect width="302" height="225" fill="white"/>
</clipPath>
</defs>
</svg>
