<svg width="295" height="58" viewBox="0 0 295 58" fill="none" xmlns="http://www.w3.org/2000/svg">
<g clip-path="url(#clip0_1574_9311)">
<path d="M14.9707 36.8284H3.5868C1.36158 36.8284 0.5 35.9646 0.5 33.7614V17.0806C0.5 14.7704 1.4905 13.6922 3.81069 13.6855C11.4045 13.6543 18.996 13.6543 26.5853 13.6855C28.1795 13.6855 29.1225 14.3552 29.4685 15.8619C29.6444 16.9014 29.7013 17.9571 29.6381 19.0092C29.6082 19.1554 29.5433 19.2924 29.4489 19.4089C29.3545 19.5253 29.2333 19.6179 29.0954 19.6789C27.8064 20.0405 26.4971 20.3485 25.1809 20.603C24.9972 20.5862 24.8208 20.524 24.6678 20.4222C24.5149 20.3204 24.3904 20.1822 24.3058 20.0204C23.8987 18.6811 23.01 18.3664 21.7074 18.3797C17.2095 18.4266 12.7048 18.3797 8.20684 18.3797C6.70753 18.3797 6.44296 18.6342 6.44296 20.0873C6.44296 23.565 6.44296 27.036 6.44296 30.5003C6.44296 31.7257 6.66005 31.9333 7.91512 31.9333H22.3926C23.5527 31.9333 23.7495 31.7257 23.7495 30.594C23.7495 30.0047 23.7155 29.4155 23.7495 28.8329C23.7834 28.2503 23.4984 27.9958 22.8879 28.0025C20.4184 28.0025 17.949 28.0025 15.4863 28.0025C14.7604 28.0025 14.3669 27.882 14.4076 27.0583C14.4687 26.0003 14.4483 24.9355 14.4076 23.8775C14.4076 23.1543 14.8079 23.0606 15.3981 23.0673H27.6843C28.227 23.0673 28.7698 23.0673 29.3057 23.0673C29.8417 23.0673 30.1334 23.3016 30.1334 23.8306C30.1334 27.1788 30.1809 30.5605 30.0859 33.9222C30.0452 35.5762 28.5527 36.7346 26.6938 36.7413C22.7589 36.7413 18.8309 36.7413 14.8961 36.7413L14.9707 36.8284Z" fill="#662F90"/>
<path d="M119.739 24.9162C120.314 25.3341 120.866 25.7812 121.394 26.2554C122.493 27.4827 123.141 29.0396 123.233 30.675C123.326 32.3103 122.857 33.9287 121.903 35.2688C121.541 35.7714 121.058 36.178 120.498 36.4525C119.939 36.727 119.319 36.861 118.694 36.8425C111.458 36.8157 104.221 36.8157 96.9848 36.8425C96.1842 36.8425 95.9807 36.5947 95.9875 35.838C96.0146 28.7309 96.0146 21.6282 95.9875 14.53C95.9875 13.7733 96.1842 13.5188 96.9848 13.5255C101.998 13.5657 107.019 13.5255 112.032 13.5657C114.386 13.5657 116.747 13.6327 119.101 13.6996C119.537 13.6821 119.972 13.753 120.379 13.908C120.786 14.0629 121.156 14.2987 121.467 14.6006C121.778 14.9025 122.023 15.2641 122.187 15.6632C122.35 16.0622 122.429 16.4902 122.419 16.9206C122.473 18.6014 122.419 20.2688 122.419 21.9697C122.397 22.4004 122.264 22.8185 122.034 23.1851C121.804 23.5516 121.484 23.8546 121.103 24.0657C120.716 24.3402 120.248 24.6014 119.739 24.9162ZM108.918 32.8983H115.343C116.021 32.8983 116.7 32.7778 116.747 31.9206C116.781 30.5813 116.747 29.2085 116.747 27.8492C116.752 27.7341 116.733 27.6193 116.689 27.5123C116.646 27.4053 116.58 27.3087 116.496 27.2289C116.412 27.149 116.312 27.0878 116.202 27.0493C116.092 27.0107 115.975 26.9958 115.858 27.0054C114.963 26.9653 114.074 26.9251 113.179 26.9251C109.658 26.9251 106.13 26.9251 102.609 26.9251C101.93 26.9251 101.571 27.0925 101.605 27.876C101.666 29.2152 101.666 30.6014 101.605 31.9608C101.564 32.751 101.924 32.9184 102.602 32.9184C104.692 32.8916 106.808 32.8983 108.918 32.8983ZM108.966 22.9876C111.13 22.9876 113.301 22.9876 115.472 22.9876C116.238 22.9876 116.754 22.7197 116.788 21.9228C116.788 20.9385 116.788 19.9474 116.788 18.963C116.754 18.1862 116.306 17.8782 115.499 17.8849C111.272 17.8849 107.039 17.8849 102.812 17.8849C101.849 17.8849 101.544 18.146 101.503 19.1036C101.462 20.0612 101.503 21.0255 101.503 21.9898C101.503 22.7063 101.74 22.9943 102.494 22.9809C104.624 22.9675 106.795 22.9876 108.966 22.9876Z" fill="#662F90"/>
<path d="M75.3634 13.693C78.7555 13.693 82.0933 13.8068 85.4447 13.6595C88.3619 13.5389 90.5396 15.5278 90.3768 18.7622C90.2682 20.8916 90.2275 23.0278 90.2275 25.1639C90.2275 27.3001 90.2886 29.5367 90.37 31.7197C90.4785 34.3983 89.2235 36.2331 86.849 36.7488C86.5852 36.7979 86.3169 36.8203 86.0485 36.8157H64.8207C62.107 36.8157 60.3974 35.1349 60.3906 32.4697C60.3906 27.6617 60.3906 22.8537 60.3906 18.0456C60.3906 15.3671 62.0595 13.7064 64.7936 13.6997C68.3146 13.6863 71.8695 13.7331 75.3634 13.693ZM75.3091 32.443H83.0295C84.3185 32.443 84.6373 32.1148 84.6441 30.8224V20.3559C84.6441 18.126 84.4677 17.9452 82.2154 17.9452H68.396C68.0461 17.9454 67.6969 17.9722 67.3512 18.0255C66.3268 18.1796 65.9944 18.4541 65.9944 19.4787C65.9672 23.3224 65.9672 27.1639 65.9944 31.0032C65.9944 32.1081 66.4353 32.4564 67.5683 32.463L75.3091 32.443Z" fill="#662F90"/>
<path d="M133.491 22.8474H138.355C140.194 22.8474 142.039 22.8474 143.884 22.8474C144.563 22.8474 144.773 23.0751 144.739 23.7179C144.698 24.6822 144.698 25.6465 144.739 26.6041C144.739 27.2 144.563 27.3876 143.952 27.3876C140.784 27.3876 137.609 27.3875 134.454 27.3541C133.64 27.3541 133.314 27.555 133.375 28.3853C133.437 29.2157 133.375 30.0393 133.375 30.863C133.375 32.1219 133.769 32.4768 135.044 32.4768C140.926 32.4768 146.808 32.4768 152.683 32.4768C153.477 32.4768 153.735 32.7045 153.674 33.4679C153.616 34.3487 153.616 35.2322 153.674 36.113C153.721 36.8161 153.491 37.0237 152.765 37.0237C147.337 36.9902 141.978 37.0237 136.584 37.0237C133.816 37.0237 131.055 37.0237 128.287 37.0237C127.609 37.0237 127.419 36.8027 127.419 36.1532C127.419 28.9166 127.419 21.68 127.419 14.4434C127.419 13.7268 127.65 13.5527 128.348 13.5527C135.234 13.5527 142.12 13.5527 149.006 13.5527C150.092 13.5527 150.241 13.6933 150.255 14.7313C150.255 15.4009 150.255 16.1242 150.255 16.8139C150.255 17.5036 149.868 17.8786 149.176 17.9054C148.484 17.9322 147.819 17.9054 147.141 17.9054C142.962 17.9054 138.789 17.9054 134.617 17.9054C133.816 17.9054 133.45 18.1532 133.464 18.9434C133.498 20.1889 133.491 21.4612 133.491 22.8474Z" fill="#662F90"/>
<path d="M46.7682 36.8083C43.1048 36.8083 39.4413 36.8083 35.7846 36.8083C35.0655 36.8083 34.7941 36.6609 34.8009 35.8842C34.828 28.777 34.828 21.6721 34.8009 14.5694C34.8009 13.8596 35.0044 13.6453 35.7235 13.6721C37.155 13.719 38.6001 13.719 40.0315 13.6721C40.71 13.6721 40.9067 13.8864 40.8999 14.536C40.8999 19.9601 40.8999 25.3842 40.8999 30.8016C40.8999 31.9132 40.8999 31.9132 42.0329 31.9132H57.7315C58.783 31.9132 58.783 31.9132 58.7898 32.9779C58.7966 34.0426 58.7898 34.9868 58.7898 36.0248C58.7898 36.6342 58.5863 36.8016 57.9961 36.7949C54.2716 36.8016 50.5267 36.8083 46.7682 36.8083Z" fill="#662F90"/>
<path d="M115.859 53.7757V46.778C115.859 45.5123 115.859 45.5123 117.216 45.6061V56.9231C115.933 57.2311 115.777 57.1708 115.146 56.1329L111.178 49.6172C111.026 49.3441 110.807 49.1136 110.54 48.9476V57.057L109.129 57.1239V56.307C109.129 53.019 109.129 49.7378 109.129 46.4565C109.129 46.1686 109.312 45.653 109.448 45.6396C109.936 45.5994 110.52 45.3516 110.893 45.9878C112.012 47.8762 113.159 49.7512 114.285 51.6262L115.642 53.8427L115.859 53.7757Z" fill="white"/>
<path d="M234.324 53.7292V46.6846C234.324 45.4993 234.406 45.4391 235.681 45.6667V56.9837C235.299 57.1337 234.873 57.131 234.493 56.9759C234.113 56.8209 233.809 56.5258 233.646 56.1533C232.377 53.89 230.98 51.7002 229.63 49.4569C229.489 49.206 229.289 48.9923 229.046 48.8342V57.0038H227.689V45.7069C228.877 45.3654 229.046 45.4391 229.664 46.41L233.734 53.0663C233.883 53.3141 234.046 53.5417 234.202 53.7828L234.324 53.7292Z" fill="white"/>
<path d="M38.5322 57.0699V45.5989C40.5675 45.5989 42.6028 45.3311 44.5702 45.9673C45.0229 46.1128 45.4407 46.3482 45.7977 46.6592C46.1548 46.9701 46.4435 47.35 46.6461 47.7753C47.2407 48.8912 47.5326 50.1401 47.4934 51.4004C47.4541 52.6606 47.0851 53.8894 46.4223 54.9672C46.0695 55.6066 45.5474 56.1393 44.9117 56.5085C44.276 56.8776 43.5506 57.0694 42.8131 57.0632C41.4087 57.0967 39.984 57.0699 38.5322 57.0699ZM40.1808 55.7708C42.0125 55.7708 43.8646 56.1257 44.9976 54.2909C46.0356 52.6101 45.9474 49.5164 44.8212 48.1168C43.5797 46.5699 41.8293 47.032 40.1808 46.9315V55.7708Z" fill="white"/>
<path d="M165.166 51.5798C165.098 53.4748 164.651 55.4235 162.71 56.669C162.163 57.0311 161.543 57.2737 160.893 57.3806C160.243 57.4875 159.577 57.4563 158.94 57.289C158.303 57.1216 157.709 56.8221 157.199 56.4103C156.689 55.9986 156.273 55.4841 155.98 54.9012C154.691 52.4838 154.841 50.1066 156.021 47.6825C157.514 44.6155 162.222 44.7025 163.891 47.0731C164.788 48.4042 165.235 49.9821 165.166 51.5798ZM163.599 51.5061L163.389 51.4458C163.389 49.7583 163.165 48.7673 162.527 47.87C162.241 47.4631 161.853 47.1366 161.401 46.9227C160.948 46.7088 160.447 46.6148 159.947 46.6499C159.447 46.685 158.964 46.8481 158.547 47.1231C158.13 47.398 157.792 47.7754 157.568 48.2182C157.079 49.1888 156.825 50.2581 156.825 51.342C156.825 52.426 157.079 53.4953 157.568 54.4659C157.779 54.9501 158.134 55.3598 158.585 55.6408C159.037 55.9217 159.565 56.0608 160.098 56.0396C160.629 56.0967 161.165 55.987 161.629 55.7261C162.093 55.4652 162.462 55.0664 162.683 54.5865C163.055 53.5803 163.361 52.5513 163.599 51.5061Z" fill="white"/>
<path d="M106.632 51.1649C106.467 52.195 106.24 53.2146 105.954 54.2185C105.644 55.1553 105.044 55.972 104.237 56.5525C103.43 57.1331 102.459 57.4479 101.46 57.4524C100.462 57.4568 99.4879 57.1506 98.676 56.5773C97.8641 56.004 97.2558 55.1927 96.9377 54.2587C96.5306 53.2091 96.351 52.087 96.4106 50.9646C96.4702 49.8423 96.7676 48.7448 97.2837 47.743C97.6499 46.9945 98.2311 46.3688 98.9548 45.9437C99.6786 45.5187 100.513 45.313 101.354 45.3524C103.22 45.3524 104.746 46.0221 105.54 47.7163C105.996 48.8356 106.361 49.9888 106.632 51.1649ZM104.916 51.1649C104.679 50.1471 104.371 49.1469 103.993 48.1716C103.764 47.6685 103.375 47.2523 102.886 46.9855C102.397 46.7187 101.833 46.6156 101.28 46.6917C100.735 46.7044 100.207 46.8786 99.7643 47.1915C99.3215 47.5044 98.9843 47.9416 98.7966 48.4462C98.3971 49.3377 98.1846 50.2998 98.1718 51.2746C98.159 52.2493 98.3461 53.2166 98.7219 54.118C98.9197 54.679 99.2877 55.1663 99.7758 55.5137C100.264 55.8611 100.848 56.0518 101.45 56.0598C102.052 56.0678 102.641 55.8929 103.139 55.5587C103.636 55.2245 104.018 54.7472 104.231 54.1917C104.526 53.1919 104.755 52.1741 104.916 51.1448V51.1649Z" fill="white"/>
<path d="M174.501 53.7353V46.7241C174.501 45.5255 174.501 45.5255 175.797 45.6058V56.9228C174.562 57.2241 174.44 57.1773 173.803 56.1326L169.841 49.6103C169.691 49.3625 169.528 49.1215 169.244 48.6661V56.9697H167.887V45.7598C169.074 45.4317 169.244 45.5054 169.847 46.4697L173.843 53.059C173.992 53.3 174.149 53.5344 174.305 53.7755L174.501 53.7353Z" fill="white"/>
<path d="M129.203 57.0098C127.541 57.1638 127.541 57.1638 126.998 55.7308C126.32 53.9897 126.319 53.9897 124.427 53.9897H123.748C121.95 53.9897 121.95 53.9897 121.306 55.6973C121.306 55.771 121.238 55.8446 121.211 55.9183C120.75 57.1437 120.75 57.1437 119.298 57.0031C119.488 56.4674 119.671 55.9518 119.861 55.4361C120.994 52.3558 122.154 49.2821 123.253 46.1884C123.457 45.6125 123.762 45.5187 124.271 45.5589C124.779 45.5991 125.085 45.5589 125.288 46.1683C126.503 49.6236 127.771 53.0522 129.02 56.4875C129.094 56.6348 129.128 56.7888 129.203 57.0098ZM125.811 52.5634L124.128 48.0098L122.473 52.5634H125.811Z" fill="white"/>
<path d="M225.512 57.0164C223.829 57.1503 223.829 57.1503 223.3 55.7374C222.622 53.9896 222.622 53.9896 220.736 53.9963C219.955 53.9963 218.985 53.7485 218.436 54.1101C217.886 54.4717 217.669 55.4159 217.499 56.1191C217.242 57.2173 216.509 57.1034 215.634 56.9829C215.79 56.5275 215.932 56.0789 216.095 55.6436C217.235 52.5432 218.402 49.4427 219.487 46.3222C219.546 46.0815 219.694 45.8717 219.903 45.735C220.112 45.5982 220.366 45.5449 220.613 45.5856C220.849 45.5502 221.09 45.6065 221.285 45.7426C221.48 45.8787 221.613 46.0841 221.658 46.3155C222.845 49.6637 224.073 53.0119 225.281 56.3601C225.376 56.5476 225.43 56.7485 225.512 57.0164ZM222.119 52.5231C221.584 51.0633 221.075 49.6637 220.559 48.2708H220.369C219.86 49.6704 219.345 51.07 218.816 52.5231H222.119Z" fill="white"/>
<path d="M80.1942 56.9713C80.0784 57.0005 79.9604 57.0207 79.8414 57.0315C78.5592 57.0985 78.5592 57.0918 78.1182 55.9199C77.4059 53.9913 77.4059 53.9913 75.2824 53.9913C73.0029 53.9913 73.0029 53.9913 72.2634 56.0472C71.8699 57.132 71.8699 57.132 70.4385 57.0181C70.4792 56.844 70.4995 56.6699 70.5538 56.5092C71.8157 53.0739 73.0911 49.6454 74.3258 46.2034C74.3771 45.9983 74.5089 45.8217 74.6921 45.7125C74.8753 45.6032 75.0949 45.5703 75.3027 45.6208C75.7437 45.6543 76.1643 45.5471 76.3814 46.1699C77.5822 49.5985 78.8373 53.007 80.072 56.4221C80.126 56.6021 80.1668 56.7856 80.1942 56.9713ZM76.897 52.5717C76.3339 51.0449 75.8116 49.632 75.2213 48.0114L73.5592 52.5717H76.897Z" fill="white"/>
<path d="M193.938 45.7007C195.248 45.4128 195.37 45.4931 195.363 46.665C195.363 49.0132 195.343 51.3615 195.302 53.7097C195.302 55.1695 194.827 56.4351 193.368 57.0579C192.659 57.4115 191.86 57.5524 191.07 57.4632C190.281 57.3739 189.535 57.0585 188.925 56.5557C188.289 55.9848 187.888 55.203 187.799 54.3592C187.629 51.6137 187.656 48.8614 187.629 46.1159C187.629 45.3592 188.26 45.6472 188.66 45.5936C189.203 45.5132 189.277 45.8414 189.277 46.2632C189.277 48.4262 189.277 50.5891 189.277 52.7521C189.272 53.3913 189.364 54.0278 189.549 54.6405C189.695 55.1052 190 55.5054 190.412 55.7729C190.824 56.0403 191.318 56.1584 191.808 56.107C192.062 56.1133 192.314 56.0692 192.55 55.9772C192.786 55.8853 193.001 55.7475 193.182 55.572C193.363 55.3964 193.506 55.1867 193.604 54.9554C193.701 54.724 193.75 54.4758 193.748 54.2253C193.877 51.8012 193.87 49.3704 193.918 46.9396C193.945 46.5445 193.938 46.0958 193.938 45.7007Z" fill="white"/>
<path d="M50.0658 45.673C50.3236 45.673 50.5136 45.673 50.6967 45.6261C51.3752 45.519 51.6397 45.7601 51.633 46.49C51.633 48.9409 51.633 51.3985 51.7008 53.856C51.7069 54.2195 51.8008 54.5763 51.9748 54.8968C52.1488 55.2172 52.3977 55.492 52.701 55.6983C53.0042 55.9047 53.353 56.0365 53.7183 56.083C54.0836 56.1294 54.4549 56.0891 54.8012 55.9654C55.1968 55.8502 55.5434 55.6105 55.7883 55.2829C56.0332 54.9554 56.1631 54.5578 56.158 54.1507C56.2123 52.3627 56.2326 50.5748 56.253 48.7935C56.253 47.9096 56.253 47.0324 56.253 46.1485C56.253 45.5793 56.5922 45.5859 56.9925 45.5793C57.3928 45.5726 57.7116 45.5793 57.7048 46.0882C57.6641 48.8605 57.7523 51.6462 57.5623 54.4051C57.4199 56.4141 55.8527 57.519 53.6886 57.4119C51.5244 57.3047 50.1405 56.1395 50.093 53.9967C50.0251 51.231 50.0658 48.4989 50.0658 45.673Z" fill="white"/>
<path d="M247.051 55.0823C247.194 56.5689 247.2 56.656 245.85 57.0176C244.943 57.2672 244.003 57.3823 243.062 57.3591C242.075 57.3469 241.121 57.0114 240.348 56.4053C239.576 55.7993 239.029 54.9569 238.795 54.0109C238.113 51.9857 238.249 49.7788 239.175 47.8502C239.52 47.102 240.078 46.4692 240.782 46.0292C241.486 45.5892 242.304 45.361 243.137 45.3725C244.045 45.3609 244.952 45.4214 245.85 45.5533C247.119 45.7341 247.302 46.0756 246.922 47.3747C246.095 47.1604 245.28 46.906 244.446 46.7386C244.025 46.6217 243.585 46.5907 243.152 46.6475C242.718 46.7043 242.301 46.8478 241.926 47.069C241.551 47.2902 241.225 47.5846 240.969 47.9342C240.713 48.2839 240.532 48.6813 240.437 49.1024C239.983 50.452 239.947 51.9046 240.335 53.2743C240.442 53.77 240.656 54.2369 240.964 54.6429C241.271 55.0489 241.664 55.3844 242.116 55.6262C242.567 55.868 243.066 56.0105 243.578 56.0437C244.091 56.077 244.604 56.0003 245.084 55.8189C245.742 55.6247 246.352 55.3435 247.051 55.0823Z" fill="white"/>
<path d="M68.7691 55.1296C68.9998 56.4689 68.9523 56.5626 67.7719 56.9979C66.5771 57.4613 65.2657 57.5456 64.0202 57.239C63.1369 57.0622 62.3276 56.6284 61.6964 55.9935C61.0652 55.3585 60.6411 54.5515 60.4789 53.6765C60.0953 52.1126 60.1093 50.4793 60.5196 48.922C60.7533 47.9073 61.3315 47.0021 62.1584 46.3565C62.9852 45.7109 64.0108 45.3638 65.0649 45.3729C65.9302 45.3595 66.7951 45.42 67.6498 45.5537C69.0066 45.7546 69.0541 45.9354 68.742 47.3818C67.9347 47.1742 67.1409 46.9198 66.3268 46.7658C64.2509 46.3707 62.7176 47.3082 62.1952 49.297C61.797 50.6679 61.8206 52.1247 62.2631 53.4823C62.3805 53.9391 62.5928 54.3668 62.8865 54.7384C63.1802 55.11 63.5488 55.4172 63.9692 55.6407C64.3895 55.8642 64.8523 55.9991 65.3283 56.0368C65.8042 56.0744 66.2828 56.0141 66.7339 55.8595C67.4259 55.6787 68.0839 55.3774 68.7691 55.1296Z" fill="white"/>
<path d="M152.866 55.1563C153.164 56.3348 153.083 56.4956 152.065 56.9844C151.369 57.3198 150.607 57.4997 149.832 57.5112C149.058 57.5228 148.29 57.3657 147.584 57.0511C146.878 56.7365 146.251 56.2722 145.747 55.6913C145.244 55.1103 144.876 54.4269 144.671 53.6898C144.172 51.9839 144.227 50.167 144.827 48.4933C145.107 47.5909 145.674 46.8012 146.443 46.2406C147.213 45.68 148.144 45.3781 149.101 45.3795C149.993 45.3637 150.885 45.4219 151.767 45.5536C153.124 45.7344 153.178 45.9018 152.879 47.3415C152.065 47.1473 151.265 46.913 150.451 46.7656C148.354 46.3772 146.998 47.221 146.38 49.25C145.972 50.5561 145.95 51.9503 146.319 53.2679C146.422 53.7547 146.63 54.214 146.929 54.6149C147.227 55.0158 147.609 55.349 148.048 55.592C148.488 55.835 148.975 55.9822 149.478 56.0237C149.98 56.0652 150.485 56.0001 150.96 55.8326C151.618 55.6652 152.235 55.3906 152.866 55.1563Z" fill="white"/>
<path d="M36.1238 56.9966H29.9502V45.6797H35.8389V46.8516H31.6055V50.4342H34.1428C35.3233 50.4342 35.3572 50.481 35.1265 51.7734H31.592V55.7913H35.2351C36.3138 55.7712 36.368 55.8449 36.1238 56.9966Z" fill="white"/>
<path d="M178.572 55.1823C178.999 55.3363 179.25 55.4569 179.542 55.5439C180.05 55.7216 180.569 55.867 181.095 55.9792C181.516 56.099 181.965 56.0703 182.367 55.8979C182.768 55.7256 183.096 55.4204 183.293 55.035C183.468 54.6095 183.484 54.1364 183.337 53.7006C183.191 53.2648 182.891 52.895 182.493 52.6577C181.604 51.9881 180.661 51.4323 179.779 50.7626C179.406 50.4925 179.104 50.1368 178.901 49.7262C178.698 49.3156 178.599 48.8623 178.612 48.4055C178.59 48.0031 178.654 47.6006 178.798 47.2237C178.943 46.8469 179.166 46.504 179.453 46.2172C179.739 45.9303 180.084 45.7057 180.464 45.5579C180.843 45.4101 181.25 45.3422 181.658 45.3586C182.112 45.343 182.565 45.3632 183.015 45.4189C184.481 45.6399 184.535 45.7269 184.372 47.3207C183.904 47.1734 183.456 47.0126 183.015 46.8921C182.629 46.7796 182.23 46.71 181.828 46.6845C181.5 46.6553 181.172 46.7332 180.894 46.9063C180.616 47.0793 180.403 47.3379 180.288 47.6421C180.154 47.9276 180.126 48.2504 180.209 48.554C180.293 48.8577 180.481 49.1228 180.742 49.3028C181.272 49.7448 181.875 50.1131 182.452 50.5082C182.913 50.8296 183.409 51.1176 183.809 51.4792C184.359 51.8781 184.766 52.4402 184.97 53.0835C185.174 53.7269 185.164 54.4177 184.942 55.0551C184.761 55.7081 184.369 56.2848 183.825 56.6971C183.281 57.1094 182.615 57.3347 181.93 57.3385C180.935 57.3282 179.945 57.2047 178.979 56.9702C178.871 56.9194 178.777 56.8445 178.704 56.7515C178.631 56.6585 178.581 56.5499 178.558 56.4345C178.524 56.0176 178.528 55.5984 178.572 55.1823Z" fill="white"/>
<path d="M253.089 50.6164L255.524 46.4177C256.047 45.5137 256.203 45.4602 257.431 45.7481L256.074 48.1856C256.026 48.283 255.972 48.3769 255.911 48.4669C255.014 49.5913 254.355 50.8816 253.971 52.2618C253.588 53.6419 253.489 55.0839 253.679 56.5026C253.698 56.6694 253.698 56.8379 253.679 57.0048H252.105C252.105 55.786 252.159 54.5606 252.105 53.3486C252.065 52.6397 251.89 51.9446 251.59 51.2994C250.775 49.6119 249.86 47.9512 248.984 46.324C248.889 46.1432 248.815 45.949 248.727 45.7548C250.158 45.3798 250.382 45.4735 251.013 46.6454L253.089 50.6164Z" fill="white"/>
<path d="M86.51 57.0576H84.9021V46.9393C83.7353 46.9393 82.6905 46.9393 81.6389 46.9393C81.0962 46.9393 81.0419 46.5977 81.1166 46.2696C81.164 46.0352 81.4218 45.6602 81.5915 45.6536C84.4069 45.6201 87.2223 45.6536 90.1056 45.6536V46.8991H86.51V57.0576Z" fill="white"/>
<path d="M209.522 46.9397C208.341 46.9397 207.31 46.9397 206.285 46.9397C205.797 46.9397 205.682 46.7188 205.682 46.3103C205.682 45.9018 205.682 45.6406 206.218 45.6406H214.745V46.9464H211.109V56.9911H209.522V46.9397Z" fill="white"/>
<path d="M132.866 55.7659H137.615V57.0248H131.367V45.7012H132.866V55.7659Z" fill="white"/>
<path d="M200.091 55.7519H204.772V57.0176H198.592V45.6738H200.091V55.7519Z" fill="white"/>
<path d="M93.7488 57.0313H92.3105V45.6875H93.7488V57.0313Z" fill="white"/>
<path d="M154.224 0.5V4.46429H150.153V0.5H154.224Z" fill="white"/>
<path d="M159.793 17.7966C159.793 16.4573 159.793 15.3122 159.793 14.1403C159.793 13.5644 159.99 13.4037 160.546 13.4037C165.641 13.4037 170.77 13.0622 175.831 13.5108C179.287 13.7535 182.517 15.2916 184.861 17.8099C185.976 19.0908 186.684 20.6677 186.896 22.3434C187.222 24.4796 187.452 26.7095 186.896 28.8256C186.842 29.0332 186.781 29.2407 186.706 29.4483C185.784 32.0867 183.558 34.1358 181.041 35.4216C177.493 37.2363 173.755 36.8412 169.895 36.8412C165.682 36.8412 161.469 36.8412 157.256 36.8412C156.516 36.8412 156.347 36.6269 156.354 35.9372C156.428 30.1716 156.462 24.3992 156.51 18.6336C156.51 18.3724 156.55 18.1113 156.584 17.7765L159.793 17.7966ZM176.944 18.8077H165.492C165.492 19.3635 165.492 19.839 165.492 20.3144C165.492 21.6939 165.397 21.801 163.979 21.7341C163.71 21.6962 163.436 21.7214 163.179 21.8077C162.941 21.9282 162.609 22.1961 162.602 22.4037C162.602 23.0064 162.297 23.0733 161.781 23.0733C160.892 23.0733 160.512 23.4282 160.472 24.272C160.424 25.2832 160.472 26.2809 160.472 27.3122C160.463 27.4267 160.479 27.5418 160.519 27.6497C160.559 27.7576 160.622 27.8558 160.703 27.9377C160.785 28.0196 160.883 28.0832 160.992 28.1243C161.101 28.1654 161.217 28.1831 161.333 28.176L162.453 28.2363C162.582 28.9059 162.5 29.6827 162.839 29.9439C163.179 30.205 163.979 30.0443 164.576 30.0577H164.739C165.316 29.9908 165.506 30.272 165.485 30.8077C165.465 31.3434 165.485 31.9126 165.485 32.4818H177.018V30.8345C176.035 30.8345 175.092 30.8345 174.149 30.8345C173.558 30.8345 173.294 30.5867 173.301 30.0376C173.307 29.4885 173.518 29.1336 174.176 29.1604C175.112 29.1939 176.055 29.1604 177.018 29.1604V27.9952C176.089 27.9952 175.2 27.955 174.305 27.9952C174.17 28.0285 174.029 28.0313 173.893 28.0033C173.756 27.9753 173.628 27.9173 173.518 27.8336C173.408 27.7499 173.318 27.6426 173.256 27.5198C173.194 27.3971 173.16 27.262 173.158 27.1247C173.158 26.455 173.647 26.2608 174.271 26.2742C174.973 26.3212 175.678 26.3212 176.381 26.2742C176.519 26.239 176.647 26.1704 176.752 26.0746C176.858 25.9788 176.937 25.8587 176.984 25.7251C177.073 25.3099 176.767 25.1291 176.306 25.1425C175.628 25.1425 174.949 25.1091 174.271 25.1425C173.592 25.176 173.117 24.9215 173.124 24.3122C173.131 23.7028 173.613 23.4148 174.264 23.4349C175.146 23.4349 176.028 23.4349 176.93 23.4349V22.243H174.386C173.545 22.243 173.09 21.8948 173.111 21.2921C173.131 20.6894 173.633 20.3613 174.467 20.3613H176.937L176.944 18.8077Z" fill="white"/>
<path d="M205.16 36.9492H194.583C191.707 36.9492 190.038 35.2952 190.031 32.476C190.031 27.5117 190.031 22.5452 190.031 17.5765C190.01 16.9872 190.114 16.4002 190.336 15.8527C190.557 15.3052 190.892 14.8091 191.318 14.3961C191.744 13.983 192.253 13.6619 192.811 13.4531C193.37 13.2444 193.966 13.1526 194.563 13.1836C201.691 13.1836 208.823 13.1836 215.96 13.1836C218.932 13.1836 220.79 14.9716 220.784 17.8711C220.784 22.6791 220.784 27.4872 220.784 32.2952C220.784 35.3019 218.796 37.0832 215.716 36.9827C212.195 36.8756 208.667 36.9827 205.139 36.9827L205.16 36.9492ZM205.404 32.322C208.009 32.322 210.614 32.322 213.213 32.322C214.529 32.322 214.766 32.0475 214.766 30.7551C214.766 26.9917 214.766 23.2283 214.766 19.4649C214.766 18.0921 214.515 17.8376 213.104 17.8376H197.731C196.252 17.8376 196.015 18.0653 196.015 19.4917C196.015 23.2059 196.015 26.918 196.015 30.6278C196.015 32.1211 196.218 32.322 197.758 32.3287L205.404 32.322Z" fill="white"/>
<path d="M252.024 22.0156L245.796 22.9397V18.8884C245.389 18.8884 245.118 18.8415 244.867 18.8415C240.471 18.8415 236.047 18.8415 231.685 18.8415C231.007 18.8415 230.756 19.0022 230.762 19.7254C230.762 23.3549 230.762 26.9911 230.762 30.6205C230.762 31.8995 230.837 31.9598 232.119 31.9598H245.769V26.5089C247.77 27.1786 249.663 27.8482 251.536 28.5178C251.685 28.5714 251.814 28.8862 251.814 29.0804C251.814 30.7612 251.814 32.4286 251.814 34.1294C251.771 34.5719 251.591 34.9906 251.298 35.3281C250.847 35.8642 250.277 36.2913 249.633 36.5769C248.988 36.8624 248.286 36.9987 247.58 36.9754C241.475 36.9754 235.369 36.9754 229.263 36.9754C228.559 36.9797 227.858 36.885 227.18 36.6942C226.471 36.5324 225.845 36.1239 225.416 35.5433C224.988 34.9628 224.786 34.2493 224.847 33.5335C224.847 28.0647 224.847 22.5893 224.847 17.1071C224.847 14.7165 226.014 13.5379 228.429 13.5312C235.1 13.5312 241.771 13.5312 248.442 13.5312C250.823 13.5312 251.977 14.7098 251.977 17.0469C252.024 18.6339 252.024 20.2611 252.024 22.0156Z" fill="white"/>
<path d="M269.148 24.4464L286.319 36.5L286.244 36.8348C285.07 36.8348 283.897 36.8348 282.723 36.8348C281.068 36.8348 279.412 36.962 277.764 36.9018C277.098 36.8525 276.458 36.6205 275.919 36.2321C271.923 33.4263 267.967 30.567 263.999 27.7277C263.727 27.5335 263.442 27.346 263.022 27.058V36.7946H256.651V13.5714H262.913V22.5379C263.28 22.317 263.524 22.183 263.748 22.029C267.52 19.3504 271.278 16.7054 275.077 14.0937C275.631 13.7339 276.274 13.5323 276.936 13.5112C279.426 13.4509 281.916 13.5112 284.399 13.5112L284.494 13.712L269.148 24.4464Z" fill="white"/>
<path d="M158.749 10.4375V16.9464H152.311V10.4375H158.749Z" fill="white"/>
<path d="M146.279 10.7054V6.5H150.784V10.7054H146.279Z" fill="white"/>
<path d="M181.445 9.81484C181.425 9.81484 181.408 9.80784 181.394 9.79384C181.38 9.77984 181.373 9.76284 181.373 9.74284V7.78984C181.373 7.76784 181.38 7.74984 181.394 7.73584C181.408 7.72184 181.425 7.71484 181.445 7.71484H182.222C182.464 7.71484 182.655 7.77084 182.795 7.88284C182.935 7.99484 183.005 8.15784 183.005 8.37184C183.005 8.51984 182.968 8.64284 182.894 8.74084C182.822 8.83884 182.725 8.90984 182.603 8.95384L183.041 9.71884C183.047 9.73084 183.05 9.74184 183.05 9.75184C183.05 9.76984 183.043 9.78484 183.029 9.79684C183.017 9.80884 183.003 9.81484 182.987 9.81484H182.714C182.68 9.81484 182.654 9.80584 182.636 9.78784C182.618 9.76984 182.604 9.75184 182.594 9.73384L182.207 9.02284H181.79V9.74284C181.79 9.76284 181.783 9.77984 181.769 9.79384C181.757 9.80784 181.74 9.81484 181.718 9.81484H181.445ZM181.79 8.68384H182.213C182.335 8.68384 182.426 8.65684 182.486 8.60284C182.546 8.54684 182.576 8.46884 182.576 8.36884C182.576 8.26884 182.546 8.19084 182.486 8.13484C182.428 8.07684 182.337 8.04784 182.213 8.04784H181.79V8.68384Z" fill="white"/>
<rect x="179.907" y="6.46094" width="4.60818" height="4.60818" rx="2.30409" stroke="white" stroke-width="0.5"/>
</g>
<defs>
<clipPath id="clip0_1574_9311">
<rect width="294" height="57" fill="white" transform="translate(0.5 0.5)"/>
</clipPath>
</defs>
</svg>
