<svg width="280" height="280" viewBox="0 0 280 280" fill="none" xmlns="http://www.w3.org/2000/svg">
<g clip-path="url(#clip0_1554_32046)">
<path d="M273.164 48.8992H211.051C211.051 48.8992 217.212 31.8984 226.687 31.8984C236.161 31.8984 239.138 43.6308 239.138 43.6308C239.138 43.6308 245.532 37.2522 250.783 37.2522C256.034 37.2522 260.602 45.6803 260.602 45.6803C260.602 45.6803 268.017 41.1477 273.164 48.8992Z" fill="#EBEBEB"/>
<path d="M204.637 26.9403H175.608C175.608 26.9403 182.107 17.4414 187.208 17.4414C192.309 17.4414 193.824 23.774 193.824 23.774C193.824 23.774 197.43 20.8179 200.771 21.35C204.111 21.8821 204.637 26.9403 204.637 26.9403Z" fill="#EBEBEB"/>
<path d="M63.3669 74.1577H6.83008C6.83008 74.1577 14.5763 56.6839 22.8553 55.5935C31.1344 54.503 35.0985 68.5739 35.0985 68.5739C35.0985 68.5739 40.4402 63.6012 44.6447 63.6012C48.8492 63.6012 52.0855 70.1702 52.0855 70.1702C52.0855 70.1702 60.488 65.6967 63.3669 74.1577Z" fill="#EBEBEB"/>
<path d="M106.452 12.8497H68.2666C68.2666 12.8497 74.8236 0.184546 81.9134 0.000612234C89.0033 -0.183322 92.7724 9.58488 92.7724 9.58488C92.7724 9.58488 103.872 0.604965 106.452 12.8497Z" fill="#EBEBEB"/>
<path d="M143.298 88.7805H117.519C117.519 88.7805 121.951 80.2407 126.753 80.1094C131.555 79.978 134.083 86.5733 134.083 86.5733C134.083 86.5733 141.556 80.5166 143.298 88.7805Z" fill="#EBEBEB"/>
<path d="M174.387 113.559H105.646V191.231H174.387V113.559Z" fill="#DBDBDB"/>
<path d="M175.972 108.844H104.06V113.56H175.972V108.844Z" fill="#EBEBEB"/>
<path d="M156.841 159.51H123.192V164.226H156.841V159.51Z" fill="#EBEBEB"/>
<path d="M125.928 124.807H114.256V143.095H125.928V124.807Z" fill="#C7C7C7"/>
<path d="M124.732 126.146H115.465V141.761H124.732V126.146Z" fill="white"/>
<path d="M127.604 143.102H112.586V145.729H127.604V143.102Z" fill="#EBEBEB"/>
<g opacity="0.5">
<path d="M124.732 126.146V128.078L115.458 137.452V133.885L123.114 126.146H124.732Z" fill="#EBEBEB"/>
<path d="M124.732 137.721V139.507L122.496 141.761H120.735L124.732 137.721Z" fill="#EBEBEB"/>
<path d="M118.584 126.146L115.458 129.306V127.526L116.81 126.146H118.584Z" fill="#EBEBEB"/>
<path d="M124.732 134.93V135.501L118.539 141.762H117.974L124.732 134.93Z" fill="#EBEBEB"/>
</g>
<path d="M125.928 135.33H114.256V136.67H125.928V135.33Z" fill="#C7C7C7"/>
<path d="M145.852 124.807H134.181V143.095H145.852V124.807Z" fill="#C7C7C7"/>
<path d="M144.65 126.146H135.383V141.761H144.65V126.146Z" fill="white"/>
<path d="M147.529 143.102H132.511V145.729H147.529V143.102Z" fill="#EBEBEB"/>
<g opacity="0.5">
<path d="M144.65 126.146V128.078L135.383 137.452V133.885L143.032 126.146H144.65Z" fill="#EBEBEB"/>
<path d="M144.65 137.721V139.507L142.421 141.761H140.653L144.65 137.721Z" fill="#EBEBEB"/>
<path d="M138.502 126.146L135.383 129.306V127.526L136.734 126.146H138.502Z" fill="#EBEBEB"/>
<path d="M144.65 134.93V135.501L138.456 141.762H137.891L144.65 134.93Z" fill="#EBEBEB"/>
</g>
<path d="M145.852 135.33H134.181V136.67H145.852V135.33Z" fill="#C7C7C7"/>
<path d="M165.77 124.807H154.099V143.095H165.77V124.807Z" fill="#C7C7C7"/>
<path d="M164.568 126.146H155.301V141.761H164.568V126.146Z" fill="white"/>
<path d="M167.446 143.102H152.428V145.729H167.446V143.102Z" fill="#EBEBEB"/>
<g opacity="0.5">
<path d="M164.574 126.146V128.078L155.301 137.452V133.885L162.956 126.146H164.574Z" fill="#EBEBEB"/>
<path d="M164.574 137.721V139.507L162.339 141.761H160.578L164.574 137.721Z" fill="#EBEBEB"/>
<path d="M158.42 126.146L155.301 129.306V127.526L156.652 126.146H158.42Z" fill="#EBEBEB"/>
<path d="M164.574 134.93V135.501L158.374 141.762H157.809L164.574 134.93Z" fill="#EBEBEB"/>
</g>
<path d="M165.77 135.33H154.099V136.67H165.77V135.33Z" fill="#C7C7C7"/>
<path d="M154.307 164.227H125.72V191.225H154.307V164.227Z" fill="#C7C7C7"/>
<path d="M152.389 166.225H127.649V191.233H152.389V166.225Z" fill="white"/>
<g opacity="0.5">
<path d="M152.383 176.656V181.307L142.564 191.226H137.976L152.383 176.656Z" fill="#EBEBEB"/>
<path d="M134.102 166.225L127.649 172.754V168.103L129.508 166.225H134.102Z" fill="#EBEBEB"/>
<path d="M147.905 166.225L127.649 186.707V184.388L145.611 166.225H147.905Z" fill="#EBEBEB"/>
<path d="M152.383 183.711V186.036L147.242 191.226H144.948L152.383 183.711Z" fill="#EBEBEB"/>
<path d="M152.383 168.543V168.97L130.366 191.226H129.937L152.383 168.543Z" fill="#EBEBEB"/>
<path d="M136.78 166.225L127.649 175.461V175.027L136.357 166.225H136.78Z" fill="#EBEBEB"/>
<path d="M144.571 166.225L127.649 183.33V182.897L144.143 166.225H144.571Z" fill="#EBEBEB"/>
</g>
<path d="M140.816 166.225H139.224V191.233H140.816V166.225Z" fill="#C7C7C7"/>
<path d="M105.646 129.201H47.3804V191.226H105.646V129.201Z" fill="#DBDBDB"/>
<path d="M100.428 129.201H105.646V191.226H103.333L100.428 129.201Z" fill="#C7C7C7"/>
<path d="M64.1984 137.721H53.9893V153.71H64.1984V137.721Z" fill="#C7C7C7"/>
<path d="M63.1456 138.896H55.042V152.547H63.1456V138.896Z" fill="white"/>
<path d="M65.6543 153.717H52.5273V156.016H65.6543V153.717Z" fill="#EBEBEB"/>
<g opacity="0.5">
<path d="M63.1456 138.896V140.585L55.042 148.776V145.663L61.7354 138.896H63.1456Z" fill="#EBEBEB"/>
<path d="M63.1454 149.014V150.577L61.1959 152.548H59.6558L63.1454 149.014Z" fill="#EBEBEB"/>
<path d="M57.7714 138.896L55.042 141.655V140.099L56.2247 138.896H57.7714Z" fill="#EBEBEB"/>
<path d="M63.1454 146.568V147.074L57.7322 152.546H57.2383L63.1454 146.568Z" fill="#EBEBEB"/>
</g>
<path d="M64.1984 146.924H53.9893V148.093H64.1984V146.924Z" fill="#C7C7C7"/>
<path d="M81.6144 137.721H71.4053V153.71H81.6144V137.721Z" fill="#C7C7C7"/>
<path d="M80.5616 138.896H72.458V152.547H80.5616V138.896Z" fill="white"/>
<path d="M83.0703 153.717H69.9434V156.016H83.0703V153.717Z" fill="#EBEBEB"/>
<g opacity="0.5">
<path d="M80.5616 138.896V140.585L72.458 148.776V145.663L79.1514 138.896H80.5616Z" fill="#EBEBEB"/>
<path d="M80.5615 149.014V150.577L78.6119 152.548H77.0718L80.5615 149.014Z" fill="#EBEBEB"/>
<path d="M75.1874 138.896L72.458 141.655V140.099L73.6407 138.896H75.1874Z" fill="#EBEBEB"/>
<path d="M80.5614 146.568V147.074L75.1482 152.546H74.6543L80.5614 146.568Z" fill="#EBEBEB"/>
</g>
<path d="M81.6144 146.924H71.4053V148.093H81.6144V146.924Z" fill="#C7C7C7"/>
<path d="M99.0304 137.721H88.8213V153.71H99.0304V137.721Z" fill="#C7C7C7"/>
<path d="M97.9776 138.896H89.874V152.547H97.9776V138.896Z" fill="white"/>
<path d="M100.486 153.717H87.3589V156.016H100.486V153.717Z" fill="#EBEBEB"/>
<g opacity="0.5">
<path d="M97.9776 138.896V140.585L89.874 148.776V145.663L96.5675 138.896H97.9776Z" fill="#EBEBEB"/>
<path d="M97.9775 149.014V150.577L96.0279 152.548H94.4878L97.9775 149.014Z" fill="#EBEBEB"/>
<path d="M92.6034 138.896L89.874 141.655V140.099L91.0567 138.896H92.6034Z" fill="#EBEBEB"/>
<path d="M97.9774 146.568V147.074L92.5642 152.546H92.0703L97.9774 146.568Z" fill="#EBEBEB"/>
</g>
<path d="M99.0304 146.924H88.8213V148.093H99.0304V146.924Z" fill="#C7C7C7"/>
<path d="M64.1984 161.869H53.9893V177.858H64.1984V161.869Z" fill="#C7C7C7"/>
<path d="M63.1456 163.045H55.042V176.695H63.1456V163.045Z" fill="white"/>
<path d="M65.6543 177.863H52.5273V180.162H65.6543V177.863Z" fill="#EBEBEB"/>
<g opacity="0.5">
<path d="M63.1456 163.045V164.733L55.042 172.925V169.811L61.7354 163.045H63.1456Z" fill="#EBEBEB"/>
<path d="M63.1454 173.162V174.719L61.1959 176.696H59.6558L63.1454 173.162Z" fill="#EBEBEB"/>
<path d="M57.7714 163.045L55.042 165.804V164.247L56.2247 163.045H57.7714Z" fill="#EBEBEB"/>
<path d="M63.1454 170.717V171.216L57.7322 176.695H57.2383L63.1454 170.717Z" fill="#EBEBEB"/>
</g>
<path d="M64.1984 171.072H53.9893V172.242H64.1984V171.072Z" fill="#C7C7C7"/>
<path d="M81.6144 161.869H71.4053V177.858H81.6144V161.869Z" fill="#C7C7C7"/>
<path d="M80.5616 163.045H72.458V176.695H80.5616V163.045Z" fill="white"/>
<path d="M83.0703 177.863H69.9434V180.162H83.0703V177.863Z" fill="#EBEBEB"/>
<g opacity="0.5">
<path d="M80.5616 163.045V164.733L72.458 172.925V169.811L79.1514 163.045H80.5616Z" fill="#EBEBEB"/>
<path d="M80.5615 173.162V174.719L78.6119 176.696H77.0718L80.5615 173.162Z" fill="#EBEBEB"/>
<path d="M75.1874 163.045L72.458 165.804V164.247L73.6407 163.045H75.1874Z" fill="#EBEBEB"/>
<path d="M80.5614 170.717V171.216L75.1482 176.695H74.6543L80.5614 170.717Z" fill="#EBEBEB"/>
</g>
<path d="M81.6144 171.072H71.4053V172.242H81.6144V171.072Z" fill="#C7C7C7"/>
<path d="M99.0304 161.869H88.8213V177.858H99.0304V161.869Z" fill="#C7C7C7"/>
<path d="M97.9776 163.045H89.874V176.695H97.9776V163.045Z" fill="white"/>
<path d="M100.486 177.863H87.3589V180.162H100.486V177.863Z" fill="#EBEBEB"/>
<g opacity="0.5">
<path d="M97.9776 163.045V164.733L89.874 172.925V169.811L96.5675 163.045H97.9776Z" fill="#EBEBEB"/>
<path d="M97.9775 173.162V174.719L96.0279 176.696H94.4878L97.9775 173.162Z" fill="#EBEBEB"/>
<path d="M92.6034 163.045L89.874 165.804V164.247L91.0567 163.045H92.6034Z" fill="#EBEBEB"/>
<path d="M97.9774 170.717V171.216L92.5642 176.695H92.0703L97.9774 170.717Z" fill="#EBEBEB"/>
</g>
<path d="M99.0304 171.072H88.8213V172.242H99.0304V171.072Z" fill="#C7C7C7"/>
<path d="M105.646 124.484H45.3921V129.201H105.646V124.484Z" fill="#EBEBEB"/>
<path d="M174.354 191.227H232.62V129.201H174.354V191.227Z" fill="#DBDBDB"/>
<path d="M179.566 129.201H174.354V191.226H176.667L179.566 129.201Z" fill="#C7C7C7"/>
<path d="M215.802 153.717H226.011V137.728H215.802V153.717Z" fill="#C7C7C7"/>
<path d="M216.854 152.541H224.958V138.89H216.854V152.541Z" fill="white"/>
<path d="M214.339 156.016H227.466V153.716H214.339V156.016Z" fill="#EBEBEB"/>
<g opacity="0.5">
<path d="M216.854 138.896V140.585L224.958 148.776V145.663L218.265 138.896H216.854Z" fill="#EBEBEB"/>
<path d="M216.854 149.014V150.577L218.804 152.548H220.344L216.854 149.014Z" fill="#EBEBEB"/>
<path d="M222.229 138.896L224.958 141.655V140.099L223.775 138.896H222.229Z" fill="#EBEBEB"/>
<path d="M216.854 146.568V147.074L222.268 152.546H222.762L216.854 146.568Z" fill="#EBEBEB"/>
</g>
<path d="M215.802 148.094H226.011V146.924H215.802V148.094Z" fill="#C7C7C7"/>
<path d="M198.386 153.717H208.595V137.728H198.386V153.717Z" fill="#C7C7C7"/>
<path d="M199.438 152.541H207.542V138.89H199.438V152.541Z" fill="white"/>
<path d="M196.923 156.016H210.05V153.716H196.923V156.016Z" fill="#EBEBEB"/>
<g opacity="0.5">
<path d="M199.438 138.896V140.585L207.542 148.776V145.663L200.849 138.896H199.438Z" fill="#EBEBEB"/>
<path d="M199.438 149.014V150.577L201.388 152.548H202.928L199.438 149.014Z" fill="#EBEBEB"/>
<path d="M204.812 138.896L207.542 141.655V140.099L206.359 138.896H204.812Z" fill="#EBEBEB"/>
<path d="M199.438 146.568V147.074L204.852 152.546H205.346L199.438 146.568Z" fill="#EBEBEB"/>
</g>
<path d="M198.386 148.094H208.595V146.924H198.386V148.094Z" fill="#C7C7C7"/>
<path d="M180.963 153.717H191.172V137.728H180.963V153.717Z" fill="#C7C7C7"/>
<path d="M182.022 152.541H190.126V138.89H182.022V152.541Z" fill="white"/>
<path d="M179.507 156.016H192.634V153.716H179.507V156.016Z" fill="#EBEBEB"/>
<g opacity="0.5">
<path d="M182.022 138.896V140.585L190.126 148.776V145.663L183.433 138.896H182.022Z" fill="#EBEBEB"/>
<path d="M182.022 149.014V150.577L183.972 152.548H185.512L182.022 149.014Z" fill="#EBEBEB"/>
<path d="M187.396 138.896L190.126 141.655V140.099L188.943 138.896H187.396Z" fill="#EBEBEB"/>
<path d="M182.022 146.568V147.074L187.436 152.546H187.93L182.022 146.568Z" fill="#EBEBEB"/>
</g>
<path d="M180.963 148.094H191.172V146.924H180.963V148.094Z" fill="#C7C7C7"/>
<path d="M215.802 177.863H226.011V161.874H215.802V177.863Z" fill="#C7C7C7"/>
<path d="M216.854 176.688H224.958V163.037H216.854V176.688Z" fill="white"/>
<path d="M214.339 180.164H227.466V177.865H214.339V180.164Z" fill="#EBEBEB"/>
<g opacity="0.5">
<path d="M216.854 163.045V164.733L224.958 172.925V169.811L218.265 163.045H216.854Z" fill="#EBEBEB"/>
<path d="M216.854 173.162V174.719L218.804 176.696H220.344L216.854 173.162Z" fill="#EBEBEB"/>
<path d="M222.229 163.045L224.958 165.804V164.247L223.775 163.045H222.229Z" fill="#EBEBEB"/>
<path d="M216.854 170.717V171.216L222.268 176.695H222.762L216.854 170.717Z" fill="#EBEBEB"/>
</g>
<path d="M215.802 172.24H226.011V171.071H215.802V172.24Z" fill="#C7C7C7"/>
<path d="M198.386 177.863H208.595V161.874H198.386V177.863Z" fill="#C7C7C7"/>
<path d="M199.438 176.688H207.542V163.037H199.438V176.688Z" fill="white"/>
<path d="M196.923 180.164H210.05V177.865H196.923V180.164Z" fill="#EBEBEB"/>
<g opacity="0.5">
<path d="M199.438 163.045V164.733L207.542 172.925V169.811L200.849 163.045H199.438Z" fill="#EBEBEB"/>
<path d="M199.438 173.162V174.719L201.388 176.696H202.928L199.438 173.162Z" fill="#EBEBEB"/>
<path d="M204.812 163.045L207.542 165.804V164.247L206.359 163.045H204.812Z" fill="#EBEBEB"/>
<path d="M199.438 170.717V171.216L204.852 176.695H205.346L199.438 170.717Z" fill="#EBEBEB"/>
</g>
<path d="M198.386 172.24H208.595V171.071H198.386V172.24Z" fill="#C7C7C7"/>
<path d="M180.963 177.863H191.172V161.874H180.963V177.863Z" fill="#C7C7C7"/>
<path d="M182.022 176.688H190.126V163.037H182.022V176.688Z" fill="white"/>
<path d="M179.507 180.164H192.634V177.865H179.507V180.164Z" fill="#EBEBEB"/>
<g opacity="0.5">
<path d="M182.022 163.045V164.733L190.126 172.925V169.811L183.433 163.045H182.022Z" fill="#EBEBEB"/>
<path d="M182.022 173.162V174.719L183.972 176.696H185.512L182.022 173.162Z" fill="#EBEBEB"/>
<path d="M187.396 163.045L190.126 165.804V164.247L188.943 163.045H187.396Z" fill="#EBEBEB"/>
<path d="M182.022 170.717V171.216L187.436 176.695H187.93L182.022 170.717Z" fill="#EBEBEB"/>
</g>
<path d="M180.963 172.24H191.172V171.071H180.963V172.24Z" fill="#C7C7C7"/>
<path d="M174.354 129.201H234.608V124.485H174.354V129.201Z" fill="#EBEBEB"/>
<path d="M163.671 103.259V108.836H116.355V103.259H124.732C124.732 103.259 128.82 96.9062 140.01 96.9062C151.2 96.9062 155.301 103.259 155.301 103.259H163.671Z" fill="#DBDBDB"/>
<path d="M139.997 280C207.481 280 262.188 275.059 262.188 268.964C262.188 262.869 207.481 257.928 139.997 257.928C72.5124 257.928 17.8057 262.869 17.8057 268.964C17.8057 275.059 72.5124 280 139.997 280Z" fill="#EBEBEB"/>
<path d="M0 196.166L35.0008 196.009L70.0016 195.95L140.003 195.838L209.998 195.95L244.999 196.009L280 196.166L244.999 196.324L209.998 196.383L140.003 196.495L70.0016 196.383L35.0008 196.324L0 196.166Z" fill="#263238"/>
<path d="M275.581 191.238H4.41895V196.014H275.581V191.238Z" fill="#C7C7C7"/>
<path d="M23.4271 191.238C23.8516 192.801 23.8516 194.451 23.4271 196.014C23.1981 195.239 23.0885 194.432 23.1022 193.623C23.0919 192.816 23.2015 192.012 23.4271 191.238Z" fill="#263238"/>
<path d="M44.6187 191.238C44.8443 192.012 44.9539 192.816 44.9436 193.623C44.9574 194.432 44.8478 195.239 44.6187 196.014C44.1942 194.451 44.1942 192.801 44.6187 191.238Z" fill="#263238"/>
<path d="M65.8168 191.238C66.2413 192.801 66.2413 194.451 65.8168 196.014C65.5877 195.239 65.4781 194.432 65.4919 193.623C65.4816 192.816 65.5911 192.012 65.8168 191.238Z" fill="#263238"/>
<path d="M87.0083 191.238C87.234 192.012 87.3435 192.816 87.3332 193.623C87.347 194.432 87.2374 195.239 87.0083 196.014C86.5838 194.451 86.5838 192.801 87.0083 191.238Z" fill="#263238"/>
<path d="M108.206 191.238C108.63 192.801 108.63 194.451 108.206 196.014C107.977 195.239 107.867 194.432 107.881 193.623C107.871 192.816 107.98 192.012 108.206 191.238Z" fill="#263238"/>
<path d="M129.397 191.238C129.623 192.012 129.733 192.816 129.722 193.623C129.736 194.432 129.627 195.239 129.397 196.014C128.973 194.451 128.973 192.801 129.397 191.238Z" fill="#263238"/>
<path d="M150.596 191.238C151.02 192.801 151.02 194.451 150.596 196.014C150.367 195.239 150.257 194.432 150.271 193.623C150.26 192.816 150.37 192.012 150.596 191.238Z" fill="#263238"/>
<path d="M171.787 191.238C172.013 192.012 172.122 192.816 172.112 193.623C172.126 194.432 172.016 195.239 171.787 196.014C171.363 194.451 171.363 192.801 171.787 191.238Z" fill="#263238"/>
<path d="M192.985 191.238C193.41 192.801 193.41 194.451 192.985 196.014C192.756 195.239 192.647 194.432 192.66 193.623C192.65 192.816 192.76 192.012 192.985 191.238Z" fill="#263238"/>
<path d="M214.177 191.238C214.402 192.012 214.512 192.816 214.502 193.623C214.515 194.432 214.406 195.239 214.177 196.014C213.752 194.451 213.752 192.801 214.177 191.238Z" fill="#263238"/>
<path d="M235.375 191.238C235.799 192.801 235.799 194.451 235.375 196.014C235.146 195.239 235.036 194.432 235.05 193.623C235.04 192.816 235.149 192.012 235.375 191.238Z" fill="#263238"/>
<path d="M256.566 191.238C256.792 192.012 256.902 192.816 256.891 193.623C256.905 194.432 256.796 195.239 256.566 196.014C256.142 194.451 256.142 192.801 256.566 191.238Z" fill="#263238"/>
<path d="M34.9941 191.239C34.9941 191.239 34.4483 188.657 33.3565 188.263C32.2648 187.869 31.5954 189.019 31.5954 189.019C31.5954 189.019 31.342 186.555 29.7888 185.819C28.2357 185.084 27.079 186.568 27.079 186.568C27.079 186.568 25.8898 183.441 23.7648 183.441C21.6398 183.441 20.574 188.04 20.574 188.04C20.574 188.04 19.3198 186.673 18.0331 187.449C16.7464 188.224 16.7334 191.239 16.7334 191.239H34.9941Z" fill="#37474F"/>
<path d="M216.198 191.239C216.198 191.239 215.652 188.657 214.56 188.263C213.469 187.869 212.806 189.018 212.806 189.018C212.806 189.018 212.546 186.555 210.999 185.819C209.453 185.083 208.289 186.588 208.289 186.588C208.289 186.588 207.1 183.461 204.975 183.461C202.85 183.461 201.778 188.059 201.778 188.059C201.778 188.059 200.53 186.693 199.244 187.468C197.957 188.243 197.944 191.258 197.944 191.258L216.198 191.239Z" fill="#455A64"/>
<path d="M83.265 191.239H64.062C64.062 191.239 64.7119 188.5 65.9661 188.309C66.349 188.273 66.7338 188.356 67.0685 188.547C67.4032 188.739 67.6717 189.029 67.8376 189.38C67.8376 189.38 67.7791 185.564 70.1576 184.913C72.536 184.263 74.5246 187.639 74.5246 187.639C74.5246 187.639 76.0192 185.715 78.0467 185.84C80.0743 185.964 80.6007 189.124 80.6007 189.124C80.6007 189.124 82.4462 188.034 83.265 191.239Z" fill="#37474F"/>
<path d="M17.9294 191.238H7.82422C7.82422 191.238 7.82422 189.714 8.83798 189.313C9.1073 189.194 9.40783 189.166 9.69399 189.235C9.98015 189.304 10.2363 189.465 10.4236 189.694C10.4236 189.694 10.8265 186.902 12.6786 186.902C14.5307 186.902 15.4209 189.313 15.4209 189.313C15.578 189.083 15.7984 188.904 16.0547 188.799C16.3111 188.694 16.5923 188.667 16.8636 188.722C17.8904 188.853 17.9294 191.238 17.9294 191.238Z" fill="#455A64"/>
<path d="M91.193 191.238H81.0879C81.0879 191.238 81.0879 189.714 82.1017 189.313C82.371 189.194 82.6715 189.166 82.9577 189.235C83.2438 189.304 83.5 189.465 83.6873 189.694C83.6873 189.694 84.0967 186.902 85.9488 186.902C87.8008 186.902 88.6846 189.313 88.6846 189.313C88.8417 189.083 89.062 188.904 89.3184 188.799C89.5748 188.694 89.856 188.667 90.1273 188.722C91.154 188.853 91.193 191.238 91.193 191.238Z" fill="#455A64"/>
<path d="M257.424 191.238H247.319C247.319 191.238 247.319 189.714 248.333 189.313C248.602 189.194 248.903 189.166 249.189 189.235C249.475 189.304 249.731 189.465 249.919 189.694C249.919 189.694 250.322 186.902 252.174 186.902C254.026 186.902 254.916 189.313 254.916 189.313C255.073 189.082 255.293 188.903 255.549 188.798C255.806 188.693 256.087 188.666 256.359 188.722C257.385 188.853 257.424 191.238 257.424 191.238Z" fill="#455A64"/>
<path d="M272.169 191.239H255.507C255.507 191.239 255.546 188.73 257.184 188.066C257.629 187.877 258.123 187.839 258.592 187.958C259.06 188.076 259.478 188.345 259.783 188.723C259.783 188.723 260.433 184.125 263.507 184.125C266.581 184.125 268.017 188.066 268.017 188.066C268.276 187.687 268.639 187.392 269.061 187.218C269.484 187.044 269.948 186.999 270.395 187.088C272.104 187.311 272.169 191.239 272.169 191.239Z" fill="#37474F"/>
<path d="M178.215 189.854C178.215 189.854 191.413 212.037 191.419 212.057C193.967 216.281 196.124 220.038 197.06 222.081C197.332 222.537 197.496 223.049 197.541 223.579C197.541 223.579 197.541 223.612 197.541 223.619C196.813 225.241 163.976 246.788 162.579 247.149C161.182 247.51 160.051 243.516 160.669 241.651C161.286 239.785 170.208 225.852 170.208 225.852L157.211 203.55L178.215 189.854Z" fill="#EB9481"/>
<path d="M187.481 205.462L165.633 218.054C165.633 218.054 146.723 190.931 142.934 174.554C140.237 162.901 164.334 108.627 164.334 108.627L187.26 109.533C187.26 109.533 166.673 162.086 167.765 167.512C169.097 174.14 187.481 205.462 187.481 205.462Z" fill="#EB9481"/>
<path d="M197.547 223.637C197.547 223.637 197.547 223.669 197.547 223.676C196.813 225.299 163.976 246.845 162.586 247.206C161.195 247.568 160.058 243.574 160.675 241.708C161.013 240.697 163.762 236.177 166.225 232.229C163.937 236.065 159.2 247.272 193.83 216.135C195.286 218.638 196.43 220.733 197.08 222.106C197.353 222.572 197.514 223.096 197.547 223.637Z" fill="#263238"/>
<path d="M210.739 148.467L226.381 131.729C229.975 128.359 235.089 123.189 235.999 123.117C237.708 123.518 265.567 151.962 266.197 153.276C266.828 154.59 263.182 156.501 261.252 156.265C259.322 156.028 244.031 149.972 244.031 149.972L227.505 166.618L210.739 148.467Z" fill="#EB9481"/>
<path d="M261.252 156.292C260.277 156.167 255.975 154.597 251.907 153.054C256.605 153.96 265.736 153.835 227.031 131.139C230.559 127.795 235.134 123.197 235.992 123.145C237.708 123.545 265.567 151.989 266.191 153.303C266.814 154.617 263.182 156.529 261.252 156.292Z" fill="#263238"/>
<path d="M164.522 108.633C164.522 108.633 165.965 116.765 167.388 123.341C168.421 128.143 169.513 132.373 170.215 132.833C170.916 133.293 174.907 135.29 176.219 135.901C176.219 135.901 181.723 167.38 187.917 178.107C190.048 181.779 201.037 186.417 206.977 183.363C220.909 176.137 238.988 155.083 238.988 155.083L222.092 136.335L203.896 154.4C200.731 146.582 200.179 131.408 200.179 131.408C200.179 131.408 200.829 116.549 196.144 109.861L164.522 108.633Z" fill="#EB9481"/>
<path d="M164.145 108.619C164.145 108.619 141.634 153.722 141.212 172.247C141.076 178.225 144.052 185.845 144.052 185.845C144.052 185.845 165.75 189.846 177.974 184.341C190.198 178.836 195.52 167.774 200.862 158.452C203.221 154.333 205.008 153.295 205.008 153.295C205.008 153.295 200.862 134.199 200.797 132.071C200.797 132.071 201.817 118.144 196.176 109.861L164.145 108.619Z" fill="#263238"/>
<path d="M182.282 51.1199C175.582 58.0043 174.555 75.3335 183.27 86.7834C190.652 96.4793 207.314 97.9508 214.333 91.9401C221.773 85.5353 220.435 75.4518 214.788 70.6563C208.939 65.7033 202.135 67.2207 198.574 62.7734C196.871 60.6451 196.15 56.073 193.765 52.8213C191.107 49.1952 185.72 47.5858 182.282 51.1199Z" fill="#263238"/>
<path d="M195.474 55.877C196.01 57.4322 196.673 58.9395 197.456 60.3833C198.235 61.866 199.326 63.1577 200.653 64.1671C201.352 64.6386 202.126 64.9852 202.941 65.1919C203.727 65.4284 204.52 65.6254 205.306 65.8488C206.878 66.2278 208.428 66.6882 209.953 67.2283C211.469 67.7475 212.913 68.4629 214.248 69.3567C215.58 70.2527 216.714 71.4171 217.58 72.777C218.445 74.1369 219.023 75.6629 219.278 77.2593C219.552 78.8727 219.635 80.5134 219.525 82.1467C219.752 80.5111 219.767 78.8528 219.57 77.2133C219.358 75.5532 218.817 73.9534 217.978 72.5098C217.12 71.0678 215.963 69.8308 214.586 68.8837C213.22 67.9453 211.739 67.1901 210.18 66.6371C208.634 66.0991 207.059 65.6495 205.462 65.2904C204.676 65.0934 203.89 64.9029 203.116 64.6861C202.352 64.4889 201.621 64.179 200.946 63.7664C199.635 62.8364 198.542 61.6279 197.742 60.2257C196.882 58.8339 196.124 57.3804 195.474 55.877Z" fill="#263238"/>
<path d="M181.009 52.6504C179.079 55.6077 177.614 58.8498 176.668 62.2609C175.68 65.6848 175.341 69.2663 175.667 72.8174C175.851 74.5944 176.25 76.3418 176.856 78.0201C176.996 78.4429 177.158 78.8574 177.344 79.2617C177.504 79.6762 177.687 80.0818 177.889 80.477C178.097 80.8711 178.292 81.2718 178.507 81.6594L179.215 82.7893C181.196 85.7223 183.72 88.2388 186.649 90.1992C186 89.6277 185.291 89.0956 184.648 88.5044C184 87.9209 183.382 87.3048 182.796 86.6585C181.592 85.4 180.523 84.0173 179.605 82.5331C177.756 79.5793 176.614 76.23 176.271 72.7517C175.925 69.2733 176.211 65.76 177.116 62.3858C177.544 60.6859 178.087 59.0178 178.741 57.3933C179.385 55.7599 180.142 54.175 181.009 52.6504Z" fill="#263238"/>
<path d="M178.767 79.5968C174.094 81.7974 153.423 85.9688 147.1 81.0485C140.66 76.0363 135.955 55.843 135.188 53.3271C133.401 47.4149 151.506 46.7055 152.039 48.3214C153.936 54.0694 156.094 69.1848 158.498 69.9994C163.554 71.6548 168.434 71.8913 176.57 73.3627C182.237 74.3612 183.933 77.1662 178.767 79.5968Z" fill="#EB9481"/>
<path d="M135.623 54.3979C134.785 52.506 131.601 43.3881 131.302 40.6817C131.003 37.9752 130.691 30.1252 132.718 29.6785C134.746 29.2318 135.019 31.5375 135.019 31.5375C135.019 31.5375 135.409 28.207 137.488 27.9443C139.568 27.6815 139.873 31.2682 139.873 31.2682C139.873 31.2682 140.523 27.872 142.616 27.7603C144.708 27.6486 144.416 31.301 144.416 31.301C144.416 31.301 144.864 28.1676 146.625 28.8179C148.75 29.5931 147.275 35.2688 147.827 38.2314C147.957 38.8883 151.343 51.6849 151.343 51.6849L135.623 54.3979Z" fill="#EB9481"/>
<path d="M144.435 30.9797C143.363 35.1576 143.61 37.1743 144.89 41.2274C144.89 41.3063 144.806 41.3588 144.773 41.28C143.162 37.4305 142.492 34.9408 144.24 30.914C144.325 30.7169 144.487 30.776 144.435 30.9797Z" fill="#263238"/>
<path d="M139.997 30.9202C139.256 35.3609 139.509 37.5549 140.536 41.8905C140.536 41.9045 140.531 41.9178 140.521 41.9277C140.511 41.9375 140.498 41.9431 140.484 41.9431C140.47 41.9431 140.457 41.9375 140.447 41.9277C140.438 41.9178 140.432 41.9045 140.432 41.8905C139.068 37.7192 138.483 35.2229 139.782 30.8873C139.795 30.7231 139.997 30.7165 139.997 30.9202Z" fill="#263238"/>
<path d="M135.077 31.7489C134.668 36.0976 134.837 38.5085 136.377 42.5944C136.38 42.613 136.376 42.6319 136.367 42.6482C136.358 42.6646 136.344 42.6775 136.327 42.6849C136.31 42.6924 136.291 42.694 136.273 42.6895C136.255 42.6851 136.239 42.6747 136.228 42.6601C134.278 38.653 134.025 35.6444 134.928 31.7489C135.006 31.4861 135.103 31.473 135.077 31.7489Z" fill="#263238"/>
<path d="M152.208 54.2402C152.208 54.2402 154.482 49.3462 155.015 46.9682C155.548 44.5902 154.307 35.0125 152.24 35.1439C149.576 35.341 149.218 41.0167 149.4 43.8217C149.4 43.8217 143.233 44.2749 142.102 48.2886C140.972 52.3023 152.208 54.2402 152.208 54.2402Z" fill="#EB9481"/>
<path d="M151.525 35.479C149.224 37.4497 149.699 41.0956 149.679 43.8283C149.681 43.8689 149.674 43.9094 149.657 43.9463C149.64 43.9832 149.614 44.0153 149.582 44.0399C149.55 44.0645 149.513 44.0809 149.473 44.0875C149.433 44.0941 149.393 44.0908 149.354 44.0779C146.755 44.4392 143.259 45.7136 142.024 48.1836C142.016 48.1964 142.003 48.2058 141.988 48.2101C141.974 48.2143 141.958 48.2132 141.944 48.207C141.93 48.2007 141.919 48.1896 141.912 48.1758C141.905 48.1619 141.904 48.146 141.907 48.1311C142.875 45.2998 146.235 43.7692 149.056 43.5327C149.056 40.7277 148.724 37.0293 151.492 35.4396C151.525 35.4265 151.544 35.479 151.525 35.479Z" fill="#263238"/>
<path d="M153.436 52.1855C153.436 52.1855 156.828 68.444 158.264 69.1732C160.649 70.3884 174.426 72.5562 179.326 73.5876C184.226 74.6189 187.579 77.7983 175.661 82.0814C164.145 86.2199 151.616 88.5782 145.43 86.2199C137.917 83.3492 131.081 65.9018 131.081 65.9018L153.436 52.1855Z" fill="#BC93DC"/>
<path d="M133.94 69.6392C142.817 63.6876 152.454 58.4718 154.118 57.493C154.202 57.447 154.248 57.5981 154.17 57.6441C152.604 58.5769 141.706 65.6321 133.992 69.8034C133.901 69.8691 133.856 69.7115 133.94 69.6392Z" fill="#263238"/>
<path opacity="0.1" d="M183.647 77.2852C183.049 78.6318 180.749 80.2544 175.66 82.0806C164.145 86.2191 151.616 88.5774 145.43 86.2191C144.57 85.8741 143.764 85.405 143.038 84.8264L183.647 77.2852Z" fill="black"/>
<path d="M164.145 108.62L196.455 109.895C196.455 109.895 194.967 87.1395 190.126 77.7589C187.923 73.489 184.719 73.1606 181.522 74.586C180.723 74.9473 169.825 82.9945 168.174 86.4104C166.699 89.4124 168.278 93.6363 168.278 93.6363L164.145 108.62Z" fill="#EBEBEB"/>
<path d="M180.547 74.8942C180.547 74.8942 175.836 80.3793 175.498 82.5668C175.31 84.3134 175.31 86.0755 175.498 87.8221C178.23 86.7325 180.907 85.5047 183.517 84.1434C186.182 82.6128 188.001 74.7891 188.001 74.7891C188.001 74.7891 191.829 78.448 193.453 85.8382C194.714 91.5402 197.56 109.007 197.775 109.52C197.989 110.032 202.324 120.805 201.765 131.802C201.765 131.802 204.91 145.347 206.418 146.871C207.925 148.395 210.453 146.504 210.453 146.504C210.453 146.504 201.765 176.912 185.311 181.977C170.709 186.496 139.535 175.283 140.185 169.055C140.835 162.828 150.908 134.692 163.203 108.62L168.038 93.7802C168.038 93.7802 165.926 89.4315 168.142 86.0484C170.358 82.6654 178.819 75.6759 180.547 74.8942Z" fill="#BC93DC"/>
<path opacity="0.1" d="M161.552 151.562C160.61 154.308 159.713 157.06 158.712 159.786C158.205 161.159 157.751 162.558 157.302 163.957C156.808 165.381 156.496 166.862 156.373 168.365C156.373 168.378 156.368 168.391 156.359 168.4C156.349 168.409 156.337 168.415 156.324 168.415C156.311 168.415 156.299 168.409 156.29 168.4C156.281 168.391 156.275 168.378 156.275 168.365C156.31 166.71 156.528 165.064 156.925 163.458C157.476 160.531 158.278 157.658 159.323 154.872C159.869 153.5 160.486 152.146 161.136 150.813C161.786 149.479 162.436 148.126 163.144 146.871C163.196 146.779 163.365 146.832 163.326 146.944C162.741 148.468 162.092 149.992 161.552 151.562Z" fill="black"/>
<path opacity="0.1" d="M186.201 158.393C186.201 156.422 186.201 154.504 186.325 152.56C186.442 150.845 186.578 149.131 186.812 147.429C187.046 145.728 187.41 144.007 187.8 142.312C188.573 138.929 189.463 135.559 190.438 132.229C189.899 134.101 189.405 135.986 189.015 137.898C188.365 141.274 187.988 144.683 187.494 148.086C187 151.489 186.539 154.944 186.279 158.38C186.299 158.452 186.201 158.459 186.201 158.393Z" fill="black"/>
<path opacity="0.1" d="M194.123 176.458C193.902 176.674 193.681 176.878 193.473 177.082C193.083 176.799 192.7 176.51 192.323 176.221C189.002 173.659 185.376 170.716 183.914 166.624C183.305 164.638 183.052 162.558 183.166 160.482C183.239 158.345 183.438 156.215 183.764 154.103C183.764 154.024 183.907 154.037 183.894 154.103C183.619 156.426 183.532 158.768 183.634 161.106C183.779 163.136 184.341 165.114 185.285 166.913C186.263 168.667 187.489 170.267 188.924 171.662C190.555 173.37 192.329 174.921 194.123 176.458Z" fill="black"/>
<path opacity="0.1" d="M174.335 148.225C173.308 151.102 172.327 153.993 171.502 156.936C171.094 158.39 170.73 159.85 170.41 161.317C170.091 162.802 169.857 164.3 169.591 165.791C169.318 167.262 169.142 168.75 169.065 170.245C169.026 171.013 169.026 171.782 169.065 172.55C169.104 173.319 169.019 174.042 169.065 174.79C169.065 174.896 168.915 174.896 168.902 174.79C168.831 174.317 168.707 173.864 168.616 173.404C168.553 172.998 168.511 172.587 168.493 172.176C168.421 171.329 168.395 170.481 168.382 169.64C168.339 167.954 168.4 166.267 168.564 164.589C168.95 161.552 169.603 158.555 170.514 155.635C171.372 152.705 172.379 149.821 173.412 146.951C174.491 143.962 175.537 140.96 176.837 138.063C178.136 135.166 179.397 132.092 180.554 129.057C180.554 128.984 180.69 129.011 180.664 129.057C180.073 130.751 179.547 132.473 178.968 134.167C178.39 135.862 177.961 137.61 177.415 139.311C176.934 140.822 176.453 142.313 175.914 143.804C175.375 145.295 174.861 146.76 174.335 148.225Z" fill="black"/>
<path opacity="0.1" d="M162.02 180.965L161.019 180.709C160.23 178.582 159.74 176.353 159.564 174.088C159.553 173.221 159.594 172.354 159.687 171.493C159.739 170.685 159.837 169.877 159.954 169.075C160.2 167.416 160.636 165.792 161.253 164.234C161.253 164.175 161.37 164.234 161.351 164.273C160.716 165.955 160.354 167.73 160.279 169.529C160.242 170.317 160.263 171.108 160.344 171.894C160.435 172.682 160.61 173.464 160.707 174.258C160.894 175.843 161.17 177.415 161.533 178.968C161.676 179.665 161.845 180.322 162.02 180.965Z" fill="black"/>
<path opacity="0.1" d="M189.645 179.999C188.287 180.835 186.831 181.497 185.311 181.969C182.774 182.692 180.148 183.042 177.513 183.007C177.019 182.317 176.557 181.621 176.115 180.898C174.527 178.392 173.484 175.573 173.055 172.628C172.632 169.212 173.451 165.757 174.166 162.439C174.9 159.004 180.131 144.085 180.989 145.196C182.029 146.549 179.072 162.354 178.89 164.246C178.636 166.005 178.946 167.801 179.774 169.37C180.727 170.859 181.838 172.238 183.088 173.482C184.336 174.848 185.623 176.178 186.948 177.469C187.819 178.343 188.735 179.164 189.645 179.999Z" fill="black"/>
<path opacity="0.1" d="M207.828 147.456C207.476 148.102 207.092 148.729 206.678 149.335C205.625 150.945 204.559 152.547 203.5 154.144C202.441 155.74 201.323 157.382 200.251 159.005C199.36 160.319 198.555 161.718 197.183 162.605C197.13 162.635 197.069 162.648 197.008 162.64C196.947 162.632 196.89 162.605 196.846 162.563C196.801 162.52 196.772 162.464 196.761 162.403C196.751 162.342 196.76 162.279 196.787 162.224C197.606 160.549 198.548 158.939 199.432 157.29C200.975 154.596 202.378 151.822 203.636 148.98C204.24 147.521 204.753 146.025 205.17 144.5C205.17 144.441 205.203 144.376 205.222 144.316C205.481 145.225 205.887 146.084 206.424 146.859C206.797 147.236 207.301 147.451 207.828 147.456Z" fill="black"/>
<path opacity="0.1" d="M195.357 107.549C193.343 108.351 191.335 109.172 189.262 109.809C187.234 110.415 185.167 110.878 183.075 111.195C179.408 111.853 175.638 111.628 172.073 110.538C170.049 109.814 168.194 108.679 166.621 107.201C166.575 107.162 166.51 107.201 166.556 107.28C169.034 110.204 172.518 112.068 176.304 112.496C180.476 113.047 184.531 112.154 188.397 110.604C190.743 109.664 193.07 108.633 195.383 107.635C195.429 107.615 195.409 107.529 195.357 107.549Z" fill="black"/>
<path d="M179.248 94.4177C177.874 94.1381 176.482 93.9625 175.082 93.8922C174.387 93.8922 173.698 93.8922 173.002 93.8922C172.658 93.8922 172.314 93.8922 171.963 93.8922C171.6 93.8999 171.238 93.8646 170.884 93.7871C170.884 93.7871 170.838 93.8265 170.884 93.8331C171.207 93.9472 171.537 94.0393 171.872 94.109C172.201 94.1646 172.533 94.1975 172.866 94.2075C173.568 94.2404 174.276 94.2404 174.985 94.2667C176.401 94.3126 177.824 94.3652 179.241 94.5163C179.293 94.536 179.313 94.4309 179.248 94.4177Z" fill="#263238"/>
<path d="M182.198 96.5714C181.137 96.1264 180.052 95.7426 178.949 95.4218C178.396 95.2642 177.831 95.1394 177.266 95.0277L176.453 94.8832C176.154 94.8372 175.842 94.824 175.55 94.7715C175.517 94.7715 175.504 94.8175 175.55 94.824C175.836 94.8832 176.102 94.9883 176.382 95.0605L177.214 95.2839C177.772 95.435 178.325 95.5926 178.884 95.7371C180.001 96.0327 181.106 96.3284 182.211 96.6634C182.223 96.6616 182.234 96.6551 182.241 96.6453C182.248 96.6354 182.252 96.623 182.25 96.6108C182.248 96.5986 182.242 96.5876 182.232 96.5802C182.222 96.5728 182.21 96.5697 182.198 96.5714Z" fill="#263238"/>
<path d="M189.171 82.7117C196.624 93.4849 208.172 109.507 215.015 109.362C221.208 109.238 231.086 103.838 241.847 98.0504C243.992 96.8943 234.264 80.557 232.1 82.0153C227.856 84.8795 218.804 92.5259 215.853 93.0251C214.599 93.2287 200.517 82.7445 192.582 77.706C185.642 73.2785 187.722 80.6161 189.171 82.7117Z" fill="#EB9481"/>
<path d="M251.257 93.2015C248.248 95.7109 238.696 99.6458 236.486 99.5341C234.277 99.4224 229.286 85.5814 230.501 83.6435C231.716 81.7056 242.491 74.0527 246.474 74.0001C250.458 73.9476 254.37 90.6067 251.257 93.2015Z" fill="#EB9481"/>
<path d="M236.434 63.5826C236.434 63.5826 241.47 58.4981 247.813 62.433C247.813 62.433 248.086 81.5556 248.261 82.7117C248.437 83.8679 253.597 105.23 253.597 105.23C253.597 105.23 248.82 108.64 241.425 105.855C241.425 105.855 242.621 83.9401 242.497 83.2964C242.374 82.6526 236.434 63.5826 236.434 63.5826Z" fill="#EBEBEB"/>
<path d="M253.596 105.229C253.596 105.229 246.669 101.288 241.425 105.853C241.425 105.853 246.858 109.052 253.596 105.229Z" fill="#DBDBDB"/>
<path d="M248.262 82.7105C248.411 82.5923 248.262 82.5266 248.145 82.5003C248.014 82.4661 247.882 82.442 247.748 82.428C247.475 82.3952 247.202 82.3821 246.929 82.3755C246.383 82.3611 245.836 82.3764 245.292 82.4215C244.746 82.4609 244.2 82.5266 243.661 82.612C243.396 82.6545 243.135 82.7182 242.881 82.8025C242.653 82.8813 242.322 82.9995 242.497 83.2952C242.427 83.2549 242.373 83.1893 242.348 83.1112C242.335 83.0244 242.353 82.9357 242.4 82.8616C242.484 82.7229 242.597 82.6041 242.731 82.5134C242.979 82.3469 243.248 82.2144 243.531 82.1193C244.084 81.9302 244.658 81.8111 245.24 81.7646C245.822 81.7203 246.408 81.7557 246.981 81.8697C247.271 81.9228 247.554 82.0064 247.826 82.1193C247.966 82.1758 248.099 82.2486 248.223 82.3361C248.294 82.3806 248.353 82.4442 248.392 82.52C248.404 82.5407 248.411 82.5646 248.411 82.589C248.411 82.6133 248.404 82.6372 248.392 82.658C248.354 82.6872 248.309 82.7053 248.262 82.7105Z" fill="#BC93DC"/>
<path d="M248.32 83.0075C248.463 82.8762 248.32 82.8302 248.183 82.8039C248.05 82.7807 247.916 82.7675 247.78 82.7645C247.501 82.7645 247.228 82.7645 246.949 82.7645C246.396 82.7645 245.85 82.8433 245.311 82.9287C244.772 83.0141 244.213 83.1126 243.673 83.2375C243.407 83.2901 243.146 83.367 242.894 83.4674C242.77 83.5063 242.653 83.5663 242.549 83.6447C242.522 83.6606 242.499 83.6824 242.482 83.7087C242.465 83.7349 242.454 83.7647 242.451 83.7959C242.447 83.8271 242.45 83.8587 242.461 83.8883C242.471 83.9179 242.488 83.9447 242.51 83.9666C242.473 83.9503 242.44 83.9259 242.413 83.8953C242.386 83.8647 242.366 83.8285 242.354 83.7893C242.341 83.7003 242.36 83.6096 242.406 83.5331C242.493 83.3979 242.603 83.2799 242.731 83.1849C242.974 83.0076 243.238 82.8619 243.517 82.7513C244.061 82.53 244.628 82.3713 245.207 82.2784C245.791 82.1963 246.384 82.1963 246.968 82.2784C247.264 82.3129 247.556 82.3767 247.839 82.4689C247.984 82.5173 248.123 82.5812 248.255 82.6594C248.329 82.6997 248.392 82.7585 248.437 82.8302C248.442 82.8496 248.442 82.8699 248.439 82.8896C248.435 82.9094 248.428 82.9282 248.417 82.9449C248.406 82.9616 248.392 82.9757 248.375 82.9865C248.358 82.9973 248.339 83.0045 248.32 83.0075Z" fill="#BC93DC"/>
<path d="M248.372 83.2427C248.399 83.2205 248.419 83.1909 248.43 83.1573C248.365 83.151 248.3 83.151 248.235 83.1573L247.832 83.2361L247.02 83.4069C246.481 83.5252 245.935 83.6171 245.395 83.7157C244.856 83.8142 244.304 83.8865 243.758 83.9522C243.485 83.9916 243.212 84.0244 242.946 84.077C242.817 84.0958 242.69 84.1288 242.569 84.1755C242.452 84.2149 242.38 84.3069 242.491 84.4448C242.453 84.4293 242.42 84.4042 242.395 84.372C242.37 84.3397 242.354 84.3015 242.348 84.2609C242.35 84.2158 242.363 84.1718 242.384 84.1321C242.405 84.0923 242.435 84.0578 242.471 84.031C242.583 83.9295 242.707 83.8434 242.842 83.7748C243.102 83.6488 243.371 83.5433 243.647 83.4595C244.724 83.1313 245.838 82.9415 246.962 82.8945C247.248 82.8945 247.527 82.8945 247.813 82.8945C247.957 82.9046 248.1 82.9243 248.242 82.9537C248.319 82.9691 248.393 82.9956 248.463 83.0325C248.485 83.0461 248.505 83.0639 248.521 83.085C248.53 83.0974 248.535 83.1124 248.535 83.1277C248.535 83.1431 248.53 83.1581 248.521 83.1704C248.478 83.206 248.426 83.2308 248.372 83.2427Z" fill="#BC93DC"/>
<path d="M240.366 75.3267C239.683 77.2975 242.374 76.9887 242.374 76.9887C242.374 76.9887 238.611 78.3748 238.683 80.6871C238.754 82.9994 241.99 82.4148 242.224 82.3819C242.023 82.4607 238.598 83.8337 238.904 86.1394C239.229 88.5437 242.393 87.4532 242.595 87.4138C242.432 87.5452 240.275 89.3123 240.905 91.0137C241.984 93.9435 247.625 89.5816 250.087 90.0217C250.087 90.0217 251.017 93.2734 251.036 93.3983C251.036 93.3983 255.293 90.4159 255.696 87.0197C255.761 86.5273 255.658 86.0271 255.404 85.6018C255.15 85.1766 254.76 84.8517 254.299 84.6811C254.299 84.6811 256.196 83.5775 256.008 81.7513C255.91 80.8053 254.37 80.1484 254.37 80.1484C254.786 79.874 255.119 79.4893 255.334 79.0363C255.548 78.5833 255.635 78.0795 255.585 77.5799C255.377 76.2661 253.837 75.8128 253.837 75.8128C253.837 75.8128 254.844 74.2363 254.208 72.9882C252.901 70.4525 241.841 71.1094 240.366 75.3267Z" fill="#EB9481"/>
<path d="M254.37 80.1104C254.415 80.1104 254.415 80.0382 254.37 80.0316C250.134 79.2749 245.77 80.0765 242.068 82.2914C241.945 82.3702 241.906 82.5738 242.068 82.4884C244.668 81.1089 250.815 80.0119 254.37 80.1104Z" fill="#263238"/>
<path d="M242.393 87.6707C246.033 85.5423 249.977 84.8066 254.143 84.6424C254.195 84.6424 254.188 84.5635 254.143 84.557C252.083 84.0774 249.444 84.4584 247.41 84.938C245.516 85.3476 243.761 86.2538 242.322 87.5656C242.263 87.5984 242.315 87.7167 242.393 87.6707Z" fill="#263238"/>
<path d="M242.374 76.9902C241.674 77.3207 241.008 77.7189 240.385 78.1792C239.76 78.5955 239.257 79.1741 238.929 79.8543C238.794 80.1729 238.78 80.5311 238.89 80.8594C239.009 81.1905 239.208 81.4863 239.469 81.72C239.746 81.9243 240.063 82.0678 240.399 82.1413C240.735 82.2148 241.082 82.2167 241.418 82.1469L243.088 81.871L241.613 82.7185C240.956 83.0914 240.361 83.5682 239.852 84.1308C239.603 84.379 239.409 84.6776 239.282 85.0071C239.156 85.3366 239.1 85.6894 239.118 86.0424C239.14 86.3673 239.271 86.6748 239.49 86.9138C239.708 87.1528 240.001 87.309 240.32 87.3562C241.041 87.4542 241.775 87.3638 242.452 87.0935L244.343 86.4366L242.783 87.6978C242.348 88.049 241.959 88.4552 241.626 88.9065C241.295 89.3223 241.092 89.827 241.041 90.3583C241.032 90.5975 241.088 90.8347 241.203 91.0443C241.317 91.2538 241.486 91.4278 241.691 91.5473C242.192 91.7429 242.739 91.7863 243.264 91.6721C244.406 91.4542 245.53 91.1445 246.624 90.7459C247.182 90.5619 247.741 90.3846 248.313 90.2269C248.878 90.036 249.476 89.9711 250.068 90.0364C249.483 90.0397 248.905 90.1579 248.365 90.3846C247.813 90.5816 247.267 90.805 246.721 91.0415C245.633 91.5257 244.501 91.904 243.342 92.1714C242.716 92.3268 242.059 92.2949 241.451 92.0794C241.133 91.9235 240.868 91.6779 240.685 91.3725C240.503 91.067 240.412 90.7148 240.424 90.3583C240.466 89.6983 240.704 89.0664 241.106 88.5452C241.466 88.0363 241.89 87.5769 242.367 87.1789L242.699 87.7569C241.907 88.0918 241.041 88.2096 240.19 88.0985C239.72 88.0285 239.289 87.7964 238.968 87.4416C238.67 87.0778 238.486 86.6314 238.442 86.1606C238.419 85.7142 238.49 85.2678 238.65 84.8511C238.81 84.4344 239.056 84.0568 239.371 83.7432C239.934 83.13 240.592 82.6151 241.321 82.2192L241.516 82.7907C241.092 82.8646 240.657 82.8441 240.242 82.7307C239.827 82.6172 239.441 82.4135 239.111 82.1338C238.806 81.8295 238.583 81.4521 238.462 81.0368C238.336 80.6123 238.371 80.1558 238.559 79.7558C238.951 79.0406 239.535 78.4511 240.242 78.0544C240.908 77.6148 241.624 77.2575 242.374 76.9902Z" fill="#263238"/>
<path d="M232.106 82.0141C232.106 82.0141 239.71 67.1548 243.999 73.0013C245.298 74.7421 248.457 83.4133 246.741 84.0965C244.532 84.9702 242.537 81.6002 241.614 79.2879C241.614 79.2879 239.736 84.7074 235.609 84.5103C234.855 84.4605 234.128 84.2011 233.51 83.7607C232.892 83.3202 232.406 82.7158 232.106 82.0141Z" fill="#EB9481"/>
<path d="M243.608 72.543C244.188 73.1656 244.676 73.8691 245.058 74.6319C245.453 75.3849 245.799 76.164 246.091 76.9639C246.707 78.5609 247.183 80.2095 247.514 81.8908C247.601 82.3384 247.625 82.7961 247.585 83.2506C247.557 83.5101 247.475 83.7607 247.345 83.9863C247.274 84.1109 247.181 84.2221 247.072 84.3147C246.964 84.4075 246.841 84.4808 246.708 84.5315C246.232 84.709 245.709 84.709 245.233 84.5315C244.801 84.3638 244.401 84.1215 244.05 83.8155C243.4 83.2212 242.855 82.5192 242.439 81.7397C242.015 80.9903 241.65 80.2084 241.347 79.4011H241.893C241.658 80.0114 241.364 80.5967 241.016 81.1485C240.68 81.7044 240.285 82.222 239.839 82.6922C239.393 83.1606 238.881 83.5592 238.319 83.8746C237.764 84.1934 237.152 84.3988 236.519 84.479C237.121 84.3185 237.692 84.0564 238.208 83.7038C238.718 83.3505 239.175 82.9258 239.566 82.4426C239.962 81.9659 240.31 81.451 240.606 80.9054C240.901 80.3665 241.147 79.8014 241.34 79.2171L241.568 78.4945L241.886 79.1974C242.211 79.9593 242.584 80.6988 243.004 81.4112C243.402 82.1162 243.909 82.7526 244.505 83.2965C244.752 83.5569 245.061 83.7486 245.403 83.8533C245.744 83.958 246.106 83.9721 246.455 83.8943C247.001 83.7235 246.975 82.7973 246.864 82.009C246.734 81.1863 246.562 80.3707 246.351 79.5653C246.149 78.7442 245.935 77.9362 245.701 77.1348C245.247 75.5023 244.541 73.9526 243.608 72.543Z" fill="#263238"/>
<path d="M229.955 83.4339C229.955 83.4339 217.023 92.4927 215.47 92.0854C212.871 91.4285 196.254 79.3414 191.887 76.8517C187.52 74.3621 186.039 77.8174 188.58 82.153C195.254 93.5437 206.216 111.392 215.841 113.264C221.04 114.269 239.235 107.352 239.235 107.352L229.955 83.4339Z" fill="#BC93DC"/>
<path d="M195.63 93.385C195.416 93.096 195.286 92.7281 195.097 92.426L194.493 91.434C194.09 90.8034 193.694 90.1662 193.304 89.5224C192.518 88.248 191.66 87.0196 190.834 85.7715C191.556 87.0853 192.258 88.3991 193.07 89.7129C193.09 89.7376 193.107 89.764 193.122 89.7918L192.602 89.2728L191.53 88.1889C191.53 88.1889 191.471 88.1889 191.491 88.2283C191.816 88.6159 192.141 88.9969 192.505 89.3516C192.693 89.5356 192.875 89.7195 193.07 89.8903L193.336 90.1268L194.253 91.5457C194.461 91.8742 194.682 92.2026 194.903 92.5114C195.123 92.8201 195.409 93.1026 195.598 93.431C195.591 93.477 195.669 93.431 195.63 93.385Z" fill="#263238"/>
<path d="M226.426 87.3757C230.482 96.6644 233.685 106.492 234.348 108.219C234.348 108.298 234.231 108.318 234.199 108.219C233.588 106.603 228.844 95.252 226.258 87.3757C226.251 87.2903 226.426 87.2772 226.426 87.3757Z" fill="#263238"/>
<path d="M182.14 72.5153C186.558 71.5365 194.246 74.775 194.812 78.1449C195.286 81.0288 195.364 102.694 195.994 108.363C196.625 114.032 213.787 138.009 213.787 138.009L205.833 137.483L204.455 144.841C204.455 144.841 189.385 123.866 186.422 114.045C183.459 104.224 188.82 76.4436 188.008 75.0378C187.195 73.632 183.842 73.8225 182.321 74.105C180.801 74.3874 178.39 77.3895 177.168 80.3784C175.946 83.3674 171.19 102.634 171.118 109.709C171.047 116.784 180.45 143.579 180.45 143.579L173.549 140.446L168.714 147.173C168.714 147.173 161.487 121.061 161.188 109.512C161 102.168 166.387 88.9511 172.307 80.1354C175.7 75.1166 179.482 73.0999 182.14 72.5153Z" fill="#455A64"/>
<path d="M187.65 75.465C187.358 76.0234 183.511 79.1372 180.846 78.2832C179.975 78.0007 181.282 73.1462 181.282 73.1462V72.7652L181.496 67.4311L188.339 65.2173L189.32 64.9414C189.32 64.9414 189.164 66.3997 188.956 68.2259C188.956 68.3113 188.956 68.3967 188.924 68.4887C188.891 68.5807 188.924 68.6858 188.924 68.7777C188.924 69.0536 188.865 69.3295 188.833 69.5989C188.8 69.8682 188.781 70.0127 188.742 70.2558C188.703 70.4988 188.683 70.6828 188.651 70.9127C188.42 72.4513 188.085 73.9723 187.65 75.465Z" fill="#EB9481"/>
<path d="M188.969 68.2062C188.094 69.4835 186.954 70.5529 185.629 71.3402C184.303 72.1275 182.824 72.6137 181.294 72.7652L181.509 67.4311L188.352 65.2173L189.333 64.9414C189.333 64.9414 189.177 66.3997 188.969 68.2062Z" fill="#263238"/>
<path d="M176.713 56.1005C171.787 64.0294 175.927 67.9248 177.623 68.9825C179.156 69.9547 184.511 73.075 190.223 65.6979C195.935 58.3209 193.843 53.4992 190.451 51.0883C187.059 48.6775 181.645 48.1717 176.713 56.1005Z" fill="#EB9481"/>
<path d="M178.669 55.4365C178.871 55.5284 179.072 55.5744 179.28 55.6467C179.481 55.7492 179.709 55.7838 179.93 55.7452C179.998 55.7169 180.054 55.6667 180.091 55.6025C180.127 55.5384 180.141 55.4638 180.132 55.3905C180.093 55.2487 180.018 55.1199 179.914 55.0171C179.81 54.9144 179.681 54.8415 179.54 54.8058C179.262 54.6975 178.954 54.6975 178.676 54.8058C178.618 54.8351 178.57 54.8798 178.536 54.935C178.502 54.9903 178.483 55.054 178.482 55.1192C178.482 55.1843 178.499 55.2484 178.532 55.3043C178.565 55.3603 178.612 55.406 178.669 55.4365Z" fill="#263238"/>
<path d="M184.135 58.7134C183.971 58.5752 183.815 58.4283 183.667 58.2733C183.48 58.1423 183.341 57.9531 183.27 57.7346C183.26 57.6612 183.275 57.5865 183.313 57.5231C183.351 57.4597 183.409 57.4114 183.478 57.3864C183.619 57.3534 183.767 57.3591 183.905 57.403C184.043 57.4469 184.167 57.5273 184.264 57.6361C184.496 57.8273 184.649 58.099 184.693 58.3981C184.699 58.4662 184.685 58.5345 184.654 58.5949C184.622 58.6552 184.574 58.7051 184.515 58.7384C184.456 58.7717 184.388 58.787 184.321 58.7826C184.254 58.7782 184.189 58.7541 184.135 58.7134Z" fill="#263238"/>
<path d="M181.704 59.9238C181.704 59.9238 181.704 59.9764 181.704 60.0027C181.353 60.5282 181.054 61.1917 181.405 61.6778C181.405 61.6778 181.405 61.7237 181.405 61.7106C180.859 61.2508 181.288 60.3705 181.704 59.9238Z" fill="#263238"/>
<path d="M182.536 59.6677C183.433 60.1472 182.419 61.9275 181.581 61.4808C180.742 61.0341 181.782 59.2604 182.536 59.6677Z" fill="#263238"/>
<path d="M182.828 59.9616C182.926 60.1521 182.971 60.4148 183.147 60.5462C183.26 60.5985 183.385 60.6217 183.51 60.6137C183.634 60.6056 183.755 60.5667 183.861 60.5002C183.861 60.5002 183.894 60.5002 183.861 60.5397C183.795 60.7182 183.665 60.8649 183.496 60.9502C183.327 61.0355 183.133 61.0531 182.952 60.9995C182.789 60.9041 182.667 60.7513 182.61 60.5706C182.552 60.3899 182.563 60.194 182.64 60.0207C182.679 59.9484 182.789 59.8828 182.828 59.9616Z" fill="#263238"/>
<path d="M178.734 58.0371C178.734 58.0371 178.682 58.0371 178.669 58.0371C178.377 58.602 177.941 59.1998 177.369 59.0947C177.987 59.4166 178.546 58.6218 178.734 58.0371Z" fill="#263238"/>
<path d="M178.572 57.1583C177.727 56.5868 176.654 58.3342 177.434 58.8663C178.214 59.3984 179.28 57.6576 178.572 57.1583Z" fill="#263238"/>
<path d="M178.143 57.0651C177.948 57.0651 177.707 57.1571 177.538 57.0651C177.369 56.9731 177.317 56.6841 177.304 56.4082C177.304 56.4082 177.304 56.4082 177.265 56.4082C177.144 56.546 177.073 56.7223 177.066 56.9069C177.059 57.0916 177.116 57.2729 177.226 57.4198C177.48 57.6563 177.876 57.5052 178.156 57.2228C178.208 57.1899 178.221 57.0651 178.143 57.0651Z" fill="#263238"/>
<path d="M177.61 62.3398C177.634 62.7864 177.773 63.2189 178.013 63.5945C178.148 63.7938 178.341 63.9454 178.565 64.0281C179.066 64.2055 179.332 63.8245 179.481 63.4369C179.56 63.2254 179.613 63.0047 179.637 62.78C178.932 62.8558 178.222 62.7016 177.61 62.3398Z" fill="#263238"/>
<path d="M178.013 63.5957C178.148 63.795 178.341 63.9466 178.565 64.0293C179.065 64.2067 179.332 63.8256 179.481 63.4381C179.255 63.292 178.987 63.228 178.72 63.2567C178.453 63.2853 178.203 63.4049 178.013 63.5957Z" fill="#EB9481"/>
<path d="M178.078 61.1509C178.078 61.1509 177.487 61.9064 177.259 62.2939C177.259 62.3268 177.318 62.399 177.448 62.4844C177.741 62.739 178.098 62.9078 178.479 62.9726C178.86 63.0374 179.252 62.9958 179.612 62.8523C179.62 62.8489 179.627 62.843 179.632 62.8354C179.638 62.8278 179.64 62.8188 179.64 62.8096C179.64 62.8004 179.638 62.7914 179.632 62.7838C179.627 62.7762 179.62 62.7703 179.612 62.7669C178.924 62.8148 178.24 62.635 177.662 62.2545C177.695 62.1297 178.715 60.9998 178.656 60.9407C178.345 60.7922 178.015 60.6862 177.675 60.6254C178.864 59.0225 180.275 57.6233 181.457 56.027C181.496 55.9679 181.418 55.9022 181.373 55.9416C179.791 57.3922 178.357 58.9986 177.09 60.7371C176.928 60.9473 177.883 61.0984 178.078 61.1509Z" fill="#263238"/>
<path d="M189.892 65.9263C189.021 65.3548 188.073 61.5054 190.458 57.0581C190.458 57.0581 188.586 61.2032 188.56 61.9521C188.534 62.7009 188.034 59.7908 189.905 56.1778C188.352 56.3474 186.783 56.2921 185.246 56.0136C183.296 55.5341 182.315 54.9428 182.263 54.7523C182.211 54.5618 185.09 55.1793 186.162 54.7523C186.162 54.7523 180.586 54.3122 178.468 53.3072C178.221 53.1955 180.632 48.9913 184.934 48.7088C189.236 48.4263 193.012 52.6502 193.622 54.7326C193.622 54.7326 194.825 55.6129 195.059 58.9566C195.325 62.5761 190.835 66.5373 189.892 65.9263Z" fill="#263238"/>
<path d="M188.417 68.6338C188.271 68.6171 188.127 68.5841 187.988 68.5352C187.847 68.4918 187.714 68.4276 187.592 68.3447C187.433 68.2406 187.298 68.1041 187.195 67.944C187.116 67.8176 187.055 67.6805 187.013 67.5367C186.948 67.3245 186.921 67.1018 186.935 66.8798L188.521 64.9091C188.521 64.9091 191.64 63.2471 192.479 64.5018C193.317 65.7565 190.035 68.8309 188.417 68.6338Z" fill="#EB9481"/>
<path d="M191.523 65.362C191.523 65.362 191.523 65.408 191.523 65.4015C190.97 65.3947 190.422 65.5053 189.914 65.7259C189.406 65.9465 188.949 66.2724 188.573 66.6824C188.679 66.615 188.798 66.5713 188.921 66.5545C189.045 66.5376 189.171 66.5479 189.291 66.5847C189.411 66.6215 189.521 66.6839 189.615 66.7676C189.708 66.8513 189.783 66.9545 189.834 67.07C189.834 67.07 189.801 67.1291 189.775 67.1094C189.635 66.9677 189.455 66.8734 189.259 66.8393C189.064 66.8052 188.863 66.833 188.683 66.9189C188.384 67.0679 188.101 67.2485 187.839 67.4576C187.748 67.5233 187.618 67.3919 187.702 67.3131C188.313 66.0452 190.146 64.8037 191.523 65.362Z" fill="#263238"/>
<path d="M188.482 68.2258C188.429 68.2924 188.357 68.3416 188.276 68.367C188.195 68.3925 188.109 68.3932 188.027 68.369C187.946 68.3447 187.874 68.2967 187.819 68.2309C187.765 68.1652 187.731 68.0846 187.722 67.9994C187.713 67.9143 187.729 67.8283 187.768 67.7523C187.808 67.6764 187.868 67.6139 187.943 67.5728C188.017 67.5316 188.102 67.5137 188.186 67.5212C188.271 67.5287 188.351 67.5613 188.417 67.6149C188.461 67.6506 188.498 67.6948 188.525 67.7449C188.552 67.795 188.569 67.85 188.575 67.9067C188.581 67.9635 188.576 68.0209 188.56 68.0757C188.544 68.1304 188.518 68.1815 188.482 68.2258Z" fill="white"/>
<path d="M189.561 68.0484C189.536 68.0796 189.506 68.1056 189.471 68.1248C189.436 68.1441 189.398 68.1562 189.359 68.1605C189.32 68.1647 189.28 68.1611 189.242 68.1498C189.204 68.1384 189.169 68.1196 189.138 68.0944C189.087 68.0406 189.056 67.9695 189.052 67.8946C189.048 67.8196 189.072 67.7458 189.118 67.687C189.164 67.6282 189.23 67.5885 189.303 67.5752C189.376 67.5619 189.452 67.576 189.515 67.6149C189.547 67.6398 189.574 67.671 189.593 67.7066C189.613 67.7421 189.625 67.7813 189.629 67.8218C189.634 67.8623 189.63 67.9033 189.618 67.9422C189.606 67.9812 189.587 68.0173 189.561 68.0484Z" fill="white"/>
<path d="M199.783 49.5234C199.783 49.5234 205.404 51.6518 206.86 54.1678C208.315 56.6837 204.332 60.1391 204.981 62.3397C205.631 64.5403 208.946 65.1775 210.473 64.0411" stroke="#263238" stroke-width="0.75" stroke-miterlimit="10"/>
<path d="M210.311 64.0221C210.32 63.4722 210.463 62.9331 210.726 62.4521C211.295 61.6882 211.949 60.9937 212.676 60.3828" stroke="#BC93DC" stroke-width="0.75" stroke-miterlimit="10"/>
<path d="M210.531 64.1797C211.079 64.2663 211.635 64.295 212.188 64.2652C212.838 64.1929 214.638 62.7871 214.638 62.7871" stroke="#BC93DC" stroke-width="0.75" stroke-miterlimit="10"/>
<path d="M210.395 64.094C210.785 63.4233 211.235 62.79 211.74 62.2021C212.162 61.8277 213.689 60.4941 213.689 60.4941" stroke="#BC93DC" stroke-width="0.75" stroke-miterlimit="10"/>
<path d="M210.46 64.1532C211.277 63.8333 212.066 63.4444 212.819 62.9905C213.209 62.6423 214.489 61.7949 214.489 61.7949" stroke="#BC93DC" stroke-width="0.75" stroke-miterlimit="10"/>
<path d="M189.99 53.5058L176.408 40.0195L195.975 42.9822L207.971 58.2881L189.99 53.5058Z" fill="#BC93DC"/>
<path opacity="0.1" d="M189.99 53.5058L176.408 40.0195L195.975 42.9822L207.971 58.2881L189.99 53.5058Z" fill="black"/>
<path d="M180.937 50.1752L183.153 44.9922C183.153 44.9922 189.327 45.5571 193.115 47.7643C196.904 49.9715 200.432 54.5305 200.432 54.5305L197.138 59.5887C197.138 59.5887 192.257 55.3188 189.158 53.5977C186.501 52.262 183.754 51.1183 180.937 50.1752Z" fill="#BC93DC"/>
<path d="M75.1807 230.777C75.1807 230.777 75.1807 257.126 75.1807 257.146C75.1807 262.184 75.2197 266.605 75.4666 268.885C75.4636 268.897 75.4636 268.911 75.4666 268.924C75.4663 269.464 75.5886 269.996 75.824 270.481V270.514C77.2992 271.538 117.128 272.918 118.532 272.484C119.936 272.051 118.85 267.978 117.349 266.677C115.848 265.377 100.824 257.954 100.824 257.954L100.57 231.618L75.1807 230.777Z" fill="#EB9481"/>
<path d="M75.1875 251.74V257.147C75.1875 262.185 75.2265 266.606 75.4734 268.886C75.4704 268.898 75.4704 268.912 75.4734 268.925C75.5306 269.456 75.6506 269.979 75.8308 270.482V270.515C77.306 271.539 117.135 272.919 118.539 272.485C119.943 272.052 118.857 267.979 117.356 266.678C115.855 265.378 100.83 257.955 100.83 257.955L100.902 252.469L75.1875 251.74Z" fill="white"/>
<path d="M118.584 272.492C117.174 272.919 77.3513 271.539 75.8631 270.521C75.2978 270.14 75.1548 264.261 75.2133 257.153C75.2133 257.081 75.2133 257.009 75.2133 256.93L100.915 257.534V257.974C100.915 257.974 115.881 265.397 117.395 266.711C118.909 268.025 119.988 272.071 118.584 272.492Z" fill="#A6A6A6"/>
<path d="M118.181 270.914C111.475 270.514 84.389 269.548 77.7216 269.666C77.6696 269.666 77.6696 269.706 77.7216 269.712C84.3631 270.251 111.462 271.026 118.181 271.026C118.324 271.026 118.324 270.921 118.181 270.914Z" fill="#263238"/>
<path d="M103.027 258.119C100.427 257.528 97.1781 257.823 95.0725 259.656C94.9946 259.728 95.0725 259.847 95.183 259.82C97.7267 259.085 100.341 258.626 102.981 258.454C103.022 258.454 103.061 258.439 103.092 258.411C103.122 258.384 103.142 258.347 103.148 258.306C103.153 258.266 103.144 258.224 103.122 258.19C103.1 258.155 103.066 258.13 103.027 258.119Z" fill="#263238"/>
<path d="M104.905 259.347C102.306 258.756 99.0564 259.052 96.9574 260.885C96.8729 260.957 96.9574 261.075 97.0613 261.049C99.6052 260.314 102.219 259.856 104.86 259.682C104.9 259.682 104.939 259.667 104.97 259.64C105.001 259.613 105.02 259.576 105.026 259.535C105.032 259.494 105.022 259.453 105 259.418C104.978 259.384 104.944 259.359 104.905 259.347Z" fill="#263238"/>
<path d="M106.764 260.576C104.164 259.985 100.915 260.28 98.8095 262.113C98.7315 262.185 98.8095 262.304 98.9135 262.277C101.457 261.542 104.072 261.084 106.712 260.911C106.753 260.912 106.793 260.899 106.825 260.872C106.857 260.845 106.878 260.808 106.885 260.767C106.891 260.725 106.882 260.683 106.86 260.648C106.838 260.613 106.803 260.587 106.764 260.576Z" fill="#263238"/>
<path d="M73.9007 211.84L73.9072 212.129L74.4791 258.257L102.358 257.699L96.6324 117.068H73.0884L73.9007 211.84Z" fill="#263238"/>
<path d="M101.194 252.995C96.8404 252.956 98.0881 252.903 93.7341 252.916C91.6091 252.916 77.6049 252.969 75.6228 253.33C75.6144 253.333 75.6072 253.339 75.6021 253.347C75.597 253.355 75.5942 253.363 75.5942 253.373C75.5942 253.382 75.597 253.391 75.6021 253.398C75.6072 253.406 75.6144 253.412 75.6228 253.415C77.6179 253.724 91.6091 253.415 93.7406 253.383C98.0946 253.291 96.8404 253.264 101.194 253.12C101.207 253.115 101.219 253.107 101.227 253.096C101.235 253.085 101.239 253.071 101.239 253.057C101.239 253.044 101.235 253.03 101.227 253.019C101.219 253.008 101.207 252.999 101.194 252.995Z" fill="#37474F"/>
<path d="M79.2098 237.353C79.1492 233.136 79.082 228.921 79.0084 224.708C78.8481 216.282 78.6921 207.854 78.5405 199.423C78.2372 182.655 77.9708 165.884 77.7412 149.111C77.5982 139.651 77.6047 130.185 77.3643 120.732H77.3253C77.1693 129.161 77.2668 137.595 77.2798 146.023C77.2928 154.451 77.3253 162.886 77.4098 171.314C77.5722 188.092 77.7997 204.862 78.1961 221.633C78.3065 226.363 78.417 231.093 78.5795 235.816C78.7419 240.539 78.8459 245.282 79.1708 250.005C79.1708 250.021 79.177 250.036 79.188 250.047C79.1989 250.058 79.2138 250.064 79.2293 250.064C79.2448 250.064 79.2597 250.058 79.2707 250.047C79.2816 250.036 79.2878 250.021 79.2878 250.005C79.3658 245.788 79.2618 241.564 79.2098 237.353Z" fill="#37474F"/>
<path d="M73.0884 117.351L73.7057 189.157L92.5838 117.068H73.0949L73.0884 117.351Z" fill="#37474F"/>
<path d="M31.758 217.6L18.2996 239.711C16.1161 244.237 14.2836 248.251 13.5232 250.412C13.5204 250.425 13.5204 250.439 13.5232 250.452C13.2922 250.939 13.1744 251.474 13.1788 252.015C13.1788 252.015 13.1788 252.015 13.1788 252.054C14.0691 253.624 49.3689 272.327 50.818 272.556C52.2672 272.786 53.0405 268.615 52.2412 266.809C51.4419 265.002 41.0898 251.7 41.0898 251.7L54.3142 229.503L31.758 217.6Z" fill="#EB9481"/>
<path d="M13.1722 252.016C13.1692 252.029 13.1692 252.043 13.1722 252.056C14.0625 253.626 49.3622 272.328 50.8114 272.564C52.2606 272.801 53.0339 268.623 52.2411 266.81C51.4482 264.997 41.0897 251.701 41.0897 251.701L43.4486 247.76C37.678 244.653 27.2024 239.22 20.7039 235.811L18.319 239.752C16.1355 244.285 14.2964 248.292 13.5426 250.453C13.5398 250.466 13.5398 250.479 13.5426 250.492C13.3036 250.964 13.1768 251.486 13.1722 252.016Z" fill="white"/>
<path d="M50.8179 272.558C49.3687 272.328 14.0755 253.626 13.1787 252.056C12.8278 251.458 15.2257 246.104 18.2995 239.713L18.397 239.516L41.3041 251.34L41.0897 251.728C41.0897 251.728 51.4352 264.99 52.2411 266.836C53.0469 268.682 52.267 272.801 50.8179 272.558Z" fill="#A6A6A6"/>
<path d="M51.1365 270.967C45.2879 267.683 21.2435 254.919 15.2129 252.107C15.161 252.107 15.148 252.107 15.2129 252.14C20.9641 255.543 45.0605 268.097 51.104 271.066C51.2145 271.125 51.26 271.033 51.1365 270.967Z" fill="#263238"/>
<path d="M42.9678 252.791C40.8558 251.109 37.808 249.953 35.1697 250.689C35.0657 250.722 35.1047 250.866 35.1697 250.886C37.7859 251.339 40.346 252.077 42.8054 253.086C42.8434 253.101 42.8853 253.102 42.9235 253.087C42.9618 253.073 42.9937 253.046 43.0134 253.01C43.0332 252.974 43.0394 252.932 43.0311 252.892C43.0227 252.852 43.0002 252.816 42.9678 252.791Z" fill="#263238"/>
<path d="M44.1246 254.715C42.0126 253.034 38.9648 251.878 36.3264 252.62C36.2224 252.62 36.2614 252.791 36.3264 252.81C38.9426 253.264 41.5027 254.001 43.9621 255.011C44.0001 255.026 44.0421 255.026 44.0803 255.012C44.1185 254.998 44.1504 254.97 44.1702 254.934C44.1899 254.898 44.1962 254.857 44.1878 254.816C44.1794 254.776 44.157 254.74 44.1246 254.715Z" fill="#263238"/>
<path d="M45.2813 256.641C43.1693 254.959 40.1215 253.803 37.4831 254.546C37.3792 254.546 37.4181 254.716 37.4831 254.736C40.0994 255.189 42.6595 255.927 45.1188 256.937C45.1568 256.951 45.1988 256.952 45.237 256.938C45.2752 256.924 45.3071 256.896 45.3269 256.86C45.3467 256.824 45.3529 256.782 45.3445 256.742C45.3362 256.702 45.3137 256.666 45.2813 256.641Z" fill="#263238"/>
<path d="M93.4544 117.041C93.3505 117.534 91.6998 125.252 89.9972 131.887C88.756 136.729 87.4758 140.992 86.748 141.432C85.9162 141.925 81.8741 143.738 80.516 144.303C80.516 144.303 71.4181 190.194 66.6222 204.423C62.1967 217.561 43.8775 252.646 43.8775 252.646L17.2598 239.121C17.2598 239.121 38.0549 203.503 40.2124 197.111C43.5981 187.205 56.2831 138.831 56.2831 138.831C56.2831 138.831 56.1857 123.689 61.235 117.074L93.4544 117.041Z" fill="#263238"/>
<path d="M43.4685 247.43C39.6669 245.282 40.7846 245.847 36.97 243.745C35.0985 242.714 22.7968 235.961 20.8863 235.311C20.8408 235.311 20.8083 235.363 20.8408 235.389C22.4459 236.631 34.858 243.167 36.7491 244.159C40.6482 246.182 39.5304 245.558 43.41 247.542C43.4238 247.545 43.4382 247.543 43.451 247.537C43.4638 247.531 43.4743 247.521 43.481 247.509C43.4876 247.496 43.4899 247.482 43.4877 247.467C43.4854 247.453 43.4787 247.44 43.4685 247.43Z" fill="#37474F"/>
<path d="M63.1068 134.587C63.8346 134.396 64.6144 134.337 65.3553 134.219C65.9596 134.12 66.5575 134.015 67.1488 133.884C68.2879 133.679 69.367 133.219 70.3071 132.537C71.2529 131.66 71.96 130.551 72.3606 129.318C72.653 128.622 72.9585 127.926 73.2639 127.229L73.7188 126.224C73.9295 125.83 74.1182 125.424 74.2842 125.009C74.2885 124.997 74.2974 124.987 74.309 124.981C74.3147 124.979 74.3209 124.977 74.3273 124.977C74.3336 124.976 74.3399 124.977 74.3459 124.979C74.3519 124.982 74.3574 124.985 74.3621 124.989C74.3668 124.993 74.3706 124.999 74.3733 125.004C74.376 125.01 74.3776 125.017 74.3779 125.023C74.3782 125.029 74.3773 125.036 74.3751 125.042C74.274 125.326 74.1894 125.615 74.1217 125.909C74.0177 126.251 73.9268 126.566 73.8228 126.927C73.6343 127.525 73.4589 128.129 73.2574 128.727C72.9544 129.832 72.5179 130.896 71.9577 131.893C70.8595 133.66 68.8969 134.37 66.9344 134.626C66.3755 134.698 65.8102 134.738 65.2383 134.771C64.5248 134.833 63.8073 134.833 63.0938 134.771C63.0758 134.762 63.0607 134.748 63.0507 134.731C63.0406 134.714 63.0359 134.694 63.0374 134.674C63.0388 134.654 63.0462 134.635 63.0586 134.619C63.071 134.604 63.0878 134.592 63.1068 134.587Z" fill="#37474F"/>
<path d="M88.8928 140.375C86.0065 141.443 83.217 142.762 80.5553 144.316C80.5362 144.329 80.5223 144.348 80.516 144.371C80.5097 144.393 80.5113 144.417 80.5206 144.438C80.5299 144.459 80.5463 144.476 80.5669 144.487C80.5875 144.497 80.611 144.499 80.6332 144.494C83.4406 143.272 86.3064 142.102 89.0423 140.73C89.0653 140.72 89.0862 140.705 89.1037 140.687C89.1213 140.669 89.1351 140.648 89.1445 140.624C89.1538 140.601 89.1585 140.576 89.1583 140.55C89.158 140.525 89.1528 140.5 89.143 140.477C89.1332 140.453 89.1189 140.432 89.101 140.414C89.0832 140.397 89.062 140.383 89.0388 140.373C89.0155 140.364 88.9907 140.359 88.9656 140.359C88.9406 140.36 88.9159 140.365 88.8928 140.375Z" fill="#37474F"/>
<path d="M89.7377 120.929C89.7377 120.831 89.5558 120.811 89.5623 120.929C89.5623 124.299 89.3673 127.262 89.0879 130.415C88.9579 131.873 87.7882 139.953 85.2863 139.368C84.8639 139.27 84.6364 138.85 84.5844 138.212C84.5946 137.374 84.7081 136.54 84.9223 135.729C85.1953 134.041 85.4227 132.346 85.5722 130.638C85.8626 127.457 85.8277 124.254 85.4682 121.08C85.4632 121.062 85.4525 121.047 85.4379 121.035C85.4232 121.024 85.4053 121.018 85.387 121.018C85.3686 121.018 85.3508 121.024 85.3361 121.035C85.3215 121.047 85.3108 121.062 85.3057 121.08C85.3809 125.492 85.1267 129.904 84.5454 134.277C84.2335 136.373 83.1807 139.533 85.3577 139.861C87.5347 140.19 89.0034 134.895 89.2568 133.443C89.9502 129.31 90.1119 125.104 89.7377 120.929Z" fill="#37474F"/>
<path d="M85.3512 139.573C85.1253 140.117 84.9385 140.677 84.7924 141.249C84.6293 141.687 84.5478 142.153 84.5519 142.621C84.5553 142.641 84.5642 142.658 84.5775 142.672C84.5908 142.686 84.6079 142.696 84.6267 142.7C84.6454 142.704 84.665 142.703 84.6829 142.696C84.7008 142.689 84.7163 142.677 84.7274 142.661C84.9864 142.255 85.1836 141.812 85.3122 141.347C85.5007 140.828 85.7021 140.316 85.8776 139.79C85.8917 139.755 85.8988 139.718 85.8986 139.68C85.8984 139.642 85.8908 139.605 85.8763 139.57C85.8618 139.536 85.8407 139.504 85.8142 139.477C85.7876 139.451 85.7562 139.43 85.7216 139.416C85.6871 139.402 85.6501 139.394 85.6128 139.395C85.5754 139.395 85.5385 139.402 85.5041 139.417C85.4697 139.432 85.4385 139.453 85.4123 139.48C85.3861 139.507 85.3653 139.538 85.3512 139.573Z" fill="#37474F"/>
<path d="M24.4409 234.628C28.223 227.428 32.1221 220.288 36.0212 213.154C37.9707 209.639 39.9658 206.164 41.8113 202.604C43.5459 199.073 44.9534 195.387 46.0159 191.594C48.364 183.904 50.5821 176.174 52.6703 168.405C54.7585 160.636 56.7253 152.834 58.5709 145C59.0323 143.029 59.5392 141.058 59.9096 139.087C60.2442 137.089 60.2442 135.048 59.9096 133.05C59.6216 131.191 59.6063 129.298 59.8641 127.434C60.1579 125.572 60.5924 123.736 61.1638 121.942C61.4562 120.996 61.7747 120.057 62.0996 119.124C62.1321 119.019 62.2945 119.065 62.2621 119.17C61.1118 122.967 59.9421 126.797 60.189 130.817C60.306 132.748 60.8389 134.64 60.7804 136.585C60.6559 138.514 60.3314 140.425 59.8121 142.286C58.0056 150.169 56.056 158.015 53.9635 165.823C51.871 173.632 49.6918 181.423 47.426 189.196C46.2953 192.96 45.2425 196.783 43.6374 200.364C42.0323 203.944 40.0048 207.36 38.0942 210.802C34.1431 217.903 30.1596 224.991 26.085 232.02L24.5254 234.694C24.4929 234.74 24.4084 234.687 24.4409 234.628Z" fill="#37474F"/>
<path d="M78.5341 86.8425C83.3365 89.0169 104.489 92.9649 110.864 87.8542C117.363 82.6449 121.587 60.921 122.074 58.3525C122.561 55.784 106.016 51.7834 105.451 54.1154C104.008 60.1261 101.519 75.8787 99.0758 76.7196C93.942 78.4801 88.9642 78.7954 80.6851 80.418C74.9145 81.5479 73.2314 84.4382 78.5341 86.8425Z" fill="#EB9481"/>
<path d="M121.801 58.8924C122.795 57.0794 126.746 48.2702 127.279 45.6032C127.812 42.9362 128.787 35.1387 126.805 34.5212C124.823 33.9037 124.355 36.1372 124.355 36.1372C124.355 36.1372 124.251 32.7804 122.204 32.3468C120.157 31.9133 119.539 35.4409 119.539 35.4409C119.539 35.4409 119.182 31.9987 117.109 31.7096C115.036 31.4206 115.003 35.0796 115.003 35.0796C115.003 35.0796 114.828 31.9198 113.054 32.4125C110.877 32.9972 111.852 38.7845 111.046 41.688C110.864 42.3449 106.399 54.7802 106.399 54.7802L121.801 58.8924Z" fill="#EB9481"/>
<path d="M115.017 34.8231C115.725 39.0799 115.309 41.0637 113.685 44.992C113.681 44.9998 113.679 45.0083 113.678 45.0169C113.677 45.0256 113.678 45.0343 113.681 45.0425C113.684 45.0507 113.688 45.0583 113.694 45.0649C113.699 45.0715 113.706 45.0768 113.714 45.0807C113.722 45.0846 113.73 45.0869 113.738 45.0875C113.747 45.0881 113.756 45.087 113.764 45.0843C113.772 45.0816 113.779 45.0772 113.786 45.0715C113.792 45.0658 113.798 45.0589 113.802 45.0512C115.751 41.3593 116.615 38.9419 115.218 34.7771C115.147 34.5406 114.984 34.5866 115.017 34.8231Z" fill="#263238"/>
<path d="M119.475 35.1244C119.832 39.6111 119.397 41.7723 118 46.0094C118 46.0685 118.077 46.1079 118.097 46.0488C119.819 42.0088 120.644 39.5782 119.702 35.1376C119.663 34.9405 119.462 34.9208 119.475 35.1244Z" fill="#263238"/>
<path d="M124.277 36.3726C124.309 40.7411 123.932 43.1322 122.054 47.0671C122.044 47.0854 122.041 47.1071 122.047 47.1274C122.052 47.1477 122.065 47.165 122.084 47.1755C122.102 47.1859 122.123 47.1887 122.143 47.1831C122.163 47.1776 122.18 47.1642 122.191 47.1459C124.498 43.3227 124.985 40.3469 124.407 36.3858C124.4 36.1361 124.27 36.0967 124.277 36.3726Z" fill="#263238"/>
<path d="M105.282 57.2817C105.282 57.2817 103.43 52.2038 103.105 49.7929C102.78 47.3821 104.84 37.9686 106.88 38.2708C109.519 38.7043 109.395 44.3932 108.973 47.1653C108.973 47.1653 115.075 48.1572 115.855 52.2629C116.635 56.3686 105.282 57.2817 105.282 57.2817Z" fill="#EB9481"/>
<path d="M107.569 38.6334C109.694 40.7815 108.908 44.3879 108.693 47.1141C108.688 47.1546 108.692 47.1959 108.706 47.2342C108.72 47.2726 108.743 47.3069 108.774 47.3342C108.804 47.3614 108.84 47.3808 108.879 47.3905C108.919 47.4002 108.96 47.4 108.999 47.39C111.527 47.9746 114.925 49.5512 115.952 52.1197C115.957 52.1354 115.969 52.1484 115.983 52.1557C115.998 52.1631 116.015 52.1644 116.03 52.1591C116.046 52.1539 116.059 52.1427 116.066 52.1279C116.073 52.1131 116.074 52.096 116.069 52.0803C115.341 49.1768 112.131 47.3571 109.317 46.8907C109.577 44.0989 110.208 40.4465 107.589 38.6137C107.569 38.6006 107.556 38.6203 107.569 38.6334Z" fill="#263238"/>
<path d="M104.424 58.1172C104.424 58.1172 100.759 75.1311 99.3098 75.8997C96.8924 77.1741 82.8687 79.5915 77.8649 80.7213C72.861 81.8512 68.9749 87.3298 81.7639 89.3334C94.553 91.337 106.172 94.4573 112.307 91.6523C116.121 89.9049 128.066 72.2801 128.066 72.2801L104.424 58.1172Z" fill="#BC93DC"/>
<path d="M103.982 64.1343C113.34 69.2778 122.386 75.4528 124.043 76.471C124.128 76.5235 124.043 76.6352 123.939 76.5827C122.386 75.6236 111.118 69.1924 103.859 64.2525C103.774 64.2 103.891 64.0817 103.982 64.1343Z" fill="#263238"/>
<path opacity="0.1" d="M109.603 92.4592C103.105 93.6613 92.8371 91.0731 81.7442 89.3323C73.946 88.1039 72.3734 85.5813 73.4651 83.5449L109.603 92.4592Z" fill="black"/>
<path d="M56.1664 127.978C56.2769 128.064 97.6462 125.147 97.9321 124.694C98.0881 124.444 97.5422 118.749 95.4172 111.937C91.8885 100.585 84.3698 85.2794 79.3465 80.5628C77.3385 78.6775 71.7563 79.4921 69.5598 81.9555C63.0353 89.2406 55.77 127.656 56.1664 127.978Z" fill="#EBEBEB"/>
<path d="M68.6759 82.211C68.6759 82.211 72.0876 88.4582 73.1598 90.0939C75.6553 93.9039 81.6079 99.2906 81.6079 99.2906C82.0756 95.2049 82.1844 91.0853 81.9328 86.9801C81.7963 85.443 79.9508 80.8184 79.9508 80.8184C79.9508 80.8184 91.2256 92.8398 97.2042 117.027C103.183 141.214 111.585 211.267 111.585 211.267C111.585 211.267 96.9118 223.236 81.5884 223.196C56.8162 223.124 31.0757 206.34 31.0757 206.34C31.0757 206.34 39.6017 192.105 40.2125 190.246C40.8234 188.387 53.4954 138.764 53.6384 138.35C53.7814 137.936 62.5153 89.5355 68.6759 82.211Z" fill="#BC93DC"/>
<path opacity="0.1" d="M85.897 200.744C85.2796 203.851 81.5235 215.761 79.1711 223.138C74.4203 222.887 69.7044 222.175 65.0889 221.01C69.5663 215.393 77.5984 202.826 78.8137 199.653C80.2368 195.935 81.5235 178.179 83.577 176.465C85.6306 174.75 86.8068 196.159 85.897 200.744Z" fill="black"/>
<path opacity="0.1" d="M80.7437 164.234C80.7437 164.109 80.5292 164.07 80.5162 164.234C80.3928 165.278 80.3603 166.336 80.2563 167.38C80.1523 168.425 79.9639 169.476 79.8209 170.527C79.5415 172.655 79.2231 174.784 78.9241 176.906C78.3263 181.123 77.5269 185.327 76.6497 189.492C76.1558 191.844 75.5254 194.189 74.8301 196.488C74.8301 196.554 74.9081 196.573 74.9276 196.488C76.4556 192.453 77.7723 188.339 78.8721 184.164C79.3806 182.096 79.7797 180.002 80.0679 177.891C80.3914 175.784 80.6083 173.662 80.7177 171.532C80.7762 170.343 80.7502 169.154 80.7502 167.965C80.7502 166.776 80.8217 165.462 80.7437 164.234Z" fill="black"/>
<path opacity="0.1" d="M106.309 212.424C106.309 213.298 106.224 214.165 106.159 215.052L105.334 215.558C105.334 215.492 105.334 215.42 105.334 215.354C105.275 214.04 105.243 212.786 105.204 211.498C105.061 206.992 104.905 202.492 104.502 197.999C104.398 196.875 104.366 195.752 104.262 194.629C104.123 193.489 104.056 192.341 104.06 191.193C104.039 190.07 103.932 188.95 103.742 187.843C103.605 186.7 103.436 185.563 103.293 184.427C103.297 184.417 103.304 184.408 103.313 184.402C103.321 184.396 103.332 184.393 103.342 184.393C103.353 184.393 103.363 184.396 103.372 184.402C103.381 184.408 103.387 184.417 103.391 184.427C103.677 185.682 103.904 186.943 104.145 188.204C104.262 188.861 104.366 189.465 104.489 190.096C104.613 190.727 104.795 191.331 104.912 191.955C105.714 196.465 106.17 201.031 106.276 205.612C106.348 207.859 106.38 210.138 106.309 212.424Z" fill="black"/>
<path opacity="0.1" d="M101.688 189.997C101.636 188.342 101.584 186.673 101.487 185.018C101.389 183.363 101.253 181.734 101.078 180.124C100.902 178.515 100.61 176.84 100.467 175.151C100.304 173.279 100.129 171.4 99.9923 169.522C99.9923 169.43 99.8428 169.436 99.8493 169.522C99.9338 171.184 99.9988 172.839 100.077 174.501C100.155 176.163 100.077 177.825 100.168 179.487C100.291 182.771 100.61 186.056 101.013 189.341C101.246 191.219 101.591 193.078 101.753 194.964C101.753 195.029 101.864 195.023 101.857 194.964C101.721 193.328 101.74 191.659 101.688 189.997Z" fill="black"/>
<path opacity="0.1" d="M74.7649 201.302C73.6861 203.273 72.5554 205.244 71.4117 207.214C70.3914 208.955 69.3906 210.709 68.2079 212.345C67.0252 213.981 65.836 215.478 64.5817 216.996C63.698 218.06 62.8077 219.124 61.8784 220.142L61.0596 219.906L61.8784 218.901C64.1658 216.115 66.2649 213.186 68.4353 210.308C69.5466 208.837 70.6903 207.398 71.7301 205.868C72.7698 204.337 73.7446 202.813 74.6934 201.269C74.6977 201.26 74.7056 201.252 74.7153 201.249C74.7251 201.245 74.7359 201.245 74.7454 201.25C74.7548 201.254 74.7622 201.262 74.7659 201.272C74.7695 201.282 74.7692 201.293 74.7649 201.302Z" fill="black"/>
<path opacity="0.1" d="M69.9496 172.432C68.4419 177.149 66.9148 181.846 65.1017 186.451C64.2114 188.71 63.1522 190.891 62.1514 193.105C61.1506 195.319 60.2019 197.539 59.0451 199.674C57.7458 202.088 56.3027 204.42 54.7236 206.657C54.7236 206.71 54.7691 206.762 54.8081 206.723C57.8947 202.956 60.5136 198.822 62.6063 194.412C63.6223 192.165 64.514 189.862 65.2772 187.515C66.1025 185.189 66.8563 182.844 67.5971 180.492C68.4354 177.819 69.2282 175.139 70.0276 172.458C70.0265 172.45 70.0231 172.442 70.0176 172.435C70.0122 172.428 70.005 172.423 69.9968 172.42C69.9886 172.418 69.9798 172.417 69.9715 172.419C69.9631 172.421 69.9555 172.426 69.9496 172.432Z" fill="black"/>
<path opacity="0.1" d="M97.8346 122.606C97.3212 123.131 96.7428 123.591 96.2099 124.09L95.4496 124.819C95.1637 125.082 94.8582 125.279 94.5593 125.522C93.4741 126.409 92.3563 127.25 91.2581 128.15C89.1078 129.898 86.7173 131.321 84.1618 132.374C78.5016 134.614 72.2955 134.095 66.5184 132.722C63.1262 131.914 59.8184 130.751 56.4782 129.726C56.4327 129.726 56.4002 129.799 56.4782 129.818C59.3895 131.132 62.3269 132.256 65.3616 133.241C68.3212 134.267 71.3982 134.907 74.518 135.146C77.5978 135.353 80.6881 134.952 83.6159 133.964C86.2847 133.004 88.7936 131.639 91.0566 129.917C92.3697 128.943 93.5863 127.843 94.6893 126.632C95.2612 126.008 95.807 125.358 96.3724 124.734C96.9378 124.11 97.4381 123.42 97.997 122.763C98.0295 122.645 97.9125 122.527 97.8346 122.606Z" fill="black"/>
<path d="M62.21 89.3456C50.3243 83.3743 36.8659 74.7228 36.1576 67.6676C35.5077 61.3219 39.6732 50.5289 44.1182 38.7637C45.002 36.4317 62.5869 44.3277 61.4042 46.7189C59.0647 51.4289 52.5272 61.6569 52.4233 64.7115C52.3778 66.0254 63.0483 77.0089 69.0399 84.5436C76.3117 93.7534 66.9474 91.7433 62.21 89.3456Z" fill="#EB9481"/>
<path d="M47.7835 28.5891C45.652 31.9853 42.9097 42.2593 43.2996 44.5059C43.6895 46.7526 58.1811 50.1159 59.9747 48.6313C61.7682 47.1467 68.0653 35.145 67.6234 31.0656C67.1815 26.9862 49.993 25.0681 47.7835 28.5891Z" fill="#EB9481"/>
<path d="M77.4422 25.7695C77.4422 25.7695 82.641 30.6963 78.9304 37.2326C78.9304 37.2326 60.0393 38.0997 58.8955 38.3165C57.7518 38.5332 36.8007 44.406 36.8007 44.406C36.8007 44.406 33.285 39.6828 35.8064 32.1218C35.8064 32.1218 57.5179 32.6539 58.1482 32.5028C58.7786 32.3517 77.4422 25.7695 77.4422 25.7695Z" fill="#EBEBEB"/>
<path d="M36.7943 44.4072C36.7943 44.4072 40.5049 37.2798 35.8 32.123C35.8 32.123 32.7717 37.7133 36.7943 44.4072Z" fill="#DBDBDB"/>
<path d="M58.8955 38.3176C59.019 38.4621 59.0775 38.3176 59.1035 38.1862C59.1303 38.0539 59.1498 37.9201 59.162 37.7855C59.162 37.5096 59.162 37.2337 59.162 36.9578C59.159 36.4047 59.1265 35.852 59.0645 35.3024C59.006 34.7572 58.928 34.2054 58.8241 33.6667C58.7755 33.3988 58.7059 33.1352 58.6161 32.8784C58.5251 32.6551 58.4017 32.3266 58.1157 32.504C58.1549 32.4344 58.217 32.3809 58.2912 32.3529C58.3784 32.3382 58.4679 32.3545 58.5446 32.3989C58.6827 32.4775 58.8007 32.5877 58.889 32.7208C59.0673 32.9636 59.2096 33.2314 59.3114 33.5156C59.5138 34.0705 59.6469 34.6486 59.7078 35.2367C59.774 35.8228 59.7587 36.4154 59.6624 36.9972C59.6179 37.291 59.5439 37.5793 59.4414 37.8578C59.3901 38.001 59.3225 38.1376 59.24 38.2651C59.1963 38.3397 59.1334 38.401 59.058 38.4424C59.0381 38.4569 59.0143 38.4646 58.9898 38.4646C58.9653 38.4646 58.9414 38.4569 58.9215 38.4424C58.9073 38.4022 58.8985 38.3602 58.8955 38.3176Z" fill="#BC93DC"/>
<path d="M58.6032 38.3822C58.7397 38.5201 58.7852 38.3822 58.8047 38.2377C58.8148 38.0999 58.8148 37.9616 58.8047 37.8238C58.8047 37.5479 58.8047 37.2655 58.8047 36.9896C58.7629 36.4342 58.6913 35.8816 58.5902 35.3341C58.4928 34.7889 58.3758 34.2371 58.2393 33.6984C58.1725 33.4302 58.0878 33.1668 57.9859 32.9102C57.9388 32.7881 57.8754 32.6732 57.7974 32.5686C57.7786 32.544 57.7545 32.5241 57.7269 32.5105C57.6993 32.4968 57.669 32.4897 57.6382 32.4897C57.6075 32.4897 57.5772 32.4968 57.5496 32.5105C57.522 32.5241 57.4978 32.544 57.479 32.5686C57.4925 32.5297 57.5148 32.4946 57.5441 32.4661C57.5735 32.4376 57.609 32.4164 57.648 32.4043C57.7351 32.3922 57.8239 32.4083 57.9014 32.4503C58.0378 32.5362 58.1587 32.6451 58.2588 32.7722C58.4397 33.0119 58.5923 33.272 58.7137 33.5474C58.9482 34.0907 59.1205 34.6593 59.2271 35.2422C59.3362 35.8288 59.3646 36.4279 59.3116 37.0224C59.2864 37.3205 59.232 37.6154 59.1491 37.9027C59.1081 38.0507 59.0514 38.1938 58.9802 38.3296C58.9386 38.4051 58.8809 38.4702 58.8112 38.5201C58.6942 38.553 58.6162 38.4413 58.6032 38.3822Z" fill="#BC93DC"/>
<path d="M58.3759 38.4427C58.3979 38.4702 58.4272 38.4907 58.4604 38.5018C58.4661 38.4384 58.4661 38.3747 58.4604 38.3113C58.4604 38.1734 58.4019 38.042 58.3694 37.904L58.1745 37.0895C58.0445 36.5508 57.934 35.999 57.817 35.4538C57.7001 34.9085 57.6221 34.3567 57.5311 33.8115C57.4856 33.5356 57.4466 33.2597 57.3881 32.9969C57.3621 32.867 57.3252 32.7395 57.2777 32.6159C57.2322 32.4977 57.1412 32.432 57.0112 32.5502C57.0235 32.5103 57.0464 32.4745 57.0773 32.4468C57.1082 32.419 57.146 32.4002 57.1867 32.3926C57.2768 32.4 57.3606 32.4424 57.4206 32.5108C57.5229 32.6214 57.6103 32.745 57.6806 32.8787C57.8135 33.1366 57.9265 33.4046 58.0185 33.6801C58.2007 34.219 58.3461 34.7699 58.4539 35.3289C58.5688 35.8856 58.6448 36.4498 58.6813 37.0172C58.6976 37.3038 58.6976 37.5911 58.6813 37.8777C58.6813 38.0223 58.6813 38.1668 58.6359 38.3113C58.62 38.3881 58.596 38.463 58.5644 38.5347C58.5548 38.5601 58.5363 38.5811 58.5124 38.5938C58.5006 38.604 58.4856 38.6095 58.4701 38.6095C58.4546 38.6095 58.4397 38.604 58.4279 38.5938C58.3996 38.548 58.3819 38.4963 58.3759 38.4427Z" fill="#BC93DC"/>
<path d="M67.0579 37.484C65.1733 38.43 65.1473 35.6381 65.1473 35.6381C65.1473 35.6381 64.2245 39.6649 61.8981 39.8817C59.5716 40.0985 59.7471 36.7154 59.7536 36.4724C59.7016 36.6826 58.7593 40.3678 56.4069 40.3416C54.0544 40.3153 54.6198 36.9454 54.6653 36.722C54.5548 36.9125 53.0601 39.3496 51.2731 38.9095C48.2058 38.1738 51.8644 31.8543 51.1171 29.3844C51.1171 29.3844 47.7379 28.8391 47.6079 28.8391C47.6079 28.8391 50.0643 24.1028 53.4111 23.2686C53.8956 23.1396 54.4092 23.182 54.8667 23.3887C55.3241 23.5954 55.6979 23.954 55.926 24.405C55.926 24.405 56.8163 22.3423 58.6553 22.2766C59.6106 22.2766 60.4879 23.7809 60.4879 23.7809C60.7085 23.3207 61.0501 22.9308 61.4754 22.6539C61.9006 22.3769 62.3931 22.2237 62.8988 22.2109C64.1985 22.2635 64.8939 23.7809 64.8939 23.7809C64.8939 23.7809 66.3495 22.5525 67.6752 23.0452C70.3656 24.0371 71.1129 35.4805 67.0579 37.484Z" fill="#EB9481"/>
<path d="M60.5073 23.7271C60.5073 23.6811 60.5723 23.6679 60.5853 23.7271C61.8767 27.9673 61.6231 32.5349 59.8705 36.6024C59.8055 36.7404 59.6105 36.7995 59.669 36.6024C60.7153 33.804 61.0532 27.3795 60.5073 23.7271Z" fill="#263238"/>
<path d="M54.4377 36.964C56.1144 32.97 56.3873 28.8381 55.9909 24.555C55.9909 24.5025 56.0689 24.5025 56.0819 24.555C56.8227 26.598 56.7707 29.3505 56.5498 31.4854C56.3906 33.474 55.7184 35.3857 54.6002 37.0297C54.5352 37.0888 54.4053 37.0494 54.4377 36.964Z" fill="#263238"/>
<path d="M65.1471 35.6364C64.9002 36.3933 64.5848 37.1256 64.2048 37.8239C63.8637 38.5143 63.3481 39.1013 62.7102 39.5253C62.4064 39.7052 62.0472 39.7638 61.7029 39.6895C61.3574 39.6096 61.0376 39.4424 60.7736 39.2034C60.5345 38.9394 60.353 38.6275 60.2411 38.288C60.1291 37.9484 60.0891 37.5889 60.1238 37.2327L60.1952 35.4853L59.5454 37.1013C59.2591 37.82 58.8573 38.4858 58.3562 39.072C58.1389 39.3573 57.8645 39.5931 57.551 39.764C57.2375 39.935 56.8918 40.0371 56.5366 40.0639C56.2063 40.0852 55.8789 39.9911 55.6091 39.7974C55.3394 39.6036 55.1437 39.322 55.0549 38.9997C54.8663 38.2741 54.8663 37.5116 55.0549 36.786L55.4968 34.7627L54.4246 36.5166C54.1291 36.999 53.7731 37.4406 53.3653 37.8305C52.9896 38.221 52.508 38.4907 51.9812 38.6056C51.7387 38.6539 51.4877 38.6314 51.2575 38.5406C51.0273 38.4499 50.8275 38.2947 50.6815 38.0932C50.428 37.6022 50.3154 37.0492 50.3565 36.4969C50.4371 35.3011 50.6065 34.1132 50.8634 32.9431C50.9804 32.3518 51.0909 31.7541 51.1753 31.1497C51.3021 30.5499 51.3021 29.9299 51.1753 29.3301C51.2406 29.9291 51.1943 30.5351 51.0389 31.1169C50.9089 31.7081 50.7529 32.2927 50.597 32.8774C50.2506 34.0524 50.0135 35.2576 49.8886 36.4772C49.8144 37.1377 49.9294 37.8057 50.2201 38.402C50.4145 38.7086 50.6935 38.951 51.0226 39.0992C51.3517 39.2475 51.7166 39.2951 52.0721 39.2362C52.7283 39.1115 53.3326 38.7912 53.8072 38.3166C54.2703 37.8799 54.6765 37.3855 55.016 36.8451L54.3661 36.5823C54.1362 37.4428 54.1362 38.3495 54.3661 39.21C54.5026 39.681 54.7937 40.0911 55.1914 40.3727C55.5953 40.6309 56.0653 40.7634 56.5431 40.7537C56.994 40.7203 57.4327 40.5906 57.8304 40.3732C58.2281 40.1558 58.5756 39.8556 58.8501 39.4924C59.4025 38.8403 59.8419 38.0985 60.1497 37.2984L59.5584 37.167C59.5382 37.6108 59.6144 38.0537 59.7817 38.4645C59.949 38.8753 60.2032 39.2442 60.5267 39.545C60.8677 39.8217 61.2722 40.007 61.7029 40.0836C62.1542 40.1592 62.6171 40.0632 63.0026 39.8143C63.675 39.3134 64.1933 38.6301 64.4972 37.8436C64.791 37.1333 65.0088 36.3934 65.1471 35.6364Z" fill="#263238"/>
<path d="M61.4043 46.7793C61.4043 46.7793 75.3306 37.1293 68.9296 33.5098C67.032 32.4193 57.9406 30.2252 57.4728 32.0909C56.8749 34.4689 60.501 36.0849 62.938 36.7352C62.938 36.7352 57.7392 39.3628 58.4605 43.5407C58.611 44.3012 58.9651 45.0053 59.4842 45.5764C60.0033 46.1474 60.6674 46.5635 61.4043 46.7793Z" fill="#EB9481"/>
<path d="M69.4428 33.812C68.7487 33.2947 67.9821 32.8851 67.1683 32.5967C66.363 32.2852 65.538 32.0284 64.6989 31.8281C63.0213 31.4003 61.3101 31.1211 59.5846 30.9938C59.1274 30.9625 58.6681 30.9957 58.2199 31.0924C57.9615 31.1537 57.7183 31.2677 57.5051 31.4274C57.3933 31.5205 57.2948 31.6288 57.2126 31.7493C57.1374 31.8739 57.0805 32.0088 57.0437 32.15C56.9246 32.6595 56.9891 33.1952 57.2256 33.6609C57.457 34.0838 57.7581 34.4636 58.1159 34.7842C58.7926 35.3742 59.564 35.843 60.3969 36.1703C61.2037 36.506 62.0333 36.7826 62.8793 36.998L62.8273 36.433C62.2449 36.7507 61.6943 37.1247 61.1832 37.5498C60.6708 37.9637 60.2044 38.4329 59.7925 38.949C59.3752 39.4625 59.0397 40.0388 58.7983 40.6569C58.5483 41.2648 58.4201 41.9168 58.4213 42.5751C58.5025 41.9355 58.6939 41.3152 58.9867 40.7423C59.2792 40.1798 59.6465 39.6604 60.0785 39.1986C60.504 38.7323 60.9741 38.3098 61.4821 37.9373C61.9859 37.5669 62.5233 37.2458 63.0872 36.9783L63.7826 36.6498L63.0353 36.4133C62.229 36.1765 61.4388 35.8869 60.6698 35.5462C59.9147 35.2213 59.2151 34.7779 58.5968 34.2324C58.3058 34.012 58.0755 33.7201 57.9276 33.3844C57.7798 33.0486 57.7193 32.6802 57.752 32.3142C57.856 31.7361 58.7918 31.6573 59.5911 31.6573C60.3904 31.6573 61.2612 31.7756 62.106 31.8741C62.9508 31.9726 63.7891 32.0909 64.6209 32.2485C66.2985 32.5146 67.9251 33.042 69.4428 33.812Z" fill="#263238"/>
<path d="M60.2411 49.1637C60.2411 49.1637 52.7939 63.5368 53.3982 65.0805C54.399 67.6425 66.9281 81.0893 69.9693 85.241C73.0106 89.3926 74.9082 94.6019 63.3149 92.1648C55.0228 90.4108 36.0538 79.158 33.0515 71.8861C30.9785 66.8607 31.5503 46.4375 31.5503 46.4375L60.2411 49.1637Z" fill="#BC93DC"/>
<path d="M33.4544 51.6582C44.0989 52.0326 54.8993 53.4713 56.8489 53.6289C56.9399 53.6289 56.8879 53.7866 56.7969 53.78C54.9838 53.6224 42.0649 52.9655 33.4024 51.8093C33.2984 51.8093 33.3504 51.6582 33.4544 51.6582Z" fill="#263238"/>
<path d="M74.8235 78.0274C70.2746 78.0274 63.5811 85.6278 63.8671 87.6511C64.2895 90.5414 68.585 111.74 69.1763 117.402C69.7677 123.065 58.1289 150.248 58.1289 150.248L65.7776 147.995L68.6954 154.879C68.6954 154.879 78.9305 131.105 79.7429 120.877C80.5552 110.649 69.3453 84.6884 69.8522 83.1315C70.359 81.5747 73.4458 79.6893 74.9925 79.6302C76.5391 79.5711 79.5414 82.0936 81.413 84.7607C83.2845 87.4277 92.2069 106.393 93.7601 113.316C95.3132 120.24 91.908 148.415 91.908 148.415L97.9711 143.849L104.132 149.361C104.132 149.361 105.6 122.283 103.417 110.952C102.033 103.726 93.7991 90.7845 86.1114 83.4731C81.7119 79.2952 77.5464 78.0208 74.8235 78.0274Z" fill="#455A64"/>
<path d="M78.482 87.2571C76.8184 87.6644 72.7178 85.1878 70.8398 82.7835C70.7163 82.6193 70.6708 80.6552 70.5019 78.2772C70.3979 76.832 70.2484 75.2291 70.0015 73.7773L79.3983 74.4343C79.1875 76.3412 79.2072 78.2669 79.4568 80.169C79.4945 80.3682 79.5489 80.5638 79.6192 80.7537C79.6192 80.7537 79.6192 80.8128 79.6192 80.8522C80.0221 81.969 81.0814 86.6199 78.482 87.2571Z" fill="#EB9481"/>
<path d="M79.6193 80.7668C79.6211 80.7997 79.6211 80.8326 79.6193 80.8654C79.3171 80.958 79.0087 81.0283 78.6965 81.0756C73.5497 81.831 71.2362 75.7284 70.6514 73.8496L79.3658 74.4737C79.1551 76.3806 79.1747 78.3063 79.4243 80.2085C79.4748 80.3994 79.54 80.5861 79.6193 80.7668Z" fill="#263238"/>
<path d="M76.4155 55.332C76.4155 55.332 79.8402 55.897 81.1594 58.9713C82.4786 62.0456 82.5371 65.5798 82.2967 65.8097C82.0562 66.0396 76.4155 55.332 76.4155 55.332Z" fill="#263238"/>
<path d="M65.8359 62.8603C65.6994 66.2828 69.735 75.0131 72.5033 76.4582C76.5064 78.5669 81.8741 77.4436 83.3493 72.8518C84.7595 68.398 79.3137 57.1583 76.3114 55.9299C71.951 54.1628 66.0373 57.8152 65.8359 62.8603Z" fill="#EB9481"/>
<path d="M73.4132 64.7253C73.6406 64.5479 73.8226 64.3443 74.063 64.1406C74.3104 63.9657 74.4951 63.7145 74.5894 63.4246C74.5997 63.3275 74.5787 63.2297 74.5295 63.1456C74.4803 63.0616 74.4056 62.9958 74.3165 62.9582C74.1274 62.9138 73.93 62.9214 73.7448 62.9803C73.5597 63.0392 73.3935 63.1473 73.2637 63.2932C72.9552 63.5439 72.7511 63.9026 72.6919 64.2983C72.6864 64.3857 72.705 64.473 72.7457 64.5504C72.7864 64.6278 72.8476 64.6922 72.9224 64.7364C72.9972 64.7807 73.0827 64.8031 73.1694 64.8012C73.256 64.7992 73.3404 64.7729 73.4132 64.7253Z" fill="#263238"/>
<path d="M79.2165 62.1893C78.9399 62.2496 78.6599 62.2935 78.3782 62.3207C78.0881 62.4087 77.7774 62.3971 77.4944 62.2878C77.411 62.2375 77.3469 62.1601 77.3127 62.0682C77.2784 61.9763 77.2761 61.8754 77.306 61.782C77.3889 61.6055 77.5169 61.4546 77.6769 61.3449C77.8368 61.2352 78.0229 61.1706 78.2158 61.1579C78.6035 61.073 79.0086 61.1361 79.353 61.3353C79.429 61.3853 79.489 61.4565 79.5257 61.5402C79.5624 61.624 79.5742 61.7168 79.5598 61.8072C79.5453 61.8977 79.5052 61.9819 79.4442 62.0497C79.3833 62.1176 79.3042 62.1661 79.2165 62.1893Z" fill="#263238"/>
<path d="M76.773 71.4714C76.9672 71.5922 77.1977 71.6388 77.4229 71.6028C77.6389 71.5021 77.8315 71.3566 77.9882 71.1758C77.9882 71.1758 78.0337 71.1758 78.0272 71.1758C77.9941 71.3311 77.9197 71.4743 77.8121 71.59C77.7045 71.7058 77.5677 71.7897 77.4164 71.8327C77.2827 71.8588 77.1443 71.8417 77.0207 71.7839C76.8971 71.7262 76.7945 71.6307 76.7275 71.5108C76.7275 71.505 76.7286 71.4993 76.731 71.494C76.7333 71.4888 76.7368 71.4841 76.7412 71.4803C76.7455 71.4766 76.7506 71.4738 76.7561 71.4723C76.7616 71.4707 76.7674 71.4704 76.773 71.4714Z" fill="#263238"/>
<path d="M76.6368 69.4163C76.8863 69.5872 77.1682 69.704 77.4645 69.7594C77.7609 69.8148 78.0654 69.8076 78.3589 69.7382C78.6185 69.6823 78.8683 69.5871 79.0997 69.4557L79.2297 69.3835L79.3467 69.3046C79.3756 69.285 79.3975 69.2566 79.4092 69.2235C79.4209 69.1904 79.4217 69.1543 79.4117 69.1207C79.4141 69.1011 79.4141 69.0812 79.4117 69.0616V69.009C79.2297 68.5426 78.8853 67.866 78.8853 67.866C79.0867 67.866 80.094 67.866 79.9835 67.6624C79.0496 65.6159 77.9131 63.6703 76.5913 61.8553C76.5871 61.8484 76.5815 61.8424 76.5749 61.8377C76.5684 61.833 76.561 61.8296 76.5531 61.8278C76.5453 61.8259 76.5372 61.8257 76.5292 61.827C76.5213 61.8284 76.5137 61.8313 76.5068 61.8356C76.5 61.8399 76.4941 61.8455 76.4894 61.8522C76.4847 61.8588 76.4814 61.8663 76.4796 61.8742C76.4778 61.8821 76.4775 61.8904 76.4789 61.8984C76.4802 61.9064 76.4831 61.9141 76.4873 61.921C77.3386 63.8129 78.5149 65.5471 79.3987 67.4324C79.0373 67.4243 78.6765 67.4663 78.3264 67.5573C78.2744 67.6032 79.0088 68.8711 79.0737 69.0747C78.7188 69.2752 78.3272 69.4007 77.9229 69.4436C77.5185 69.4865 77.1097 69.4459 76.7213 69.3243C76.6108 69.3243 76.5783 69.3835 76.6368 69.4163Z" fill="#263238"/>
<path d="M78.729 69.3438C78.6156 69.7798 78.3916 70.1783 78.0791 70.4999C77.903 70.6771 77.6752 70.7923 77.4293 70.8284C76.9029 70.9072 76.7079 70.4736 76.6365 70.0598C76.5979 69.8431 76.587 69.6223 76.604 69.4029C77.2998 69.6171 78.0458 69.5964 78.729 69.3438Z" fill="#263238"/>
<path d="M78.0921 70.4999C77.916 70.6771 77.6881 70.7923 77.4422 70.8284C76.9159 70.9072 76.7209 70.4736 76.6494 70.0598C76.9037 69.9572 77.1848 69.9448 77.4469 70.0248C77.709 70.1047 77.9365 70.2722 78.0921 70.4999Z" fill="#EB9481"/>
<path d="M74.115 66.1762C74.0857 66.0022 74.1013 65.8234 74.1605 65.6573C74.1979 65.5693 74.2521 65.4898 74.3202 65.4233C74.3882 65.3567 74.4687 65.3045 74.5569 65.2697C74.6499 65.2395 74.7484 65.2309 74.8452 65.2446C74.942 65.2582 75.0344 65.2938 75.1157 65.3485C75.2533 65.4512 75.3666 65.5836 75.4472 65.7361C75.4928 65.8273 75.5319 65.9217 75.5641 66.0186C75.6413 66.2167 75.6681 66.4313 75.6421 66.6426C75.6012 66.4936 75.5422 66.3501 75.4667 66.2156C75.4045 66.0925 75.3305 65.9759 75.2457 65.8675C75.0767 65.6376 74.8558 65.4799 74.6608 65.5653C74.4659 65.6507 74.3489 65.8675 74.3554 66.1565C74.3719 66.4512 74.4154 66.7437 74.4854 67.0302C74.2986 66.7781 74.1719 66.4859 74.115 66.1762Z" fill="#263238"/>
<path d="M79.8146 63.5235C79.7162 63.3795 79.5784 63.2677 79.4182 63.2016C79.3312 63.1627 79.2371 63.1426 79.142 63.1426C79.0468 63.1426 78.9528 63.1627 78.8658 63.2016C78.78 63.2482 78.7056 63.3138 78.6483 63.3934C78.5909 63.473 78.552 63.5646 78.5344 63.6614C78.516 63.8336 78.5314 64.0077 78.5799 64.1738C78.5799 64.2724 78.6578 64.3643 78.6968 64.4563C78.7899 64.6472 78.9256 64.8136 79.0932 64.9424C79.0166 64.8099 78.9555 64.6688 78.9113 64.522C78.8666 64.3895 78.834 64.2532 78.8138 64.1147C78.7683 63.8388 78.8138 63.5629 79.0088 63.4578C79.1216 63.4092 79.2475 63.4009 79.3657 63.4343C79.4838 63.4678 79.5871 63.5409 79.6586 63.6417C79.8566 63.8595 80.035 64.0947 80.1915 64.3446C80.1306 64.0451 80.0015 63.7639 79.8146 63.5235Z" fill="#263238"/>
<path d="M68.7735 70.539C69.8977 70.3748 69.6183 66.8472 69.4233 65.5466C69.2284 64.4035 68.0456 61.0467 67.9871 60.8037C67.9287 60.5606 73.5953 61.5788 75.7268 59.6607C77.8583 57.7425 78.4497 54.701 77.9883 53.6368C77.5269 52.5726 73.1794 51.3968 70.4631 52.5595C67.7467 53.7222 65.7582 58.8461 65.7582 58.8461C65.9572 58.1382 66.1006 57.4156 66.1871 56.6849C66.0896 56.5798 64.6989 58.1038 64.9653 59.4899C64.9653 59.4899 64.5754 57.7753 64.4325 57.8082C64.2895 57.841 63.5812 59.7789 64.3545 60.6723C64.3545 60.6723 63.4512 62.7678 64.0036 64.3181C64.5559 65.8684 67.4543 70.7361 68.7735 70.539Z" fill="#263238"/>
<path d="M77.2083 58.2871C76.6621 59.041 76.0046 59.7056 75.2588 60.2578C74.392 60.7684 73.4148 61.0571 72.4124 61.0987C71.4056 61.1717 70.3938 61.0785 69.4166 60.8228C68.5588 60.606 67.714 60.2513 66.8173 60.1133C66.6028 60.0805 66.5248 60.4089 66.6938 60.514C68.5358 61.552 70.659 61.9642 72.7504 61.6899C73.722 61.5638 74.6445 61.1845 75.4272 60.589C76.2099 59.9936 76.826 59.2026 77.2148 58.2937L77.2083 58.2871Z" fill="#263238"/>
<path d="M69.7155 69.8094C69.7155 69.8094 66.8431 67.4511 65.7319 68.5678C64.6207 69.6845 67.3435 73.5143 69.0656 73.6523C69.2844 73.6854 69.5075 73.6734 69.7216 73.617C69.9356 73.5606 70.1361 73.4609 70.311 73.3241C70.486 73.1872 70.6316 73.0159 70.7392 72.8205C70.8468 72.6251 70.9142 72.4098 70.9372 72.1874L69.7155 69.8094Z" fill="#EB9481"/>
<path d="M66.564 69.6392C66.564 69.6392 66.564 69.6786 66.564 69.6852C67.7792 69.8166 68.637 70.6706 69.3388 71.6165C69.2444 71.5239 69.1312 71.4532 69.0071 71.4091C68.883 71.365 68.751 71.3486 68.62 71.3611C68.4891 71.3736 68.3623 71.4146 68.2486 71.4814C68.1348 71.5482 68.0368 71.6391 67.9611 71.7479C67.9611 71.7479 67.9611 71.8136 68.0131 71.8004C68.1832 71.6788 68.3864 71.6135 68.5947 71.6135C68.8031 71.6135 69.0063 71.6788 69.1764 71.8004C69.4529 72.0176 69.7076 72.2618 69.9367 72.5296C70.0147 72.615 70.1706 72.5296 70.1056 72.4048C69.7027 71.0122 68.0716 69.3567 66.564 69.6392Z" fill="#263238"/>
<path d="M79.6975 80.5889L77.6895 86.2711L70.5412 79.459L68.6826 81.8107C68.6826 81.8107 75.8309 92.8008 75.8634 92.2884L77.9624 87.3747L81.3871 90.6067L80.7958 82.1852L79.6975 80.5889Z" fill="#EBEBEB"/>
<path d="M81.3218 86.4284C81.1788 85.0358 81.0749 83.6365 80.8669 82.257C80.8669 82.2111 80.7824 82.1914 80.7694 82.257C80.5485 83.6103 81.1204 88.9115 81.1658 90.1859C81.0229 90.0414 77.9946 87.3481 77.9686 87.394C77.5072 88.1823 75.9606 91.7625 75.8631 92.0844C74.7259 90.337 70.3979 83.9978 69.0722 82.3556C69.0653 82.3451 69.0546 82.3379 69.0424 82.3354C69.0302 82.3329 69.0175 82.3355 69.0072 82.3424C68.9968 82.3494 68.9897 82.3602 68.9872 82.3726C68.9848 82.3849 68.9873 82.3977 68.9942 82.4081C70.008 84.2606 75.7396 92.8004 75.8241 92.7741C76.6434 91.082 77.3744 89.3475 78.0141 87.578C78.534 88.1692 81.5947 91.2238 81.6012 91.0202C81.5869 89.4857 81.4937 87.9531 81.3218 86.4284Z" fill="#263238"/>
<path d="M96.9638 10.0179C96.9638 10.0179 92.9022 5.79396 89.9584 6.33262C87.1251 6.84501 85.5395 10.6485 83.304 11.0426C81.0685 11.4368 79.028 8.71719 79.3464 6.8253" stroke="#263238" stroke-width="0.75" stroke-miterlimit="10"/>
<path d="M79.4312 6.95087C79.9132 6.69687 80.3261 6.32689 80.6334 5.87354C81.058 5.0212 81.383 4.12174 81.6016 3.19336" stroke="#BC93DC" stroke-width="0.75" stroke-miterlimit="10"/>
<path d="M79.1905 6.81801C78.8715 6.36096 78.5994 5.87234 78.3781 5.35967C78.1442 4.70277 78.5926 2.48242 78.5926 2.48242" stroke="#BC93DC" stroke-width="0.75" stroke-miterlimit="10"/>
<path d="M79.3271 6.90499C79.7437 6.25176 80.1046 5.56391 80.4059 4.84887C80.5489 4.29707 81.0557 2.30664 81.0557 2.30664" stroke="#BC93DC" stroke-width="0.75" stroke-miterlimit="10"/>
<path d="M79.2489 6.87178C79.1781 5.99737 79.1781 5.11857 79.2489 4.24415C79.3789 3.73833 79.5673 2.20117 79.5673 2.20117" stroke="#BC93DC" stroke-width="0.75" stroke-miterlimit="10"/>
<path d="M108.018 12.4225L124.199 2.27989L104.463 0.828125L89.4321 13.0991L108.018 12.4225Z" fill="#BC93DC"/>
<path opacity="0.1" d="M108.018 12.4225L124.199 2.27989L104.463 0.828125L89.4321 13.0991L108.018 12.4225Z" fill="black"/>
<path d="M117.551 11.1739L116.518 5.62964C116.518 5.62964 110.37 4.81508 106.198 6.12232C102.026 7.42957 97.5684 11.1148 97.5684 11.1148L99.7064 16.7773C99.7064 16.7773 105.399 13.6965 108.804 12.7111C111.681 11.9927 114.604 11.4791 117.551 11.1739Z" fill="#BC93DC"/>
</g>
<defs>
<clipPath id="clip0_1554_32046">
<rect width="280" height="280" fill="white"/>
</clipPath>
</defs>
</svg>
