<svg width="309" height="143" viewBox="0 0 309 143" fill="none" xmlns="http://www.w3.org/2000/svg">
<path d="M70.0956 80.6836H68.1973V80.9957H70.0956V80.6836Z" fill="#D2B7E7"/>
<path d="M98.4199 59.5684H96.5215V59.8805H98.4199V59.5684Z" fill="#D2B7E7"/>
<path d="M96.123 61.5859H94.2246V61.8981H96.123V61.5859Z" fill="#D2B7E7"/>
<path d="M103.445 73.9863H101.547V74.2985H103.445V73.9863Z" fill="#D2B7E7"/>
<path d="M108.133 79.5059H106.234V79.818H108.133V79.5059Z" fill="#D2B7E7"/>
<path d="M72.3808 83.2676H70.4824V83.5797H72.3808V83.2676Z" fill="#D2B7E7"/>
<path d="M70.0956 88.2656H68.1973V88.5778H70.0956V88.2656Z" fill="#D2B7E7"/>
<path d="M72.3808 90.8496H70.4824V91.1618H72.3808V90.8496Z" fill="#D2B7E7"/>
<path d="M67.7193 77.8516H67.1855V78.4266H67.7193V77.8516Z" fill="#D2B7E7"/>
<path d="M68.7154 77.8516H68.1816V78.4266H68.7154V77.8516Z" fill="#D2B7E7"/>
<path d="M81.4068 73.8867H80.873V74.4617H81.4068V73.8867Z" fill="#D2B7E7"/>
<path d="M82.4068 73.8867H81.873V74.4617H82.4068V73.8867Z" fill="#D2B7E7"/>
<path d="M95.7096 57.6797H95.1758V58.2547H95.7096V57.6797Z" fill="#D2B7E7"/>
<path d="M96.7057 57.6797H96.1719V58.2547H96.7057V57.6797Z" fill="#D2B7E7"/>
<path d="M103.71 63.709H103.176V64.284H103.71V63.709Z" fill="#D2B7E7"/>
<path d="M104.71 63.709H104.176V64.284H104.71V63.709Z" fill="#D2B7E7"/>
<path d="M106.452 65.7715H105.918V66.3465H106.452V65.7715Z" fill="#D2B7E7"/>
<path d="M107.45 65.7715H106.916V66.3465H107.45V65.7715Z" fill="#D2B7E7"/>
<path d="M245.362 132.557H244.828V133.132H245.362V132.557Z" fill="#D2B7E7"/>
<path d="M246.36 132.557H245.826V133.132H246.36V132.557Z" fill="#D2B7E7"/>
<path d="M248.102 134.617H247.568V135.192H248.102V134.617Z" fill="#D2B7E7"/>
<path d="M249.102 134.617H248.568V135.192H249.102V134.617Z" fill="#D2B7E7"/>
<path d="M109.397 84.2168H108.863V84.7918H109.397V84.2168Z" fill="#D2B7E7"/>
<path d="M110.397 84.2168H109.863V84.7918H110.397V84.2168Z" fill="#D2B7E7"/>
<path d="M98.9576 71.5078H98.4238V72.0828H98.9576V71.5078Z" fill="#D2B7E7"/>
<path d="M99.9518 71.5078H99.418V72.0828H99.9518V71.5078Z" fill="#D2B7E7"/>
<path d="M138.844 77.1328H136.945V77.445H138.844V77.1328Z" fill="#D2B7E7"/>
<path d="M170.754 72.0879H168.855V72.4H170.754V72.0879Z" fill="#D2B7E7"/>
<path d="M230.961 132.4H229.062V132.713H230.961V132.4Z" fill="#D2B7E7"/>
<path d="M233.598 97.6035H231.699V97.9157H233.598V97.6035Z" fill="#D2B7E7"/>
<path d="M204.928 82.8828H203.029V83.195H204.928V82.8828Z" fill="#D2B7E7"/>
<path d="M136.547 79.1484H134.648V79.4606H136.547V79.1484Z" fill="#D2B7E7"/>
<path d="M170.984 57.2812H169.086V57.5934H170.984V57.2812Z" fill="#D2B7E7"/>
<path d="M170.035 61.0117H168.137V61.3239H170.035V61.0117Z" fill="#D2B7E7"/>
<path d="M143.865 91.5488H141.967V91.861H143.865V91.5488Z" fill="#D2B7E7"/>
<path d="M242.621 136.047H240.723V136.359H242.621V136.047Z" fill="#D2B7E7"/>
<path d="M246.232 138.854H244.334V139.166H246.232V138.854Z" fill="#D2B7E7"/>
<path d="M136.135 75.2461H135.602V75.8211H136.135V75.2461Z" fill="#D2B7E7"/>
<path d="M137.129 75.2461H136.596V75.8211H137.129V75.2461Z" fill="#D2B7E7"/>
<path d="M143.901 73.3789H143.367V73.9539H143.901V73.3789Z" fill="#D2B7E7"/>
<path d="M144.901 73.3789H144.367V73.9539H144.901V73.3789Z" fill="#D2B7E7"/>
<path d="M166.321 54.3477H165.787V54.9227H166.321V54.3477Z" fill="#D2B7E7"/>
<path d="M167.315 54.3477H166.781V54.9227H167.315V54.3477Z" fill="#D2B7E7"/>
<path d="M224.409 97.1836H223.875V97.7586H224.409V97.1836Z" fill="#D2B7E7"/>
<path d="M225.407 97.1836H224.873V97.7586H225.407V97.1836Z" fill="#D2B7E7"/>
<path d="M233.034 99.875H232.5V100.45H233.034V99.875Z" fill="#D2B7E7"/>
<path d="M234.032 99.875H233.498V100.45H234.032V99.875Z" fill="#D2B7E7"/>
<path d="M202.768 80.2734H202.234V80.8485H202.768V80.2734Z" fill="#D2B7E7"/>
<path d="M203.766 80.2734H203.232V80.8485H203.766V80.2734Z" fill="#D2B7E7"/>
<path d="M169.805 65.0273H169.271V65.6024H169.805V65.0273Z" fill="#D2B7E7"/>
<path d="M170.803 65.0273H170.27V65.6024H170.803V65.0273Z" fill="#D2B7E7"/>
<path d="M143.637 83.5508H143.104V84.1258H143.637V83.5508Z" fill="#D2B7E7"/>
<path d="M144.633 83.5508H144.1V84.1258H144.633V83.5508Z" fill="#D2B7E7"/>
<path d="M139.378 89.0723H138.844V89.6473H139.378V89.0723Z" fill="#D2B7E7"/>
<path d="M140.378 89.0723H139.844V89.6473H140.378V89.0723Z" fill="#D2B7E7"/>
<path d="M84.2018 76.3145H83.668V76.8895H84.2018V76.3145Z" fill="#D2B7E7"/>
<path d="M85.1998 76.3145H84.666V76.8895H85.1998V76.3145Z" fill="#D2B7E7"/>
<path d="M80.6432 81.0625H80.1094V81.6375H80.6432V81.0625Z" fill="#D2B7E7"/>
<path d="M81.6412 81.0625H81.1074V81.6375H81.6412V81.0625Z" fill="#D2B7E7"/>
<path d="M64.0748 100.963H63.541V101.538H64.0748V100.963Z" fill="#D2B7E7"/>
<path d="M65.0748 100.963H64.541V101.538H65.0748V100.963Z" fill="#D2B7E7"/>
<path d="M202.373 81.0996C202.418 81.3748 202.463 81.6459 202.504 81.9211C202.459 81.6541 202.418 81.3748 202.373 81.0996Z" fill="#D2B7E7"/>
<path d="M202.616 82.6815C202.616 82.6319 202.616 82.5865 202.596 82.541C202.596 82.5865 202.596 82.6361 202.616 82.6815Z" fill="#D2B7E7"/>
<path d="M174.543 71.2012C174.543 71.2549 174.515 71.3169 174.498 71.3748L174.548 71.2053L174.543 71.2012Z" fill="#D2B7E7"/>
<path d="M202.911 119.646C202.817 120.402 202.71 121.142 202.604 121.877C202.713 121.143 202.816 120.399 202.911 119.646Z" fill="#D2B7E7"/>
<path d="M201.776 126.785C201.698 127.196 201.608 127.607 201.525 128.017C201.616 127.603 201.698 127.196 201.776 126.785Z" fill="#D2B7E7"/>
<path d="M200.561 132.207C200.52 132.363 200.483 132.527 200.438 132.683C200.479 132.519 200.52 132.38 200.561 132.207Z" fill="#D2B7E7"/>
<path d="M171.033 109.99C171.091 111.079 171.156 112.159 171.234 113.223C171.165 112.159 171.099 111.079 171.033 109.99Z" fill="#D2B7E7"/>
<path d="M170.834 101.764C170.834 101.226 170.834 100.696 170.855 100.162C170.85 100.696 170.838 101.226 170.834 101.764Z" fill="#D2B7E7"/>
<path d="M172.172 121.652C172.287 122.474 172.41 123.267 172.541 124.055C172.41 123.267 172.287 122.466 172.172 121.652Z" fill="#D2B7E7"/>
<path d="M172.019 120.608C171.995 120.423 171.97 120.23 171.945 120.041L172.019 120.608Z" fill="#D2B7E7"/>
<g filter="url(#filter0_d_1554_33150)">
<path d="M217.945 140.044C221.565 130.474 223.64 116.748 223.64 102.384C223.64 88.9327 221.877 76.2821 218.672 66.7572C215.41 57.0639 211.009 51.7285 206.271 51.7285C201.533 51.7285 197.133 57.068 193.874 66.7572C190.669 76.2821 188.902 88.9368 188.902 102.384C188.902 116.76 190.982 130.474 194.597 140.044L194.696 140.303H192.42V144H220.361V140.303H217.842L217.945 140.044ZM219.63 73.0948C219.276 71.6737 218.9 70.3128 218.5 69.0122C218.902 70.3183 219.279 71.6833 219.63 73.1072V73.0948ZM218.356 68.5521C217.401 65.3731 216.095 62.3106 214.46 59.4215C216.096 62.3145 217.402 65.3812 218.356 68.5645V68.5521ZM214.46 59.4174C214.341 59.2203 214.226 59.0272 214.103 58.8342C214.226 59.0396 214.341 59.2326 214.46 59.4298V59.4174ZM214.05 58.7767C213.943 58.6042 213.836 58.4358 213.725 58.2715C213.852 58.4481 213.959 58.6165 214.066 58.789L214.05 58.7767ZM213.663 58.1811C213.561 58.0292 213.462 57.8813 213.359 57.7375C213.478 57.8936 213.577 58.0374 213.68 58.1935L213.663 58.1811ZM213.273 57.6225C213.178 57.487 213.084 57.3556 212.985 57.2118C213.1 57.3679 213.195 57.4993 213.289 57.6266L213.273 57.6225ZM212.065 56.1521C211.979 56.0535 211.888 55.955 211.802 55.8646C211.942 55.9837 212.032 56.0659 212.118 56.1644L212.065 56.1521ZM211.654 55.7414C211.572 55.651 211.486 55.5648 211.399 55.4785C211.551 55.573 211.638 55.6469 211.72 55.7373L211.654 55.7414ZM206.645 53.0264C206.497 53.0264 206.353 53.0264 206.205 53.0264C206.058 53.0264 205.914 53.0264 205.77 53.0264C205.914 53.0264 206.062 53.0264 206.205 53.0264C206.349 53.0264 206.563 53.0141 206.711 53.0223L206.645 53.0264ZM210.845 54.9774C210.762 54.9035 210.68 54.8337 210.594 54.7679C210.754 54.8295 210.857 54.8994 210.918 54.9733L210.845 54.9774ZM209.201 53.8191C209.123 53.774 209.041 53.7329 208.958 53.6918C209.111 53.7288 209.213 53.7699 209.271 53.815L209.201 53.8191ZM201.858 54.7679C201.776 54.8378 201.69 54.9035 201.607 54.9774C201.706 54.8994 201.792 54.8337 201.875 54.7515L201.858 54.7679ZM201.036 55.4826C200.95 55.5648 200.868 55.651 200.782 55.7414C200.909 55.6469 200.995 55.573 201.077 55.4785L201.036 55.4826ZM200.646 55.8933C200.56 55.9878 200.469 56.0823 200.383 56.1809C200.51 56.0659 200.584 55.9837 200.687 55.8769L200.646 55.8933ZM200.26 56.3041C200.169 56.4081 200.079 56.5149 199.988 56.6245C200.112 56.5122 200.216 56.4054 200.301 56.3041H200.26ZM199.878 56.76C199.783 56.875 199.693 56.9941 199.598 57.1132C199.734 56.9941 199.824 56.875 199.919 56.76H199.878ZM199.126 57.754C199.023 57.8977 198.92 58.0456 198.822 58.1976C198.961 58.0374 199.064 57.8977 199.167 57.754H199.126ZM198.76 58.2879C198.649 58.4522 198.538 58.6247 198.431 58.7972C198.579 58.6247 198.69 58.4481 198.801 58.2879H198.76ZM198.398 58.8506C196.804 61.3931 195.37 64.6871 194.141 68.5727C195.411 64.6871 196.845 61.3931 198.439 58.8588L198.398 58.8506ZM193.998 69.0368C193.874 69.4475 193.751 69.8583 193.632 70.269C193.792 69.8542 193.915 69.4393 194.039 69.0368H193.998ZM191.84 77.8265C191.729 78.3892 191.627 78.9601 191.524 79.5351C191.668 78.9601 191.77 78.3892 191.881 77.8265H191.84ZM191.503 79.6625C191.405 80.217 191.314 80.7838 191.224 81.3506C191.355 80.7838 191.446 80.217 191.544 79.6625H191.503ZM191.191 81.56C191.101 82.1351 191.014 82.7142 190.932 83.3016C191.055 82.7142 191.134 82.1351 191.232 81.56H191.191ZM190.92 83.396C190.747 84.6282 190.595 85.8604 190.456 87.1378C190.636 85.8686 190.788 84.62 190.961 83.396H190.92ZM190.443 87.261C190.373 87.8894 190.312 88.522 190.25 89.1586C190.353 88.522 190.414 87.8894 190.484 87.261H190.443ZM190.242 89.2572C190.121 90.5798 190.019 91.9228 189.934 93.2865C190.049 91.9228 190.165 90.5784 190.283 89.2531L190.242 89.2572ZM189.699 98.7821C189.728 97.6485 189.765 96.5272 189.819 95.4141C189.769 96.4875 189.731 97.5677 189.704 98.6548C189.734 97.5595 189.772 96.4792 189.819 95.4141C189.852 94.6994 189.889 93.9929 189.934 93.2865C189.999 93.4795 190.069 93.6767 190.151 93.8779C190.945 90.6537 191.881 87.1214 192.958 83.4741C193.209 82.628 193.463 81.7983 193.718 80.9768C193.041 79.898 192.416 78.8478 191.84 77.8265C192.259 75.6496 192.731 73.5836 193.254 71.6285C193.184 71.8914 193.118 72.1543 193.048 72.4171C193.139 72.068 193.233 71.7189 193.324 71.3739C193.303 71.4519 193.283 71.53 193.258 71.608C193.373 71.1973 193.484 70.7865 193.599 70.3758C193.525 70.6469 193.447 70.9262 193.373 71.1973C193.993 72.6752 194.706 74.1128 195.506 75.5017C196.196 73.4891 196.901 71.5724 197.622 69.7515C196.389 69.5543 195.197 69.312 193.998 69.0327C194.047 68.8766 194.096 68.7205 194.141 68.5686C195.355 68.8424 196.575 69.0847 197.802 69.2956C198.139 69.349 198.476 69.4106 198.817 69.4599C200.217 69.657 201.625 69.7939 203.041 69.8706C203.378 69.8911 203.715 69.8993 204.052 69.9158L205.018 69.9486C206.73 69.987 208.443 69.9432 210.158 69.8172C212.007 69.6829 213.848 69.4526 215.673 69.1272C216.108 69.045 216.544 68.967 216.975 68.8766C217.407 68.7863 217.9 68.6754 218.356 68.5686C218.405 68.7205 218.454 68.8725 218.5 69.0286C217.879 69.1765 217.267 69.312 216.63 69.4393C215.59 71.1233 214.543 72.9388 213.503 74.8692C214.396 76.2383 215.306 77.654 216.231 79.1162C217.39 76.964 218.528 74.9514 219.63 73.1113C219.741 73.5508 219.847 73.9985 219.95 74.4503C218.931 76.1836 217.896 78.0565 216.819 80.0403C217.709 81.4451 218.605 82.8758 219.506 84.3325C220.095 83.2372 220.672 82.1638 221.236 81.1124C221.199 80.8659 221.162 80.6154 221.121 80.3689C221.228 81.0097 221.331 81.6586 221.429 82.3158L221.368 81.9379C221.401 82.1433 221.433 82.3487 221.462 82.554C221.465 82.5198 221.465 82.4855 221.462 82.4513C221.561 83.1044 221.655 83.7698 221.742 84.4393C221.664 83.8519 221.581 83.2728 221.499 82.6937C221.043 83.5439 220.583 84.4064 220.114 85.2895C220.825 86.4437 221.528 87.6101 222.231 88.7766C222.165 88.0825 222.095 87.3925 222.017 86.723C222.095 87.4294 222.169 88.1441 222.239 88.8629V88.8424C222.313 89.5926 222.379 90.3511 222.436 91.1178C222.551 92.5581 222.643 94.0231 222.711 95.5126C222.678 94.8432 222.646 94.1737 222.605 93.5124C222.65 94.2763 222.691 95.0444 222.724 95.8207C222.726 95.8002 222.726 95.7796 222.724 95.7591C222.751 96.3998 222.776 97.0447 222.798 97.6936C222.798 97.2829 222.769 96.8722 222.752 96.482C222.773 97.0406 222.794 97.5992 222.81 98.1619C222.81 98.1126 222.81 98.0633 222.81 98.014C222.831 98.6589 222.847 99.3078 222.855 99.9609C222.855 99.431 222.835 98.9053 222.818 98.3796C222.218 97.3144 221.606 96.2479 220.981 95.18C220.595 95.9111 220.208 96.649 219.819 97.3938C218.549 99.8089 217.234 102.323 215.911 104.845C216.826 106.159 217.723 107.473 218.602 108.788C220.077 106.118 221.507 103.506 222.863 100.984C222.863 100.733 222.863 100.483 222.863 100.236C222.863 100.918 222.863 101.604 222.863 102.29C222.863 103.308 222.852 104.32 222.831 105.325C222.831 104.558 222.839 103.786 222.855 103.009C221.676 105.181 220.443 107.416 219.19 109.687C220.097 111.056 220.972 112.425 221.816 113.794L222.485 112.644C222.485 112.406 222.522 112.172 222.539 111.934C222.473 112.895 222.403 113.852 222.317 114.809C222.383 114.094 222.44 113.371 222.494 112.644C222.44 113.363 222.391 114.086 222.325 114.797C221.925 119.533 221.229 124.239 220.242 128.889C220.303 128.61 220.357 128.318 220.419 128.034L218.565 130.975C218.865 131.386 219.157 131.797 219.449 132.208C219.556 131.797 219.667 131.386 219.769 130.955C219.443 132.291 219.1 133.574 218.738 134.803C218.45 135.769 218.154 136.705 217.846 137.596C217.283 136.726 216.7 135.851 216.088 134.968C215.247 136.353 214.425 137.722 213.622 139.075H212.5C213.451 137.432 214.441 135.771 215.471 134.093C214.682 132.984 213.861 131.869 213.006 130.749C211.395 133.604 209.879 136.401 208.539 139.075H207.467C208.921 136.138 210.59 133.062 212.373 129.916C211.551 128.864 210.729 127.81 209.908 126.753C207.816 130.774 205.947 134.602 204.484 138.052C204.771 138.393 205.051 138.734 205.334 139.075H199.195C199.237 138.935 199.269 138.8 199.31 138.664L197.831 136.898L197.572 136.586C197.519 136.923 197.482 137.231 197.466 137.506L196.504 137.444C196.551 136.835 196.639 136.23 196.767 135.633C195.354 133.949 194.022 132.347 192.777 130.844C192.958 131.589 193.144 132.318 193.336 133.033C192.261 128.971 191.448 124.844 190.899 120.678C190.94 120.999 190.99 121.315 191.035 121.631C191.659 122.472 192.317 123.334 193.007 124.219C193.624 121.496 195.021 116.826 196.96 111.194C196.208 110.279 195.481 109.387 194.791 108.525C192.909 114.797 191.787 119.413 191.709 120.654L190.887 120.604L190.764 119.639L190.813 120.05C191.105 118.202 192.264 113.614 194.076 107.646C193.361 106.742 192.676 105.867 192.021 105.021C191.105 108.611 190.451 111.478 190.09 113.236C189.958 111.502 189.856 109.732 189.79 107.937C189.81 108.562 189.843 109.17 189.876 109.798C190.254 108.155 190.731 106.233 191.298 104.048C190.719 103.263 190.184 102.512 189.683 101.776C189.683 101.945 189.683 102.109 189.683 102.282C189.683 101.131 189.697 99.9924 189.724 98.8642C189.724 99.2955 189.724 99.735 189.724 100.174C189.724 99.6693 189.724 99.1641 189.745 98.663C189.745 98.6999 189.741 98.741 189.741 98.7821H189.699ZM219.95 74.4667C220.09 75.0787 220.23 75.6989 220.361 76.3355C220.23 75.6989 220.09 75.0623 219.95 74.4667ZM220.361 76.3766C220.492 77.0009 220.616 77.6293 220.735 78.2701C220.624 77.6129 220.501 76.9845 220.369 76.3602L220.361 76.3766ZM220.772 78.3522C220.891 78.9848 221.006 79.6214 221.113 80.2704C220.994 79.605 220.879 78.9848 220.76 78.3358L220.772 78.3522ZM221.754 84.5789C221.84 85.2566 221.927 85.9385 222.005 86.6326C221.914 85.922 221.828 85.2402 221.742 84.5625L221.754 84.5789ZM222.428 91.1137C222.37 90.358 222.305 89.6104 222.235 88.8711C222.292 89.594 222.362 90.3415 222.416 91.0973L222.428 91.1137ZM222.806 106.048C222.785 106.837 222.761 107.625 222.728 108.406C222.748 107.609 222.773 106.82 222.794 106.032L222.806 106.048ZM222.699 109.038C222.658 109.884 222.611 110.722 222.559 111.552C222.606 110.711 222.648 109.868 222.687 109.022L222.699 109.038ZM220.234 128.926C220.086 129.612 219.934 130.281 219.773 130.942C219.919 130.274 220.064 129.597 220.209 128.909L220.234 128.926ZM194.178 135.879C194.113 135.67 194.047 135.469 193.981 135.251C194.01 135.44 194.088 135.666 194.154 135.855L194.178 135.879ZM190.41 116.324C190.373 115.947 190.332 115.569 190.299 115.187C190.312 115.54 190.349 115.922 190.386 116.3L190.41 116.324ZM189.831 107.855C189.798 107.034 189.778 106.212 189.757 105.391C189.753 106.204 189.773 107.021 189.806 107.831L189.831 107.855Z" fill="#E1D5CF"/>
</g>
<path d="M215.331 69.6777C213.729 69.957 212.118 70.1665 210.503 70.2938C211.275 71.4603 212.068 72.6638 212.886 73.9206C213.7 72.4392 214.515 71.0249 215.331 69.6777Z" fill="#E1D5CF"/>
<path d="M201.895 85.3381C203.559 81.198 205.359 77.0906 207.237 73.2585C206.591 72.285 205.971 71.3486 205.367 70.4491C204.866 70.4491 204.36 70.4491 203.859 70.4121C202.215 73.9855 200.67 77.7478 199.277 81.5307C200.116 82.7711 200.995 84.0443 201.895 85.3381Z" fill="#E1D5CF"/>
<path d="M215.258 103.933C216.491 101.551 217.723 99.2013 218.956 96.9258L220.398 94.1822C219.535 92.7117 218.652 91.2413 217.764 89.7832C216.034 93.1307 214.276 96.626 212.566 100.109C213.458 101.382 214.366 102.656 215.258 103.933Z" fill="#E1D5CF"/>
<path d="M196.832 85.6517C195.994 84.4277 195.201 83.2352 194.453 82.0742C193.019 86.773 191.819 91.3157 190.854 95.308C191.441 96.4378 192.09 97.5347 192.797 98.5939C193.927 94.5934 195.279 90.178 196.832 85.6517Z" fill="#E1D5CF"/>
<path d="M202.869 70.359C201.463 70.2686 200.066 70.129 198.673 69.9277C197.798 72.1457 196.972 74.4006 196.208 76.6638C196.948 77.896 197.769 79.2226 198.673 80.5739C199.943 77.0909 201.357 73.6449 202.869 70.359Z" fill="#E1D5CF"/>
<path d="M219.28 119.964C217.961 122.199 216.634 124.446 215.34 126.68C216.23 127.827 217.094 128.973 217.933 130.118C218.754 128.787 219.591 127.459 220.443 126.134L220.908 125.398C221.113 124.253 221.318 123.07 221.47 121.87C220.961 120.913 220.431 119.948 219.864 118.975C219.671 119.307 219.486 119.648 219.28 119.964Z" fill="#E1D5CF"/>
<path d="M197.494 86.6113C195.941 91.1869 194.618 95.6475 193.492 99.611C194.154 100.572 194.881 101.57 195.658 102.601C196.919 98.7156 198.382 94.4851 200.005 90.1847C199.142 88.9689 198.3 87.7778 197.494 86.6113Z" fill="#E1D5CF"/>
<path d="M205.873 90.8954L208.182 94.0662L208.56 94.5838C210.307 90.7968 212.106 87.0632 213.902 83.5473C212.994 82.1057 212.094 80.6722 211.202 79.3086C209.366 83.0134 207.57 86.9441 205.873 90.8954Z" fill="#E1D5CF"/>
<path d="M202.457 111.043C203.279 112.023 204.101 113.004 204.922 113.984C206.426 110.632 208.054 107.145 209.734 103.646C208.875 102.442 208.004 101.235 207.133 100.031C205.469 103.789 203.871 107.519 202.457 111.043Z" fill="#E1D5CF"/>
<path d="M203.916 95.5957C202.273 99.6414 200.74 103.63 199.396 107.334C200.172 108.293 200.966 109.251 201.78 110.21C203.226 106.653 204.825 102.903 206.505 99.1198L204.693 96.6472L203.916 95.5957Z" fill="#E1D5CF"/>
<path d="M208.171 117.836C209.716 114.702 211.347 111.486 213.003 108.282C212.143 107.039 211.272 105.795 210.39 104.549C209.728 105.925 209.079 107.293 208.45 108.632C207.445 110.789 206.502 112.843 205.623 114.793L208.171 117.836Z" fill="#E1D5CF"/>
<path d="M211.901 99.214C213.652 95.6571 215.427 92.1453 217.153 88.8101C216.269 87.3603 215.377 85.935 214.49 84.5098C212.711 88.0215 210.927 91.7181 209.214 95.4846C210.107 96.7222 211.003 97.9654 211.901 99.214Z" fill="#E1D5CF"/>
<path d="M205.178 89.9479C206.891 85.972 208.708 82.0372 210.569 78.3447C209.64 76.9072 208.728 75.5148 207.849 74.1758C205.975 78.0161 204.188 82.1235 202.54 86.2554C203.399 87.4753 204.282 88.7075 205.178 89.9479Z" fill="#E1D5CF"/>
<path d="M203.214 94.6256C202.347 93.4345 201.492 92.2598 200.662 91.1016C199.047 95.4184 197.592 99.6489 196.352 103.51C197.088 104.463 197.855 105.435 198.653 106.426C200.013 102.684 201.549 98.7001 203.214 94.6256Z" fill="#E1D5CF"/>
<path d="M201.652 134.713L203.773 137.235C205.264 133.765 207.142 129.941 209.225 125.94C208.403 124.942 207.582 123.936 206.76 122.934C204.73 127.234 202.955 131.255 201.652 134.713Z" fill="#E1D5CF"/>
<path d="M201.853 117.065L200.641 115.623C198.669 120.733 197.128 125.164 196.277 128.286C196.906 129.054 197.547 129.822 198.192 130.598C199.343 127.177 201.007 122.992 202.983 118.408L201.853 117.065Z" fill="#E1D5CF"/>
<path d="M203.674 119.236C201.57 124.132 199.976 128.252 198.916 131.468C199.59 132.289 200.272 133.078 200.95 133.883C202.285 130.396 204.065 126.387 206.094 122.128C205.289 121.159 204.482 120.195 203.674 119.236Z" fill="#E1D5CF"/>
<path d="M197.708 112.107C195.654 118.063 194.248 122.84 193.788 125.21C194.359 125.929 194.947 126.66 195.551 127.395C196.479 124.171 198.016 119.788 199.956 114.802C199.178 113.879 198.429 112.981 197.708 112.107Z" fill="#E1D5CF"/>
<path d="M208.843 118.645C209.71 119.688 210.577 120.731 211.431 121.779C212.976 118.904 214.587 115.975 216.202 113.051C215.38 111.767 214.519 110.477 213.617 109.182C211.982 112.361 210.363 115.54 208.843 118.645Z" fill="#E1D5CF"/>
<path d="M214.703 125.857C215.936 123.734 217.197 121.598 218.451 119.475L219.305 118.025C218.508 116.686 217.662 115.33 216.795 113.971C215.2 116.846 213.61 119.754 212.09 122.596C212.977 123.68 213.848 124.768 214.703 125.857Z" fill="#E1D5CF"/>
<path d="M203.971 100.953C203.971 101.389 203.971 101.824 203.971 102.263C203.979 101.832 203.975 101.393 203.971 100.953Z" fill="#D2B7E7"/>
<path d="M149.807 139.751H147.153C145.542 133.779 137.357 118.803 137.357 118.803V117.185H138.089V115.657H137.341V113.398H138.105V112.655H135.566C133.786 108.391 130.729 93.2516 130.446 91.9003C130.162 90.549 132.007 89.8466 132.007 89.8466C131.829 89.3897 131.53 88.9898 131.142 88.6896C130.754 88.3894 130.292 88.2001 129.805 88.1421C126.678 75.0644 124.968 31.0502 124.968 31.0502C125.549 30.5073 126.002 29.8437 126.298 29.1063C126.593 28.3689 126.723 27.5757 126.678 26.7827H125.445V23.657C125.445 22.0141 124.212 20.9174 123.391 20.3711V14.4812H122.828V7.68359H122.248V14.4812H121.685V20.3629C120.831 20.9174 119.631 22.0059 119.631 23.6488V26.7745H118.398C118.349 27.5669 118.475 28.3604 118.766 29.0991C119.057 29.8378 119.507 30.5038 120.083 31.0502C120.083 31.0502 118.378 75.0726 115.251 88.1421C114.763 88.2003 114.3 88.3895 113.912 88.6897C113.523 88.9898 113.223 89.3897 113.044 89.8466C113.044 89.8466 114.893 90.5572 114.61 91.9003C114.326 93.2434 111.269 108.391 109.49 112.655H106.934V113.398H107.698V115.657H106.955V117.185H107.682V118.803C107.682 118.803 99.5007 133.762 97.8859 139.751H95.2315C95.2315 139.751 94.948 142.215 95.2315 142.215H105.948C105.948 142.215 108.212 123.646 122.519 123.551C136.831 123.646 139.095 142.215 139.095 142.215H149.807C150.079 142.211 149.807 139.751 149.807 139.751ZM121.817 70.4231H123.333L123.534 74.3661H121.509L121.817 70.4231ZM121.554 75.2779H123.551L123.801 79.2579H121.242L121.554 75.2779ZM121.291 80.1451H123.83L124.147 84.1251H120.905L121.291 80.1451ZM120.806 85.1232H124.147L124.451 88.0517L120.592 87.9983L120.806 85.1232ZM122.491 113.053H116.705C116.705 113.053 119.027 102.201 119.36 96.2787H125.618C125.951 102.201 128.272 113.053 128.272 113.053H122.491Z" fill="#F9EF76"/>
<path d="M272.063 97.8785C271.85 97.4699 271.524 97.1306 271.125 96.9006C270.725 96.6707 270.268 96.5597 269.807 96.5806C269.348 96.5904 268.901 96.7334 268.521 96.9922C268.141 97.2511 267.844 97.6146 267.667 98.0387L249.587 143.314H254.711L270.153 104.639L289.305 143.314H294.568L272.063 97.8785ZM269.914 101.242C269.492 101.242 269.08 101.117 268.729 100.883C268.378 100.648 268.105 100.315 267.944 99.9256C267.782 99.5358 267.74 99.107 267.823 98.6934C267.906 98.2797 268.109 97.8999 268.408 97.6019C268.706 97.304 269.087 97.1013 269.501 97.0195C269.915 96.9377 270.344 96.9805 270.733 97.1425C271.123 97.3045 271.456 97.5783 271.689 97.9294C271.923 98.2805 272.048 98.6931 272.047 99.1149C272.047 99.3946 271.992 99.6716 271.884 99.93C271.777 100.188 271.62 100.423 271.422 100.621C271.224 100.818 270.989 100.975 270.73 101.082C270.471 101.188 270.194 101.243 269.914 101.242Z" fill="#428A83"/>
<path d="M300.378 101.119C300.015 101.069 299.645 101.117 299.305 101.257C298.966 101.397 298.67 101.624 298.447 101.916C298.505 101.32 298.55 100.716 298.57 100.108C298.573 100.099 298.573 100.089 298.57 100.08C298.57 100.08 298.57 100.055 298.57 100.043C298.57 99.7346 298.57 99.4266 298.57 99.1144C298.57 98.4121 298.542 97.7179 298.488 97.0279C298.761 97.4003 299.149 97.6722 299.592 97.8015C300.035 97.9308 300.509 97.9101 300.939 97.7427C301.37 97.5753 301.732 97.2706 301.972 96.8758C302.211 96.4811 302.313 96.0184 302.262 95.5597C302.211 95.101 302.01 94.672 301.69 94.3392C301.37 94.0064 300.949 93.7886 300.493 93.7195C300.036 93.6504 299.57 93.7339 299.166 93.9571C298.762 94.1803 298.443 94.5306 298.258 94.9537C298.065 93.6221 297.778 92.3058 297.399 91.0148C297.321 90.7478 297.235 90.4849 297.149 90.222C297.503 90.5175 297.945 90.6877 298.406 90.7064C298.867 90.725 299.322 90.591 299.699 90.3252C300.076 90.0593 300.355 89.6765 300.492 89.2361C300.629 88.7957 300.617 88.3224 300.457 87.8896C300.298 87.4567 300 87.0886 299.61 86.8423C299.22 86.596 298.759 86.4853 298.3 86.5273C297.84 86.5694 297.407 86.7619 297.069 87.075C296.73 87.388 296.504 87.8042 296.426 88.2587C296.216 87.7494 296.015 87.2484 295.764 86.7555C295.295 85.7825 294.769 84.8376 294.19 83.9255C294.605 84.1289 295.076 84.189 295.529 84.0966C295.982 84.0042 296.391 83.7643 296.694 83.4146C296.996 83.0649 297.173 82.625 297.199 82.1636C297.224 81.7022 297.096 81.2454 296.835 80.8645C296.573 80.4836 296.192 80.2002 295.752 80.0584C295.312 79.9166 294.838 79.9246 294.403 80.081C293.968 80.2373 293.597 80.5334 293.348 80.9228C293.099 81.3122 292.986 81.773 293.027 82.2333C292.279 81.2096 291.464 80.2368 290.587 79.3212C290.578 79.2941 290.564 79.2689 290.546 79.2473C290.525 79.2235 290.498 79.2064 290.467 79.198C290.241 78.9639 290.011 78.738 289.781 78.5162C290.233 78.6169 290.705 78.5653 291.124 78.3693C291.543 78.1733 291.885 77.8441 292.096 77.433C292.308 77.022 292.378 76.5524 292.294 76.0977C292.21 75.643 291.978 75.2288 291.634 74.92C291.29 74.6111 290.853 74.4251 290.392 74.3909C289.93 74.3567 289.471 74.4763 289.085 74.731C288.699 74.9857 288.408 75.3611 288.258 75.7986C288.109 76.236 288.108 76.7107 288.257 77.1484C287.891 76.8404 287.517 76.5364 287.131 76.2489C287.122 76.2335 287.111 76.2196 287.098 76.2078C287.098 76.2078 287.069 76.2078 287.057 76.1873C286.153 75.5124 285.209 74.8924 284.23 74.3308C284.691 74.3161 285.134 74.1494 285.491 73.8567C285.847 73.564 286.097 73.1618 286.201 72.7125C286.305 72.2633 286.257 71.7923 286.066 71.3728C285.874 70.9534 285.549 70.609 285.141 70.3934C284.734 70.1777 284.266 70.1028 283.811 70.1804C283.357 70.258 282.94 70.4837 282.627 70.8223C282.314 71.161 282.122 71.5936 282.08 72.0528C282.039 72.512 282.15 72.9721 282.397 73.3615C281.298 72.8264 280.166 72.3627 279.007 71.9732H278.954C278.58 71.8459 278.202 71.7309 277.82 71.62C278.26 71.4891 278.645 71.2171 278.915 70.8459C279.185 70.4747 279.325 70.0249 279.314 69.566C279.303 69.1071 279.142 68.6646 278.854 68.3068C278.567 67.9489 278.169 67.6956 277.723 67.586C277.277 67.4763 276.808 67.5164 276.387 67.7001C275.966 67.8837 275.617 68.2007 275.395 68.6021C275.172 69.0035 275.087 69.4671 275.154 69.9212C275.221 70.3753 275.436 70.7947 275.765 71.1148C275.354 71.0285 274.944 70.9464 274.533 70.8765C273.349 70.6857 272.156 70.5677 270.958 70.5233C271.358 70.2931 271.67 69.9373 271.847 69.5113C272.024 69.0852 272.056 68.6127 271.937 68.167C271.817 67.7213 271.554 67.3275 271.188 67.0465C270.822 66.7656 270.374 66.6133 269.912 66.6133C269.451 66.6133 269.002 66.7656 268.636 67.0465C268.27 67.3275 268.007 67.7213 267.888 68.167C267.768 68.6127 267.8 69.0852 267.977 69.5113C268.154 69.9373 268.466 70.2931 268.866 70.5233C267.707 70.5677 266.552 70.6816 265.407 70.8642C265.752 70.5602 265.987 70.1507 266.076 69.6994C266.165 69.248 266.103 68.7799 265.899 68.3677C265.694 67.9554 265.36 67.6219 264.947 67.419C264.534 67.2161 264.065 67.155 263.614 67.2452C263.163 67.3354 262.754 67.5719 262.451 67.918C262.147 68.2641 261.967 68.7006 261.937 69.1596C261.907 69.6187 262.03 70.0748 262.286 70.4572C262.541 70.8397 262.916 71.1271 263.352 71.2749C261.759 71.6488 260.201 72.1601 258.696 72.8029C258.964 72.4259 259.1 71.9708 259.082 71.5087C259.064 71.0465 258.894 70.6033 258.598 70.2481C258.301 69.8929 257.896 69.6457 257.444 69.545C256.993 69.4444 256.521 69.4959 256.101 69.6916C255.682 69.8874 255.34 70.2163 255.127 70.627C254.914 71.0378 254.844 71.5073 254.926 71.9624C255.008 72.4175 255.239 72.8326 255.582 73.1429C255.925 73.4532 256.362 73.6412 256.823 73.6777L255.894 74.1747C255.894 74.1747 255.865 74.1747 255.849 74.1747L255.808 74.2158C254.709 74.8374 253.654 75.5317 252.648 76.2941C252.821 75.8645 252.847 75.3895 252.721 74.9437C252.595 74.498 252.324 74.1067 251.952 73.8313C251.579 73.5559 251.125 73.4121 250.662 73.4223C250.199 73.4325 249.752 73.5962 249.392 73.8878C249.032 74.1793 248.779 74.5821 248.672 75.033C248.566 75.4839 248.613 75.9573 248.805 76.3788C248.997 76.8004 249.324 77.1463 249.734 77.3621C250.144 77.578 250.614 77.6516 251.07 77.5715C250.248 78.2832 249.467 79.0415 248.732 79.8428C248.713 79.8499 248.697 79.8611 248.683 79.8757C248.671 79.8921 248.661 79.9101 248.654 79.9291C248.301 80.3152 247.964 80.7136 247.635 81.1202C247.69 80.7536 247.644 80.3791 247.503 80.0363C247.362 79.6936 247.131 79.3954 246.834 79.1733C246.54 78.9502 246.192 78.8088 245.825 78.7635C245.459 78.7182 245.087 78.7706 244.748 78.9155C244.408 79.0604 244.113 79.2925 243.892 79.5883C243.672 79.8841 243.533 80.233 243.491 80.5996C243.449 80.9662 243.505 81.3374 243.652 81.6755C243.8 82.0137 244.035 82.3066 244.333 82.5247C244.631 82.7428 244.981 82.8782 245.348 82.9172C245.715 82.9562 246.086 82.8974 246.423 82.7467C246.258 82.9849 246.09 83.2273 245.93 83.4696C245.915 83.4808 245.901 83.4931 245.889 83.5066C245.877 83.527 245.869 83.5492 245.864 83.5723C245.148 84.6748 244.509 85.8248 243.949 87.0142C243.9 86.5565 243.7 86.128 243.381 85.7956C243.062 85.4632 242.643 85.2454 242.187 85.1763C241.732 85.1072 241.266 85.1906 240.863 85.4136C240.46 85.6365 240.142 85.9864 239.959 86.4088C239.776 86.8312 239.737 87.3023 239.85 87.7488C239.962 88.1953 240.219 88.592 240.581 88.8773C240.943 89.1625 241.388 89.3201 241.849 89.3256C242.31 89.3311 242.759 89.1842 243.127 88.9077C242.537 90.4357 242.081 92.012 241.763 93.6188C241.601 93.1864 241.3 92.8198 240.908 92.576C240.515 92.3321 240.053 92.2247 239.594 92.2705C239.134 92.3162 238.702 92.5126 238.366 92.8289C238.029 93.1453 237.806 93.564 237.733 94.0199C237.659 94.4758 237.738 94.9433 237.957 95.3497C238.176 95.7562 238.524 96.0787 238.946 96.2672C239.368 96.4557 239.84 96.4996 240.289 96.392C240.739 96.2845 241.14 96.0315 241.43 95.6725C241.402 95.9107 241.373 96.1489 241.348 96.3872C241.258 97.3031 241.208 98.2313 241.208 99.1719C241.208 99.6361 241.208 100.096 241.25 100.552C240.988 100.174 240.608 99.8924 240.17 99.7519C239.732 99.6114 239.26 99.6196 238.827 99.7751C238.394 99.9307 238.024 100.225 237.776 100.612C237.527 100.999 237.414 101.457 237.453 101.916C237.488 102.376 237.676 102.812 237.986 103.154C238.297 103.496 238.712 103.726 239.167 103.806C239.622 103.887 240.091 103.814 240.5 103.599C240.909 103.383 241.235 103.038 241.426 102.618C241.542 103.584 241.707 104.544 241.919 105.493V105.514C242.063 106.15 242.236 106.779 242.421 107.399C242.075 107.091 241.637 106.907 241.176 106.874C240.714 106.841 240.254 106.962 239.869 107.218C239.483 107.474 239.193 107.85 239.044 108.288C238.895 108.726 238.894 109.201 239.044 109.639C239.193 110.076 239.483 110.453 239.868 110.709C240.254 110.965 240.713 111.086 241.175 111.053C241.636 111.021 242.074 110.836 242.42 110.529C242.766 110.222 243 109.808 243.086 109.354C243.152 109.518 243.21 109.683 243.275 109.847C243.275 109.847 243.275 109.867 243.275 109.876V109.9C243.819 111.239 244.463 112.536 245.202 113.778C244.793 113.563 244.324 113.491 243.869 113.571C243.415 113.651 242.999 113.879 242.687 114.22C242.376 114.561 242.186 114.996 242.148 115.456C242.11 115.916 242.225 116.376 242.475 116.764C242.726 117.152 243.098 117.446 243.534 117.6C243.969 117.754 244.444 117.76 244.883 117.617C245.322 117.473 245.701 117.188 245.961 116.806C246.221 116.425 246.347 115.968 246.32 115.507C246.838 116.243 247.386 116.957 247.964 117.647C247.971 117.67 247.982 117.692 247.997 117.712C248.018 117.737 248.045 117.757 248.075 117.77C248.527 118.296 248.996 118.805 249.484 119.298C249.035 119.183 248.56 119.221 248.135 119.406C247.71 119.59 247.358 119.911 247.134 120.317C246.911 120.723 246.829 121.192 246.901 121.65C246.974 122.107 247.196 122.528 247.534 122.846C247.871 123.163 248.305 123.36 248.766 123.405C249.228 123.449 249.691 123.339 250.083 123.092C250.475 122.845 250.774 122.474 250.933 122.039C251.091 121.603 251.101 121.127 250.959 120.686L251.193 120.896C251.204 120.922 251.221 120.944 251.243 120.961C251.265 120.983 251.291 120.998 251.321 121.006C252.452 121.968 253.655 122.842 254.92 123.619C254.458 123.622 254.009 123.777 253.645 124.061C253.28 124.345 253.019 124.742 252.904 125.19C252.788 125.637 252.824 126.11 253.005 126.535C253.187 126.961 253.504 127.314 253.907 127.54C254.31 127.766 254.777 127.853 255.235 127.786C255.692 127.72 256.115 127.504 256.437 127.172C256.759 126.84 256.962 126.411 257.015 125.952C257.067 125.493 256.967 125.029 256.728 124.633C257.484 125.023 258.257 125.385 259.05 125.705H259.087C259.791 125.979 260.509 126.238 261.24 126.482C260.794 126.598 260.4 126.858 260.117 127.222C259.834 127.585 259.68 128.032 259.677 128.492C259.674 128.953 259.824 129.401 260.102 129.768C260.381 130.135 260.773 130.399 261.217 130.521C261.661 130.642 262.133 130.614 262.56 130.44C262.986 130.266 263.343 129.956 263.575 129.558C263.807 129.16 263.901 128.697 263.843 128.24C263.785 127.784 263.578 127.359 263.253 127.032L263.414 127.073C263.431 127.077 263.449 127.077 263.467 127.073C264.936 127.408 266.43 127.627 267.934 127.726H267.962H268.081C267.677 127.946 267.356 128.293 267.168 128.713C266.981 129.134 266.938 129.604 267.045 130.052C267.153 130.5 267.405 130.899 267.763 131.189C268.121 131.479 268.565 131.642 269.025 131.654C269.486 131.665 269.937 131.525 270.31 131.254C270.682 130.983 270.954 130.597 271.085 130.155C271.215 129.714 271.196 129.242 271.03 128.812C270.865 128.382 270.562 128.019 270.169 127.779C270.966 127.779 271.751 127.73 272.527 127.656H272.569C273.39 127.574 274.212 127.459 275.034 127.307C274.694 127.619 274.467 128.033 274.387 128.487C274.307 128.941 274.379 129.408 274.591 129.817C274.804 130.226 275.145 130.553 275.563 130.748C275.981 130.943 276.451 130.995 276.901 130.896C277.351 130.798 277.756 130.553 278.053 130.201C278.35 129.848 278.523 129.408 278.544 128.948C278.565 128.488 278.434 128.033 278.171 127.655C277.908 127.277 277.528 126.996 277.088 126.855C278.557 126.471 279.993 125.969 281.382 125.356C281.394 125.36 281.407 125.36 281.419 125.356L281.448 125.336L281.695 125.221C281.437 125.604 281.313 126.063 281.343 126.524C281.373 126.986 281.555 127.424 281.861 127.771C282.166 128.118 282.578 128.355 283.032 128.444C283.486 128.533 283.956 128.469 284.37 128.263C284.784 128.056 285.118 127.719 285.32 127.303C285.522 126.887 285.58 126.416 285.487 125.963C285.393 125.51 285.152 125.101 284.801 124.8C284.45 124.498 284.01 124.321 283.548 124.296C284.185 123.951 284.781 123.582 285.405 123.192H285.459C285.477 123.177 285.494 123.161 285.508 123.142C286.247 122.658 286.958 122.14 287.653 121.594C287.494 122.027 287.483 122.5 287.622 122.939C287.76 123.379 288.041 123.76 288.419 124.024C288.797 124.287 289.252 124.418 289.713 124.396C290.173 124.374 290.614 124.2 290.965 123.902C291.316 123.603 291.559 123.196 291.654 122.746C291.75 122.295 291.694 121.825 291.495 121.409C291.295 120.994 290.964 120.656 290.552 120.449C290.14 120.241 289.671 120.176 289.218 120.263C290.288 119.283 291.281 118.223 292.189 117.092C292.212 117.081 292.233 117.066 292.251 117.047C292.267 117.023 292.28 116.997 292.288 116.969L292.547 116.632C292.49 117.093 292.589 117.56 292.826 117.959C293.064 118.357 293.428 118.666 293.86 118.836C294.293 119.006 294.769 119.027 295.215 118.897C295.661 118.767 296.051 118.492 296.323 118.116C296.596 117.74 296.736 117.284 296.721 116.82C296.707 116.356 296.538 115.91 296.242 115.552C295.946 115.194 295.54 114.945 295.086 114.843C294.633 114.741 294.159 114.792 293.738 114.989C294.108 114.442 294.457 113.878 294.786 113.297C294.786 113.297 294.815 113.277 294.823 113.26C294.827 113.242 294.827 113.224 294.823 113.207C295.283 112.385 295.702 111.564 296.089 110.685C296.137 111.048 296.281 111.393 296.507 111.682C296.734 111.971 297.033 112.194 297.375 112.328C297.715 112.465 298.086 112.509 298.449 112.458C298.813 112.406 299.156 112.26 299.445 112.033C299.734 111.807 299.958 111.509 300.095 111.168C300.232 110.828 300.277 110.457 300.225 110.094C300.174 109.731 300.027 109.387 299.801 109.099C299.575 108.81 299.276 108.586 298.936 108.449C298.595 108.312 298.225 108.266 297.861 108.318C297.498 108.37 297.154 108.516 296.865 108.742C297.336 107.417 297.71 106.059 297.983 104.68C298.028 104.466 298.061 104.249 298.098 104.031C298.239 104.368 298.467 104.662 298.758 104.883C299.049 105.105 299.393 105.246 299.755 105.293C300.118 105.339 300.486 105.29 300.824 105.15C301.161 105.01 301.456 104.783 301.679 104.493C301.901 104.203 302.044 103.86 302.092 103.498C302.14 103.135 302.092 102.767 301.953 102.429C301.814 102.091 301.588 101.796 301.299 101.572C301.01 101.349 300.667 101.205 300.304 101.156L300.378 101.119ZM298.155 99.1103C298.155 99.2828 298.155 99.4512 298.155 99.6237L295.801 97.8412L297.962 95.96C298.085 97.0057 298.149 98.0575 298.155 99.1103ZM285.915 118.661L271.533 100.774L289.042 115.626C288.088 116.726 287.042 117.743 285.915 118.665V118.661ZM288.758 119.918L285.939 119.236C286.82 118.535 287.653 117.776 288.433 116.965L288.758 119.918ZM254.785 119.368L268.681 101.09L258.479 121.66C257.183 121.005 255.947 120.24 254.785 119.372V119.368ZM258.072 121.935L255.323 123.105L255.191 120.189C256.109 120.833 257.067 121.418 258.06 121.939L258.072 121.935ZM267.86 98.0013L246.747 88.9406C247.334 87.6125 248.034 86.3373 248.839 85.129L267.86 98.0013ZM249.085 84.7675C249.911 83.5735 250.838 82.4522 251.855 81.4159L268.102 97.6358L249.085 84.7675ZM267.683 98.4039L245.244 93.4751C245.564 92.0602 246.008 90.6762 246.571 89.339L267.683 98.4039ZM244.623 98.2231C244.673 96.7733 244.847 95.3304 245.145 93.9104L267.588 98.8392L244.623 98.2231ZM267.576 99.2705L244.902 103C244.702 101.714 244.602 100.415 244.603 99.1144C244.603 98.9625 244.603 98.8146 244.603 98.6626L267.576 99.2705ZM244.627 94.2596L242.729 91.9636L245.478 91.0148C245.124 92.0763 244.841 93.1603 244.631 94.2596H244.627ZM244.389 102.474L241.858 100.893L244.163 99.1309C244.167 100.246 244.244 101.36 244.393 102.466L244.389 102.474ZM241.923 96.3995L244.479 95.0235C244.306 96.1289 244.203 97.2443 244.171 98.3628L241.923 96.3995ZM244.5 103.218C244.68 104.329 244.934 105.426 245.26 106.504L242.511 105.349L244.5 103.218ZM244.985 103.427L267.654 99.6977L246.082 107.637C245.596 106.271 245.229 104.865 244.985 103.435V103.427ZM267.806 100.108L248.136 111.966C247.393 110.718 246.76 109.407 246.246 108.048L267.806 100.108ZM248.847 113.897L245.86 113.667L247.093 111.026C247.614 112.02 248.2 112.979 248.847 113.897ZM248.354 112.365L268.032 100.515L250.947 115.852C249.985 114.758 249.117 113.585 248.354 112.344V112.365ZM268.324 100.844L254.44 119.121C253.289 118.236 252.218 117.252 251.239 116.18L268.324 100.844ZM269.072 101.304L262.929 123.413C261.532 123.015 260.172 122.496 258.865 121.861L269.072 101.304ZM269.483 101.419L267.625 124.309C266.177 124.177 264.742 123.918 263.34 123.533L269.483 101.419ZM269.918 101.456L272.412 124.288C271.573 124.374 270.729 124.417 269.885 124.416C269.273 124.416 268.653 124.387 268.065 124.342L269.918 101.456ZM270.354 101.406L277.121 123.344C275.729 123.759 274.303 124.053 272.86 124.223L270.354 101.406ZM278.05 123.52L276.982 126.305L274.808 124.379C275.911 124.158 276.998 123.864 278.062 123.5L278.05 123.52ZM277.528 123.233L270.777 101.279L281.543 121.561C280.259 122.227 278.92 122.779 277.54 123.212L277.528 123.233ZM269.914 101.242C269.37 101.245 268.845 101.038 268.448 100.665C268.052 100.292 267.814 99.7812 267.783 99.2378C267.752 98.6944 267.932 98.16 268.284 97.745C268.636 97.3299 269.134 97.0659 269.676 97.0074L264.675 74.3801C266.327 74.0321 268.009 73.8505 269.696 73.8379V97.0074C269.768 96.9951 269.841 96.9869 269.914 96.9827C270.202 96.9701 270.489 97.0158 270.759 97.1171C271.028 97.2185 271.274 97.3733 271.482 97.5723C271.69 97.7713 271.856 98.0104 271.969 98.275C272.082 98.5397 272.14 98.8246 272.14 99.1124C272.14 99.4002 272.082 99.685 271.969 99.9497C271.856 100.214 271.69 100.453 271.482 100.652C271.274 100.851 271.028 101.006 270.759 101.108C270.489 101.209 270.202 101.255 269.914 101.242ZM283.26 77.1279C282.302 76.5471 281.307 76.0298 280.281 75.5794L282.944 74.2363L283.26 77.1279ZM283.342 77.7029L270.958 97.0567L279.463 75.6985C280.807 76.2533 282.099 76.9239 283.326 77.7029H283.342ZM272.248 99.2089L295.193 97.9767C295.193 98.3587 295.222 98.7448 295.222 99.1309C295.219 100.197 295.149 101.261 295.012 102.318L272.248 99.2089ZM294.959 102.737C294.749 104.174 294.416 105.591 293.964 106.972L272.186 99.6443L294.959 102.737ZM272.223 98.7694L294.519 93.2204C294.86 94.6322 295.076 96.0712 295.164 97.5208L272.223 98.7694ZM295.172 94.1487L297.794 95.5616L295.575 97.4674C295.503 96.353 295.359 95.2445 295.144 94.1487H295.172ZM295.012 93.397C294.765 92.3066 294.447 91.2336 294.059 90.1851L296.869 91.1585L295.012 93.397ZM294.42 92.7932L272.092 98.3423L292.925 88.6982C293.532 90.018 294.023 91.3882 294.392 92.7932H294.42ZM271.936 97.9438L290.582 84.5498C291.421 85.734 292.158 86.9871 292.785 88.2957L271.936 97.9438ZM271.677 97.5865L287.468 80.9231C288.519 81.934 289.481 83.0333 290.344 84.2089L271.677 97.5865ZM271.356 97.2826L283.725 77.9411C284.939 78.7357 286.084 79.6316 287.147 80.6191L271.356 97.2826ZM270.58 96.8718L274.911 74.3144C276.334 74.6032 277.73 75.0155 279.081 75.5466L270.58 96.8718ZM270.169 96.7897V73.8379C271.62 73.8512 273.068 73.9886 274.496 74.2486L270.169 96.7897ZM269.947 73.3779C269.376 73.3779 268.813 73.4067 268.25 73.4436L269.992 71.0203L271.607 73.4395C271.007 73.4149 270.456 73.3902 269.914 73.3902L269.947 73.3779ZM267.687 73.4724L267.21 73.5134L264.996 71.2873C266.485 71.0287 267.992 70.8914 269.503 70.8765L267.687 73.4724ZM266.652 73.5956C265.543 73.7392 264.445 73.9532 263.364 74.2363L264.597 71.5337L266.652 73.5956ZM264.227 74.4663L269.187 96.8924L260.089 75.7971C261.428 75.2357 262.812 74.7905 264.227 74.4663ZM268.78 97.0567L255.878 78.0644C257.085 77.2577 258.359 76.5568 259.687 75.9696L268.78 97.0567ZM271.804 100.421L291.799 111.716C291.081 112.971 290.256 114.163 289.333 115.277L271.804 100.421ZM272.018 100.039L293.796 107.366C293.318 108.737 292.724 110.064 292.021 111.334L272.018 100.039ZM294.568 106.38L296.236 108.845L293.409 109.527C293.864 108.504 294.251 107.453 294.568 106.38ZM295.411 102.347L297.465 104.516L294.79 105.637C295.073 104.555 295.284 103.456 295.423 102.347H295.411ZM295.62 99.1144C295.62 98.8187 295.62 98.5271 295.595 98.2355L297.962 100.051L295.497 101.587C295.587 100.753 295.632 99.9318 295.632 99.1103L295.62 99.1144ZM297.855 95.118L295.271 93.7215L297.099 91.52C297.432 92.701 297.684 93.9031 297.855 95.118ZM296.869 90.7067L294.083 89.7415L295.538 87.2771C296.059 88.3902 296.508 89.5358 296.882 90.7067H296.869ZM293.734 89.4745C293.313 88.4352 292.823 87.4252 292.267 86.4515L295.213 86.9691L293.734 89.4745ZM292.28 86.0079L293.319 83.3464C294.001 84.3614 294.618 85.4191 295.164 86.5131L292.28 86.0079ZM291.869 85.7943C291.284 84.8357 290.638 83.9165 289.933 83.0424L292.929 83.0835L291.869 85.7943ZM290.509 79.8059C291.344 80.6945 292.119 81.6371 292.83 82.6276L289.909 82.5865L290.509 79.8059ZM289.489 82.451C288.763 81.5939 287.98 80.7858 287.147 80.0318L290.106 79.5923L289.489 82.451ZM287.172 76.7747C288.138 77.521 289.056 78.3276 289.921 79.1898L287.045 79.6005L287.172 76.7747ZM286.589 79.5512C285.732 78.8224 284.831 78.1488 283.889 77.5345L286.741 76.635L286.589 79.5512ZM283.712 77.1361L283.404 74.2938C284.477 74.8789 285.511 75.5333 286.498 76.253L283.712 77.1361ZM282.644 73.8995L280.031 75.218L279.27 72.462C280.416 72.8668 281.533 73.3471 282.615 73.8995H282.644ZM279.562 75.2878C278.526 74.8653 277.464 74.5113 276.382 74.2281L278.79 72.4825L279.562 75.2878ZM278.44 72.195L276.057 73.9242L274.865 71.3201C276.074 71.5324 277.268 71.8218 278.44 72.1868V72.195ZM275.63 74.0556C274.547 73.8068 273.449 73.6284 272.343 73.5217L274.442 71.4105L275.63 74.0556ZM271.969 73.2547L270.383 70.8806C271.601 70.9003 272.818 71.0005 274.023 71.1805L271.969 73.2547ZM264.12 71.468L262.888 74.1419L260.57 72.4578C261.725 72.0507 262.906 71.72 264.104 71.468H264.12ZM262.571 74.4663C261.497 74.7844 260.446 75.1741 259.424 75.6328L260.221 72.7577L262.571 74.4663ZM259.765 72.7577L258.98 75.5835L256.428 74.2938C257.505 73.7078 258.62 73.1932 259.765 72.7536V72.7577ZM256.137 74.6389L258.729 75.9491C257.72 76.4306 256.744 76.9795 255.808 77.592L256.137 74.6389ZM268.418 97.3277L252.167 81.1079C253.203 80.0914 254.323 79.1652 255.516 78.3395L268.418 97.3277ZM252.393 77.1484L255.175 78.0315C254.253 78.6749 253.373 79.3773 252.541 80.1344L252.393 77.1484ZM255.68 74.721L255.36 77.629L252.648 76.7664C253.614 76.0168 254.628 75.3321 255.685 74.7169L255.68 74.721ZM251.982 77.3004L252.13 80.2207L249.32 79.81C250.149 78.9171 251.034 78.0775 251.97 77.2963L251.982 77.3004ZM252.028 80.652C251.217 81.4337 250.46 82.2679 249.759 83.1492L249.118 80.2166L252.028 80.652ZM248.74 80.4466L249.353 83.3012L246.476 83.3341C247.162 82.3236 247.911 81.3578 248.72 80.4425L248.74 80.4466ZM249.303 83.7325C248.633 84.6321 248.022 85.5747 247.475 86.5542L246.39 83.7694L249.303 83.7325ZM246.016 84.0528L247.068 86.7883L244.253 87.2771C244.769 86.1677 245.355 85.0921 246.008 84.057L246.016 84.0528ZM247.101 87.2196C246.579 88.2082 246.123 89.2305 245.737 90.2796L244.229 87.7166L247.101 87.2196ZM243.912 88.0411L245.4 90.5753L242.696 91.5118C243.022 90.3308 243.425 89.1728 243.904 88.0452L243.912 88.0411ZM244.352 94.6128L241.829 95.9641C241.967 94.7452 242.184 93.5365 242.478 92.3455L244.352 94.6128ZM241.648 99.1309C241.648 98.3505 241.689 97.5824 241.751 96.8184L243.957 98.7489L241.685 100.49C241.652 100.022 241.64 99.5703 241.64 99.1103L241.648 99.1309ZM241.743 101.341L244.233 102.893L242.26 104.976C242.007 103.771 241.831 102.551 241.734 101.324L241.743 101.341ZM242.454 105.801L245.161 106.943L243.555 109.305C243.108 108.157 242.737 106.981 242.445 105.785L242.454 105.801ZM245.49 107.235C245.844 108.297 246.265 109.335 246.752 110.344L243.875 109.642L245.49 107.235ZM246.723 110.787L245.519 113.371C244.899 112.313 244.35 111.215 243.875 110.085L246.723 110.787ZM248.103 117.08C247.328 116.137 246.614 115.145 245.967 114.11L248.884 114.336L248.103 117.08ZM249.291 114.509C249.966 115.407 250.699 116.26 251.485 117.063L248.498 117.31L249.291 114.509ZM251.251 120.321C250.337 119.515 249.475 118.652 248.67 117.737L251.58 117.495L251.251 120.321ZM252.011 117.589C252.819 118.371 253.675 119.101 254.575 119.774L251.666 120.468L252.011 117.589ZM251.908 120.875L254.748 120.173L254.875 123.019C253.838 122.371 252.845 121.656 251.9 120.879L251.908 120.875ZM255.606 123.467L258.298 122.321L258.881 125.126C257.753 124.645 256.657 124.089 255.602 123.463L255.606 123.467ZM258.742 122.292C259.75 122.777 260.789 123.196 261.852 123.545L259.333 125.134L258.742 122.292ZM262.152 123.873L263.175 126.547C261.983 126.257 260.812 125.886 259.67 125.438L262.152 123.873ZM262.563 123.775C263.641 124.095 264.739 124.343 265.85 124.518L263.619 126.486L262.563 123.775ZM263.981 126.74L266.183 124.793L267.617 127.258C266.401 127.162 265.191 126.987 263.997 126.736L263.981 126.74ZM266.627 124.617C267.717 124.76 268.815 124.832 269.914 124.835H269.972L268.081 127.135L266.627 124.617ZM269.914 127.361C269.437 127.361 268.965 127.348 268.496 127.324L270.362 125.048L272.17 127.262C271.41 127.319 270.658 127.361 269.914 127.361ZM272.581 127.069L270.736 124.814C271.855 124.778 272.971 124.671 274.077 124.494L272.581 127.069ZM274.496 124.646L276.641 126.547C275.449 126.839 274.24 127.053 273.021 127.188L274.496 124.646ZM277.462 126.33L278.514 123.586L280.939 125.122C279.802 125.599 278.635 126.002 277.446 126.33H277.462ZM281.255 124.806L278.79 123.253C279.839 122.864 280.862 122.406 281.851 121.881L281.255 124.806ZM281.711 124.773L282.311 121.898L284.933 123.019C283.892 123.672 282.81 124.258 281.695 124.773H281.711ZM285.212 122.666L282.533 121.52C283.51 120.969 284.451 120.354 285.348 119.68L285.212 122.666ZM281.962 121.339L271.192 101.053L285.574 118.936C284.436 119.841 283.222 120.645 281.945 121.339H281.962ZM285.775 119.647L288.536 120.333C287.62 121.141 286.652 121.888 285.639 122.571L285.775 119.647ZM289.181 119.75L288.848 116.85L291.692 117.088C290.913 118.024 290.074 118.909 289.181 119.737V119.75ZM288.935 116.419C289.69 115.586 290.39 114.705 291.03 113.782L291.852 116.657L288.935 116.419ZM292.222 116.419L291.429 113.609L294.272 113.392C293.657 114.438 292.974 115.442 292.226 116.398L292.222 116.419ZM291.445 113.166C292.055 112.228 292.604 111.253 293.089 110.245L294.322 112.944L291.445 113.166ZM294.704 112.648L293.471 109.987L296.253 109.317C295.811 110.453 295.295 111.559 294.708 112.628L294.704 112.648ZM296.545 108.52L294.901 106.089L297.543 104.98C297.288 106.173 296.956 107.349 296.549 108.5L296.545 108.52ZM295.69 101.985L298.123 100.474C298.066 101.697 297.928 102.916 297.712 104.121L295.69 101.985Z" fill="#428A83"/>
<path d="M67.2217 140.417V139.041H64.4194V137.998H62.4388L62.1307 119.995H63.2278V115.128H64.1153V114.081H56.3082V110.384H57.0437V108.943H56.3082L38.06 107.641L19.816 108.943H19.0517V110.384H19.7913V114.081H11.9842V115.128H12.8881V119.995H13.9852L13.673 137.998H11.4787V139.041H8.67639V140.417H6.72461V143.313H69.1817V140.417H67.2217ZM54.3893 110.729H55.322V113.432H54.3893V110.729ZM52.4169 110.729H53.3456V113.432H52.4169V110.729ZM50.4405 110.729H51.3732V113.432H50.4405V110.729ZM48.4641 110.729H49.3968V113.432H48.4641V110.729ZM46.4876 110.729H47.4039V113.432H46.4712L46.4876 110.729ZM44.5112 110.729H45.4439V113.432H44.5112V110.729ZM42.5347 110.729H43.4675V113.432H42.5347V110.729ZM40.5583 110.729H41.491V113.432H40.5583V110.729ZM38.5819 110.729H39.5146V113.432H38.5819V110.729ZM36.6054 110.729H37.5423V113.432H36.5972L36.6054 110.729ZM34.6331 110.729H35.5617V113.432H34.6249L34.6331 110.729ZM32.6566 110.729H33.5894V113.432H32.6566V110.729ZM30.6802 110.729H31.613V113.432H30.6802V110.729ZM28.7038 110.729H29.6365V113.432H28.7038V110.729ZM26.7273 110.729H27.6601V113.432H26.7273V110.729ZM24.7509 110.729H25.6836V113.432H24.7509V110.729ZM22.7744 110.729H23.7072V113.432H22.7498L22.7744 110.729ZM20.798 110.729H21.7308V113.432H20.798V110.729ZM20.2063 137.998H16.7342L16.4219 119.995H17.5231V119.063H19.4174V119.995H20.5145L20.2063 137.998ZM26.7355 137.998H23.2634L22.9552 119.995H24.0524V119.063H25.9466V119.995H27.0478L26.7355 137.998ZM33.2648 137.998H29.7968L29.4845 119.995H30.5569V119.063H32.4553V119.995H33.5524L33.2648 137.998ZM39.7981 137.998H36.3096L35.9973 119.995H37.0985V119.063H38.9928V119.995H40.0899L39.7981 137.998ZM46.3274 137.998H42.8552L42.5471 119.995H43.6442V119.063H45.5384V119.995H46.6396L46.3274 137.998ZM52.8566 137.998H49.3886L49.0763 119.995H50.1734V119.063H52.0718V119.995H53.1566L52.8566 137.998ZM59.3858 137.998H55.9096L55.5973 119.995H56.6985V119.063H58.5928V119.995H59.6899L59.3858 137.998Z" fill="#696A6B"/>
<path d="M261.378 98.9004C261.247 98.9291 247.995 101.915 226.452 101.915C204.908 101.915 193.193 99.344 193.074 99.3193L193.744 101.636C193.88 101.669 194.829 101.895 196.62 102.207V105.361H200.318V108.236H210.768V112.722C208.023 112.549 200.442 111.543 200.442 111.543V115.239H210.768V117.293H209.683V118.743H210.094V120.595H210.599V141.855H207.879V143.707H217.186V141.855H214.466V120.612H214.947V118.759H215.357V117.309H214.273V115.256H239.206V117.309H238.121V118.759H238.532V120.612H239.038V141.871H236.313V143.724H245.62V141.871H242.9V120.612H243.406V118.759H243.817V117.309H242.732V115.256H253.534V111.559C253.534 111.559 245.674 112.598 243.036 112.746H242.732V108.228H253.658V105.353H257.356V101.891C259.525 101.48 260.676 101.217 260.717 101.209L261.378 98.9004ZM214.285 108.24H224.808V113.075C221.036 113.075 217.359 112.997 214.277 112.89L214.285 108.24ZM239.219 112.898C236.24 112.997 232.747 113.054 229.164 113.071V108.24H239.219V112.898Z" fill="#FD6E00"/>
<path d="M175.77 67.9187V62.3902H174.949V67.9187H174.567V59.9053C174.567 59.9053 172.368 56.2087 171.744 54.8738C171.16 53.6416 170.17 49.678 170.17 49.678V44.7492C170.17 44.7492 168.732 40.2312 167.906 36.2142C166.8 30.85 166.488 24.1263 166.427 19.329C166.381 15.6858 166.34 13.168 166.34 13.168H166.02C166.02 13.168 165.979 15.7022 165.933 19.329C165.872 24.1263 165.56 30.8295 164.454 36.2142C163.632 40.2106 162.19 44.7492 162.19 44.7492V49.678C162.19 49.678 161.393 53.5595 160.871 54.7917C160.304 56.143 158.237 59.9053 158.237 59.9053V67.9187H157.867V62.3902H157.046V67.9187H156.635V84.4014H157.867V143.313H174.961V84.4014H176.194V67.9187H175.77ZM168.313 45.8541C168.313 45.7234 168.365 45.598 168.457 45.5056C168.55 45.4132 168.675 45.3612 168.806 45.3612H169.065C169.195 45.3612 169.321 45.4132 169.413 45.5056C169.506 45.598 169.558 45.7234 169.558 45.8541V48.031H168.325L168.313 45.8541ZM168.115 62.8338C168.422 62.8338 168.715 62.9554 168.932 63.1719C169.148 63.3883 169.27 63.6819 169.27 63.988V67.7955H166.957V63.988C166.957 63.8361 166.987 63.6856 167.045 63.5453C167.103 63.405 167.189 63.2776 167.296 63.1704C167.404 63.0632 167.532 62.9782 167.672 62.9205C167.813 62.8627 167.963 62.8333 168.115 62.8338ZM166.472 45.8541C166.472 45.7234 166.524 45.598 166.616 45.5056C166.709 45.4132 166.834 45.3612 166.965 45.3612H167.224C167.354 45.3612 167.48 45.4132 167.572 45.5056C167.665 45.598 167.717 45.7234 167.717 45.8541V48.031H166.484L166.472 45.8541ZM164.643 45.8541C164.643 45.7234 164.695 45.598 164.788 45.5056C164.88 45.4132 165.006 45.3612 165.136 45.3612H165.395C165.526 45.3612 165.651 45.4132 165.744 45.5056C165.836 45.598 165.888 45.7234 165.888 45.8541V48.031H164.656L164.643 45.8541ZM164.701 62.8338C164.853 62.8333 165.003 62.8627 165.144 62.9205C165.284 62.9782 165.412 63.0632 165.52 63.1704C165.628 63.2776 165.713 63.405 165.771 63.5453C165.83 63.6856 165.86 63.8361 165.86 63.988V67.7955H163.546V63.988C163.546 63.8354 163.576 63.6843 163.635 63.5434C163.694 63.4026 163.78 63.2748 163.889 63.1675C163.997 63.0601 164.126 62.9754 164.267 62.9181C164.409 62.8608 164.56 62.8322 164.713 62.8338H164.701ZM162.815 45.8541C162.815 45.7234 162.867 45.598 162.959 45.5056C163.052 45.4132 163.177 45.3612 163.308 45.3612H163.567C163.697 45.3612 163.823 45.4132 163.915 45.5056C164.008 45.598 164.06 45.7234 164.06 45.8541V48.031H162.827L162.815 45.8541ZM160.144 63.988C160.161 63.6932 160.291 63.4163 160.506 63.2139C160.721 63.0114 161.005 62.8986 161.301 62.8986C161.596 62.8986 161.88 63.0114 162.095 63.2139C162.31 63.4163 162.44 63.6932 162.457 63.988V67.7955H160.144V63.988ZM162.609 141.555H160.925V124.715H162.609V141.555ZM162.609 122.612H160.925V105.772H162.609V122.612ZM162.609 103.669H160.925V86.8288H162.609V103.669ZM165.699 141.555H164.031V124.715H165.72L165.699 141.555ZM165.699 122.612H164.031V105.772H165.72L165.699 122.612ZM165.699 103.669H164.031V86.8288H165.72L165.699 103.669ZM168.785 141.555H167.1V124.715H168.785V141.555ZM168.785 122.612H167.1V105.772H168.785V122.612ZM168.785 103.669H167.1V86.8288H168.785V103.669ZM171.871 141.555H170.195V124.715H171.879L171.871 141.555ZM171.871 122.612H170.195V105.772H171.879L171.871 122.612ZM171.871 103.669H170.195V86.8288H171.879L171.871 103.669ZM166.414 83.0295C165.207 83.0295 164.028 82.6718 163.024 82.0016C162.021 81.3314 161.239 80.3788 160.777 79.2643C160.315 78.1498 160.194 76.9234 160.43 75.7402C160.665 74.5571 161.246 73.4703 162.1 72.6172C162.953 71.7642 164.04 71.1833 165.224 70.948C166.407 70.7126 167.634 70.8334 168.749 71.2951C169.864 71.7567 170.817 72.5385 171.488 73.5415C172.158 74.5446 172.516 75.7238 172.516 76.9302C172.516 78.5478 171.873 80.0992 170.729 81.2431C169.585 82.3869 168.033 83.0295 166.414 83.0295ZM172.66 67.7955H170.359V63.988C170.376 63.6932 170.506 63.4163 170.721 63.2139C170.936 63.0114 171.22 62.8986 171.516 62.8986C171.811 62.8986 172.095 63.0114 172.31 63.2139C172.525 63.4163 172.655 63.6932 172.672 63.988L172.66 67.7955Z" fill="#BD6821"/>
<path d="M104.312 131.851L96.8293 128.154V126.4H97.5154V124.864H95.1035V117.426L99.3193 116.97L96.8293 114.448V112.698H97.5154V111.17H95.1035V103.736L99.3193 103.276L97.5154 100.754V97.4682H95.1035V91.5084H96.8293V88.9454H97.5154V87.512H101.472C101.472 87.512 97.425 85.3474 96.2663 84.4849C94.1132 82.8789 89.8562 78.6361 87.3456 76.0772L85.3692 54.0742L83.3927 76.0772C80.8205 78.6977 76.4074 83.1089 74.1474 84.756C73.0668 85.5487 69.2659 87.512 69.2659 87.512H73.2106V88.9454H73.8927V91.5084H75.6185V97.4682H73.2106V98.9961H74.5789V100.754L71.4026 103.481L75.6185 103.941V111.166H73.2106V112.694H73.8927V114.444L71.4191 117.183L75.6349 117.639V124.868H73.2106V126.392H73.8927V128.146L66.4102 132.138L68.3743 132.352V143.318H69.0481V132.422L70.6918 132.598V143.314H72.2778V132.791L73.5105 132.923V143.335H81.0711V138.27C81.0711 137.12 81.5283 136.017 82.342 135.203C83.1558 134.39 84.2595 133.933 85.4103 133.933C85.9804 133.933 86.5451 134.044 87.072 134.262C87.599 134.48 88.0778 134.799 88.4812 135.202C88.8845 135.605 89.2045 136.083 89.4228 136.61C89.6411 137.136 89.7535 137.7 89.7535 138.27V143.314H97.1949V132.635L98.4277 132.504V143.331H100.014V132.319L101.657 132.138V143.314H102.331V132.064L104.312 131.851ZM87.4648 124.868H83.2571V121.007C83.2571 120.447 83.4797 119.91 83.8757 119.514C84.2718 119.119 84.809 118.896 85.3692 118.896C85.9293 118.896 86.4665 119.119 86.8626 119.514C87.2587 119.91 87.4812 120.447 87.4812 121.007L87.4648 124.868ZM87.4648 111.174H83.2571V107.326C83.2571 106.766 83.4797 106.229 83.8757 105.833C84.2718 105.437 84.809 105.215 85.3692 105.215C85.9293 105.215 86.4665 105.437 86.8626 105.833C87.2587 106.229 87.4812 106.766 87.4812 107.326L87.4648 111.174ZM87.4648 97.4846H83.2571V93.6237C83.2571 93.0638 83.4797 92.5268 83.8757 92.1309C84.2718 91.735 84.809 91.5125 85.3692 91.5125C85.9293 91.5125 86.4665 91.735 86.8626 92.1309C87.2587 92.5268 87.4812 93.0638 87.4812 93.6237L87.4648 97.4846Z" fill="#C26D26"/>
<path d="M152.716 114.217V116.772H150.899L150.386 114.118L144.563 113.95L141.86 102.922H138.946L133.448 91.7168C133.448 91.7168 119.149 93.1708 108.018 102.93V119.392L106.818 119.544L105.918 119.659V123.811L107.081 123.66L108.018 123.54V132.724L106.818 132.872L105.918 132.991V137.144L107.081 136.992L108.018 136.873V143.321H166.464L166.526 136.663C166.53 136.202 166.717 135.761 167.045 135.437C167.372 135.112 167.815 134.93 168.276 134.93C168.593 134.93 168.896 135.056 169.119 135.279C169.343 135.502 169.468 135.805 169.468 136.121V143.321H170.643L170.709 137.037C170.713 136.541 170.914 136.067 171.266 135.718C171.618 135.368 172.095 135.172 172.591 135.172C172.707 135.172 172.822 135.194 172.929 135.238C173.036 135.282 173.133 135.347 173.215 135.428C173.297 135.51 173.363 135.607 173.407 135.714C173.452 135.821 173.474 135.936 173.474 136.051V143.321H174.21L174.263 136.45C174.265 136.11 174.402 135.785 174.643 135.546C174.884 135.307 175.21 135.172 175.549 135.172C175.643 135.172 175.736 135.19 175.823 135.225C175.909 135.261 175.988 135.313 176.055 135.379C176.121 135.445 176.174 135.524 176.21 135.61C176.246 135.697 176.264 135.789 176.264 135.883V143.321H176.934L176.979 136.294C176.98 135.996 177.1 135.711 177.311 135.501C177.522 135.29 177.807 135.172 178.105 135.172C178.177 135.172 178.248 135.186 178.315 135.213C178.382 135.24 178.442 135.28 178.493 135.331C178.544 135.382 178.584 135.442 178.611 135.509C178.639 135.575 178.652 135.647 178.652 135.719V143.321H179.564L179.601 136.306C179.602 136.141 179.668 135.983 179.785 135.867C179.902 135.751 180.061 135.686 180.226 135.686C180.419 135.686 180.606 135.763 180.743 135.9C180.88 136.037 180.957 136.223 180.957 136.417V143.321H181.717L181.75 136.811C181.75 136.648 181.815 136.491 181.93 136.376C182.046 136.26 182.203 136.195 182.366 136.195C182.53 136.195 182.687 136.26 182.802 136.376C182.918 136.491 182.983 136.648 182.983 136.811V143.317H183.887V120.468C183.887 120.468 172.747 114.217 152.716 114.217ZM136.621 109.378C136.913 109.378 137.203 109.436 137.473 109.548C137.743 109.66 137.989 109.824 138.195 110.03C138.402 110.237 138.566 110.482 138.678 110.753C138.79 111.023 138.848 111.312 138.848 111.604V117.392C137.33 117.408 135.845 117.437 134.393 117.478V111.604C134.393 111.014 134.628 110.448 135.046 110.03C135.463 109.613 136.03 109.378 136.621 109.378ZM130.486 102.807L132.199 102.281V104.955L130.486 105.365V102.807ZM131.205 110.064C131.464 110.064 131.72 110.114 131.959 110.213C132.198 110.312 132.415 110.456 132.598 110.639C132.781 110.822 132.926 111.039 133.024 111.278C133.123 111.517 133.174 111.773 133.173 112.032V117.544C131.829 117.585 130.515 117.634 129.237 117.692V112.015C129.237 111.493 129.444 110.993 129.813 110.624C130.182 110.255 130.683 110.048 131.205 110.048V110.064ZM124.856 99.4386L126.57 98.8143V101.985L124.856 102.47V99.4386ZM125.789 111.223C126.243 111.223 126.677 111.403 126.998 111.723C127.318 112.043 127.499 112.478 127.499 112.931V117.757C126.327 117.815 125.185 117.876 124.08 117.946V112.915C124.08 112.462 124.26 112.027 124.58 111.707C124.901 111.386 125.336 111.206 125.789 111.206V111.223ZM120.254 106.092L121.54 105.727V107.583L120.254 107.867V106.092ZM121.405 112.36C121.79 112.36 122.159 112.513 122.431 112.785C122.703 113.057 122.855 113.426 122.855 113.81V118.02C121.857 118.086 120.887 118.152 119.954 118.221V113.814C119.954 113.43 120.107 113.061 120.379 112.789C120.651 112.517 121.02 112.364 121.405 112.364V112.36ZM116.938 103.082L118.245 102.54V105.304L116.938 105.715V103.082ZM117.021 113.519C117.337 113.519 117.64 113.644 117.863 113.867C118.087 114.091 118.212 114.394 118.212 114.71V118.361C117.39 118.427 116.589 118.497 115.825 118.562V114.718C115.824 114.561 115.855 114.405 115.915 114.26C115.975 114.115 116.063 113.983 116.174 113.871C116.285 113.76 116.417 113.672 116.562 113.612C116.708 113.553 116.863 113.522 117.021 113.523V113.519ZM114.083 115.613V118.727L112.213 118.911V115.626C112.205 115.498 112.222 115.369 112.266 115.249C112.309 115.128 112.376 115.017 112.464 114.924C112.551 114.83 112.657 114.755 112.775 114.704C112.893 114.653 113.02 114.627 113.148 114.627C113.276 114.627 113.403 114.653 113.521 114.704C113.638 114.755 113.744 114.83 113.832 114.924C113.919 115.017 113.987 115.128 114.03 115.249C114.073 115.369 114.091 115.498 114.083 115.626V115.613ZM112.082 106.454L113.191 106.006V108.29L112.082 108.639V106.454ZM109.616 116.513C109.609 116.42 109.621 116.326 109.652 116.238C109.682 116.149 109.731 116.068 109.794 116C109.858 115.931 109.935 115.877 110.02 115.839C110.106 115.802 110.199 115.782 110.292 115.782C110.385 115.782 110.478 115.802 110.564 115.839C110.649 115.877 110.726 115.931 110.79 116C110.853 116.068 110.902 116.149 110.932 116.238C110.963 116.326 110.975 116.42 110.968 116.513V119.039L109.616 119.191V116.513ZM148.508 130.79C147.008 130.753 145.521 130.728 144.054 130.72V125.627C144.054 125.036 144.288 124.47 144.706 124.053C145.124 123.635 145.69 123.401 146.281 123.401C146.872 123.401 147.438 123.635 147.856 124.053C148.273 124.47 148.508 125.036 148.508 125.627V130.79ZM116.293 131.854V127.882C116.293 127.535 116.431 127.203 116.676 126.958C116.921 126.713 117.253 126.576 117.6 126.576C117.946 126.576 118.279 126.713 118.524 126.958C118.769 127.203 118.907 127.535 118.907 127.882V131.636C118.011 131.71 117.145 131.784 116.31 131.858L116.293 131.854ZM120.665 131.5V127.508C120.665 127.121 120.819 126.75 121.092 126.477C121.366 126.204 121.737 126.05 122.124 126.05C122.511 126.05 122.882 126.204 123.155 126.477C123.429 126.75 123.583 127.121 123.583 127.508V131.303L120.665 131.5ZM125.033 131.217V127.13C125.054 126.717 125.233 126.327 125.533 126.042C125.833 125.756 126.232 125.597 126.646 125.597C127.06 125.597 127.458 125.756 127.759 126.042C128.059 126.327 128.238 126.717 128.259 127.13V131.044C127.163 131.113 126.093 131.172 125.05 131.221L125.033 131.217ZM129.401 130.995V126.761C129.401 126.292 129.587 125.843 129.919 125.512C130.25 125.18 130.699 124.994 131.168 124.994C131.637 124.994 132.086 125.18 132.417 125.512C132.749 125.843 132.935 126.292 132.935 126.761V130.868C131.747 130.905 130.568 130.946 129.417 130.999L129.401 130.995ZM134.287 130.819V126.383C134.31 125.889 134.522 125.423 134.88 125.081C135.237 124.74 135.713 124.549 136.208 124.549C136.702 124.549 137.178 124.74 137.536 125.081C137.893 125.423 138.106 125.889 138.129 126.383V130.736C136.833 130.764 135.558 130.793 134.303 130.823L134.287 130.819ZM143.327 130.716C141.921 130.716 140.539 130.716 139.181 130.716V125.992C139.181 125.443 139.399 124.916 139.788 124.527C140.176 124.139 140.704 123.92 141.253 123.92C141.803 123.92 142.331 124.139 142.719 124.527C143.108 124.916 143.327 125.443 143.327 125.992V130.716ZM111.621 128.633V132.248H109.624V128.633C109.624 128.369 109.73 128.115 109.917 127.928C110.104 127.741 110.358 127.635 110.623 127.635C110.888 127.635 111.142 127.741 111.329 127.928C111.516 128.115 111.621 128.369 111.621 128.633ZM112.443 128.26C112.434 128.103 112.457 127.945 112.51 127.797C112.564 127.649 112.647 127.514 112.755 127.399C112.863 127.285 112.993 127.194 113.138 127.131C113.282 127.069 113.438 127.037 113.596 127.037C113.753 127.037 113.909 127.069 114.053 127.131C114.198 127.194 114.328 127.285 114.436 127.399C114.544 127.514 114.627 127.649 114.681 127.797C114.735 127.945 114.758 128.103 114.748 128.26V131.993C113.926 132.067 113.166 132.145 112.443 132.219V128.26ZM111.621 142.315H109.624V138.701C109.624 138.436 109.73 138.182 109.917 137.995C110.104 137.808 110.358 137.702 110.623 137.702C110.888 137.702 111.142 137.808 111.329 137.995C111.516 138.182 111.621 138.436 111.621 138.701V142.315ZM114.752 142.315H112.447V138.618C112.465 138.325 112.594 138.049 112.808 137.847C113.022 137.645 113.305 137.533 113.6 137.533C113.894 137.533 114.177 137.645 114.392 137.847C114.606 138.049 114.735 138.325 114.752 138.618V142.315ZM118.915 142.315H116.301V138.508C116.301 138.161 116.439 137.829 116.684 137.584C116.929 137.339 117.262 137.201 117.608 137.201C117.955 137.201 118.287 137.339 118.532 137.584C118.777 137.829 118.915 138.161 118.915 138.508V142.315ZM123.591 142.315H120.673V138.409C120.673 138.022 120.827 137.651 121.101 137.378C121.374 137.104 121.745 136.951 122.132 136.951C122.519 136.951 122.89 137.104 123.164 137.378C123.437 137.651 123.591 138.022 123.591 138.409V142.315ZM128.267 142.315H125.041V138.314C125.03 138.096 125.064 137.877 125.14 137.672C125.216 137.467 125.333 137.279 125.484 137.121C125.635 136.962 125.816 136.836 126.017 136.75C126.219 136.663 126.435 136.619 126.654 136.619C126.873 136.619 127.09 136.663 127.291 136.75C127.492 136.836 127.674 136.962 127.824 137.121C127.975 137.279 128.092 137.467 128.168 137.672C128.244 137.877 128.278 138.096 128.267 138.314V142.315ZM132.943 142.315H129.409V138.208C129.409 137.739 129.595 137.29 129.927 136.959C130.258 136.628 130.708 136.442 131.176 136.442C131.645 136.442 132.094 136.628 132.425 136.959C132.757 137.29 132.943 137.739 132.943 138.208V142.315ZM138.137 142.315H134.295V138.13C134.283 137.87 134.324 137.611 134.415 137.367C134.506 137.124 134.645 136.901 134.825 136.713C135.005 136.525 135.22 136.376 135.459 136.274C135.699 136.171 135.956 136.119 136.216 136.119C136.476 136.119 136.733 136.171 136.972 136.274C137.211 136.376 137.427 136.525 137.607 136.713C137.786 136.901 137.926 137.124 138.017 137.367C138.108 137.611 138.149 137.87 138.137 138.13V142.315ZM143.327 142.315H139.189V138.027C139.189 137.477 139.407 136.95 139.796 136.562C140.185 136.173 140.712 135.955 141.262 135.955C141.812 135.955 142.339 136.173 142.728 136.562C143.116 136.95 143.335 137.477 143.335 138.027L143.327 142.315ZM148.516 142.315H144.07V137.932C144.07 137.342 144.305 136.776 144.723 136.358C145.14 135.941 145.707 135.706 146.297 135.706C146.888 135.706 147.454 135.941 147.872 136.358C148.29 136.776 148.524 137.342 148.524 137.932L148.516 142.315ZM161.62 115.675L163.518 115.819V118.998L161.62 118.87V115.675ZM164.615 132.462H160.847V125.738C160.87 125.254 161.078 124.797 161.429 124.462C161.78 124.127 162.246 123.941 162.731 123.941C163.216 123.941 163.683 124.127 164.034 124.462C164.384 124.797 164.593 125.254 164.615 125.738V132.462ZM167.011 117.905L168.211 117.983V119.753L167.011 119.684V117.905ZM170.298 132.519H166.53V126.268C166.553 125.783 166.761 125.326 167.112 124.992C167.463 124.657 167.929 124.47 168.414 124.47C168.899 124.47 169.365 124.657 169.716 124.992C170.067 125.326 170.275 125.783 170.298 126.268V132.519ZM170.824 119.581V117.084L172.509 117.494V119.983L170.824 119.581ZM174.046 132.622L171.28 132.531V126.543C171.28 126.36 171.316 126.178 171.387 126.009C171.457 125.84 171.56 125.686 171.69 125.557C171.819 125.427 171.973 125.325 172.143 125.255C172.312 125.186 172.494 125.15 172.677 125.15C173.041 125.152 173.389 125.296 173.646 125.553C173.904 125.811 174.049 126.159 174.05 126.522L174.046 132.622ZM174.424 120.616V119.035L175.492 119.211V120.784L174.424 120.616ZM177.016 132.86L175.06 132.765V126.761C175.06 126.52 175.156 126.289 175.326 126.119C175.497 125.948 175.728 125.853 175.969 125.853C176.246 125.853 176.512 125.963 176.708 126.158C176.904 126.354 177.015 126.619 177.016 126.896V132.86ZM177.472 118.345L178.705 118.624V121.138L177.472 120.871V118.345ZM179.161 133.131L177.592 133.049V126.991C177.597 126.776 177.686 126.573 177.839 126.423C177.993 126.273 178.199 126.19 178.413 126.19C178.514 126.19 178.613 126.209 178.706 126.248C178.799 126.286 178.883 126.342 178.954 126.413C179.025 126.484 179.081 126.569 179.12 126.661C179.158 126.754 179.178 126.853 179.178 126.954L179.161 133.131ZM181.138 133.451L180.02 133.369V127.34C180.02 127.196 180.077 127.058 180.179 126.956C180.281 126.855 180.419 126.798 180.562 126.798C180.715 126.798 180.861 126.858 180.969 126.966C181.077 127.074 181.138 127.22 181.138 127.373V133.451ZM181.549 122.419V119.823L182.329 120.111V122.694L181.549 122.419ZM183.085 133.681L181.968 133.612V128.157C181.968 128.015 182.024 127.88 182.124 127.779C182.224 127.679 182.36 127.623 182.502 127.623C182.656 127.623 182.804 127.684 182.913 127.792C183.022 127.901 183.084 128.048 183.085 128.202V133.681Z" fill="#D2B7E7"/>
<path d="M152.716 114.217V116.772H150.899L150.386 114.118L144.563 113.95L141.86 102.922H138.946L133.448 91.7168C133.448 91.7168 119.149 93.1708 108.018 102.93V119.392L106.818 119.544L105.918 119.659V123.811L107.081 123.66L108.018 123.54V132.724L106.818 132.872L105.918 132.991V137.144L107.081 136.992L108.018 136.873V143.321H166.464L166.526 136.663C166.53 136.202 166.717 135.761 167.045 135.437C167.372 135.112 167.815 134.93 168.276 134.93C168.593 134.93 168.896 135.056 169.119 135.279C169.343 135.502 169.468 135.805 169.468 136.121V143.321H170.643L170.709 137.037C170.713 136.541 170.914 136.067 171.266 135.718C171.618 135.368 172.095 135.172 172.591 135.172C172.707 135.172 172.822 135.194 172.929 135.238C173.036 135.282 173.133 135.347 173.215 135.428C173.297 135.51 173.363 135.607 173.407 135.714C173.452 135.821 173.474 135.936 173.474 136.051V143.321H174.21L174.263 136.45C174.265 136.11 174.402 135.785 174.643 135.546C174.884 135.307 175.21 135.172 175.549 135.172C175.643 135.172 175.736 135.19 175.823 135.225C175.909 135.261 175.988 135.313 176.055 135.379C176.121 135.445 176.174 135.524 176.21 135.61C176.246 135.697 176.264 135.789 176.264 135.883V143.321H176.934L176.979 136.294C176.98 135.996 177.1 135.711 177.311 135.501C177.522 135.29 177.807 135.172 178.105 135.172C178.177 135.172 178.248 135.186 178.315 135.213C178.382 135.24 178.442 135.28 178.493 135.331C178.544 135.382 178.584 135.442 178.611 135.509C178.639 135.575 178.652 135.647 178.652 135.719V143.321H179.564L179.601 136.306C179.602 136.141 179.668 135.983 179.785 135.867C179.902 135.751 180.061 135.686 180.226 135.686C180.42 135.686 180.606 135.763 180.743 135.9C180.88 136.037 180.957 136.223 180.957 136.417V143.321H181.717L181.75 136.811C181.75 136.648 181.815 136.491 181.93 136.376C182.046 136.26 182.203 136.195 182.366 136.195C182.53 136.195 182.687 136.26 182.802 136.376C182.918 136.491 182.983 136.648 182.983 136.811V143.317H183.887V120.468C183.887 120.468 172.747 114.217 152.716 114.217ZM136.621 109.378C136.913 109.378 137.203 109.436 137.473 109.548C137.743 109.66 137.989 109.824 138.195 110.03C138.402 110.237 138.566 110.482 138.678 110.753C138.79 111.023 138.848 111.312 138.848 111.604V117.392C137.33 117.408 135.845 117.437 134.393 117.478V111.604C134.393 111.014 134.628 110.448 135.046 110.03C135.463 109.613 136.03 109.378 136.621 109.378ZM130.486 102.807L132.199 102.281V104.955L130.486 105.365V102.807ZM131.205 110.064C131.464 110.064 131.72 110.114 131.959 110.213C132.198 110.312 132.415 110.456 132.598 110.639C132.781 110.822 132.926 111.039 133.024 111.278C133.123 111.517 133.174 111.773 133.173 112.032V117.544C131.829 117.585 130.515 117.634 129.237 117.692V112.015C129.237 111.493 129.444 110.993 129.813 110.624C130.182 110.255 130.683 110.048 131.205 110.048V110.064ZM124.856 99.4386L126.57 98.8143V101.985L124.856 102.47V99.4386ZM125.789 111.223C126.243 111.223 126.677 111.403 126.998 111.723C127.318 112.043 127.499 112.478 127.499 112.931V117.757C126.327 117.815 125.185 117.876 124.08 117.946V112.915C124.08 112.462 124.26 112.027 124.58 111.707C124.901 111.386 125.336 111.206 125.789 111.206V111.223ZM120.254 106.092L121.54 105.727V107.583L120.254 107.867V106.092ZM121.405 112.36C121.79 112.36 122.159 112.513 122.431 112.785C122.703 113.057 122.855 113.426 122.855 113.81V118.02C121.857 118.086 120.887 118.152 119.954 118.221V113.814C119.954 113.43 120.107 113.061 120.379 112.789C120.651 112.517 121.02 112.364 121.405 112.364V112.36ZM116.938 103.082L118.245 102.54V105.304L116.938 105.715V103.082ZM117.021 113.519C117.337 113.519 117.64 113.644 117.863 113.867C118.087 114.091 118.212 114.394 118.212 114.71V118.361C117.39 118.427 116.589 118.497 115.825 118.562V114.718C115.824 114.561 115.855 114.405 115.915 114.26C115.975 114.115 116.063 113.983 116.174 113.871C116.285 113.76 116.417 113.672 116.562 113.612C116.708 113.553 116.863 113.522 117.021 113.523V113.519ZM114.083 115.613V118.727L112.213 118.911V115.626C112.205 115.498 112.222 115.369 112.266 115.249C112.309 115.128 112.376 115.017 112.464 114.924C112.551 114.83 112.657 114.755 112.775 114.704C112.893 114.653 113.02 114.627 113.148 114.627C113.276 114.627 113.403 114.653 113.521 114.704C113.638 114.755 113.744 114.83 113.832 114.924C113.919 115.017 113.987 115.128 114.03 115.249C114.073 115.369 114.091 115.498 114.083 115.626V115.613ZM112.082 106.454L113.191 106.006V108.29L112.082 108.639V106.454ZM109.616 116.513C109.609 116.42 109.621 116.326 109.652 116.238C109.682 116.149 109.731 116.068 109.794 116C109.858 115.931 109.935 115.877 110.02 115.839C110.106 115.802 110.199 115.782 110.292 115.782C110.385 115.782 110.478 115.802 110.564 115.839C110.649 115.877 110.726 115.931 110.79 116C110.853 116.068 110.902 116.149 110.932 116.238C110.963 116.326 110.975 116.42 110.968 116.513V119.039L109.616 119.191V116.513ZM148.508 130.79C147.008 130.753 145.521 130.728 144.054 130.72V125.627C144.054 125.036 144.288 124.47 144.706 124.053C145.124 123.635 145.69 123.401 146.281 123.401C146.872 123.401 147.438 123.635 147.856 124.053C148.273 124.47 148.508 125.036 148.508 125.627V130.79ZM116.293 131.854V127.882C116.293 127.535 116.431 127.203 116.676 126.958C116.921 126.713 117.253 126.576 117.6 126.576C117.946 126.576 118.279 126.713 118.524 126.958C118.769 127.203 118.907 127.535 118.907 127.882V131.636C118.011 131.71 117.145 131.784 116.31 131.858L116.293 131.854ZM120.665 131.5V127.508C120.665 127.121 120.819 126.75 121.092 126.477C121.366 126.204 121.737 126.05 122.124 126.05C122.511 126.05 122.882 126.204 123.155 126.477C123.429 126.75 123.583 127.121 123.583 127.508V131.303L120.665 131.5ZM125.033 131.217V127.13C125.054 126.717 125.233 126.327 125.533 126.042C125.833 125.756 126.232 125.597 126.646 125.597C127.06 125.597 127.458 125.756 127.759 126.042C128.059 126.327 128.238 126.717 128.259 127.13V131.044C127.163 131.113 126.093 131.172 125.05 131.221L125.033 131.217ZM129.401 130.995V126.761C129.401 126.292 129.587 125.843 129.919 125.512C130.25 125.18 130.699 124.994 131.168 124.994C131.637 124.994 132.086 125.18 132.417 125.512C132.749 125.843 132.935 126.292 132.935 126.761V130.868C131.747 130.905 130.568 130.946 129.417 130.999L129.401 130.995ZM134.287 130.819V126.383C134.31 125.889 134.522 125.423 134.88 125.081C135.237 124.74 135.713 124.549 136.208 124.549C136.702 124.549 137.178 124.74 137.536 125.081C137.893 125.423 138.106 125.889 138.129 126.383V130.736C136.833 130.764 135.558 130.793 134.303 130.823L134.287 130.819ZM143.327 130.716C141.921 130.716 140.539 130.716 139.181 130.716V125.992C139.181 125.443 139.399 124.916 139.788 124.527C140.176 124.139 140.704 123.92 141.253 123.92C141.803 123.92 142.331 124.139 142.719 124.527C143.108 124.916 143.327 125.443 143.327 125.992V130.716ZM111.621 128.633V132.248H109.624V128.633C109.624 128.369 109.73 128.115 109.917 127.928C110.104 127.741 110.358 127.635 110.623 127.635C110.888 127.635 111.142 127.741 111.329 127.928C111.516 128.115 111.621 128.369 111.621 128.633ZM112.443 128.26C112.434 128.103 112.457 127.945 112.51 127.797C112.564 127.649 112.647 127.514 112.755 127.399C112.863 127.285 112.993 127.194 113.138 127.131C113.282 127.069 113.438 127.037 113.596 127.037C113.753 127.037 113.909 127.069 114.053 127.131C114.198 127.194 114.328 127.285 114.436 127.399C114.544 127.514 114.627 127.649 114.681 127.797C114.735 127.945 114.758 128.103 114.748 128.26V131.993C113.926 132.067 113.166 132.145 112.443 132.219V128.26ZM111.621 142.315H109.624V138.701C109.624 138.436 109.73 138.182 109.917 137.995C110.104 137.808 110.358 137.702 110.623 137.702C110.888 137.702 111.142 137.808 111.329 137.995C111.516 138.182 111.621 138.436 111.621 138.701V142.315ZM114.752 142.315H112.447V138.618C112.465 138.325 112.594 138.049 112.808 137.847C113.022 137.645 113.305 137.533 113.6 137.533C113.894 137.533 114.177 137.645 114.392 137.847C114.606 138.049 114.735 138.325 114.752 138.618V142.315ZM118.915 142.315H116.301V138.508C116.301 138.161 116.439 137.829 116.684 137.584C116.929 137.339 117.262 137.201 117.608 137.201C117.955 137.201 118.287 137.339 118.532 137.584C118.777 137.829 118.915 138.161 118.915 138.508V142.315ZM123.591 142.315H120.673V138.409C120.673 138.022 120.827 137.651 121.101 137.378C121.374 137.104 121.745 136.951 122.132 136.951C122.519 136.951 122.89 137.104 123.164 137.378C123.437 137.651 123.591 138.022 123.591 138.409V142.315ZM128.267 142.315H125.041V138.314C125.03 138.096 125.064 137.877 125.14 137.672C125.216 137.467 125.333 137.279 125.484 137.121C125.635 136.962 125.816 136.836 126.017 136.75C126.219 136.663 126.435 136.619 126.654 136.619C126.873 136.619 127.09 136.663 127.291 136.75C127.492 136.836 127.674 136.962 127.824 137.121C127.975 137.279 128.092 137.467 128.168 137.672C128.244 137.877 128.278 138.096 128.267 138.314V142.315ZM132.943 142.315H129.409V138.208C129.409 137.739 129.595 137.29 129.927 136.959C130.258 136.628 130.708 136.442 131.176 136.442C131.645 136.442 132.094 136.628 132.425 136.959C132.757 137.29 132.943 137.739 132.943 138.208V142.315ZM138.137 142.315H134.295V138.13C134.283 137.87 134.324 137.611 134.415 137.367C134.506 137.124 134.645 136.901 134.825 136.713C135.005 136.525 135.22 136.376 135.459 136.274C135.699 136.171 135.956 136.119 136.216 136.119C136.476 136.119 136.733 136.171 136.972 136.274C137.211 136.376 137.427 136.525 137.607 136.713C137.786 136.901 137.926 137.124 138.017 137.367C138.108 137.611 138.149 137.87 138.137 138.13V142.315ZM143.327 142.315H139.189V138.027C139.189 137.477 139.407 136.95 139.796 136.562C140.185 136.173 140.712 135.955 141.262 135.955C141.812 135.955 142.339 136.173 142.728 136.562C143.116 136.95 143.335 137.477 143.335 138.027L143.327 142.315ZM148.516 142.315H144.07V137.932C144.07 137.342 144.305 136.776 144.723 136.358C145.14 135.941 145.707 135.706 146.297 135.706C146.888 135.706 147.454 135.941 147.872 136.358C148.29 136.776 148.524 137.342 148.524 137.932L148.516 142.315ZM161.62 115.675L163.518 115.819V118.998L161.62 118.87V115.675ZM164.615 132.462H160.847V125.738C160.87 125.254 161.078 124.797 161.429 124.462C161.78 124.127 162.246 123.941 162.731 123.941C163.216 123.941 163.683 124.127 164.034 124.462C164.384 124.797 164.593 125.254 164.615 125.738V132.462ZM167.011 117.905L168.211 117.983V119.753L167.011 119.684V117.905ZM170.298 132.519H166.53V126.268C166.553 125.783 166.761 125.326 167.112 124.992C167.463 124.657 167.929 124.47 168.414 124.47C168.899 124.47 169.365 124.657 169.716 124.992C170.067 125.326 170.275 125.783 170.298 126.268V132.519ZM170.824 119.581V117.084L172.509 117.494V119.983L170.824 119.581ZM174.046 132.622L171.28 132.531V126.543C171.28 126.36 171.316 126.178 171.387 126.009C171.457 125.84 171.56 125.686 171.69 125.557C171.819 125.427 171.973 125.325 172.143 125.255C172.312 125.186 172.494 125.15 172.677 125.15C173.041 125.152 173.389 125.296 173.646 125.553C173.904 125.811 174.049 126.159 174.05 126.522L174.046 132.622ZM174.424 120.616V119.035L175.492 119.211V120.784L174.424 120.616ZM177.016 132.86L175.06 132.765V126.761C175.06 126.52 175.156 126.289 175.326 126.119C175.497 125.948 175.728 125.853 175.969 125.853C176.246 125.853 176.512 125.963 176.708 126.158C176.904 126.354 177.015 126.619 177.016 126.896V132.86ZM177.472 118.345L178.705 118.624V121.138L177.472 120.871V118.345ZM179.161 133.131L177.592 133.049V126.991C177.597 126.776 177.686 126.573 177.839 126.423C177.993 126.273 178.199 126.19 178.413 126.19C178.514 126.19 178.613 126.209 178.706 126.248C178.799 126.286 178.883 126.342 178.954 126.413C179.025 126.484 179.081 126.569 179.12 126.661C179.158 126.754 179.178 126.853 179.178 126.954L179.161 133.131ZM181.138 133.451L180.02 133.369V127.34C180.02 127.196 180.077 127.058 180.179 126.956C180.281 126.855 180.419 126.798 180.562 126.798C180.715 126.798 180.861 126.858 180.969 126.966C181.077 127.074 181.138 127.22 181.138 127.373V133.451ZM181.549 122.419V119.823L182.329 120.111V122.694L181.549 122.419ZM183.085 133.681L181.968 133.612V128.157C181.968 128.015 182.024 127.88 182.124 127.779C182.224 127.679 182.36 127.623 182.502 127.623C182.656 127.623 182.804 127.684 182.913 127.792C183.022 127.901 183.084 128.048 183.085 128.202V133.681Z" fill="#EEC48D"/>
<path d="M47.3548 57.9143C47.3548 57.9143 42.7569 57.7993 42.7569 62.8883C42.3677 62.5525 41.8999 62.3206 41.397 62.2143C40.894 62.108 40.3723 62.1307 39.8805 62.2804C39.4106 62.4066 38.985 62.6609 38.6513 63.0148C38.3175 63.3687 38.0887 63.8084 37.9904 64.2848C37.9904 64.2848 34.7032 61.1426 31.5598 63.6769C30.7863 64.2568 30.2231 65.073 29.9554 66.0017C29.6877 66.9304 29.7302 67.921 30.0764 68.8233C30.0764 68.8233 26.4358 68.4126 26.1523 71.8135C25.8195 75.8756 30.3353 74.6106 30.3353 74.6106C30.4238 75.2444 30.7049 75.8356 31.1408 76.3044C31.5766 76.7731 32.146 77.0966 32.7719 77.2311C35.0401 77.8143 36.9426 75.9208 36.9426 75.9208C36.9426 75.9208 37.937 78.5742 40.8544 78.5742C41.6999 78.5728 42.5323 78.3657 43.2797 77.9707C44.0271 77.5756 44.6671 77.0046 45.1442 76.3069C45.1442 76.3069 45.4072 79.3874 49.0724 79.679C52.7377 79.9706 54.3731 75.5429 54.3731 75.5429C54.3731 75.5429 56.6412 78.0443 58.7944 76.6766C59.4103 76.2941 59.9208 75.764 60.2796 75.1342C60.6384 74.5044 60.8341 73.7949 60.8489 73.0703C60.8489 73.0703 64.2265 73.1319 64.395 70.2404C64.5799 67.049 61.7816 67.3406 61.7816 67.3406C61.7816 67.3406 62.2459 65.176 59.8093 64.0137C59.1745 63.7136 58.4714 63.5875 57.7718 63.6481C57.0722 63.7087 56.4013 63.9539 55.8277 64.3587C55.8277 64.3587 55.0264 62.075 53.4855 61.2618C53.0712 61.021 52.6106 60.8705 52.134 60.8203C51.6574 60.77 51.1756 60.8211 50.7201 60.9701C50.7201 60.9701 50.4407 57.9143 47.3548 57.9143Z" fill="#C3F6FF"/>
<path d="M262.451 31.9593C262.451 31.9593 256.789 31.8155 256.789 38.0833C256.309 37.6687 255.733 37.3824 255.113 37.2509C254.492 37.1195 253.849 37.1473 253.243 37.3317C252.664 37.4873 252.141 37.8 251.73 38.235C251.318 38.67 251.036 39.2103 250.913 39.796C250.913 39.796 246.865 35.9228 242.995 39.0403C242.042 39.7556 241.349 40.7613 241.019 41.9054C240.689 43.0495 240.741 44.2698 241.166 45.382C241.166 45.382 236.683 44.885 236.338 49.0786C235.927 54.0813 241.491 52.5206 241.491 52.5206C241.598 53.3016 241.944 54.0305 242.481 54.6081C243.017 55.1858 243.719 55.5841 244.49 55.7489C247.285 56.4677 249.623 54.1347 249.623 54.1347C249.623 54.1347 250.855 57.3919 254.442 57.3919C255.484 57.3901 256.509 57.1349 257.43 56.6483C258.351 56.1616 259.139 55.4583 259.727 54.5989C259.727 54.5989 260.051 58.394 264.563 58.7514C269.075 59.1087 271.084 53.6665 271.084 53.6665C271.084 53.6665 273.878 56.747 276.533 55.063C277.294 54.5949 277.927 53.9431 278.371 53.1673C278.815 52.3916 279.058 51.5167 279.076 50.623C279.076 50.623 283.238 50.701 283.444 47.14C283.674 43.2092 280.227 43.5666 280.227 43.5666C280.227 43.5666 280.798 40.9009 277.798 39.4593C277.018 39.0878 276.153 38.9301 275.292 39.0023C274.43 39.0744 273.604 39.3739 272.896 39.87C272.896 39.87 271.91 37.0606 270.02 36.0584C269.509 35.7617 268.942 35.5764 268.355 35.5148C267.768 35.4532 267.174 35.5167 266.613 35.701C266.613 35.701 266.248 31.9593 262.451 31.9593Z" fill="#C3F6FF"/>
<defs>
</defs>
</svg>
