<svg width="16" height="17" viewBox="0 0 16 17" fill="none" xmlns="http://www.w3.org/2000/svg">
<path d="M11.2811 6.88299C11.2429 6.90527 10.3335 7.37554 10.3335 8.41822C10.3764 9.60734 11.4811 10.0244 11.5 10.0244C11.4811 10.0466 11.3332 10.5924 10.8953 11.1646C10.5478 11.6574 10.1621 12.1543 9.57639 12.1543C9.01925 12.1543 8.81925 11.8258 8.17639 11.8258C7.48601 11.8258 7.29067 12.1543 6.7621 12.1543C6.17638 12.1543 5.7621 11.6308 5.39564 11.1426C4.91955 10.5036 4.51489 9.50085 4.5006 8.53803C4.49098 8.02783 4.59594 7.52631 4.86241 7.10033C5.23849 6.50562 5.90992 6.10192 6.64316 6.0886C7.20496 6.07095 7.70496 6.44803 8.04782 6.44803C8.37639 6.44803 8.99068 6.0886 9.68571 6.0886C9.98571 6.08889 10.7857 6.17311 11.2811 6.88299ZM8.0003 5.98674C7.9003 5.52081 8.17639 5.05489 8.43353 4.75768C8.7621 4.39826 9.28105 4.1543 9.72857 4.1543C9.75714 4.62022 9.57608 5.07717 9.25248 5.40998C8.96211 5.7694 8.4621 6.03999 8.0003 5.98674Z" fill="#121113"/>
</svg>
