<svg width="25" height="24" viewBox="0 0 25 24" fill="none" xmlns="http://www.w3.org/2000/svg">
<path d="M10.0709 18.8211C10.2609 18.8211 10.4509 18.7511 10.6009 18.6011C10.8909 18.3111 10.8909 17.8311 10.6009 17.5411L5.06086 12.0011L10.6009 6.46109C10.8909 6.17109 10.8909 5.69109 10.6009 5.40109C10.3109 5.11109 9.83086 5.11109 9.54086 5.40109L3.47086 11.4711C3.18086 11.7611 3.18086 12.2411 3.47086 12.5311L9.54086 18.6011C9.69086 18.7511 9.88086 18.8211 10.0709 18.8211Z" fill="white"/>
<path d="M4.17 12.75H21C21.41 12.75 21.75 12.41 21.75 12C21.75 11.59 21.41 11.25 21 11.25H4.17C3.76 11.25 3.42 11.59 3.42 12C3.42 12.41 3.76 12.75 4.17 12.75Z" fill="white"/>
</svg>
