<svg width="32" height="32" viewBox="0 0 32 32" fill="none" xmlns="http://www.w3.org/2000/svg">
<rect width="32" height="32" rx="16" fill="white"/>
<path d="M13.1708 20.3362C13.0734 20.3362 12.98 20.2968 12.9112 20.2267C12.8424 20.1566 12.8037 20.0615 12.8037 19.9624V11.738C12.8037 11.6731 12.8204 11.6092 12.852 11.5528C12.8836 11.4964 12.9291 11.4493 12.984 11.4163C13.0389 11.3832 13.1013 11.3653 13.1651 11.3643C13.2289 11.3633 13.2918 11.3792 13.3477 11.4105L20.6885 15.5227C20.746 15.555 20.794 15.6024 20.8274 15.66C20.8608 15.7176 20.8785 15.7833 20.8785 15.8502C20.8785 15.9171 20.8608 15.9828 20.8274 16.0404C20.794 16.098 20.746 16.1454 20.6885 16.1777L13.3477 20.2899C13.2935 20.3203 13.2326 20.3362 13.1708 20.3362Z" fill="#662F90"/>
</svg>
