<svg width="16" height="16" viewBox="0 0 16 16" fill="none" xmlns="http://www.w3.org/2000/svg">
<g clip-path="url(#clip0_1554_23862)">
<path d="M14.6668 15.1665H1.3335C1.06016 15.1665 0.833496 14.9398 0.833496 14.6665C0.833496 14.3932 1.06016 14.1665 1.3335 14.1665H14.6668C14.9402 14.1665 15.1668 14.3932 15.1668 14.6665C15.1668 14.9398 14.9402 15.1665 14.6668 15.1665Z" fill="#121113"/>
<path d="M13.9261 15.1665C13.6528 15.1665 13.4261 14.9398 13.4261 14.6665V8.6665C13.4261 7.83984 12.6528 7.1665 11.7061 7.1665H4.29275C3.34608 7.1665 2.57275 7.83984 2.57275 8.6665V14.6665C2.57275 14.9398 2.34608 15.1665 2.07275 15.1665C1.79942 15.1665 1.57275 14.9398 1.57275 14.6665V8.6665C1.57275 7.2865 2.79275 6.1665 4.29275 6.1665H11.6994C13.1994 6.1665 14.4194 7.2865 14.4194 8.6665V14.6665C14.4261 14.9398 14.1994 15.1665 13.9261 15.1665Z" fill="#121113"/>
<path d="M12.2937 7.16683C12.0203 7.16683 11.7937 6.94016 11.7937 6.66683V4.78016C11.7937 4.26016 11.2937 3.8335 10.687 3.8335H5.32036C4.70703 3.8335 4.2137 4.26016 4.2137 4.78016V6.66683C4.2137 6.94016 3.98703 7.16683 3.7137 7.16683C3.44036 7.16683 3.20703 6.94016 3.20703 6.66683V4.78016C3.20703 3.70683 4.1537 2.8335 5.3137 2.8335H10.6803C11.8403 2.8335 12.787 3.70683 12.787 4.78016V6.66683C12.7937 6.94016 12.567 7.16683 12.2937 7.16683Z" fill="#121113"/>
<path d="M11.5538 11.8335C10.7805 11.8335 10.1538 11.2068 10.1538 10.4335V10.2268C10.1538 10.0068 9.9738 9.82681 9.7538 9.82681C9.5338 9.82681 9.3538 10.0068 9.3538 10.2268V10.4335C9.3538 11.2068 8.72714 11.8335 7.9538 11.8335C7.18047 11.8335 6.55379 11.2068 6.55379 10.4335V10.2268C6.55379 10.0068 6.37379 9.82681 6.15379 9.82681C5.93379 9.82681 5.75379 10.0068 5.75379 10.2268V10.4335C5.75379 11.2068 5.12712 11.8335 4.35379 11.8335C3.58046 11.8335 2.95379 11.2068 2.95379 10.4335V10.2135C2.95379 10.0001 2.78046 9.82014 2.56046 9.81348H2.31379C2.04046 9.80681 1.81379 9.58014 1.82046 9.30681C1.82712 9.03348 2.04712 8.81348 2.32046 8.81348H2.32712H2.57379C3.33379 8.82681 3.95379 9.45348 3.95379 10.2135V10.4335C3.95379 10.6535 4.13379 10.8335 4.35379 10.8335C4.57379 10.8335 4.75379 10.6535 4.75379 10.4335V10.2268C4.75379 9.45348 5.38046 8.82681 6.15379 8.82681C6.92714 8.82681 7.5538 9.45348 7.5538 10.2268V10.4335C7.5538 10.6535 7.7338 10.8335 7.9538 10.8335C8.1738 10.8335 8.3538 10.6535 8.3538 10.4335V10.2268C8.3538 9.45348 8.98047 8.82681 9.7538 8.82681C10.5271 8.82681 11.1538 9.45348 11.1538 10.2268V10.4335C11.1538 10.6535 11.3338 10.8335 11.5538 10.8335C11.7738 10.8335 11.9538 10.6535 11.9538 10.4335V10.2268C11.9538 9.45348 12.5805 8.82681 13.3538 8.82681H13.6538C13.9271 8.82681 14.1538 9.05348 14.1538 9.32681C14.1538 9.60014 13.9271 9.82681 13.6538 9.82681H13.3538C13.1338 9.82681 12.9538 10.0068 12.9538 10.2268V10.4335C12.9538 11.2068 12.3271 11.8335 11.5538 11.8335Z" fill="#121113"/>
<path d="M5.3335 3.83333C5.06016 3.83333 4.8335 3.60667 4.8335 3.33333V2C4.8335 1.72667 5.06016 1.5 5.3335 1.5C5.60683 1.5 5.8335 1.72667 5.8335 2V3.33333C5.8335 3.60667 5.60683 3.83333 5.3335 3.83333Z" fill="#121113"/>
<path d="M10.6665 3.83333C10.3932 3.83333 10.1665 3.60667 10.1665 3.33333V2C10.1665 1.72667 10.3932 1.5 10.6665 1.5C10.9398 1.5 11.1665 1.72667 11.1665 2V3.33333C11.1665 3.60667 10.9398 3.83333 10.6665 3.83333Z" fill="#121113"/>
<path d="M8 3.8335C7.72667 3.8335 7.5 3.60683 7.5 3.3335V1.3335C7.5 1.06016 7.72667 0.833496 8 0.833496C8.27333 0.833496 8.5 1.06016 8.5 1.3335V3.3335C8.5 3.60683 8.27333 3.8335 8 3.8335Z" fill="#121113"/>
</g>
<defs>
<clipPath id="clip0_1554_23862">
<rect width="16" height="16" fill="white"/>
</clipPath>
</defs>
</svg>
