<svg width="33" height="32" viewBox="0 0 33 32" fill="none" xmlns="http://www.w3.org/2000/svg">
<path d="M23.4861 30.3334H9.51275C5.77942 30.3334 3.40608 28.1067 3.19275 24.3867L2.49942 13.3867C2.39275 11.7201 2.96608 10.1201 4.11275 8.90675C5.24608 7.69341 6.84608 7.00008 8.49942 7.00008C8.92608 7.00008 9.33942 6.74675 9.53942 6.34675L10.4994 4.44008C11.2861 2.88008 13.2594 1.66675 14.9794 1.66675H18.0328C19.7528 1.66675 21.7128 2.88008 22.4994 4.42675L23.4594 6.37341C23.6594 6.74675 24.0594 7.00008 24.4994 7.00008C26.1528 7.00008 27.7528 7.69341 28.8861 8.90675C30.0328 10.1334 30.6061 11.7201 30.4994 13.3867L29.8061 24.4001C29.5661 28.1734 27.2594 30.3334 23.4861 30.3334ZM14.9794 3.66675C13.9928 3.66675 12.7394 4.44008 12.2861 5.33341L11.3261 7.25341C10.7661 8.33341 9.68608 9.00008 8.49942 9.00008C7.37942 9.00008 6.3394 9.45341 5.56608 10.2667C4.80608 11.0801 4.41942 12.1467 4.49942 13.2534L5.19275 24.2667C5.35274 26.9601 6.80608 28.3334 9.51275 28.3334H23.4861C26.1794 28.3334 27.6328 26.9601 27.8061 24.2667L28.4994 13.2534C28.5661 12.1467 28.1928 11.0801 27.4328 10.2667C26.6594 9.45341 25.6194 9.00008 24.4994 9.00008C23.3128 9.00008 22.2328 8.33341 21.6728 7.28008L20.6994 5.33341C20.2594 4.45341 19.0061 3.68008 18.0194 3.68008H14.9794V3.66675Z" fill="#662F90"/>
<path d="M18.5 11.6667H14.5C13.9533 11.6667 13.5 11.2134 13.5 10.6667C13.5 10.1201 13.9533 9.66675 14.5 9.66675H18.5C19.0467 9.66675 19.5 10.1201 19.5 10.6667C19.5 11.2134 19.0467 11.6667 18.5 11.6667Z" fill="#662F90"/>
<path d="M16.4998 24.9999C13.5532 24.9999 11.1665 22.6133 11.1665 19.6666C11.1665 16.7199 13.5532 14.3333 16.4998 14.3333C19.4465 14.3333 21.8332 16.7199 21.8332 19.6666C21.8332 22.6133 19.4465 24.9999 16.4998 24.9999ZM16.4998 16.3333C14.6598 16.3333 13.1665 17.8266 13.1665 19.6666C13.1665 21.5066 14.6598 22.9999 16.4998 22.9999C18.3398 22.9999 19.8332 21.5066 19.8332 19.6666C19.8332 17.8266 18.3398 16.3333 16.4998 16.3333Z" fill="#662F90"/>
</svg>
