<svg width="33" height="32" viewBox="0 0 33 32" fill="none" xmlns="http://www.w3.org/2000/svg">
<g filter="url(#filter0_b_1554_27385)">
<rect x="0.5" width="32" height="32" rx="16" fill="#662F90"/>
<path d="M19.9933 23.1668H13.0066C11.14 23.1668 9.95329 22.0535 9.84662 20.1935L9.49995 14.6935C9.44662 13.8602 9.73329 13.0602 10.3066 12.4535C10.8733 11.8468 11.6733 11.5002 12.5 11.5002C12.7133 11.5002 12.92 11.3735 13.02 11.1735L13.5 10.2202C13.8933 9.44016 14.8799 8.8335 15.74 8.8335H17.2666C18.1266 8.8335 19.1066 9.44016 19.5 10.2135L19.98 11.1868C20.08 11.3735 20.28 11.5002 20.5 11.5002C21.3266 11.5002 22.1266 11.8468 22.6933 12.4535C23.2666 13.0668 23.5533 13.8602 23.5 14.6935L23.1533 20.2002C23.0333 22.0868 21.88 23.1668 19.9933 23.1668ZM15.74 9.8335C15.2466 9.8335 14.62 10.2202 14.3933 10.6668L13.9133 11.6268C13.6333 12.1668 13.0933 12.5002 12.5 12.5002C11.94 12.5002 11.4199 12.7268 11.0333 13.1335C10.6533 13.5402 10.46 14.0735 10.5 14.6268L10.8466 20.1335C10.9266 21.4802 11.6533 22.1668 13.0066 22.1668H19.9933C21.34 22.1668 22.0666 21.4802 22.1533 20.1335L22.5 14.6268C22.5333 14.0735 22.3466 13.5402 21.9666 13.1335C21.58 12.7268 21.06 12.5002 20.5 12.5002C19.9066 12.5002 19.3666 12.1668 19.0866 11.6402L18.6 10.6668C18.38 10.2268 17.7533 9.84016 17.26 9.84016H15.74V9.8335Z" fill="white"/>
<path d="M17.5 13.8335H15.5C15.2267 13.8335 15 13.6068 15 13.3335C15 13.0602 15.2267 12.8335 15.5 12.8335H17.5C17.7733 12.8335 18 13.0602 18 13.3335C18 13.6068 17.7733 13.8335 17.5 13.8335Z" fill="white"/>
<path d="M16.5002 20.4998C15.0268 20.4998 13.8335 19.3065 13.8335 17.8332C13.8335 16.3598 15.0268 15.1665 16.5002 15.1665C17.9735 15.1665 19.1668 16.3598 19.1668 17.8332C19.1668 19.3065 17.9735 20.4998 16.5002 20.4998ZM16.5002 16.1665C15.5802 16.1665 14.8335 16.9132 14.8335 17.8332C14.8335 18.7532 15.5802 19.4998 16.5002 19.4998C17.4202 19.4998 18.1668 18.7532 18.1668 17.8332C18.1668 16.9132 17.4202 16.1665 16.5002 16.1665Z" fill="white"/>
</g>
<defs>
<filter id="filter0_b_1554_27385" x="-53.8656" y="-54.3656" width="140.731" height="140.731" filterUnits="userSpaceOnUse" color-interpolation-filters="sRGB">
<feFlood flood-opacity="0" result="BackgroundImageFix"/>
<feGaussianBlur in="BackgroundImageFix" stdDeviation="27.1828"/>
<feComposite in2="SourceAlpha" operator="in" result="effect1_backgroundBlur_1554_27385"/>
<feBlend mode="normal" in="SourceGraphic" in2="effect1_backgroundBlur_1554_27385" result="shape"/>
</filter>
</defs>
</svg>
