<svg width="24" height="24" viewBox="0 0 24 24" fill="none" xmlns="http://www.w3.org/2000/svg">
<path d="M14.01 22.78C14.61 22.78 15.18 22.48 15.57 21.95L16.77 20.35C16.77 20.36 16.82 20.33 16.84 20.33H17.21C20.63 20.33 22.75 19.4 22.75 14.79V10.79C22.75 6.58001 20.18 5.48001 18.02 5.29001C17.78 5.26001 17.5 5.25 17.21 5.25H10.81C7.19 5.25 5.27 7.17001 5.27 10.79V14.79C5.27 15.08 5.28 15.36 5.32 15.63C5.5 17.76 6.6 20.33 10.81 20.33H11.21L12.45 21.95C12.84 22.48 13.41 22.78 14.01 22.78ZM17.21 6.75C17.44 6.75 17.66 6.76 17.87 6.78C20.19 6.98 21.25 8.25001 21.25 10.79V14.79C21.25 18.22 20.19 18.83 17.21 18.83H16.81C16.36 18.83 15.85 19.08 15.57 19.44L14.37 21.05C14.15 21.35 13.87 21.35 13.65 21.05L12.45 19.45C12.16 19.06 11.7 18.83 11.21 18.83H10.81C8.27 18.83 7 17.76 6.81 15.48C6.78 15.24 6.77 15.02 6.77 14.79V10.79C6.77 8.00001 8.02 6.75 10.81 6.75H17.21Z" fill="white"/>
<path d="M14.0098 14.1899C14.5698 14.1899 15.0098 13.7399 15.0098 13.1899C15.0098 12.6399 14.5598 12.1899 14.0098 12.1899C13.4598 12.1899 13.0098 12.6399 13.0098 13.1899C13.0098 13.7399 13.4498 14.1899 14.0098 14.1899Z" fill="white"/>
<path d="M10.8105 14.1899C11.3705 14.1899 11.8105 13.7399 11.8105 13.1899C11.8105 12.6399 11.3605 12.1899 10.8105 12.1899C10.2605 12.1899 9.81055 12.6399 9.81055 13.1899C9.81055 13.7399 10.2605 14.1899 10.8105 14.1899Z" fill="white"/>
<path d="M17.1992 14.1899C17.7592 14.1899 18.1992 13.7399 18.1992 13.1899C18.1992 12.6399 17.7492 12.1899 17.1992 12.1899C16.6492 12.1899 16.1992 12.6399 16.1992 13.1899C16.1992 13.7399 16.6492 14.1899 17.1992 14.1899Z" fill="white"/>
<path d="M6.0604 16.29C6.2604 16.29 6.4604 16.21 6.6004 16.06C6.7604 15.9 6.8303 15.67 6.8003 15.45C6.7703 15.24 6.7604 15.02 6.7604 14.79V10.79C6.7604 8.00001 8.0103 6.75 10.8003 6.75H17.2004C17.4304 6.75 17.6503 6.76 17.8603 6.78C18.0803 6.81 18.3104 6.72999 18.4704 6.57999C18.6304 6.41999 18.7204 6.20001 18.7004 5.98001C18.5204 3.82001 17.4104 1.25 13.2004 1.25H6.8003C3.1803 1.25 1.2604 3.17001 1.2604 6.79001V10.79C1.2604 15 3.8303 16.1 5.9903 16.29C6.0203 16.29 6.0404 16.29 6.0604 16.29ZM17.0803 5.25H10.8104C7.1904 5.25 5.2703 7.17001 5.2703 10.79V14.66C3.5703 14.24 2.7703 12.99 2.7703 10.79V6.79001C2.7703 4.00001 4.0204 2.75 6.8104 2.75H13.2103C15.4103 2.75 16.6503 3.55 17.0803 5.25Z" fill="white"/>
</svg>
