<svg width="32" height="32" viewBox="0 0 32 32" fill="none" xmlns="http://www.w3.org/2000/svg">
<g filter="url(#filter0_b_1554_27396)">
<rect width="32" height="32" rx="16" fill="#662F90"/>
<path d="M8.36236 21.7928C7.88248 22.2727 7.87269 23.1247 8.37215 23.6242C8.88141 24.1236 9.73344 24.1138 10.2035 23.6438L16.0012 17.8461L21.7891 23.634C22.2788 24.1236 23.121 24.1236 23.6205 23.6242C24.12 23.1149 24.12 22.2825 23.6303 21.7928L17.8424 16.0049L23.6303 10.2072C24.12 9.71753 24.1298 8.8753 23.6205 8.37583C23.121 7.87637 22.2788 7.87637 21.7891 8.36604L16.0012 14.1539L10.2035 8.36604C9.73344 7.88616 8.87161 7.86657 8.37215 8.37583C7.87269 8.8753 7.88248 9.73712 8.36236 10.2072L14.1503 16.0049L8.36236 21.7928Z" fill="white"/>
</g>
<defs>
<filter id="filter0_b_1554_27396" x="-54.3656" y="-54.3656" width="140.731" height="140.731" filterUnits="userSpaceOnUse" color-interpolation-filters="sRGB">
<feFlood flood-opacity="0" result="BackgroundImageFix"/>
<feGaussianBlur in="BackgroundImageFix" stdDeviation="27.1828"/>
<feComposite in2="SourceAlpha" operator="in" result="effect1_backgroundBlur_1554_27396"/>
<feBlend mode="normal" in="SourceGraphic" in2="effect1_backgroundBlur_1554_27396" result="shape"/>
</filter>
</defs>
</svg>
