<svg width="18" height="18" viewBox="0 0 18 18" fill="none" xmlns="http://www.w3.org/2000/svg">
<path d="M12.5248 14.7969H5.47483C4.91983 14.7969 4.35733 14.3994 4.16983 13.8819L1.06483 5.18937C0.682329 4.09438 0.959829 3.59187 1.25983 3.36687C1.55983 3.14187 2.12233 3.00687 3.06733 3.68187L5.99233 5.77437C6.08233 5.82687 6.16483 5.84938 6.22483 5.83438C6.29233 5.81188 6.34483 5.75187 6.38233 5.64688L7.70233 2.12937C8.09983 1.07937 8.68483 0.921875 8.99983 0.921875C9.31483 0.921875 9.89983 1.07937 10.2973 2.12937L11.6173 5.64688C11.6548 5.74438 11.7073 5.81188 11.7748 5.83438C11.8423 5.85687 11.9248 5.83437 12.0073 5.76688L14.7523 3.80937C15.7573 3.08938 16.3423 3.23187 16.6648 3.46438C16.9798 3.70437 17.2723 4.23687 16.8598 5.39937L13.8298 13.8819C13.6423 14.3994 13.0798 14.7969 12.5248 14.7969Z" fill="#662F90"/>
<path d="M13.125 17.0625H4.875C4.5675 17.0625 4.3125 16.8075 4.3125 16.5C4.3125 16.1925 4.5675 15.9375 4.875 15.9375H13.125C13.4325 15.9375 13.6875 16.1925 13.6875 16.5C13.6875 16.8075 13.4325 17.0625 13.125 17.0625Z" fill="#662F90"/>
<path d="M10.875 11.0625H7.125C6.8175 11.0625 6.5625 10.8075 6.5625 10.5C6.5625 10.1925 6.8175 9.9375 7.125 9.9375H10.875C11.1825 9.9375 11.4375 10.1925 11.4375 10.5C11.4375 10.8075 11.1825 11.0625 10.875 11.0625Z" fill="#A66FD0"/>
</svg>
