<svg width="64" height="64" viewBox="0 0 64 64" fill="none" xmlns="http://www.w3.org/2000/svg">
<path d="M44.5332 52.6134H19.4665C17.4932 52.6134 15.4932 51.2 14.8265 49.36L3.7865 18.4534C2.4265 14.56 3.41317 12.7734 4.47983 11.9734C5.5465 11.1734 7.5465 10.6934 10.9065 13.0934L21.3065 20.5334C21.6265 20.72 21.9198 20.8 22.1332 20.7467C22.3732 20.6667 22.5598 20.4534 22.6932 20.08L27.3865 7.57336C28.7998 3.84003 30.8798 3.28003 31.9998 3.28003C33.1198 3.28003 35.1998 3.84003 36.6132 7.57336L41.3065 20.08C41.4398 20.4267 41.6265 20.6667 41.8665 20.7467C42.1065 20.8267 42.3998 20.7467 42.6932 20.5067L52.4532 13.5467C56.0265 10.9867 58.1065 11.4934 59.2532 12.32C60.3732 13.1734 61.4132 15.0667 59.9465 19.2L49.1732 49.36C48.5065 51.2 46.5065 52.6134 44.5332 52.6134ZM7.1465 15.4934C7.19983 15.8667 7.3065 16.4 7.57316 17.0934L18.6132 48C18.7198 48.2667 19.1998 48.6134 19.4665 48.6134H44.5332C44.8265 48.6134 45.3065 48.2667 45.3865 48L56.1598 17.8667C56.5332 16.8534 56.6398 16.16 56.6665 15.76C56.2665 15.8934 55.6532 16.1867 54.7732 16.8267L45.0132 23.7867C43.6798 24.72 42.1065 25.0134 40.6932 24.5867C39.2798 24.16 38.1332 23.04 37.5465 21.52L32.8532 9.01336C32.5065 8.08003 32.1865 7.6267 31.9998 7.41336C31.8132 7.6267 31.4932 8.08003 31.1465 8.9867L26.4532 21.4934C25.8932 23.0134 24.7465 24.1334 23.3065 24.56C21.8932 24.9867 20.2932 24.6934 18.9865 23.76L8.5865 16.32C7.97317 15.8934 7.49317 15.6267 7.1465 15.4934Z" fill="#BCB9BF"/>
<path d="M46.6667 60.6667H17.3333C16.24 60.6667 15.3333 59.7601 15.3333 58.6667C15.3333 57.5734 16.24 56.6667 17.3333 56.6667H46.6667C47.76 56.6667 48.6667 57.5734 48.6667 58.6667C48.6667 59.7601 47.76 60.6667 46.6667 60.6667Z" fill="#BCB9BF"/>
<path d="M38.6667 39.3333H25.3333C24.24 39.3333 23.3333 38.4266 23.3333 37.3333C23.3333 36.2399 24.24 35.3333 25.3333 35.3333H38.6667C39.76 35.3333 40.6667 36.2399 40.6667 37.3333C40.6667 38.4266 39.76 39.3333 38.6667 39.3333Z" fill="#BCB9BF"/>
</svg>
