<svg width="18" height="18" viewBox="0 0 18 18" fill="none" xmlns="http://www.w3.org/2000/svg">
<path d="M5.25 8.0625H3.75C1.935 8.0625 0.9375 7.065 0.9375 5.25V3.75C0.9375 1.935 1.935 0.9375 3.75 0.9375H5.25C7.065 0.9375 8.0625 1.935 8.0625 3.75V5.25C8.0625 7.065 7.065 8.0625 5.25 8.0625Z" fill="#662F90"/>
<path d="M14.25 8.0625H12.75C10.935 8.0625 9.9375 7.065 9.9375 5.25V3.75C9.9375 1.935 10.935 0.9375 12.75 0.9375H14.25C16.065 0.9375 17.0625 1.935 17.0625 3.75V5.25C17.0625 7.065 16.065 8.0625 14.25 8.0625Z" fill="#662F90"/>
<path d="M14.25 17.0625H12.75C10.935 17.0625 9.9375 16.065 9.9375 14.25V12.75C9.9375 10.935 10.935 9.9375 12.75 9.9375H14.25C16.065 9.9375 17.0625 10.935 17.0625 12.75V14.25C17.0625 16.065 16.065 17.0625 14.25 17.0625Z" fill="#662F90"/>
<path d="M5.25 17.0625H3.75C1.935 17.0625 0.9375 16.065 0.9375 14.25V12.75C0.9375 10.935 1.935 9.9375 3.75 9.9375H5.25C7.065 9.9375 8.0625 10.935 8.0625 12.75V14.25C8.0625 16.065 7.065 17.0625 5.25 17.0625Z" fill="#662F90"/>
</svg>
