<svg width="64" height="64" viewBox="0 0 64 64" fill="none" xmlns="http://www.w3.org/2000/svg">
<path d="M18.6667 28.6666H13.3333C6.88001 28.6666 3.33334 25.1199 3.33334 18.6666V13.3333C3.33334 6.87992 6.88001 3.33325 13.3333 3.33325H18.6667C25.12 3.33325 28.6667 6.87992 28.6667 13.3333V18.6666C28.6667 25.1199 25.12 28.6666 18.6667 28.6666ZM13.3333 7.33325C9.12001 7.33325 7.33334 9.11992 7.33334 13.3333V18.6666C7.33334 22.8799 9.12001 24.6666 13.3333 24.6666H18.6667C22.88 24.6666 24.6667 22.8799 24.6667 18.6666V13.3333C24.6667 9.11992 22.88 7.33325 18.6667 7.33325H13.3333Z" fill="#BCB9BF"/>
<path d="M50.6667 28.6666H45.3333C38.88 28.6666 35.3333 25.1199 35.3333 18.6666V13.3333C35.3333 6.87992 38.88 3.33325 45.3333 3.33325H50.6667C57.12 3.33325 60.6667 6.87992 60.6667 13.3333V18.6666C60.6667 25.1199 57.12 28.6666 50.6667 28.6666ZM45.3333 7.33325C41.12 7.33325 39.3333 9.11992 39.3333 13.3333V18.6666C39.3333 22.8799 41.12 24.6666 45.3333 24.6666H50.6667C54.88 24.6666 56.6667 22.8799 56.6667 18.6666V13.3333C56.6667 9.11992 54.88 7.33325 50.6667 7.33325H45.3333Z" fill="#BCB9BF"/>
<path d="M50.6667 60.6666H45.3333C38.88 60.6666 35.3333 57.1199 35.3333 50.6666V45.3333C35.3333 38.8799 38.88 35.3333 45.3333 35.3333H50.6667C57.12 35.3333 60.6667 38.8799 60.6667 45.3333V50.6666C60.6667 57.1199 57.12 60.6666 50.6667 60.6666ZM45.3333 39.3333C41.12 39.3333 39.3333 41.1199 39.3333 45.3333V50.6666C39.3333 54.8799 41.12 56.6666 45.3333 56.6666H50.6667C54.88 56.6666 56.6667 54.8799 56.6667 50.6666V45.3333C56.6667 41.1199 54.88 39.3333 50.6667 39.3333H45.3333Z" fill="#BCB9BF"/>
<path d="M18.6667 60.6666H13.3333C6.88001 60.6666 3.33334 57.1199 3.33334 50.6666V45.3333C3.33334 38.8799 6.88001 35.3333 13.3333 35.3333H18.6667C25.12 35.3333 28.6667 38.8799 28.6667 45.3333V50.6666C28.6667 57.1199 25.12 60.6666 18.6667 60.6666ZM13.3333 39.3333C9.12001 39.3333 7.33334 41.1199 7.33334 45.3333V50.6666C7.33334 54.8799 9.12001 56.6666 13.3333 56.6666H18.6667C22.88 56.6666 24.6667 54.8799 24.6667 50.6666V45.3333C24.6667 41.1199 22.88 39.3333 18.6667 39.3333H13.3333Z" fill="#BCB9BF"/>
</svg>
