<svg width="24" height="24" viewBox="0 0 24 24" fill="none" xmlns="http://www.w3.org/2000/svg">
<path d="M3.0003 6.72998C3.0203 6.72998 3.0503 6.72998 3.0803 6.72998C8.3703 6.19998 13.6503 5.99998 18.8803 6.52998L20.9203 6.72998C21.3403 6.76998 21.7103 6.46998 21.7503 6.04998C21.7903 5.62998 21.4903 5.26998 21.0803 5.22998L19.0403 5.02998C13.7203 4.48998 8.3303 4.69998 2.9303 5.22998C2.5203 5.26998 2.2203 5.63998 2.2603 6.04998C2.2903 6.43998 2.6203 6.72998 3.0003 6.72998Z" fill="#BCB9BF"/>
<path d="M15.4993 5.72C15.5393 5.72 15.5793 5.72 15.6293 5.71C16.0293 5.64 16.3093 5.25 16.2393 4.85L16.0193 3.54C15.8593 2.58 15.6393 1.25 13.3093 1.25H10.6893C8.3493 1.25 8.1293 2.63 7.9793 3.55L7.7593 4.85C7.6893 5.26 7.9693 5.65 8.3693 5.71C8.7793 5.78 9.1693 5.5 9.2293 5.1L9.4493 3.8C9.5893 2.93 9.6193 2.76 10.6793 2.76H13.2993C14.3593 2.76 14.3793 2.9 14.5293 3.79L14.7593 5.09C14.8193 5.46 15.1393 5.72 15.4993 5.72Z" fill="#BCB9BF"/>
<path d="M8.7896 22.7501H15.2096C18.6996 22.7501 18.8396 20.8201 18.9496 19.2601L19.5996 9.19007C19.6296 8.78007 19.3096 8.42008 18.8996 8.39008C18.4796 8.37008 18.1296 8.68008 18.0996 9.09008L17.4496 19.1601C17.3396 20.6801 17.2996 21.2501 15.2096 21.2501H8.7896C6.6896 21.2501 6.6496 20.6801 6.5496 19.1601L5.8996 9.09008C5.8696 8.68008 5.5096 8.37008 5.0996 8.39008C4.6896 8.42008 4.3696 8.77007 4.3996 9.19007L5.0496 19.2601C5.1596 20.8201 5.2996 22.7501 8.7896 22.7501Z" fill="#BCB9BF"/>
<path d="M10.3399 17.25H13.6699C14.0799 17.25 14.4199 16.91 14.4199 16.5C14.4199 16.09 14.0799 15.75 13.6699 15.75H10.3399C9.9299 15.75 9.5899 16.09 9.5899 16.5C9.5899 16.91 9.9299 17.25 10.3399 17.25Z" fill="#BCB9BF"/>
<path d="M9.5 13.25H14.5C14.91 13.25 15.25 12.91 15.25 12.5C15.25 12.09 14.91 11.75 14.5 11.75H9.5C9.09 11.75 8.75 12.09 8.75 12.5C8.75 12.91 9.09 13.25 9.5 13.25Z" fill="#BCB9BF"/>
</svg>
