<svg width="16" height="16" viewBox="0 0 16 16" fill="none" xmlns="http://www.w3.org/2000/svg">
<g clip-path="url(#clip0_1554_39492)">
<path d="M10 11.8335C10.0667 11.8335 10.1267 11.8202 10.1933 11.7935C10.38 11.7202 10.5 11.5335 10.5 11.3335V7.3335C10.5 7.06016 10.2733 6.8335 10 6.8335C9.72667 6.8335 9.5 7.06016 9.5 7.3335V10.1268L9.02 9.64683C8.82667 9.4535 8.50667 9.4535 8.31333 9.64683C8.12 9.84016 8.12 10.1602 8.31333 10.3535L9.64667 11.6868C9.74 11.7802 9.87333 11.8335 10 11.8335Z" fill="#662F90"/>
<path d="M10.0004 11.8331C10.127 11.8331 10.2537 11.7865 10.3537 11.6865L11.687 10.3531C11.8804 10.1598 11.8804 9.8398 11.687 9.64646C11.4937 9.45313 11.1737 9.45313 10.9804 9.64646L9.64703 10.9798C9.4537 11.1731 9.4537 11.4931 9.64703 11.6865C9.74703 11.7865 9.8737 11.8331 10.0004 11.8331Z" fill="#662F90"/>
<path d="M6.00008 15.1668H10.0001C13.6201 15.1668 15.1667 13.6202 15.1667 10.0002V6.00016C15.1667 2.38016 13.6201 0.833496 10.0001 0.833496H6.66675C6.39342 0.833496 6.16675 1.06016 6.16675 1.3335C6.16675 1.60683 6.39342 1.8335 6.66675 1.8335H10.0001C13.0734 1.8335 14.1667 2.92683 14.1667 6.00016V10.0002C14.1667 13.0735 13.0734 14.1668 10.0001 14.1668H6.00008C2.92675 14.1668 1.83342 13.0735 1.83342 10.0002V6.66683C1.83342 6.3935 1.60675 6.16683 1.33342 6.16683C1.06008 6.16683 0.833416 6.3935 0.833416 6.66683V10.0002C0.833416 13.6202 2.38008 15.1668 6.00008 15.1668Z" fill="#662F90"/>
<path d="M1.33341 7.16683H4.00008C6.28008 7.16683 7.16675 6.28015 7.16675 4.00015V1.33349C7.16675 1.13349 7.04675 0.946822 6.86008 0.873489C6.67341 0.793489 6.46008 0.840155 6.31341 0.980155L0.980081 6.31349C0.840081 6.45349 0.793414 6.6735 0.873414 6.86016C0.953414 7.04683 1.13341 7.16683 1.33341 7.16683ZM6.16675 2.54015V4.00015C6.16675 5.72015 5.72008 6.16682 4.00008 6.16682H2.54008L6.16675 2.54015Z" fill="#662F90"/>
</g>
<defs>
<clipPath id="clip0_1554_39492">
<rect width="16" height="16" fill="white" transform="matrix(-1 0 0 1 16 0)"/>
</clipPath>
</defs>
</svg>
