<svg width="16" height="16" viewBox="0 0 16 16" fill="none" xmlns="http://www.w3.org/2000/svg">
<path d="M2.94231 13.0628C2.51333 12.6339 2.37191 11.9645 2.55576 11.2244L2.81032 10.1967C2.9046 9.81957 3.18273 9.3246 3.45614 9.05118L9.57026 2.93707C10.5319 1.9754 12.097 1.9754 13.0586 2.93707C14.0203 3.89873 14.0203 5.4638 13.0587 6.42546L6.94925 12.5349C6.67583 12.8083 6.18086 13.0864 5.80374 13.1807L4.77607 13.4352C4.04068 13.6332 3.37129 13.4918 2.94231 13.0628ZM12.3563 3.64889C11.7859 3.07849 10.8525 3.07849 10.2821 3.64889L4.17268 9.75829C4.02654 9.90443 3.83798 10.2344 3.78612 10.4371L3.53157 11.4648C3.43257 11.856 3.47971 12.1766 3.65413 12.351C3.82855 12.5254 4.15382 12.5679 4.54037 12.4736L5.56803 12.219C5.77074 12.1672 6.10072 11.9786 6.24686 11.8325L12.3563 5.72307C12.9267 5.15267 12.9267 4.21929 12.3563 3.64889Z" fill="#121113"/>
<path d="M11.39 7.39647L8.60397 4.61046C8.41069 4.41719 8.41069 4.09663 8.60397 3.90336C8.79724 3.71008 9.1178 3.71008 9.31107 3.90336L12.0971 6.68936C12.2903 6.88263 12.2903 7.20319 12.0971 7.39647C11.9038 7.58974 11.5832 7.58974 11.39 7.39647Z" fill="#121113"/>
</svg>
