<svg width="16" height="17" viewBox="0 0 16 17" fill="none" xmlns="http://www.w3.org/2000/svg">
<path d="M4.66699 14.8216H11.3337C13.767 14.8216 15.167 13.4216 15.167 10.9883V6.32161C15.167 3.88828 13.767 2.48828 11.3337 2.48828H4.66699C2.23366 2.48828 0.83366 3.88828 0.83366 6.32161V10.9883C0.83366 13.4216 2.23366 14.8216 4.66699 14.8216ZM11.3337 3.48828C13.2403 3.48828 14.167 4.41495 14.167 6.32161V10.9883C14.167 12.8949 13.2403 13.8216 11.3337 13.8216H4.66699C2.76033 13.8216 1.83366 12.8949 1.83366 10.9883V6.32161C1.83366 4.41495 2.76033 3.48828 4.66699 3.48828H11.3337Z" fill="white"/>
<path d="M7.99982 9.23427C8.55982 9.23427 9.12649 9.06094 9.55982 8.70761L11.6465 7.04094C11.8598 6.86761 11.8998 6.55428 11.7265 6.34094C11.5532 6.12761 11.2398 6.08761 11.0265 6.26095L8.93983 7.92761C8.43316 8.33428 7.57316 8.33428 7.06649 7.92761L4.97982 6.26095C4.76649 6.08761 4.44649 6.12094 4.27982 6.34094C4.10649 6.55428 4.13982 6.87428 4.35982 7.04094L6.44649 8.70761C6.87315 9.06094 7.43982 9.23427 7.99982 9.23427Z" fill="white"/>
</svg>
