<svg width="25" height="24" viewBox="0 0 25 24" fill="none" xmlns="http://www.w3.org/2000/svg">
<path d="M14.9291 18.8211C14.7391 18.8211 14.5491 18.7511 14.3991 18.6011C14.1091 18.3111 14.1091 17.8311 14.3991 17.5411L19.9391 12.0011L14.3991 6.46109C14.1091 6.17109 14.1091 5.69109 14.3991 5.40109C14.6891 5.11109 15.1691 5.11109 15.4591 5.40109L21.5291 11.4711C21.8191 11.7611 21.8191 12.2411 21.5291 12.5311L15.4591 18.6011C15.3091 18.7511 15.1191 18.8211 14.9291 18.8211Z" fill="white"/>
<path d="M20.83 12.75H4C3.59 12.75 3.25 12.41 3.25 12C3.25 11.59 3.59 11.25 4 11.25H20.83C21.24 11.25 21.58 11.59 21.58 12C21.58 12.41 21.24 12.75 20.83 12.75Z" fill="white"/>
</svg>
