<svg width="16" height="17" viewBox="0 0 16 17" fill="none" xmlns="http://www.w3.org/2000/svg">
<path d="M15.0007 8.81001C15.0007 8.23446 14.953 7.81446 14.8499 7.37891H8.14355V9.97665H12.08C12.0007 10.6222 11.5721 11.5945 10.6197 12.2478L10.6064 12.3347L12.7268 13.9445L12.8737 13.9589C14.2229 12.7378 15.0007 10.9411 15.0007 8.81001Z" fill="#4285F4"/>
<path d="M8.14266 15.6547C10.0712 15.6547 11.6902 15.0324 12.8728 13.9591L10.6188 12.2479C10.0157 12.6602 9.20613 12.9479 8.14266 12.9479C6.25379 12.9479 4.65064 11.7269 4.07916 10.0391L3.99539 10.046L1.79055 11.7183L1.76172 11.7968C2.93631 14.0835 5.349 15.6547 8.14266 15.6547Z" fill="#34A853"/>
<path d="M4.08031 10.0393C3.92952 9.60371 3.84225 9.13701 3.84225 8.65482C3.84225 8.17256 3.92952 7.70591 4.07237 7.27037L4.06838 7.1776L1.8359 5.47852L1.76286 5.51256C1.27876 6.46146 1.00098 7.52704 1.00098 8.65482C1.00098 9.78259 1.27876 10.8481 1.76286 11.797L4.08031 10.0393Z" fill="#FBBC05"/>
<path d="M8.1427 4.36094C9.48395 4.36094 10.3887 4.92872 10.9046 5.4032L12.9205 3.4743C11.6824 2.34652 10.0712 1.6543 8.1427 1.6543C5.34902 1.6543 2.93631 3.2254 1.76172 5.51204L4.07124 7.26985C4.65066 5.58207 6.25382 4.36094 8.1427 4.36094Z" fill="#EB4335"/>
</svg>
