<svg width="16" height="16" viewBox="0 0 16 16" fill="none" xmlns="http://www.w3.org/2000/svg">
<g clip-path="url(#clip0_1554_32764)">
<path d="M7.99984 15.1673C11.9532 15.1673 15.1665 11.954 15.1665 8.00065C15.1665 4.04732 11.9532 0.833984 7.99984 0.833984C4.0465 0.833984 0.833172 4.04732 0.833172 8.00065C0.833172 11.954 4.0465 15.1673 7.99984 15.1673ZM7.99984 1.83398C11.3998 1.83398 14.1665 4.60065 14.1665 8.00065C14.1665 11.4007 11.3998 14.1673 7.99984 14.1673C4.59984 14.1673 1.83317 11.4007 1.83317 8.00065C1.83317 4.60065 4.59984 1.83398 7.99984 1.83398Z" fill="#121113"/>
<path d="M8 9.16732C8.27333 9.16732 8.5 8.94065 8.5 8.66732V5.33398C8.5 5.06065 8.27333 4.83398 8 4.83398C7.72667 4.83398 7.5 5.06065 7.5 5.33398V8.66732C7.5 8.94065 7.72667 9.16732 8 9.16732Z" fill="#121113"/>
<path d="M7.99984 11.3339C8.0865 11.3339 8.17317 11.3139 8.25317 11.2806C8.33317 11.2472 8.4065 11.2006 8.47317 11.1406C8.53317 11.0739 8.57984 11.0072 8.61317 10.9206C8.6465 10.8406 8.6665 10.7539 8.6665 10.6672C8.6665 10.5806 8.6465 10.4939 8.61317 10.4139C8.57984 10.3339 8.53317 10.2606 8.47317 10.1939C8.4065 10.1339 8.33317 10.0872 8.25317 10.0539C8.09317 9.98724 7.9065 9.98724 7.7465 10.0539C7.6665 10.0872 7.59317 10.1339 7.5265 10.1939C7.4665 10.2606 7.41984 10.3339 7.3865 10.4139C7.35317 10.4939 7.33317 10.5806 7.33317 10.6672C7.33317 10.7539 7.35317 10.8406 7.3865 10.9206C7.41984 11.0072 7.4665 11.0739 7.5265 11.1406C7.59317 11.2006 7.6665 11.2472 7.7465 11.2806C7.8265 11.3139 7.91317 11.3339 7.99984 11.3339Z" fill="#121113"/>
</g>
<defs>
<clipPath id="clip0_1554_32764">
<rect width="16" height="16" fill="white" transform="matrix(-1 0 0 1 16 0)"/>
</clipPath>
</defs>
</svg>
