<svg width="19" height="18" viewBox="0 0 19 18" fill="none" xmlns="http://www.w3.org/2000/svg">
<path d="M5.1575 17.0625H13.8425C15.8975 17.0625 17.5625 15.39 17.5625 13.3425V7.88248C17.5625 6.79498 16.865 5.45998 15.9725 4.83748L11.3375 1.58998C10.0775 0.70498 8.135 0.749981 6.92 1.69498L2.8775 4.84498C2.0675 5.47498 1.4375 6.75748 1.4375 7.77748V13.335C1.4375 15.39 3.1025 17.0625 5.1575 17.0625Z" fill="#662F90"/>
<path d="M9.5 14.0625C9.1925 14.0625 8.9375 13.8075 8.9375 13.5V11.25C8.9375 10.9425 9.1925 10.6875 9.5 10.6875C9.8075 10.6875 10.0625 10.9425 10.0625 11.25V13.5C10.0625 13.8075 9.8075 14.0625 9.5 14.0625Z" fill="#A66FD0"/>
</svg>
