<svg width="64" height="64" viewBox="0 0 64 64" xmlns="http://www.w3.org/2000/svg">
<path d="M47.44 60.6665H16.56C9.25331 60.6665 3.33331 54.7199 3.33331 47.4132V27.6532C3.33331 24.0265 5.57331 19.4665 8.45331 17.2265L22.8266 6.02652C27.1466 2.66652 34.0533 2.50652 38.5333 5.65318L55.0133 17.1999C58.1866 19.4132 60.6666 24.1599 60.6666 28.0265V47.4398C60.6666 54.7199 54.7466 60.6665 47.44 60.6665ZM25.28 9.17318L10.9066 20.3732C9.01331 21.8665 7.33331 25.2532 7.33331 27.6532V47.4132C7.33331 52.5065 11.4666 56.6665 16.56 56.6665H47.44C52.5333 56.6665 56.6666 52.5332 56.6666 47.4398V28.0265C56.6666 25.4665 54.8266 21.9198 52.72 20.4799L36.24 8.93318C33.2 6.79985 28.1866 6.90652 25.28 9.17318Z" fill="#BCB9BF"/>
<path d="M32 50C30.9067 50 30 49.0933 30 48V40C30 38.9067 30.9067 38 32 38C33.0933 38 34 38.9067 34 40V48C34 49.0933 33.0933 50 32 50Z" fill="#BCB9BF"/>
</svg>
