<svg width="16" height="16" viewBox="0 0 16 16" fill="none" xmlns="http://www.w3.org/2000/svg">
<path d="M8.00044 9.44676C6.58041 9.44676 5.42041 8.29343 5.42041 6.86676C5.42041 5.44012 6.58041 4.29346 8.00044 4.29346C9.42044 4.29346 10.5804 5.44679 10.5804 6.87343C10.5804 8.3001 9.42044 9.44676 8.00044 9.44676ZM8.00044 5.29346C7.13377 5.29346 6.42041 6.00012 6.42041 6.87343C6.42041 7.74676 7.1271 8.45343 8.00044 8.45343C8.87377 8.45343 9.58044 7.74676 9.58044 6.87343C9.58044 6.00012 8.8671 5.29346 8.00044 5.29346Z" fill="#121113"/>
<path d="M7.99964 15.1735C7.01297 15.1735 6.01963 14.8002 5.2463 14.0602C3.27963 12.1668 1.1063 9.14683 1.9263 5.5535C2.6663 2.2935 5.51296 0.833496 7.99964 0.833496C7.99964 0.833496 7.99964 0.833496 8.0063 0.833496C10.493 0.833496 13.3396 2.2935 14.0796 5.56016C14.893 9.1535 12.7196 12.1668 10.753 14.0602C9.97964 14.8002 8.9863 15.1735 7.99964 15.1735ZM7.99964 1.8335C6.05963 1.8335 3.5663 2.86683 2.9063 5.7735C2.1863 8.9135 4.15963 11.6202 5.9463 13.3335C7.09964 14.4468 8.9063 14.4468 10.0596 13.3335C11.8396 11.6202 13.813 8.9135 13.1063 5.7735C12.4396 2.86683 9.93964 1.8335 7.99964 1.8335Z" fill="#121113"/>
</svg>
