<svg width="16" height="16" viewBox="0 0 16 16" fill="none" xmlns="http://www.w3.org/2000/svg">
<g clip-path="url(#clip0_1554_23853)">
<path d="M10.0002 15.1668H6.00016C2.38016 15.1668 0.833496 13.6202 0.833496 10.0002V6.00016C0.833496 2.38016 2.38016 0.833496 6.00016 0.833496H10.0002C13.6202 0.833496 15.1668 2.38016 15.1668 6.00016V10.0002C15.1668 13.6202 13.6202 15.1668 10.0002 15.1668ZM6.00016 1.8335C2.92683 1.8335 1.8335 2.92683 1.8335 6.00016V10.0002C1.8335 13.0735 2.92683 14.1668 6.00016 14.1668H10.0002C13.0735 14.1668 14.1668 13.0735 14.1668 10.0002V6.00016C14.1668 2.92683 13.0735 1.8335 10.0002 1.8335H6.00016Z" fill="#121113"/>
<path d="M5.87964 6.4998C5.31297 6.4998 4.7463 6.28646 4.31297 5.85313C4.11964 5.6598 4.11964 5.3398 4.31297 5.14646C4.5063 4.95313 4.8263 4.95313 5.01964 5.14646C5.49297 5.6198 6.2663 5.6198 6.73967 5.14646C6.933 4.95313 7.253 4.95313 7.44634 5.14646C7.63967 5.3398 7.63967 5.6598 7.44634 5.85313C7.013 6.2798 6.4463 6.4998 5.87964 6.4998Z" fill="#121113"/>
<path d="M10.1204 6.4998C9.55369 6.4998 8.98702 6.28646 8.55369 5.85313C8.36036 5.6598 8.36036 5.3398 8.55369 5.14646C8.74702 4.95313 9.06703 4.95313 9.26036 5.14646C9.73369 5.6198 10.507 5.6198 10.9804 5.14646C11.1737 4.95313 11.4937 4.95313 11.687 5.14646C11.8804 5.3398 11.8804 5.6598 11.687 5.85313C11.2537 6.2798 10.687 6.4998 10.1204 6.4998Z" fill="#121113"/>
<path d="M8 12.7665C6.06667 12.7665 4.5 11.1932 4.5 9.2665C4.5 8.65984 4.99333 8.1665 5.6 8.1665H10.4C11.0067 8.1665 11.5 8.65984 11.5 9.2665C11.5 11.1932 9.93333 12.7665 8 12.7665ZM5.6 9.1665C5.54667 9.1665 5.5 9.21317 5.5 9.2665C5.5 10.6465 6.62 11.7665 8 11.7665C9.38 11.7665 10.5 10.6465 10.5 9.2665C10.5 9.21317 10.4533 9.1665 10.4 9.1665H5.6Z" fill="#121113"/>
</g>
<defs>
<clipPath id="clip0_1554_23853">
<rect width="16" height="16" fill="white"/>
</clipPath>
</defs>
</svg>
