<svg width="19" height="18" viewBox="0 0 19 18" fill="none" xmlns="http://www.w3.org/2000/svg">
<path d="M9.48537 17.1074C10.2279 17.1074 10.9479 16.8074 11.4729 16.2824C11.9979 15.7574 12.2979 15.0374 12.2979 14.2949H11.1729C11.1729 14.7374 10.9929 15.1724 10.6779 15.4874C10.3629 15.8024 9.92787 15.9824 9.48537 15.9824C8.55537 15.9824 7.79787 15.2249 7.79787 14.2949H6.67287C6.67287 15.8474 7.93287 17.1074 9.48537 17.1074Z" fill="#A66FD0"/>
<path d="M14.6376 14.5644C12.9801 15.1194 11.2326 15.3969 9.48508 15.3969C7.73758 15.3969 5.99008 15.1194 4.34008 14.5644C3.74758 14.3694 3.27508 13.9194 3.05758 13.3269C2.84008 12.7344 2.90007 12.0819 3.22258 11.5419L4.07757 10.1169C4.25758 9.80944 4.42258 9.20194 4.42258 8.85694V6.68945C4.42258 3.89945 6.69508 1.62695 9.48508 1.62695C12.2751 1.62695 14.5476 3.89945 14.5476 6.68945V8.85694C14.5476 9.20944 14.7126 9.80944 14.8926 10.1094L15.7551 11.5419C16.1001 12.1119 16.1751 12.7494 15.9576 13.3269C15.7476 13.9044 15.2676 14.3469 14.6376 14.5644Z" fill="#662F90"/>
<path d="M8.09006 2.95477C8.14256 2.95477 8.19506 2.94727 8.24756 2.93227C8.46506 2.87227 8.67506 2.82727 8.87756 2.79727C9.51506 2.71477 10.1301 2.75977 10.7076 2.93227C10.9176 2.99977 11.1425 2.93227 11.285 2.77477C11.4275 2.61727 11.4725 2.39227 11.39 2.18977C11.0825 1.40227 10.3326 0.884766 9.47756 0.884766C8.62256 0.884766 7.87256 1.39477 7.56506 2.18977C7.49006 2.39227 7.52756 2.61727 7.67006 2.77477C7.78256 2.89477 7.94006 2.95477 8.09006 2.95477Z" fill="#662F90"/>
</svg>
