<svg width="64" height="64" viewBox="0 0 64 64" fill="none" xmlns="http://www.w3.org/2000/svg">
<path d="M32.0531 54.7464C25.8396 54.7464 19.6263 53.7598 13.733 51.7864C11.493 51.0131 9.78631 49.4398 9.03964 47.3864C8.26631 45.3331 8.53297 43.0664 9.75964 41.0398L12.8263 35.9464C13.4663 34.8798 14.053 32.7464 14.053 31.4931V23.7865C14.053 13.8665 22.133 5.7865 32.0531 5.7865C41.9731 5.7865 50.0531 13.8665 50.0531 23.7865V31.4931C50.0531 32.7198 50.6397 34.8798 51.2797 35.9731L54.3197 41.0398C55.4664 42.9598 55.6797 45.2798 54.9064 47.3864C54.1331 49.4931 52.4531 51.0931 50.3464 51.7864C44.4797 53.7598 38.2664 54.7464 32.0531 54.7464ZM32.0531 9.7865C24.3463 9.7865 18.053 16.0532 18.053 23.7865V31.4931C18.053 33.4398 17.253 36.3198 16.2663 37.9998L13.1996 43.0931C12.613 44.0798 12.453 45.1198 12.7996 45.9998C13.1196 46.9064 13.9196 47.5998 15.013 47.9731C26.1596 51.7064 37.9731 51.7064 49.1197 47.9731C50.0797 47.6531 50.8264 46.9331 51.1731 45.9731C51.5197 45.0131 51.4397 43.9731 50.9064 43.0931L47.8397 37.9998C46.8264 36.2664 46.0531 33.4131 46.0531 31.4664V23.7865C46.0531 16.0532 39.7864 9.7865 32.0531 9.7865Z" fill="#BCB9BF"/>
<path d="M37.0123 10.5071C36.8256 10.5071 36.6389 10.4804 36.4523 10.4271C35.6789 10.2138 34.9323 10.0538 34.2123 9.9471C31.9456 9.65376 29.7589 9.81376 27.7056 10.4271C26.9589 10.6671 26.159 10.4271 25.6523 9.86709C25.1457 9.3071 24.9857 8.5071 25.279 7.7871C26.3723 4.9871 29.0389 3.14709 32.0789 3.14709C35.1189 3.14709 37.7856 4.96043 38.8789 7.7871C39.1456 8.5071 39.0123 9.3071 38.5056 9.86709C38.1056 10.2938 37.5456 10.5071 37.0123 10.5071Z" fill="#BCB9BF"/>
<path d="M32.052 60.8269C29.412 60.8269 26.852 59.7602 24.9854 57.8936C23.1188 56.0269 22.0521 53.4669 22.0521 50.8269H26.0521C26.0521 52.4002 26.692 53.9469 27.812 55.0669C28.932 56.1869 30.4787 56.8269 32.052 56.8269C35.3587 56.8269 38.052 54.1336 38.052 50.8269H42.052C42.052 56.3469 37.572 60.8269 32.052 60.8269Z" fill="#BCB9BF"/>
</svg>
