<svg width="16" height="16" viewBox="0 0 16 16" fill="none" xmlns="http://www.w3.org/2000/svg">
<g clip-path="url(#clip0_1554_41362)">
<path d="M5.99992 14.6668H9.99992C13.3333 14.6668 14.6666 13.3335 14.6666 10.0002V6.00016C14.6666 2.66683 13.3333 1.3335 9.99992 1.3335H5.99992C2.66659 1.3335 1.33325 2.66683 1.33325 6.00016V10.0002C1.33325 13.3335 2.66659 14.6668 5.99992 14.6668Z" stroke="#662F90" stroke-linecap="round" stroke-linejoin="round"/>
<path d="M6.00008 6.66667C6.73648 6.66667 7.33341 6.06971 7.33341 5.33333C7.33341 4.59695 6.73648 4 6.00008 4C5.2637 4 4.66675 4.59695 4.66675 5.33333C4.66675 6.06971 5.2637 6.66667 6.00008 6.66667Z" stroke="#662F90" stroke-linecap="round" stroke-linejoin="round"/>
<path d="M1.78003 12.6335L5.0667 10.4269C5.59336 10.0735 6.35336 10.1135 6.82667 10.5202L7.04667 10.7135C7.56667 11.1602 8.40667 11.1602 8.92667 10.7135L11.7 8.33354C12.22 7.88687 13.06 7.88687 13.58 8.33354L14.6667 9.26687" stroke="#662F90" stroke-linecap="round" stroke-linejoin="round"/>
</g>
<defs>
<clipPath id="clip0_1554_41362">
<rect width="16" height="16" fill="white"/>
</clipPath>
</defs>
</svg>
