<svg width="25" height="25" viewBox="0 0 25 25" fill="none" xmlns="http://www.w3.org/2000/svg">
<path d="M10.6279 10.2125L11.7379 10.2125C12.1679 10.2125 12.3779 9.8925 12.2079 9.5025L10.0479 4.4925C9.70787 3.7025 10.1279 3.0625 10.9779 3.0625L12.2979 3.0625C12.9779 3.0625 13.7679 3.5725 14.0279 4.2025L16.4779 9.9025C16.5579 10.0625 16.7679 10.2025 16.9479 10.2025L20.0079 10.2025C20.9679 10.2025 22.1179 10.9125 22.5579 11.7625C22.7079 12.0625 22.7079 12.4225 22.5579 12.7225C22.1179 13.5824 20.9779 14.2924 20.0179 14.2924L16.9579 14.2924C16.7779 14.2924 16.5679 14.4325 16.4879 14.5924L16.0479 15.6324L10.6279 10.2125Z" fill="#662F90"/>
<path d="M12.2979 21.4412L10.9779 21.4412C10.1279 21.4412 9.70787 20.8012 10.0479 20.0112L12.2079 15.0012C12.3679 14.6012 12.1679 14.2912 11.7379 14.2912L8.82787 14.2912C8.59787 14.2912 8.26787 14.4212 8.10787 14.5912L5.77787 16.9112C5.53787 17.1512 5.05787 17.2612 4.72787 17.1512L3.36787 16.7012C2.77787 16.5012 2.50787 15.8312 2.77787 15.2812L4.77787 12.9012C5.08787 12.5412 5.08787 11.9512 4.77787 11.5912L2.77787 9.21114C2.49787 8.66114 2.77787 7.99114 3.36787 7.81114L4.72787 7.36114C5.06787 7.25114 5.53787 7.36114 5.77787 7.60114L8.10787 9.92114C8.26787 10.0811 8.59787 10.2111 8.82787 10.2111L10.6279 10.2111L16.0479 15.6312L14.0379 20.3012C13.7679 20.9312 12.9779 21.4412 12.2979 21.4412Z" fill="#662F90"/>
</svg>
