<svg width="16" height="16" viewBox="0 0 16 16" fill="none" xmlns="http://www.w3.org/2000/svg">
<g clip-path="url(#clip0_1554_32767)">
<path d="M4.22644 15.1142C4.57977 15.1142 5.0331 15.0009 5.59977 14.6675L7.59311 13.4875C7.79977 13.3675 8.19977 13.3675 8.39977 13.4875L10.3998 14.6675C11.5798 15.3675 12.2731 15.0875 12.5864 14.8609C12.8931 14.6342 13.3731 14.0542 13.0598 12.7209L12.5864 10.6742C12.5331 10.4609 12.6398 10.0942 12.7998 9.93421L14.4531 8.28088C15.2798 7.45421 15.2131 6.74755 15.0998 6.40086C14.9864 6.05419 14.6264 5.44086 13.4798 5.24753L11.3531 4.89419C11.1531 4.86086 10.8664 4.64753 10.7798 4.46753L9.59976 2.11419C9.06644 1.04086 8.36644 0.880859 7.99977 0.880859C7.6331 0.880859 6.93311 1.04086 6.39977 2.11419L5.22644 4.46086C5.1331 4.64086 4.84644 4.85419 4.64644 4.88753L2.51977 5.24086C1.36644 5.43419 1.00644 6.04753 0.899771 6.39419C0.793104 6.74088 0.726439 7.44755 1.54644 8.27421L3.19977 9.93421C3.35977 10.0942 3.45977 10.4542 3.41311 10.6742L2.93977 12.7209C2.63311 14.0542 3.10644 14.6342 3.41311 14.8609C3.57977 14.9809 3.84644 15.1142 4.22644 15.1142ZM7.99977 12.3942C7.6731 12.3942 7.34644 12.4742 7.08644 12.6275L5.09311 13.8075C4.51311 14.1542 4.14644 14.1542 4.00644 14.0542C3.86644 13.9542 3.76644 13.6009 3.91311 12.9475L4.38644 10.9009C4.51311 10.3475 4.30644 9.63421 3.90644 9.22755L2.25311 7.57421C1.92644 7.24755 1.77977 6.92755 1.84644 6.70755C1.91977 6.48753 2.22644 6.30753 2.67977 6.23419L4.80644 5.88086C5.31977 5.79419 5.87977 5.38086 6.1131 4.91419L7.28644 2.56753C7.49977 2.14086 7.76644 1.88753 7.99977 1.88753C8.2331 1.88753 8.49977 2.14086 8.70644 2.56753L9.88643 4.91419C10.1198 5.38086 10.6798 5.79419 11.1931 5.88086L13.3131 6.23419C13.7664 6.30753 14.0731 6.48753 14.1464 6.70755C14.2198 6.92755 14.0664 7.25421 13.7398 7.57421L12.0864 9.22755C11.6864 9.62755 11.4798 10.3475 11.6064 10.9009L12.0798 12.9475C12.2331 13.6075 12.1264 13.9542 11.9864 14.0542C11.8464 14.1542 11.4864 14.1475 10.8998 13.8075L8.90644 12.6275C8.65311 12.4742 8.32644 12.3942 7.99977 12.3942Z" fill="#121113"/>
</g>
<defs>
<clipPath id="clip0_1554_32767">
<rect width="16" height="16" fill="white" transform="matrix(-1 0 0 1 16 0)"/>
</clipPath>
</defs>
</svg>
