<svg width="16" height="16" viewBox="0 0 16 16" fill="none" xmlns="http://www.w3.org/2000/svg">
<g clip-path="url(#clip0_1554_32770)">
<path d="M2.25341 8.71291C2.50674 8.71291 2.72008 8.51958 2.75341 8.26625C2.91341 6.75958 3.72674 5.39291 4.98008 4.52625C5.20674 4.36625 5.26008 4.05958 5.10674 3.83291C4.94674 3.60625 4.63341 3.55291 4.41341 3.70625C2.92007 4.73958 1.96008 6.36625 1.76674 8.15958C1.74008 8.43291 1.93341 8.67958 2.21341 8.71291C2.22008 8.71291 2.24008 8.71291 2.25341 8.71291Z" fill="#121113"/>
<path d="M13.6734 8.74618C13.6934 8.74618 13.7067 8.74618 13.7267 8.74618C14.0001 8.71285 14.2001 8.46618 14.1734 8.19285C13.9934 6.39952 13.0401 4.77952 11.5667 3.73285C11.3401 3.57285 11.0267 3.62619 10.8667 3.85285C10.7067 4.07952 10.7601 4.39285 10.9867 4.55285C12.2267 5.42619 13.0267 6.79285 13.1801 8.29951C13.2001 8.55285 13.4201 8.74618 13.6734 8.74618Z" fill="#121113"/>
<path d="M7.95984 15.074C8.94651 15.074 9.88653 14.8473 10.7665 14.4073C11.0132 14.2806 11.1132 13.9806 10.9865 13.734C10.8599 13.4873 10.5599 13.3873 10.3132 13.514C8.87317 14.2406 7.13984 14.254 5.68651 13.554C5.43984 13.434 5.13984 13.5406 5.01984 13.7873C4.89984 14.034 5.00651 14.334 5.25317 14.454C6.10651 14.8673 7.01317 15.074 7.95984 15.074Z" fill="#121113"/>
<path d="M7.96063 5.62659C9.26063 5.62659 10.314 4.57326 10.314 3.27326C10.314 1.97326 9.26063 0.919922 7.96063 0.919922C6.66063 0.919922 5.6073 1.97326 5.6073 3.27326C5.6073 4.57326 6.6673 5.62659 7.96063 5.62659ZM7.96063 1.92659C8.7073 1.92659 9.31396 2.53326 9.31396 3.27992C9.31396 4.02659 8.7073 4.63326 7.96063 4.63326C7.21396 4.63326 6.6073 4.02659 6.6073 3.27992C6.6073 2.53326 7.22063 1.92659 7.96063 1.92659Z" fill="#121113"/>
<path d="M12.7795 13.7809C14.0795 13.7809 15.1328 12.7276 15.1328 11.4276C15.1328 10.1342 14.0795 9.07422 12.7795 9.07422C11.4795 9.07422 10.4261 10.1276 10.4261 11.4276C10.4261 12.7209 11.4795 13.7809 12.7795 13.7809ZM12.7795 10.0742C13.5261 10.0742 14.1328 10.6809 14.1328 11.4276C14.1328 12.1742 13.5261 12.7809 12.7795 12.7809C12.0328 12.7809 11.4261 12.1742 11.4261 11.4276C11.4261 10.6809 12.0328 10.0742 12.7795 10.0742Z" fill="#121113"/>
<path d="M3.21942 13.7809C4.51942 13.7809 5.57275 12.7276 5.57275 11.4276C5.57275 10.1342 4.51942 9.07422 3.21942 9.07422C1.91942 9.07422 0.866087 10.1276 0.866087 11.4276C0.872754 12.7209 1.92609 13.7809 3.21942 13.7809ZM3.21942 10.0742C3.96609 10.0742 4.57275 10.6809 4.57275 11.4276C4.57275 12.1742 3.96609 12.7809 3.21942 12.7809C2.47275 12.7809 1.86609 12.1742 1.86609 11.4276C1.87275 10.6809 2.47275 10.0742 3.21942 10.0742Z" fill="#121113"/>
</g>
<defs>
<clipPath id="clip0_1554_32770">
<rect width="16" height="16" fill="white" transform="matrix(-1 0 0 1 16 0)"/>
</clipPath>
</defs>
</svg>
