<svg width="16" height="16" viewBox="0 0 16 16" fill="none" xmlns="http://www.w3.org/2000/svg">
<g clip-path="url(#clip0_1554_32774)">
<path d="M7.8999 12.9C8.17324 12.9 8.3999 12.6733 8.3999 12.4V11C8.3999 10.7267 8.17324 10.5 7.8999 10.5C7.62657 10.5 7.3999 10.7267 7.3999 11V12.4C7.3999 12.6733 7.62657 12.9 7.8999 12.9Z" fill="#121113"/>
<path d="M4.06624 15.166H11.7329V13.9993C11.7329 12.986 10.9129 12.166 9.89958 12.166H5.89957C4.88624 12.166 4.06624 12.986 4.06624 13.9993V15.166ZM10.7329 14.166H5.06624V13.9993C5.06624 13.5393 5.43957 13.166 5.89957 13.166H9.89958C10.3596 13.166 10.7329 13.5393 10.7329 13.9993V14.166Z" fill="#121113"/>
<path d="M3.8999 15.166H11.8999C12.1732 15.166 12.3999 14.9393 12.3999 14.666C12.3999 14.3927 12.1732 14.166 11.8999 14.166H3.8999C3.62656 14.166 3.3999 14.3927 3.3999 14.666C3.3999 14.9393 3.62656 15.166 3.8999 15.166Z" fill="#121113"/>
<path d="M3.71303 8.29307C3.85303 8.29307 3.99303 8.23307 4.09303 8.11974C4.2197 7.97307 4.25303 7.76641 4.17303 7.59307C3.94637 7.07307 3.83303 6.51971 3.83303 5.93971V3.93971C3.83303 3.70638 3.87303 3.47971 3.95303 3.23971C3.9597 3.21971 3.96637 3.19305 3.97303 3.16638C3.99303 3.06638 3.9997 2.96638 3.9997 2.87305C3.9997 2.59971 3.77303 2.37305 3.4997 2.37305H3.0997C1.90637 2.37305 0.933032 3.37305 0.933032 4.60638C0.933032 5.62638 1.35303 6.63305 2.0797 7.35974C2.09303 7.37307 2.13303 7.40641 2.1397 7.41307C2.53303 7.73974 2.9797 8.10641 3.5797 8.27307C3.62637 8.28641 3.66637 8.29307 3.71303 8.29307ZM2.8797 3.39305C2.84637 3.57305 2.83303 3.75971 2.83303 3.93971V5.93971C2.83303 6.21305 2.85303 6.47305 2.89303 6.73974C2.85303 6.70641 2.8197 6.67974 2.7797 6.64638C2.24637 6.11305 1.93303 5.36638 1.93303 4.60638C1.93303 4.00638 2.3397 3.49971 2.8797 3.39305Z" fill="#121113"/>
<path d="M12.2797 8.26706C12.3331 8.26706 12.3797 8.26039 12.4331 8.24039C12.9797 8.06706 13.4931 7.74706 13.9197 7.32039C14.6864 6.47372 15.0664 5.54706 15.0664 4.56706C15.0664 3.35372 14.1131 2.40039 12.8997 2.40039H12.4664C12.2997 2.40039 12.1397 2.48706 12.0464 2.62706C11.9531 2.76706 11.9397 2.94706 12.0064 3.10039C12.1131 3.34039 12.1664 3.61372 12.1664 3.90039V5.90039C12.1664 6.47372 12.0531 7.03372 11.8197 7.56706C11.7397 7.74706 11.7797 7.95372 11.9064 8.10039C12.0064 8.20706 12.1397 8.26706 12.2797 8.26706ZM13.1331 3.42039C13.6731 3.52706 14.0664 3.99372 14.0664 4.56706C14.0664 5.29372 13.7731 5.99372 13.1931 6.63372C13.1664 6.66706 13.1331 6.69372 13.0997 6.72039C13.1464 6.44706 13.1664 6.17372 13.1664 5.90039V3.90039C13.1664 3.74039 13.1531 3.58039 13.1331 3.42039Z" fill="#121113"/>
<path d="M7.99984 11.1673C10.8465 11.1673 13.1665 8.84732 13.1665 6.00065V4.00065C13.1665 2.25398 11.7465 0.833984 9.99984 0.833984H5.99984C4.25317 0.833984 2.83317 2.25398 2.83317 4.00065V6.00065C2.83317 8.84732 5.15317 11.1673 7.99984 11.1673ZM9.99984 1.83398C11.1932 1.83398 12.1665 2.80732 12.1665 4.00065V6.00065C12.1665 8.30065 10.2998 10.1673 7.99984 10.1673C5.69984 10.1673 3.83317 8.30065 3.83317 6.00065V4.00065C3.83317 2.80732 4.8065 1.83398 5.99984 1.83398H9.99984Z" fill="#121113"/>
</g>
<defs>
<clipPath id="clip0_1554_32774">
<rect width="16" height="16" fill="white" transform="matrix(-1 0 0 1 16 0)"/>
</clipPath>
</defs>
</svg>
