<svg width="64" height="64" viewBox="0 0 64 64" fill="none" xmlns="http://www.w3.org/2000/svg">
<path d="M40 60.6666H24C9.51998 60.6666 3.33331 54.4799 3.33331 39.9999V23.9999C3.33331 9.51992 9.51998 3.33325 24 3.33325H37.3333C38.4266 3.33325 39.3333 4.23992 39.3333 5.33325C39.3333 6.42659 38.4266 7.33325 37.3333 7.33325H24C11.7066 7.33325 7.33331 11.7066 7.33331 23.9999V39.9999C7.33331 52.2933 11.7066 56.6666 24 56.6666H40C52.2933 56.6666 56.6666 52.2933 56.6666 39.9999V26.6666C56.6666 25.5732 57.5733 24.6666 58.6666 24.6666C59.76 24.6666 60.6666 25.5732 60.6666 26.6666V39.9999C60.6666 54.4799 54.48 60.6666 40 60.6666Z" fill="#BCB9BF"/>
<path d="M58.6666 28.6666H48C38.88 28.6666 35.3333 25.1199 35.3333 15.9999V5.33322C35.3333 4.53322 35.8133 3.78656 36.56 3.49322C37.3066 3.17322 38.16 3.35989 38.7466 3.91989L60.08 25.2532C60.64 25.8132 60.8266 26.6932 60.5066 27.4399C60.1866 28.1866 59.4666 28.6666 58.6666 28.6666ZM39.3333 10.1599V15.9999C39.3333 22.8799 41.12 24.6666 48 24.6666H53.84L39.3333 10.1599Z" fill="#BCB9BF"/>
<path d="M34.6667 36.6667H18.6667C17.5734 36.6667 16.6667 35.7601 16.6667 34.6667C16.6667 33.5734 17.5734 32.6667 18.6667 32.6667H34.6667C35.76 32.6667 36.6667 33.5734 36.6667 34.6667C36.6667 35.7601 35.76 36.6667 34.6667 36.6667Z" fill="#BCB9BF"/>
<path d="M29.3334 47.3333H18.6667C17.5734 47.3333 16.6667 46.4266 16.6667 45.3333C16.6667 44.2399 17.5734 43.3333 18.6667 43.3333H29.3334C30.4267 43.3333 31.3334 44.2399 31.3334 45.3333C31.3334 46.4266 30.4267 47.3333 29.3334 47.3333Z" fill="#BCB9BF"/>
</svg>
