<svg width="17" height="17" viewBox="0 0 17 17" fill="none" xmlns="http://www.w3.org/2000/svg">
<path d="M8.49998 15.1419C12.1818 15.1419 15.1666 12.1571 15.1666 8.47526C15.1666 4.79336 12.1818 1.80859 8.49998 1.80859C4.81808 1.80859 1.83331 4.79336 1.83331 8.47526C1.83331 12.1571 4.81808 15.1419 8.49998 15.1419Z" stroke="white" stroke-width="1.5" stroke-linecap="round" stroke-linejoin="round"/>
<path d="M5.8333 2.47461H6.49996C5.19996 6.36794 5.19996 10.5813 6.49996 14.4746H5.8333" stroke="white" stroke-width="1.5" stroke-linecap="round" stroke-linejoin="round"/>
<path d="M10.5 2.47461C11.8 6.36794 11.8 10.5813 10.5 14.4746" stroke="white" stroke-width="1.5" stroke-linecap="round" stroke-linejoin="round"/>
<path d="M2.5 11.1413V10.4746C6.39333 11.7746 10.6067 11.7746 14.5 10.4746V11.1413" stroke="white" stroke-width="1.5" stroke-linecap="round" stroke-linejoin="round"/>
<path d="M2.5 6.475C6.39333 5.175 10.6067 5.175 14.5 6.475" stroke="white" stroke-width="1.5" stroke-linecap="round" stroke-linejoin="round"/>
</svg>
